
    <svg width="54.623046875" height="22" viewBox="0 0 54.623046875 22" fill="red" xmlns="http://www.w3.org/2000/svg">
        <path d="M0 11C0 4.92487 4.92487 0 11 0H43.623046875C49.698176875 0 54.623046875 4.92487 54.623046875 11C54.623046875 17.0751 49.698176875 22 43.623046875 22H11C4.92487 22 0 17.0751 0 11Z" fill="#58A6FF" fill-opacity="0.2"/>
        <path fill="#58A6FF" d="M14.85 15.79L13.52 15.79Q13.41 15.57 13.35 15.01L13.35 15.01Q12.46 15.92 11.24 15.92L11.24 15.92Q10.15 15.92 9.45 15.30Q8.75 14.68 8.75 13.73L8.75 13.73Q8.75 12.58 9.62 11.94Q10.50 11.30 12.09 11.30L12.09 11.30L13.33 11.30L13.33 10.72Q13.33 10.06 12.93 9.66Q12.53 9.27 11.76 9.27L11.76 9.27Q11.08 9.27 10.63 9.61Q10.17 9.95 10.17 10.44L10.17 10.44L8.90 10.44Q8.90 9.89 9.29 9.37Q9.68 8.85 10.35 8.55Q11.03 8.25 11.83 8.25L11.83 8.25Q13.11 8.25 13.84 8.89Q14.56 9.53 14.59 10.65L14.59 10.65L14.59 14.06Q14.59 15.07 14.85 15.68L14.85 15.68L14.85 15.79ZM11.42 14.82L11.42 14.82Q12.02 14.82 12.55 14.51Q13.09 14.21 13.33 13.71L13.33 13.71L13.33 12.20L12.33 12.20Q10.01 12.20 10.01 13.56L10.01 13.56Q10.01 14.15 10.41 14.49Q10.80 14.82 11.42 14.82ZM19.54 14.89L19.54 14.89Q20.22 14.89 20.72 14.48Q21.23 14.07 21.28 13.45L21.28 13.45L22.48 13.45Q22.44 14.09 22.04 14.66Q21.64 15.24 20.96 15.58Q20.29 15.92 19.54 15.92L19.54 15.92Q18.03 15.92 17.14 14.91Q16.24 13.91 16.24 12.16L16.24 12.16L16.24 11.94Q16.24 10.86 16.64 10.02Q17.04 9.18 17.78 8.72Q18.52 8.25 19.53 8.25L19.53 8.25Q20.78 8.25 21.60 9.00Q22.42 9.74 22.48 10.93L22.48 10.93L21.28 10.93Q21.23 10.21 20.74 9.75Q20.25 9.29 19.53 9.29L19.53 9.29Q18.57 9.29 18.04 9.98Q17.51 10.68 17.51 11.99L17.51 11.99L17.51 12.23Q17.51 13.51 18.04 14.20Q18.56 14.89 19.54 14.89ZM24.35 6.60L25.62 6.60L25.62 8.39L27.00 8.39L27.00 9.37L25.62 9.37L25.62 13.95Q25.62 14.40 25.80 14.62Q25.99 14.84 26.43 14.84L26.43 14.84Q26.65 14.84 27.03 14.76L27.03 14.76L27.03 15.79Q26.53 15.92 26.06 15.92L26.06 15.92Q25.21 15.92 24.78 15.41Q24.35 14.90 24.35 13.95L24.35 13.95L24.35 9.37L23.00 9.37L23.00 8.39L24.35 8.39L24.35 6.60ZM29.85 8.39L29.85 15.79L28.58 15.79L28.58 8.39L29.85 8.39ZM28.48 6.43L28.48 6.43Q28.48 6.12 28.67 5.91Q28.86 5.70 29.23 5.70Q29.59 5.70 29.79 5.91Q29.98 6.12 29.98 6.43Q29.98 6.73 29.79 6.94Q29.59 7.14 29.23 7.14Q28.86 7.14 28.67 6.94Q28.48 6.73 28.48 6.43ZM31.54 12.11L31.54 12.02Q31.54 10.93 31.96 10.06Q32.39 9.20 33.15 8.72Q33.92 8.25 34.89 8.25L34.89 8.25Q36.40 8.25 37.34 9.30Q38.27 10.34 38.27 12.08L38.27 12.08L38.27 12.17Q38.27 13.25 37.86 14.11Q37.44 14.96 36.67 15.44Q35.90 15.92 34.91 15.92L34.91 15.92Q33.40 15.92 32.47 14.88Q31.54 13.83 31.54 12.11L31.54 12.11ZM32.81 12.17L32.81 12.17Q32.81 13.40 33.38 14.14Q33.95 14.89 34.91 14.89L34.91 14.89Q35.87 14.89 36.44 14.13Q37.00 13.38 37.00 12.02L37.00 12.02Q37.00 10.80 36.43 10.05Q35.85 9.29 34.89 9.29L34.89 9.29Q33.96 9.29 33.38 10.04Q32.81 10.78 32.81 12.17ZM39.86 8.39L41.05 8.39L41.09 9.32Q41.94 8.25 43.31 8.25L43.31 8.25Q45.65 8.25 45.67 10.90L45.67 10.90L45.67 15.79L44.41 15.79L44.41 10.89Q44.40 10.09 44.04 9.71Q43.68 9.33 42.92 9.33L42.92 9.33Q42.31 9.33 41.84 9.65Q41.38 9.98 41.12 10.51L41.12 10.51L41.12 15.79L39.86 15.79L39.86 8.39Z"/>
    </svg>
    