
    <svg width="101.5859375" height="22" viewBox="0 0 101.5859375 22" fill="red" xmlns="http://www.w3.org/2000/svg">
        <path d="M0 11C0 4.92487 4.92487 0 11 0H90.5859375C96.6610675 0 101.5859375 4.92487 101.5859375 11C101.5859375 17.0751 96.6610675 22 90.5859375 22H11C4.92487 22 0 17.0751 0 11Z" fill="#58A6FF" fill-opacity="0.2"/>
        <path fill="#58A6FF" d="M14.85 15.79L13.52 15.79Q13.41 15.57 13.35 15.01L13.35 15.01Q12.46 15.92 11.24 15.92L11.24 15.92Q10.15 15.92 9.45 15.30Q8.75 14.68 8.75 13.73L8.75 13.73Q8.75 12.58 9.62 11.94Q10.50 11.30 12.09 11.30L12.09 11.30L13.33 11.30L13.33 10.72Q13.33 10.06 12.93 9.66Q12.53 9.27 11.76 9.27L11.76 9.27Q11.08 9.27 10.63 9.61Q10.17 9.95 10.17 10.44L10.17 10.44L8.90 10.44Q8.90 9.89 9.29 9.37Q9.68 8.85 10.35 8.55Q11.03 8.25 11.83 8.25L11.83 8.25Q13.11 8.25 13.84 8.89Q14.56 9.53 14.59 10.65L14.59 10.65L14.59 14.06Q14.59 15.07 14.85 15.68L14.85 15.68L14.85 15.79ZM11.42 14.82L11.42 14.82Q12.02 14.82 12.55 14.51Q13.09 14.21 13.33 13.71L13.33 13.71L13.33 12.20L12.33 12.20Q10.01 12.20 10.01 13.56L10.01 13.56Q10.01 14.15 10.41 14.49Q10.80 14.82 11.42 14.82ZM20.15 8.35L20.15 9.52Q19.86 9.48 19.53 9.48L19.53 9.48Q18.28 9.48 17.84 10.54L17.84 10.54L17.84 15.79L16.57 15.79L16.57 8.39L17.80 8.39L17.82 9.24Q18.45 8.25 19.59 8.25L19.59 8.25Q19.96 8.25 20.15 8.35L20.15 8.35ZM21.30 8.39L22.50 8.39L22.53 9.21Q23.35 8.25 24.73 8.25L24.73 8.25Q26.28 8.25 26.84 9.44L26.84 9.44Q27.21 8.91 27.80 8.58Q28.39 8.25 29.20 8.25L29.20 8.25Q31.63 8.25 31.67 10.83L31.67 10.83L31.67 15.79L30.41 15.79L30.41 10.90Q30.41 10.11 30.05 9.72Q29.68 9.33 28.83 9.33L28.83 9.33Q28.13 9.33 27.66 9.75Q27.20 10.17 27.12 10.88L27.12 10.88L27.12 15.79L25.85 15.79L25.85 10.94Q25.85 9.33 24.27 9.33L24.27 9.33Q23.03 9.33 22.57 10.38L22.57 10.38L22.57 15.79L21.30 15.79L21.30 8.39ZM39.47 15.79L38.15 15.79Q38.04 15.57 37.97 15.01L37.97 15.01Q37.09 15.92 35.86 15.92L35.86 15.92Q34.77 15.92 34.07 15.30Q33.37 14.68 33.37 13.73L33.37 13.73Q33.37 12.58 34.25 11.94Q35.13 11.30 36.72 11.30L36.72 11.30L37.95 11.30L37.95 10.72Q37.95 10.06 37.55 9.66Q37.16 9.27 36.38 9.27L36.38 9.27Q35.71 9.27 35.25 9.61Q34.79 9.95 34.79 10.44L34.79 10.44L33.52 10.44Q33.52 9.89 33.91 9.37Q34.30 8.85 34.98 8.55Q35.65 8.25 36.46 8.25L36.46 8.25Q37.74 8.25 38.46 8.89Q39.19 9.53 39.21 10.65L39.21 10.65L39.21 14.06Q39.21 15.07 39.47 15.68L39.47 15.68L39.47 15.79ZM36.05 14.82L36.05 14.82Q36.64 14.82 37.18 14.51Q37.71 14.21 37.95 13.71L37.95 13.71L37.95 12.20L36.96 12.20Q34.63 12.20 34.63 13.56L34.63 13.56Q34.63 14.15 35.03 14.49Q35.43 14.82 36.05 14.82ZM43.83 11.04L43.83 12.07L40.49 12.07L40.49 11.04L43.83 11.04ZM48.63 8.35L48.63 9.52Q48.35 9.48 48.01 9.48L48.01 9.48Q46.77 9.48 46.32 10.54L46.32 10.54L46.32 15.79L45.06 15.79L45.06 8.39L46.29 8.39L46.31 9.24Q46.93 8.25 48.07 8.25L48.07 8.25Q48.44 8.25 48.63 8.35L48.63 8.35ZM52.73 15.92L52.73 15.92Q51.23 15.92 50.29 14.93Q49.34 13.95 49.34 12.29L49.34 12.29L49.34 12.06Q49.34 10.96 49.76 10.09Q50.18 9.23 50.94 8.74Q51.70 8.25 52.58 8.25L52.58 8.25Q54.02 8.25 54.82 9.20Q55.62 10.15 55.62 11.92L55.62 11.92L55.62 12.45L50.61 12.45Q50.64 13.54 51.25 14.22Q51.86 14.89 52.80 14.89L52.80 14.89Q53.47 14.89 53.94 14.62Q54.40 14.34 54.75 13.89L54.75 13.89L55.52 14.49Q54.59 15.92 52.73 15.92ZM52.58 9.29L52.58 9.29Q51.81 9.29 51.29 9.85Q50.77 10.41 50.65 11.41L50.65 11.41L54.35 11.41L54.35 11.31Q54.30 10.35 53.83 9.82Q53.37 9.29 52.58 9.29ZM58.97 15.79L57.70 15.79L57.70 9.37L56.54 9.37L56.54 8.39L57.70 8.39L57.70 7.63Q57.70 6.44 58.34 5.79Q58.98 5.14 60.14 5.14L60.14 5.14Q60.58 5.14 61.01 5.26L61.01 5.26L60.94 6.28Q60.62 6.22 60.25 6.22L60.25 6.22Q59.64 6.22 59.30 6.58Q58.97 6.94 58.97 7.61L58.97 7.61L58.97 8.39L60.55 8.39L60.55 9.37L58.97 9.37L58.97 15.79ZM61.61 12.11L61.61 12.02Q61.61 10.93 62.03 10.06Q62.46 9.20 63.22 8.72Q63.99 8.25 64.96 8.25L64.96 8.25Q66.47 8.25 67.41 9.30Q68.34 10.34 68.34 12.08L68.34 12.08L68.34 12.17Q68.34 13.25 67.93 14.11Q67.51 14.96 66.74 15.44Q65.98 15.92 64.98 15.92L64.98 15.92Q63.47 15.92 62.54 14.88Q61.61 13.83 61.61 12.11L61.61 12.11ZM62.88 12.17L62.88 12.17Q62.88 13.40 63.45 14.14Q64.02 14.89 64.98 14.89L64.98 14.89Q65.94 14.89 66.51 14.13Q67.08 13.38 67.08 12.02L67.08 12.02Q67.08 10.80 66.50 10.05Q65.92 9.29 64.96 9.29L64.96 9.29Q64.03 9.29 63.45 10.04Q62.88 10.78 62.88 12.17ZM73.50 8.35L73.50 9.52Q73.21 9.48 72.88 9.48L72.88 9.48Q71.64 9.48 71.19 10.54L71.19 10.54L71.19 15.79L69.93 15.79L69.93 8.39L71.16 8.39L71.18 9.24Q71.80 8.25 72.94 8.25L72.94 8.25Q73.31 8.25 73.50 8.35L73.50 8.35ZM74.23 12.03L74.23 12.03Q74.23 10.30 75.03 9.27Q75.83 8.25 77.15 8.25L77.15 8.25Q78.51 8.25 79.26 9.21L79.26 9.21L79.33 8.39L80.48 8.39L80.48 15.61Q80.48 17.04 79.63 17.87Q78.78 18.70 77.34 18.70L77.34 18.70Q76.54 18.70 75.78 18.36Q75.01 18.01 74.61 17.42L74.61 17.42L75.27 16.66Q76.08 17.67 77.25 17.67L77.25 17.67Q78.18 17.67 78.69 17.15Q79.21 16.63 79.21 15.68L79.21 15.68L79.21 15.05Q78.45 15.92 77.14 15.92L77.14 15.92Q75.84 15.92 75.04 14.88Q74.23 13.83 74.23 12.03ZM75.50 12.17L75.50 12.17Q75.50 13.42 76.02 14.13Q76.53 14.85 77.45 14.85L77.45 14.85Q78.65 14.85 79.21 13.76L79.21 13.76L79.21 10.38Q78.63 9.33 77.47 9.33L77.47 9.33Q76.54 9.33 76.02 10.04Q75.50 10.76 75.50 12.17ZM85.46 15.92L85.46 15.92Q83.95 15.92 83.01 14.93Q82.07 13.95 82.07 12.29L82.07 12.29L82.07 12.06Q82.07 10.96 82.49 10.09Q82.91 9.23 83.66 8.74Q84.42 8.25 85.30 8.25L85.30 8.25Q86.74 8.25 87.54 9.20Q88.34 10.15 88.34 11.92L88.34 11.92L88.34 12.45L83.33 12.45Q83.36 13.54 83.97 14.22Q84.58 14.89 85.53 14.89L85.53 14.89Q86.20 14.89 86.66 14.62Q87.13 14.34 87.47 13.89L87.47 13.89L88.25 14.49Q87.32 15.92 85.46 15.92ZM85.30 9.29L85.30 9.29Q84.54 9.29 84.02 9.85Q83.50 10.41 83.37 11.41L83.37 11.41L87.08 11.41L87.08 11.31Q87.02 10.35 86.56 9.82Q86.09 9.29 85.30 9.29ZM93.38 8.35L93.38 9.52Q93.09 9.48 92.76 9.48L92.76 9.48Q91.51 9.48 91.07 10.54L91.07 10.54L91.07 15.79L89.81 15.79L89.81 8.39L91.04 8.39L91.06 9.24Q91.68 8.25 92.82 8.25L92.82 8.25Q93.19 8.25 93.38 8.35L93.38 8.35Z"/>
    </svg>
    