
    <svg width="56.099609375" height="22" viewBox="0 0 56.099609375 22" fill="red" xmlns="http://www.w3.org/2000/svg">
        <path d="M0 11C0 4.92487 4.92487 0 11 0H45.099609375C51.174739375 0 56.099609375 4.92487 56.099609375 11C56.099609375 17.0751 51.174739375 22 45.099609375 22H11C4.92487 22 0 17.0751 0 11Z" fill="#58A6FF" fill-opacity="0.2"/>
        <path fill="#58A6FF" d="M14.85 15.79L13.52 15.79Q13.41 15.57 13.35 15.01L13.35 15.01Q12.46 15.92 11.24 15.92L11.24 15.92Q10.15 15.92 9.45 15.30Q8.75 14.68 8.75 13.73L8.75 13.73Q8.75 12.58 9.62 11.94Q10.50 11.30 12.09 11.30L12.09 11.30L13.33 11.30L13.33 10.72Q13.33 10.06 12.93 9.66Q12.53 9.27 11.76 9.27L11.76 9.27Q11.08 9.27 10.63 9.61Q10.17 9.95 10.17 10.44L10.17 10.44L8.90 10.44Q8.90 9.89 9.29 9.37Q9.68 8.85 10.35 8.55Q11.03 8.25 11.83 8.25L11.83 8.25Q13.11 8.25 13.84 8.89Q14.56 9.53 14.59 10.65L14.59 10.65L14.59 14.06Q14.59 15.07 14.85 15.68L14.85 15.68L14.85 15.79ZM11.42 14.82L11.42 14.82Q12.02 14.82 12.55 14.51Q13.09 14.21 13.33 13.71L13.33 13.71L13.33 12.20L12.33 12.20Q10.01 12.20 10.01 13.56L10.01 13.56Q10.01 14.15 10.41 14.49Q10.80 14.82 11.42 14.82ZM20.15 8.35L20.15 9.52Q19.86 9.48 19.53 9.48L19.53 9.48Q18.28 9.48 17.84 10.54L17.84 10.54L17.84 15.79L16.57 15.79L16.57 8.39L17.80 8.39L17.82 9.24Q18.45 8.25 19.59 8.25L19.59 8.25Q19.96 8.25 20.15 8.35L20.15 8.35ZM21.30 8.39L22.50 8.39L22.53 9.21Q23.35 8.25 24.73 8.25L24.73 8.25Q26.28 8.25 26.84 9.44L26.84 9.44Q27.21 8.91 27.80 8.58Q28.39 8.25 29.20 8.25L29.20 8.25Q31.63 8.25 31.67 10.83L31.67 10.83L31.67 15.79L30.41 15.79L30.41 10.90Q30.41 10.11 30.05 9.72Q29.68 9.33 28.83 9.33L28.83 9.33Q28.13 9.33 27.66 9.75Q27.20 10.17 27.12 10.88L27.12 10.88L27.12 15.79L25.85 15.79L25.85 10.94Q25.85 9.33 24.27 9.33L24.27 9.33Q23.03 9.33 22.57 10.38L22.57 10.38L22.57 15.79L21.30 15.79L21.30 8.39ZM39.47 15.79L38.15 15.79Q38.04 15.57 37.97 15.01L37.97 15.01Q37.09 15.92 35.86 15.92L35.86 15.92Q34.77 15.92 34.07 15.30Q33.37 14.68 33.37 13.73L33.37 13.73Q33.37 12.58 34.25 11.94Q35.13 11.30 36.72 11.30L36.72 11.30L37.95 11.30L37.95 10.72Q37.95 10.06 37.55 9.66Q37.16 9.27 36.38 9.27L36.38 9.27Q35.71 9.27 35.25 9.61Q34.79 9.95 34.79 10.44L34.79 10.44L33.52 10.44Q33.52 9.89 33.91 9.37Q34.30 8.85 34.98 8.55Q35.65 8.25 36.46 8.25L36.46 8.25Q37.74 8.25 38.46 8.89Q39.19 9.53 39.21 10.65L39.21 10.65L39.21 14.06Q39.21 15.07 39.47 15.68L39.47 15.68L39.47 15.79ZM36.05 14.82L36.05 14.82Q36.64 14.82 37.18 14.51Q37.71 14.21 37.95 13.71L37.95 13.71L37.95 12.20L36.96 12.20Q34.63 12.20 34.63 13.56L34.63 13.56Q34.63 14.15 35.03 14.49Q35.43 14.82 36.05 14.82ZM42.90 11.23L42.90 10.19L43.85 10.19Q44.75 10.18 45.26 9.72Q45.78 9.26 45.78 8.48L45.78 8.48Q45.78 6.73 44.03 6.73L44.03 6.73Q43.21 6.73 42.72 7.20Q42.23 7.67 42.23 8.44L42.23 8.44L40.97 8.44Q40.97 7.26 41.83 6.48Q42.70 5.70 44.03 5.70L44.03 5.70Q45.44 5.70 46.24 6.44Q47.04 7.19 47.04 8.51L47.04 8.51Q47.04 9.16 46.62 9.77Q46.20 10.38 45.47 10.68L45.47 10.68Q46.29 10.94 46.74 11.54Q47.19 12.14 47.19 13.01L47.19 13.01Q47.19 14.35 46.32 15.14Q45.44 15.92 44.04 15.92Q42.64 15.92 41.76 15.16Q40.88 14.40 40.88 13.16L40.88 13.16L42.15 13.16Q42.15 13.95 42.67 14.42Q43.18 14.89 44.04 14.89L44.04 14.89Q44.96 14.89 45.44 14.41Q45.93 13.93 45.93 13.04L45.93 13.04Q45.93 12.17 45.39 11.70Q44.86 11.24 43.85 11.23L43.85 11.23L42.90 11.23Z"/>
    </svg>
    