<svg width="57" height="22" viewBox="0 0 57 22" fill="none" xmlns="http://www.w3.org/2000/svg">
<path d="M0 11C0 4.92487 4.92487 0 11 0H46C52.0751 0 57 4.92487 57 11V11C57 17.0751 52.0751 22 46 22H11C4.92487 22 0 17.0751 0 11V11Z" fill="#DDF4FF"/>
<path d="M13.5234 16C13.4505 15.8542 13.3913 15.5944 13.3457 15.2207C12.7578 15.8314 12.056 16.1367 11.2402 16.1367C10.5111 16.1367 9.91178 15.9316 9.44238 15.5215C8.97754 15.1068 8.74512 14.5827 8.74512 13.9492C8.74512 13.179 9.03678 12.582 9.62012 12.1582C10.208 11.7298 11.0329 11.5156 12.0947 11.5156H13.3252V10.9346C13.3252 10.4925 13.193 10.1416 12.9287 9.88184C12.6644 9.61751 12.2747 9.48535 11.7598 9.48535C11.3086 9.48535 10.9303 9.59928 10.625 9.82715C10.3197 10.055 10.167 10.3307 10.167 10.6543H8.89551C8.89551 10.2852 9.02539 9.92969 9.28516 9.58789C9.54948 9.24154 9.90495 8.9681 10.3516 8.76758C10.8027 8.56706 11.2972 8.4668 11.835 8.4668C12.6872 8.4668 13.3548 8.68099 13.8379 9.10938C14.321 9.5332 14.5716 10.1188 14.5898 10.8662V14.2705C14.5898 14.9495 14.6764 15.4896 14.8496 15.8906V16H13.5234ZM11.4248 15.0361C11.8213 15.0361 12.1973 14.9336 12.5527 14.7285C12.9082 14.5234 13.1657 14.2568 13.3252 13.9287V12.4111H12.334C10.7845 12.4111 10.0098 12.8646 10.0098 13.7715C10.0098 14.168 10.1419 14.4779 10.4062 14.7012C10.6706 14.9245 11.0101 15.0361 11.4248 15.0361ZM20.1475 9.73828C19.9561 9.70638 19.7487 9.69043 19.5254 9.69043C18.696 9.69043 18.1331 10.0436 17.8369 10.75V16H16.5723V8.60352H17.8027L17.8232 9.45801C18.238 8.7972 18.8258 8.4668 19.5869 8.4668C19.833 8.4668 20.0199 8.4987 20.1475 8.5625V9.73828ZM22.5059 8.60352L22.54 9.42383C23.0824 8.78581 23.8138 8.4668 24.7344 8.4668C25.7689 8.4668 26.473 8.86328 26.8467 9.65625C27.0928 9.30078 27.4118 9.01367 27.8037 8.79492C28.2002 8.57617 28.6673 8.4668 29.2051 8.4668C30.8275 8.4668 31.6523 9.32585 31.6797 11.0439V16H30.415V11.1191C30.415 10.5905 30.2943 10.1963 30.0527 9.93652C29.8112 9.6722 29.4056 9.54004 28.8359 9.54004C28.3665 9.54004 27.9769 9.68132 27.667 9.96387C27.3571 10.2419 27.1771 10.6178 27.127 11.0918V16H25.8555V11.1533C25.8555 10.0778 25.3291 9.54004 24.2764 9.54004C23.4469 9.54004 22.8796 9.89323 22.5742 10.5996V16H21.3096V8.60352H22.5059ZM38.1602 16C38.0872 15.8542 38.028 15.5944 37.9824 15.2207C37.3945 15.8314 36.6927 16.1367 35.877 16.1367C35.1478 16.1367 34.5485 15.9316 34.0791 15.5215C33.6143 15.1068 33.3818 14.5827 33.3818 13.9492C33.3818 13.179 33.6735 12.582 34.2568 12.1582C34.8447 11.7298 35.6696 11.5156 36.7314 11.5156H37.9619V10.9346C37.9619 10.4925 37.8298 10.1416 37.5654 9.88184C37.3011 9.61751 36.9115 9.48535 36.3965 9.48535C35.9453 9.48535 35.5671 9.59928 35.2617 9.82715C34.9564 10.055 34.8037 10.3307 34.8037 10.6543H33.5322C33.5322 10.2852 33.6621 9.92969 33.9219 9.58789C34.1862 9.24154 34.5417 8.9681 34.9883 8.76758C35.4395 8.56706 35.9339 8.4668 36.4717 8.4668C37.3239 8.4668 37.9915 8.68099 38.4746 9.10938C38.9577 9.5332 39.2083 10.1188 39.2266 10.8662V14.2705C39.2266 14.9495 39.3132 15.4896 39.4863 15.8906V16H38.1602ZM36.0615 15.0361C36.458 15.0361 36.834 14.9336 37.1895 14.7285C37.5449 14.5234 37.8024 14.2568 37.9619 13.9287V12.4111H36.9707C35.4212 12.4111 34.6465 12.8646 34.6465 13.7715C34.6465 14.168 34.7786 14.4779 35.043 14.7012C35.3073 14.9245 35.6468 15.0361 36.0615 15.0361ZM42.918 10.4082H43.8682C44.4652 10.3991 44.9346 10.2419 45.2764 9.93652C45.6182 9.63118 45.7891 9.21875 45.7891 8.69922C45.7891 7.53255 45.208 6.94922 44.0459 6.94922C43.499 6.94922 43.0615 7.10645 42.7334 7.4209C42.4098 7.73079 42.248 8.14323 42.248 8.6582H40.9834C40.9834 7.86979 41.2705 7.21582 41.8447 6.69629C42.4235 6.1722 43.1572 5.91016 44.0459 5.91016C44.9847 5.91016 45.7207 6.15853 46.2539 6.65527C46.7871 7.15202 47.0537 7.84245 47.0537 8.72656C47.0537 9.15951 46.9124 9.57878 46.6299 9.98438C46.3519 10.39 45.9714 10.693 45.4883 10.8936C46.0352 11.0667 46.4567 11.3538 46.7529 11.7549C47.0537 12.1559 47.2041 12.6458 47.2041 13.2246C47.2041 14.1178 46.9124 14.8265 46.3291 15.3506C45.7458 15.8747 44.987 16.1367 44.0527 16.1367C43.1185 16.1367 42.3574 15.8838 41.7695 15.3779C41.1862 14.8721 40.8945 14.2044 40.8945 13.375H42.166C42.166 13.8991 42.3369 14.3184 42.6787 14.6328C43.0205 14.9473 43.4785 15.1045 44.0527 15.1045C44.6634 15.1045 45.1305 14.945 45.4541 14.626C45.7777 14.307 45.9395 13.849 45.9395 13.252C45.9395 12.6732 45.7617 12.2288 45.4062 11.9189C45.0508 11.609 44.5381 11.4495 43.8682 11.4404H42.918V10.4082Z" fill="#0969DA"/>
</svg>
