<svg width="48" height="22" viewBox="0 0 48 22" fill="none" xmlns="http://www.w3.org/2000/svg">
<path d="M0 11C0 4.92487 4.92487 0 11 0H37C43.0751 0 48 4.92487 48 11V11C48 17.0751 43.0751 22 37 22H11C4.92487 22 0 17.0751 0 11V11Z" fill="#DDF4FF"/>
<path d="M11.9238 15.1045C12.375 15.1045 12.7692 14.9678 13.1064 14.6943C13.4437 14.4209 13.6305 14.0791 13.667 13.6689H14.8633C14.8405 14.0928 14.6947 14.4961 14.4258 14.8789C14.1569 15.2617 13.7969 15.5671 13.3457 15.7949C12.8991 16.0228 12.4251 16.1367 11.9238 16.1367C10.9167 16.1367 10.1146 15.8018 9.51758 15.1318C8.92513 14.4574 8.62891 13.5368 8.62891 12.3701V12.1582C8.62891 11.4382 8.76107 10.7979 9.02539 10.2373C9.28971 9.67676 9.66797 9.24154 10.1602 8.93164C10.6569 8.62174 11.2425 8.4668 11.917 8.4668C12.7464 8.4668 13.4346 8.71517 13.9814 9.21191C14.5329 9.70866 14.8268 10.3535 14.8633 11.1465H13.667C13.6305 10.668 13.4482 10.276 13.1201 9.9707C12.7965 9.66081 12.3955 9.50586 11.917 9.50586C11.2744 9.50586 10.7754 9.73828 10.4199 10.2031C10.069 10.6634 9.89355 11.3311 9.89355 12.2061V12.4453C9.89355 13.2975 10.069 13.9538 10.4199 14.4141C10.7708 14.8743 11.2721 15.1045 11.9238 15.1045ZM15.9502 12.2334C15.9502 11.5088 16.0915 10.8571 16.374 10.2783C16.6611 9.69954 17.0576 9.25293 17.5635 8.93848C18.0739 8.62402 18.6549 8.4668 19.3066 8.4668C20.3138 8.4668 21.1273 8.81543 21.7471 9.5127C22.3714 10.21 22.6836 11.1374 22.6836 12.2949V12.3838C22.6836 13.1038 22.5446 13.751 22.2666 14.3252C21.9932 14.8949 21.599 15.3392 21.084 15.6582C20.5736 15.9772 19.9857 16.1367 19.3203 16.1367C18.3177 16.1367 17.5042 15.7881 16.8799 15.0908C16.2601 14.3936 15.9502 13.4707 15.9502 12.3223V12.2334ZM17.2217 12.3838C17.2217 13.2041 17.4108 13.8626 17.7891 14.3594C18.1719 14.8561 18.6823 15.1045 19.3203 15.1045C19.9629 15.1045 20.4733 14.8538 20.8516 14.3525C21.2298 13.8467 21.4189 13.1403 21.4189 12.2334C21.4189 11.4222 21.2253 10.766 20.8379 10.2646C20.4551 9.75879 19.9447 9.50586 19.3066 9.50586C18.6823 9.50586 18.1787 9.75423 17.7959 10.251C17.4131 10.7477 17.2217 11.4587 17.2217 12.3838ZM23.9346 12.2334C23.9346 11.5088 24.0758 10.8571 24.3584 10.2783C24.6455 9.69954 25.042 9.25293 25.5479 8.93848C26.0583 8.62402 26.6393 8.4668 27.291 8.4668C28.2982 8.4668 29.1117 8.81543 29.7314 9.5127C30.3558 10.21 30.668 11.1374 30.668 12.2949V12.3838C30.668 13.1038 30.529 13.751 30.251 14.3252C29.9775 14.8949 29.5833 15.3392 29.0684 15.6582C28.5579 15.9772 27.9701 16.1367 27.3047 16.1367C26.3021 16.1367 25.4886 15.7881 24.8643 15.0908C24.2445 14.3936 23.9346 13.4707 23.9346 12.3223V12.2334ZM25.2061 12.3838C25.2061 13.2041 25.3952 13.8626 25.7734 14.3594C26.1562 14.8561 26.6667 15.1045 27.3047 15.1045C27.9473 15.1045 28.4577 14.8538 28.8359 14.3525C29.2142 13.8467 29.4033 13.1403 29.4033 12.2334C29.4033 11.4222 29.2096 10.766 28.8223 10.2646C28.4395 9.75879 27.929 9.50586 27.291 9.50586C26.6667 9.50586 26.1631 9.75423 25.7803 10.251C25.3975 10.7477 25.2061 11.4587 25.2061 12.3838ZM38.502 12.3838C38.502 13.5094 38.2445 14.4163 37.7295 15.1045C37.2145 15.7926 36.5173 16.1367 35.6377 16.1367C34.7399 16.1367 34.0335 15.8519 33.5186 15.2822V18.8438H32.2539V8.60352H33.4092L33.4707 9.42383C33.9857 8.78581 34.7012 8.4668 35.6172 8.4668C36.5059 8.4668 37.2077 8.80176 37.7227 9.47168C38.2422 10.1416 38.502 11.0736 38.502 12.2676V12.3838ZM37.2373 12.2402C37.2373 11.4062 37.0596 10.7477 36.7041 10.2646C36.3486 9.78158 35.861 9.54004 35.2412 9.54004C34.4756 9.54004 33.9014 9.87956 33.5186 10.5586V14.0928C33.8968 14.7673 34.4756 15.1045 35.2549 15.1045C35.861 15.1045 36.3418 14.8652 36.6973 14.3867C37.0573 13.9036 37.2373 13.1882 37.2373 12.2402Z" fill="#0969DA"/>
</svg>
