
    <svg width="47.1513671875" height="22" viewBox="0 0 47.1513671875 22" fill="red" xmlns="http://www.w3.org/2000/svg">
        <path d="M0 11C0 4.92487 4.92487 0 11 0H36.1513671875C42.2264971875 0 47.1513671875 4.92487 47.1513671875 11C47.1513671875 17.0751 42.2264971875 22 36.1513671875 22H11C4.92487 22 0 17.0751 0 11Z" fill="#58A6FF" fill-opacity="0.2"/>
        <path fill="#58A6FF" d="M11.92 14.89L11.92 14.89Q12.60 14.89 13.11 14.48Q13.61 14.07 13.67 13.45L13.67 13.45L14.86 13.45Q14.83 14.09 14.43 14.66Q14.02 15.24 13.35 15.58Q12.68 15.92 11.92 15.92L11.92 15.92Q10.41 15.92 9.52 14.91Q8.63 13.91 8.63 12.16L8.63 12.16L8.63 11.94Q8.63 10.86 9.03 10.02Q9.42 9.18 10.16 8.72Q10.91 8.25 11.92 8.25L11.92 8.25Q13.16 8.25 13.98 9.00Q14.81 9.74 14.86 10.93L14.86 10.93L13.67 10.93Q13.61 10.21 13.12 9.75Q12.63 9.29 11.92 9.29L11.92 9.29Q10.95 9.29 10.42 9.98Q9.89 10.68 9.89 11.99L9.89 11.99L9.89 12.23Q9.89 13.51 10.42 14.20Q10.95 14.89 11.92 14.89ZM15.95 12.11L15.95 12.02Q15.95 10.93 16.38 10.06Q16.80 9.20 17.57 8.72Q18.33 8.25 19.31 8.25L19.31 8.25Q20.82 8.25 21.75 9.30Q22.68 10.34 22.68 12.08L22.68 12.08L22.68 12.17Q22.68 13.25 22.27 14.11Q21.86 14.96 21.09 15.44Q20.32 15.92 19.32 15.92L19.32 15.92Q17.82 15.92 16.88 14.88Q15.95 13.83 15.95 12.11L15.95 12.11ZM17.22 12.17L17.22 12.17Q17.22 13.40 17.79 14.14Q18.36 14.89 19.32 14.89L19.32 14.89Q20.28 14.89 20.85 14.13Q21.42 13.38 21.42 12.02L21.42 12.02Q21.42 10.80 20.84 10.05Q20.26 9.29 19.31 9.29L19.31 9.29Q18.37 9.29 17.80 10.04Q17.22 10.78 17.22 12.17ZM23.93 12.11L23.93 12.02Q23.93 10.93 24.36 10.06Q24.79 9.20 25.55 8.72Q26.31 8.25 27.29 8.25L27.29 8.25Q28.80 8.25 29.73 9.30Q30.67 10.34 30.67 12.08L30.67 12.08L30.67 12.17Q30.67 13.25 30.25 14.11Q29.84 14.96 29.07 15.44Q28.30 15.92 27.30 15.92L27.30 15.92Q25.80 15.92 24.87 14.88Q23.93 13.83 23.93 12.11L23.93 12.11ZM25.21 12.17L25.21 12.17Q25.21 13.40 25.78 14.14Q26.35 14.89 27.30 14.89L27.30 14.89Q28.27 14.89 28.84 14.13Q29.40 13.38 29.40 12.02L29.40 12.02Q29.40 10.80 28.83 10.05Q28.25 9.29 27.29 9.29L27.29 9.29Q26.35 9.29 25.78 10.04Q25.21 10.78 25.21 12.17ZM38.50 12.05L38.50 12.17Q38.50 13.86 37.73 14.89Q36.96 15.92 35.64 15.92L35.64 15.92Q34.29 15.92 33.52 15.07L33.52 15.07L33.52 18.63L32.25 18.63L32.25 8.39L33.41 8.39L33.47 9.21Q34.24 8.25 35.62 8.25L35.62 8.25Q36.95 8.25 37.73 9.26Q38.50 10.26 38.50 12.05L38.50 12.05ZM37.24 12.03L37.24 12.03Q37.24 10.77 36.70 10.05Q36.17 9.33 35.24 9.33L35.24 9.33Q34.09 9.33 33.52 10.34L33.52 10.34L33.52 13.88Q34.09 14.89 35.25 14.89L35.25 14.89Q36.16 14.89 36.70 14.17Q37.24 13.45 37.24 12.03Z"/>
    </svg>
    