
    <svg width="102.310546875" height="22" viewBox="0 0 102.310546875 22" fill="red" xmlns="http://www.w3.org/2000/svg">
        <path d="M0 11C0 4.92487 4.92487 0 11 0H91.310546875C97.385676875 0 102.310546875 4.92487 102.310546875 11C102.310546875 17.0751 97.385676875 22 91.310546875 22H11C4.92487 22 0 17.0751 0 11Z" fill="#58A6FF" fill-opacity="0.2"/>
        <path fill="#58A6FF" d="M12.03 15.92L12.03 15.92Q10.52 15.92 9.58 14.93Q8.64 13.95 8.64 12.29L8.64 12.29L8.64 12.06Q8.64 10.96 9.06 10.09Q9.48 9.23 10.23 8.74Q10.99 8.25 11.87 8.25L11.87 8.25Q13.31 8.25 14.11 9.20Q14.91 10.15 14.91 11.92L14.91 11.92L14.91 12.45L9.90 12.45Q9.93 13.54 10.54 14.22Q11.15 14.89 12.09 14.89L12.09 14.89Q12.76 14.89 13.23 14.62Q13.69 14.34 14.04 13.89L14.04 13.89L14.82 14.49Q13.89 15.92 12.03 15.92ZM11.87 9.29L11.87 9.29Q11.10 9.29 10.58 9.85Q10.06 10.41 9.94 11.41L9.94 11.41L13.65 11.41L13.65 11.31Q13.59 10.35 13.13 9.82Q12.66 9.29 11.87 9.29ZM16.37 8.39L17.57 8.39L17.61 9.32Q18.46 8.25 19.83 8.25L19.83 8.25Q22.17 8.25 22.19 10.90L22.19 10.90L22.19 15.79L20.93 15.79L20.93 10.89Q20.92 10.09 20.56 9.71Q20.20 9.33 19.44 9.33L19.44 9.33Q18.83 9.33 18.36 9.65Q17.90 9.98 17.64 10.51L17.64 10.51L17.64 15.79L16.37 15.79L16.37 8.39ZM25.99 15.79L24.72 15.79L24.72 9.37L23.55 9.37L23.55 8.39L24.72 8.39L24.72 7.63Q24.72 6.44 25.36 5.79Q25.99 5.14 27.15 5.14L27.15 5.14Q27.59 5.14 28.02 5.26L28.02 5.26L27.95 6.28Q27.63 6.22 27.27 6.22L27.27 6.22Q26.66 6.22 26.32 6.58Q25.99 6.94 25.99 7.61L25.99 7.61L25.99 8.39L27.56 8.39L27.56 9.37L25.99 9.37L25.99 15.79ZM28.62 12.11L28.62 12.02Q28.62 10.93 29.05 10.06Q29.48 9.20 30.24 8.72Q31.00 8.25 31.98 8.25L31.98 8.25Q33.49 8.25 34.42 9.30Q35.36 10.34 35.36 12.08L35.36 12.08L35.36 12.17Q35.36 13.25 34.94 14.11Q34.53 14.96 33.76 15.44Q32.99 15.92 31.99 15.92L31.99 15.92Q30.49 15.92 29.56 14.88Q28.62 13.83 28.62 12.11L28.62 12.11ZM29.90 12.17L29.90 12.17Q29.90 13.40 30.47 14.14Q31.04 14.89 31.99 14.89L31.99 14.89Q32.96 14.89 33.53 14.13Q34.09 13.38 34.09 12.02L34.09 12.02Q34.09 10.80 33.52 10.05Q32.94 9.29 31.98 9.29L31.98 9.29Q31.04 9.29 30.47 10.04Q29.90 10.78 29.90 12.17ZM40.52 8.35L40.52 9.52Q40.23 9.48 39.90 9.48L39.90 9.48Q38.65 9.48 38.21 10.54L38.21 10.54L38.21 15.79L36.94 15.79L36.94 8.39L38.17 8.39L38.19 9.24Q38.82 8.25 39.96 8.25L39.96 8.25Q40.33 8.25 40.52 8.35L40.52 8.35ZM44.52 14.89L44.52 14.89Q45.19 14.89 45.70 14.48Q46.21 14.07 46.26 13.45L46.26 13.45L47.46 13.45Q47.42 14.09 47.02 14.66Q46.62 15.24 45.94 15.58Q45.27 15.92 44.52 15.92L44.52 15.92Q43.01 15.92 42.11 14.91Q41.22 13.91 41.22 12.16L41.22 12.16L41.22 11.94Q41.22 10.86 41.62 10.02Q42.02 9.18 42.76 8.72Q43.50 8.25 44.51 8.25L44.51 8.25Q45.75 8.25 46.58 9.00Q47.40 9.74 47.46 10.93L47.46 10.93L46.26 10.93Q46.21 10.21 45.72 9.75Q45.23 9.29 44.51 9.29L44.51 9.29Q43.55 9.29 43.02 9.98Q42.49 10.68 42.49 11.99L42.49 11.99L42.49 12.23Q42.49 13.51 43.01 14.20Q43.54 14.89 44.52 14.89ZM51.95 15.92L51.95 15.92Q50.44 15.92 49.50 14.93Q48.56 13.95 48.56 12.29L48.56 12.29L48.56 12.06Q48.56 10.96 48.98 10.09Q49.40 9.23 50.15 8.74Q50.91 8.25 51.79 8.25L51.79 8.25Q53.23 8.25 54.03 9.20Q54.83 10.15 54.83 11.92L54.83 11.92L54.83 12.45L49.82 12.45Q49.85 13.54 50.46 14.22Q51.07 14.89 52.02 14.89L52.02 14.89Q52.69 14.89 53.15 14.62Q53.62 14.34 53.96 13.89L53.96 13.89L54.74 14.49Q53.81 15.92 51.95 15.92ZM51.79 9.29L51.79 9.29Q51.03 9.29 50.51 9.85Q49.99 10.41 49.86 11.41L49.86 11.41L53.57 11.41L53.57 11.31Q53.51 10.35 53.05 9.82Q52.58 9.29 51.79 9.29ZM58.93 11.04L58.93 12.07L55.59 12.07L55.59 11.04L58.93 11.04ZM64.46 13.82L64.46 13.82Q64.46 13.31 64.08 13.03Q63.69 12.74 62.73 12.54Q61.77 12.33 61.21 12.05Q60.64 11.76 60.37 11.36Q60.10 10.97 60.10 10.42L60.10 10.42Q60.10 9.51 60.87 8.88Q61.64 8.25 62.84 8.25L62.84 8.25Q64.10 8.25 64.88 8.90Q65.66 9.55 65.66 10.56L65.66 10.56L64.39 10.56Q64.39 10.04 63.95 9.67Q63.51 9.29 62.84 9.29L62.84 9.29Q62.15 9.29 61.76 9.59Q61.37 9.89 61.37 10.38L61.37 10.38Q61.37 10.84 61.73 11.07Q62.09 11.30 63.04 11.51Q63.99 11.72 64.57 12.02Q65.16 12.31 65.45 12.73Q65.73 13.14 65.73 13.73L65.73 13.73Q65.73 14.73 64.94 15.32Q64.14 15.92 62.88 15.92L62.88 15.92Q61.99 15.92 61.31 15.61Q60.62 15.29 60.24 14.73Q59.85 14.17 59.85 13.51L59.85 13.51L61.12 13.51Q61.15 14.14 61.62 14.52Q62.10 14.89 62.88 14.89L62.88 14.89Q63.60 14.89 64.03 14.60Q64.46 14.31 64.46 13.82ZM70.34 14.89L70.34 14.89Q71.02 14.89 71.53 14.48Q72.03 14.07 72.09 13.45L72.09 13.45L73.28 13.45Q73.25 14.09 72.85 14.66Q72.44 15.24 71.77 15.58Q71.10 15.92 70.34 15.92L70.34 15.92Q68.83 15.92 67.94 14.91Q67.05 13.91 67.05 12.16L67.05 12.16L67.05 11.94Q67.05 10.86 67.45 10.02Q67.84 9.18 68.58 8.72Q69.33 8.25 70.34 8.25L70.34 8.25Q71.58 8.25 72.40 9.00Q73.23 9.74 73.28 10.93L73.28 10.93L72.09 10.93Q72.03 10.21 71.54 9.75Q71.05 9.29 70.34 9.29L70.34 9.29Q69.37 9.29 68.84 9.98Q68.31 10.68 68.31 11.99L68.31 11.99L68.31 12.23Q68.31 13.51 68.84 14.20Q69.37 14.89 70.34 14.89ZM78.28 8.35L78.28 9.52Q77.99 9.48 77.66 9.48L77.66 9.48Q76.41 9.48 75.97 10.54L75.97 10.54L75.97 15.79L74.71 15.79L74.71 8.39L75.94 8.39L75.96 9.24Q76.58 8.25 77.72 8.25L77.72 8.25Q78.09 8.25 78.28 8.35L78.28 8.35ZM80.82 8.39L80.82 15.79L79.55 15.79L79.55 8.39L80.82 8.39ZM79.45 6.43L79.45 6.43Q79.45 6.12 79.64 5.91Q79.83 5.70 80.19 5.70Q80.56 5.70 80.75 5.91Q80.95 6.12 80.95 6.43Q80.95 6.73 80.75 6.94Q80.56 7.14 80.19 7.14Q79.83 7.14 79.64 6.94Q79.45 6.73 79.45 6.43ZM89.09 12.05L89.09 12.17Q89.09 13.86 88.32 14.89Q87.54 15.92 86.22 15.92L86.22 15.92Q84.88 15.92 84.10 15.07L84.10 15.07L84.10 18.63L82.84 18.63L82.84 8.39L84.00 8.39L84.06 9.21Q84.83 8.25 86.20 8.25L86.20 8.25Q87.54 8.25 88.31 9.26Q89.09 10.26 89.09 12.05L89.09 12.05ZM87.82 12.03L87.82 12.03Q87.82 10.77 87.29 10.05Q86.76 9.33 85.83 9.33L85.83 9.33Q84.68 9.33 84.10 10.34L84.10 10.34L84.10 13.88Q84.67 14.89 85.84 14.89L85.84 14.89Q86.75 14.89 87.29 14.17Q87.82 13.45 87.82 12.03ZM91.15 6.60L92.41 6.60L92.41 8.39L93.79 8.39L93.79 9.37L92.41 9.37L92.41 13.95Q92.41 14.40 92.59 14.62Q92.78 14.84 93.22 14.84L93.22 14.84Q93.44 14.84 93.83 14.76L93.83 14.76L93.83 15.79Q93.33 15.92 92.85 15.92L92.85 15.92Q92.01 15.92 91.58 15.41Q91.15 14.90 91.15 13.95L91.15 13.95L91.15 9.37L89.80 9.37L89.80 8.39L91.15 8.39L91.15 6.60Z"/>
    </svg>
    