
    <svg width="70.044921875" height="22" viewBox="0 0 70.044921875 22" fill="red" xmlns="http://www.w3.org/2000/svg">
        <path d="M0 11C0 4.92487 4.92487 0 11 0H59.044921875C65.120051875 0 70.044921875 4.92487 70.044921875 11C70.044921875 17.0751 65.120051875 22 59.044921875 22H11C4.92487 22 0 17.0751 0 11Z" fill="#58A6FF" fill-opacity="0.2"/>
        <path fill="#58A6FF" d="M12.03 15.92L12.03 15.92Q10.52 15.92 9.58 14.93Q8.64 13.95 8.64 12.29L8.64 12.29L8.64 12.06Q8.64 10.96 9.06 10.09Q9.48 9.23 10.23 8.74Q10.99 8.25 11.87 8.25L11.87 8.25Q13.31 8.25 14.11 9.20Q14.91 10.15 14.91 11.92L14.91 11.92L14.91 12.45L9.90 12.45Q9.93 13.54 10.54 14.22Q11.15 14.89 12.09 14.89L12.09 14.89Q12.76 14.89 13.23 14.62Q13.69 14.34 14.04 13.89L14.04 13.89L14.82 14.49Q13.89 15.92 12.03 15.92ZM11.87 9.29L11.87 9.29Q11.10 9.29 10.58 9.85Q10.06 10.41 9.94 11.41L9.94 11.41L13.65 11.41L13.65 11.31Q13.59 10.35 13.13 9.82Q12.66 9.29 11.87 9.29ZM16.37 8.39L17.57 8.39L17.61 9.32Q18.46 8.25 19.83 8.25L19.83 8.25Q22.17 8.25 22.19 10.90L22.19 10.90L22.19 15.79L20.93 15.79L20.93 10.89Q20.92 10.09 20.56 9.71Q20.20 9.33 19.44 9.33L19.44 9.33Q18.83 9.33 18.36 9.65Q17.90 9.98 17.64 10.51L17.64 10.51L17.64 15.79L16.37 15.79L16.37 8.39ZM25.99 15.79L24.72 15.79L24.72 9.37L23.55 9.37L23.55 8.39L24.72 8.39L24.72 7.63Q24.72 6.44 25.36 5.79Q25.99 5.14 27.15 5.14L27.15 5.14Q27.59 5.14 28.02 5.26L28.02 5.26L27.95 6.28Q27.63 6.22 27.27 6.22L27.27 6.22Q26.66 6.22 26.32 6.58Q25.99 6.94 25.99 7.61L25.99 7.61L25.99 8.39L27.56 8.39L27.56 9.37L25.99 9.37L25.99 15.79ZM33.55 15.79L33.53 15.05Q32.79 15.92 31.36 15.92L31.36 15.92Q30.18 15.92 29.56 15.23Q28.94 14.55 28.93 13.20L28.93 13.20L28.93 8.39L30.20 8.39L30.20 13.17Q30.20 14.85 31.56 14.85L31.56 14.85Q33.01 14.85 33.49 13.77L33.49 13.77L33.49 8.39L34.76 8.39L34.76 15.79L33.55 15.79ZM40.98 13.82L40.98 13.82Q40.98 13.31 40.60 13.03Q40.21 12.74 39.25 12.54Q38.29 12.33 37.73 12.05Q37.16 11.76 36.89 11.36Q36.62 10.97 36.62 10.42L36.62 10.42Q36.62 9.51 37.39 8.88Q38.16 8.25 39.36 8.25L39.36 8.25Q40.61 8.25 41.40 8.90Q42.18 9.55 42.18 10.56L42.18 10.56L40.91 10.56Q40.91 10.04 40.47 9.67Q40.03 9.29 39.36 9.29L39.36 9.29Q38.67 9.29 38.28 9.59Q37.89 9.89 37.89 10.38L37.89 10.38Q37.89 10.84 38.25 11.07Q38.61 11.30 39.56 11.51Q40.50 11.72 41.09 12.02Q41.68 12.31 41.96 12.73Q42.25 13.14 42.25 13.73L42.25 13.73Q42.25 14.73 41.46 15.32Q40.66 15.92 39.40 15.92L39.40 15.92Q38.51 15.92 37.83 15.61Q37.14 15.29 36.76 14.73Q36.37 14.17 36.37 13.51L36.37 13.51L37.63 13.51Q37.67 14.14 38.14 14.52Q38.62 14.89 39.40 14.89L39.40 14.89Q40.12 14.89 40.55 14.60Q40.98 14.31 40.98 13.82ZM45.27 8.39L45.27 15.79L44.00 15.79L44.00 8.39L45.27 8.39ZM43.90 6.43L43.90 6.43Q43.90 6.12 44.09 5.91Q44.28 5.70 44.65 5.70Q45.02 5.70 45.21 5.91Q45.40 6.12 45.40 6.43Q45.40 6.73 45.21 6.94Q45.02 7.14 44.65 7.14Q44.28 7.14 44.09 6.94Q43.90 6.73 43.90 6.43ZM46.96 12.11L46.96 12.02Q46.96 10.93 47.39 10.06Q47.81 9.20 48.57 8.72Q49.34 8.25 50.31 8.25L50.31 8.25Q51.83 8.25 52.76 9.30Q53.69 10.34 53.69 12.08L53.69 12.08L53.69 12.17Q53.69 13.25 53.28 14.11Q52.86 14.96 52.10 15.44Q51.33 15.92 50.33 15.92L50.33 15.92Q48.82 15.92 47.89 14.88Q46.96 13.83 46.96 12.11L46.96 12.11ZM48.23 12.17L48.23 12.17Q48.23 13.40 48.80 14.14Q49.37 14.89 50.33 14.89L50.33 14.89Q51.29 14.89 51.86 14.13Q52.43 13.38 52.43 12.02L52.43 12.02Q52.43 10.80 51.85 10.05Q51.27 9.29 50.31 9.29L50.31 9.29Q49.38 9.29 48.80 10.04Q48.23 10.78 48.23 12.17ZM55.28 8.39L56.47 8.39L56.51 9.32Q57.36 8.25 58.73 8.25L58.73 8.25Q61.07 8.25 61.09 10.90L61.09 10.90L61.09 15.79L59.83 15.79L59.83 10.89Q59.82 10.09 59.46 9.71Q59.11 9.33 58.35 9.33L58.35 9.33Q57.73 9.33 57.27 9.65Q56.80 9.98 56.54 10.51L56.54 10.51L56.54 15.79L55.28 15.79L55.28 8.39Z"/>
    </svg>
    