
    <svg width="93.3623046875" height="22" viewBox="0 0 93.3623046875 22" fill="red" xmlns="http://www.w3.org/2000/svg">
        <path d="M0 11C0 4.92487 4.92487 0 11 0H82.3623046875C88.4374346875 0 93.3623046875 4.92487 93.3623046875 11C93.3623046875 17.0751 88.4374346875 22 82.3623046875 22H11C4.92487 22 0 17.0751 0 11Z" fill="#58A6FF" fill-opacity="0.2"/>
        <path fill="#58A6FF" d="M8.66 12.03L8.66 12.03Q8.66 10.30 9.46 9.27Q10.26 8.25 11.58 8.25L11.58 8.25Q12.93 8.25 13.69 9.21L13.69 9.21L13.75 8.39L14.90 8.39L14.90 15.61Q14.90 17.04 14.05 17.87Q13.20 18.70 11.77 18.70L11.77 18.70Q10.97 18.70 10.20 18.36Q9.44 18.01 9.03 17.42L9.03 17.42L9.69 16.66Q10.50 17.67 11.68 17.67L11.68 17.67Q12.60 17.67 13.12 17.15Q13.63 16.63 13.63 15.68L13.63 15.68L13.63 15.05Q12.87 15.92 11.56 15.92L11.56 15.92Q10.26 15.92 9.46 14.88Q8.66 13.83 8.66 12.03ZM9.93 12.17L9.93 12.17Q9.93 13.42 10.44 14.13Q10.95 14.85 11.88 14.85L11.88 14.85Q13.07 14.85 13.63 13.76L13.63 13.76L13.63 10.38Q13.05 9.33 11.89 9.33L11.89 9.33Q10.97 9.33 10.45 10.04Q9.93 10.76 9.93 12.17ZM22.70 15.79L21.38 15.79Q21.27 15.57 21.20 15.01L21.20 15.01Q20.32 15.92 19.09 15.92L19.09 15.92Q18.00 15.92 17.30 15.30Q16.60 14.68 16.60 13.73L16.60 13.73Q16.60 12.58 17.48 11.94Q18.36 11.30 19.95 11.30L19.95 11.30L21.18 11.30L21.18 10.72Q21.18 10.06 20.78 9.66Q20.39 9.27 19.61 9.27L19.61 9.27Q18.94 9.27 18.48 9.61Q18.02 9.95 18.02 10.44L18.02 10.44L16.75 10.44Q16.75 9.89 17.14 9.37Q17.54 8.85 18.21 8.55Q18.88 8.25 19.69 8.25L19.69 8.25Q20.97 8.25 21.69 8.89Q22.42 9.53 22.44 10.65L22.44 10.65L22.44 14.06Q22.44 15.07 22.70 15.68L22.70 15.68L22.70 15.79ZM19.28 14.82L19.28 14.82Q19.87 14.82 20.41 14.51Q20.94 14.21 21.18 13.71L21.18 13.71L21.18 12.20L20.19 12.20Q17.86 12.20 17.86 13.56L17.86 13.56Q17.86 14.15 18.26 14.49Q18.66 14.82 19.28 14.82ZM24.42 8.39L25.62 8.39L25.65 9.21Q26.46 8.25 27.84 8.25L27.84 8.25Q29.40 8.25 29.96 9.44L29.96 9.44Q30.33 8.91 30.92 8.58Q31.51 8.25 32.32 8.25L32.32 8.25Q34.75 8.25 34.79 10.83L34.79 10.83L34.79 15.79L33.53 15.79L33.53 10.90Q33.53 10.11 33.16 9.72Q32.80 9.33 31.95 9.33L31.95 9.33Q31.24 9.33 30.78 9.75Q30.31 10.17 30.24 10.88L30.24 10.88L30.24 15.79L28.97 15.79L28.97 10.94Q28.97 9.33 27.39 9.33L27.39 9.33Q26.14 9.33 25.68 10.38L25.68 10.38L25.68 15.79L24.42 15.79L24.42 8.39ZM39.77 15.92L39.77 15.92Q38.26 15.92 37.32 14.93Q36.38 13.95 36.38 12.29L36.38 12.29L36.38 12.06Q36.38 10.96 36.80 10.09Q37.22 9.23 37.97 8.74Q38.73 8.25 39.61 8.25L39.61 8.25Q41.05 8.25 41.85 9.20Q42.65 10.15 42.65 11.92L42.65 11.92L42.65 12.45L37.64 12.45Q37.67 13.54 38.28 14.22Q38.89 14.89 39.83 14.89L39.83 14.89Q40.50 14.89 40.97 14.62Q41.43 14.34 41.78 13.89L41.78 13.89L42.56 14.49Q41.63 15.92 39.77 15.92ZM39.61 9.29L39.61 9.29Q38.84 9.29 38.32 9.85Q37.80 10.41 37.68 11.41L37.68 11.41L41.39 11.41L41.39 11.31Q41.33 10.35 40.87 9.82Q40.40 9.29 39.61 9.29ZM46.75 11.04L46.75 12.07L43.41 12.07L43.41 11.04L46.75 11.04ZM52.28 13.82L52.28 13.82Q52.28 13.31 51.90 13.03Q51.51 12.74 50.55 12.54Q49.59 12.33 49.03 12.05Q48.46 11.76 48.19 11.36Q47.92 10.97 47.92 10.42L47.92 10.42Q47.92 9.51 48.69 8.88Q49.46 8.25 50.66 8.25L50.66 8.25Q51.91 8.25 52.70 8.90Q53.48 9.55 53.48 10.56L53.48 10.56L52.21 10.56Q52.21 10.04 51.77 9.67Q51.33 9.29 50.66 9.29L50.66 9.29Q49.97 9.29 49.58 9.59Q49.19 9.89 49.19 10.38L49.19 10.38Q49.19 10.84 49.55 11.07Q49.91 11.30 50.86 11.51Q51.80 11.72 52.39 12.02Q52.98 12.31 53.26 12.73Q53.55 13.14 53.55 13.73L53.55 13.73Q53.55 14.73 52.75 15.32Q51.96 15.92 50.70 15.92L50.70 15.92Q49.81 15.92 49.13 15.61Q48.44 15.29 48.06 14.73Q47.67 14.17 47.67 13.51L47.67 13.51L48.93 13.51Q48.97 14.14 49.44 14.52Q49.92 14.89 50.70 14.89L50.70 14.89Q51.42 14.89 51.85 14.60Q52.28 14.31 52.28 13.82ZM58.26 15.92L58.26 15.92Q56.76 15.92 55.82 14.93Q54.87 13.95 54.87 12.29L54.87 12.29L54.87 12.06Q54.87 10.96 55.29 10.09Q55.71 9.23 56.47 8.74Q57.23 8.25 58.11 8.25L58.11 8.25Q59.55 8.25 60.35 9.20Q61.15 10.15 61.15 11.92L61.15 11.92L61.15 12.45L56.14 12.45Q56.17 13.54 56.78 14.22Q57.39 14.89 58.33 14.89L58.33 14.89Q59.00 14.89 59.47 14.62Q59.93 14.34 60.28 13.89L60.28 13.89L61.05 14.49Q60.12 15.92 58.26 15.92ZM58.11 9.29L58.11 9.29Q57.34 9.29 56.82 9.85Q56.30 10.41 56.18 11.41L56.18 11.41L59.88 11.41L59.88 11.31Q59.83 10.35 59.37 9.82Q58.90 9.29 58.11 9.29ZM66.19 8.35L66.19 9.52Q65.90 9.48 65.57 9.48L65.57 9.48Q64.32 9.48 63.88 10.54L63.88 10.54L63.88 15.79L62.61 15.79L62.61 8.39L63.84 8.39L63.86 9.24Q64.49 8.25 65.63 8.25L65.63 8.25Q66.00 8.25 66.19 8.35L66.19 8.35ZM68.03 8.39L69.91 14.07L71.75 8.39L73.04 8.39L70.38 15.79L69.42 15.79L66.74 8.39L68.03 8.39ZM77.23 15.92L77.23 15.92Q75.73 15.92 74.79 14.93Q73.84 13.95 73.84 12.29L73.84 12.29L73.84 12.06Q73.84 10.96 74.26 10.09Q74.68 9.23 75.44 8.74Q76.20 8.25 77.08 8.25L77.08 8.25Q78.52 8.25 79.32 9.20Q80.12 10.15 80.12 11.92L80.12 11.92L80.12 12.45L75.11 12.45Q75.14 13.54 75.75 14.22Q76.36 14.89 77.30 14.89L77.30 14.89Q77.97 14.89 78.44 14.62Q78.90 14.34 79.25 13.89L79.25 13.89L80.02 14.49Q79.09 15.92 77.23 15.92ZM77.08 9.29L77.08 9.29Q76.31 9.29 75.79 9.85Q75.27 10.41 75.15 11.41L75.15 11.41L78.85 11.41L78.85 11.31Q78.80 10.35 78.33 9.82Q77.87 9.29 77.08 9.29ZM85.16 8.35L85.16 9.52Q84.87 9.48 84.54 9.48L84.54 9.48Q83.29 9.48 82.85 10.54L82.85 10.54L82.85 15.79L81.58 15.79L81.58 8.39L82.81 8.39L82.83 9.24Q83.46 8.25 84.60 8.25L84.60 8.25Q84.97 8.25 85.16 8.35L85.16 8.35Z"/>
    </svg>
    