
    <svg width="65.02734375" height="22" viewBox="0 0 65.02734375 22" fill="red" xmlns="http://www.w3.org/2000/svg">
        <path d="M0 11C0 4.92487 4.92487 0 11 0H54.02734375C60.10247375 0 65.02734375 4.92487 65.02734375 11C65.02734375 17.0751 60.10247375 22 54.02734375 22H11C4.92487 22 0 17.0751 0 11Z" fill="#58A6FF" fill-opacity="0.2"/>
        <path fill="#58A6FF" d="M8.66 12.03L8.66 12.03Q8.66 10.30 9.46 9.27Q10.26 8.25 11.58 8.25L11.58 8.25Q12.93 8.25 13.69 9.21L13.69 9.21L13.75 8.39L14.90 8.39L14.90 15.61Q14.90 17.04 14.05 17.87Q13.20 18.70 11.77 18.70L11.77 18.70Q10.97 18.70 10.20 18.36Q9.44 18.01 9.03 17.42L9.03 17.42L9.69 16.66Q10.50 17.67 11.68 17.67L11.68 17.67Q12.60 17.67 13.12 17.15Q13.63 16.63 13.63 15.68L13.63 15.68L13.63 15.05Q12.87 15.92 11.56 15.92L11.56 15.92Q10.26 15.92 9.46 14.88Q8.66 13.83 8.66 12.03ZM9.93 12.17L9.93 12.17Q9.93 13.42 10.44 14.13Q10.95 14.85 11.88 14.85L11.88 14.85Q13.07 14.85 13.63 13.76L13.63 13.76L13.63 10.38Q13.05 9.33 11.89 9.33L11.89 9.33Q10.97 9.33 10.45 10.04Q9.93 10.76 9.93 12.17ZM20.39 8.35L20.39 9.52Q20.10 9.48 19.76 9.48L19.76 9.48Q18.52 9.48 18.08 10.54L18.08 10.54L18.08 15.79L16.81 15.79L16.81 8.39L18.04 8.39L18.06 9.24Q18.68 8.25 19.83 8.25L19.83 8.25Q20.20 8.25 20.39 8.35L20.39 8.35ZM27.17 15.79L25.84 15.79Q25.73 15.57 25.66 15.01L25.66 15.01Q24.78 15.92 23.56 15.92L23.56 15.92Q22.46 15.92 21.76 15.30Q21.06 14.68 21.06 13.73L21.06 13.73Q21.06 12.58 21.94 11.94Q22.82 11.30 24.41 11.30L24.41 11.30L25.64 11.30L25.64 10.72Q25.64 10.06 25.25 9.66Q24.85 9.27 24.08 9.27L24.08 9.27Q23.40 9.27 22.94 9.61Q22.49 9.95 22.49 10.44L22.49 10.44L21.21 10.44Q21.21 9.89 21.61 9.37Q22 8.85 22.67 8.55Q23.35 8.25 24.15 8.25L24.15 8.25Q25.43 8.25 26.16 8.89Q26.88 9.53 26.91 10.65L26.91 10.65L26.91 14.06Q26.91 15.07 27.17 15.68L27.17 15.68L27.17 15.79ZM23.74 14.82L23.74 14.82Q24.34 14.82 24.87 14.51Q25.40 14.21 25.64 13.71L25.64 13.71L25.64 12.20L24.65 12.20Q22.33 12.20 22.33 13.56L22.33 13.56Q22.33 14.15 22.72 14.49Q23.12 14.82 23.74 14.82ZM28.58 12.12L28.58 12.03Q28.58 10.32 29.39 9.29Q30.20 8.25 31.50 8.25L31.50 8.25Q32.80 8.25 33.56 9.14L33.56 9.14L33.56 5.29L34.82 5.29L34.82 15.79L33.66 15.79L33.60 14.99Q32.84 15.92 31.49 15.92L31.49 15.92Q30.20 15.92 29.39 14.87Q28.58 13.82 28.58 12.12L28.58 12.12ZM29.85 12.17L29.85 12.17Q29.85 13.43 30.37 14.14Q30.89 14.85 31.80 14.85L31.80 14.85Q33.01 14.85 33.56 13.77L33.56 13.77L33.56 10.37Q32.99 9.33 31.82 9.33L31.82 9.33Q30.89 9.33 30.37 10.04Q29.85 10.76 29.85 12.17ZM39.42 11.04L39.42 12.07L36.08 12.07L36.08 11.04L39.42 11.04ZM46.54 15.79L45.21 15.79Q45.11 15.57 45.04 15.01L45.04 15.01Q44.16 15.92 42.93 15.92L42.93 15.92Q41.84 15.92 41.14 15.30Q40.44 14.68 40.44 13.73L40.44 13.73Q40.44 12.58 41.31 11.94Q42.19 11.30 43.79 11.30L43.79 11.30L45.02 11.30L45.02 10.72Q45.02 10.06 44.62 9.66Q44.22 9.27 43.45 9.27L43.45 9.27Q42.77 9.27 42.32 9.61Q41.86 9.95 41.86 10.44L41.86 10.44L40.59 10.44Q40.59 9.89 40.98 9.37Q41.37 8.85 42.05 8.55Q42.72 8.25 43.53 8.25L43.53 8.25Q44.80 8.25 45.53 8.89Q46.25 9.53 46.28 10.65L46.28 10.65L46.28 14.06Q46.28 15.07 46.54 15.68L46.54 15.68L46.54 15.79ZM43.12 14.82L43.12 14.82Q43.71 14.82 44.24 14.51Q44.78 14.21 45.02 13.71L45.02 13.71L45.02 12.20L44.03 12.20Q41.70 12.20 41.70 13.56L41.70 13.56Q41.70 14.15 42.10 14.49Q42.49 14.82 43.12 14.82ZM50.15 15.79L48.89 15.79L48.89 9.37L47.72 9.37L47.72 8.39L48.89 8.39L48.89 7.63Q48.89 6.44 49.52 5.79Q50.16 5.14 51.32 5.14L51.32 5.14Q51.76 5.14 52.19 5.26L52.19 5.26L52.12 6.28Q51.80 6.22 51.44 6.22L51.44 6.22Q50.82 6.22 50.49 6.58Q50.15 6.94 50.15 7.61L50.15 7.61L50.15 8.39L51.73 8.39L51.73 9.37L50.15 9.37L50.15 15.79ZM55.01 15.79L53.75 15.79L53.75 9.37L52.58 9.37L52.58 8.39L53.75 8.39L53.75 7.63Q53.75 6.44 54.38 5.79Q55.02 5.14 56.18 5.14L56.18 5.14Q56.62 5.14 57.05 5.26L57.05 5.26L56.98 6.28Q56.66 6.22 56.30 6.22L56.30 6.22Q55.68 6.22 55.35 6.58Q55.01 6.94 55.01 7.61L55.01 7.61L55.01 8.39L56.59 8.39L56.59 9.37L55.01 9.37L55.01 15.79Z"/>
    </svg>
    