
    <svg width="70.892578125" height="22" viewBox="0 0 70.892578125 22" fill="red" xmlns="http://www.w3.org/2000/svg">
        <path d="M0 11C0 4.92487 4.92487 0 11 0H59.892578125C65.967708125 0 70.892578125 4.92487 70.892578125 11C70.892578125 17.0751 65.967708125 22 59.892578125 22H11C4.92487 22 0 17.0751 0 11Z" fill="#58A6FF" fill-opacity="0.2"/>
        <path fill="#58A6FF" d="M10.33 8.39L10.33 15.79L9.07 15.79L9.07 8.39L10.33 8.39ZM8.96 6.43L8.96 6.43Q8.96 6.12 9.15 5.91Q9.34 5.70 9.71 5.70Q10.08 5.70 10.27 5.91Q10.46 6.12 10.46 6.43Q10.46 6.73 10.27 6.94Q10.08 7.14 9.71 7.14Q9.34 7.14 9.15 6.94Q8.96 6.73 8.96 6.43ZM12.35 8.39L13.55 8.39L13.59 9.32Q14.44 8.25 15.81 8.25L15.81 8.25Q18.15 8.25 18.17 10.90L18.17 10.90L18.17 15.79L16.91 15.79L16.91 10.89Q16.90 10.09 16.54 9.71Q16.18 9.33 15.42 9.33L15.42 9.33Q14.81 9.33 14.34 9.65Q13.88 9.98 13.62 10.51L13.62 10.51L13.62 15.79L12.35 15.79L12.35 8.39ZM20.53 6.60L21.79 6.60L21.79 8.39L23.18 8.39L23.18 9.37L21.79 9.37L21.79 13.95Q21.79 14.40 21.98 14.62Q22.16 14.84 22.61 14.84L22.61 14.84Q22.83 14.84 23.21 14.76L23.21 14.76L23.21 15.79Q22.71 15.92 22.24 15.92L22.24 15.92Q21.39 15.92 20.96 15.41Q20.53 14.90 20.53 13.95L20.53 13.95L20.53 9.37L19.18 9.37L19.18 8.39L20.53 8.39L20.53 6.60ZM27.72 15.92L27.72 15.92Q26.22 15.92 25.27 14.93Q24.33 13.95 24.33 12.29L24.33 12.29L24.33 12.06Q24.33 10.96 24.75 10.09Q25.17 9.23 25.93 8.74Q26.68 8.25 27.56 8.25L27.56 8.25Q29.01 8.25 29.81 9.20Q30.61 10.15 30.61 11.92L30.61 11.92L30.61 12.45L25.60 12.45Q25.62 13.54 26.23 14.22Q26.85 14.89 27.79 14.89L27.79 14.89Q28.46 14.89 28.92 14.62Q29.39 14.34 29.74 13.89L29.74 13.89L30.51 14.49Q29.58 15.92 27.72 15.92ZM27.56 9.29L27.56 9.29Q26.80 9.29 26.28 9.85Q25.76 10.41 25.64 11.41L25.64 11.41L29.34 11.41L29.34 11.31Q29.29 10.35 28.82 9.82Q28.36 9.29 27.56 9.29ZM35.64 8.35L35.64 9.52Q35.36 9.48 35.02 9.48L35.02 9.48Q33.78 9.48 33.33 10.54L33.33 10.54L33.33 15.79L32.07 15.79L32.07 8.39L33.30 8.39L33.32 9.24Q33.94 8.25 35.08 8.25L35.08 8.25Q35.45 8.25 35.64 8.35L35.64 8.35ZM39.64 14.89L39.64 14.89Q40.32 14.89 40.83 14.48Q41.33 14.07 41.39 13.45L41.39 13.45L42.58 13.45Q42.55 14.09 42.15 14.66Q41.74 15.24 41.07 15.58Q40.40 15.92 39.64 15.92L39.64 15.92Q38.13 15.92 37.24 14.91Q36.35 13.91 36.35 12.16L36.35 12.16L36.35 11.94Q36.35 10.86 36.75 10.02Q37.14 9.18 37.88 8.72Q38.63 8.25 39.64 8.25L39.64 8.25Q40.88 8.25 41.70 9.00Q42.53 9.74 42.58 10.93L42.58 10.93L41.39 10.93Q41.33 10.21 40.84 9.75Q40.35 9.29 39.64 9.29L39.64 9.29Q38.67 9.29 38.14 9.98Q37.61 10.68 37.61 11.99L37.61 11.99L37.61 12.23Q37.61 13.51 38.14 14.20Q38.67 14.89 39.64 14.89ZM47.07 15.92L47.07 15.92Q45.57 15.92 44.63 14.93Q43.68 13.95 43.68 12.29L43.68 12.29L43.68 12.06Q43.68 10.96 44.10 10.09Q44.52 9.23 45.28 8.74Q46.04 8.25 46.92 8.25L46.92 8.25Q48.36 8.25 49.16 9.20Q49.96 10.15 49.96 11.92L49.96 11.92L49.96 12.45L44.95 12.45Q44.98 13.54 45.59 14.22Q46.20 14.89 47.14 14.89L47.14 14.89Q47.81 14.89 48.28 14.62Q48.74 14.34 49.09 13.89L49.09 13.89L49.86 14.49Q48.93 15.92 47.07 15.92ZM46.92 9.29L46.92 9.29Q46.15 9.29 45.63 9.85Q45.11 10.41 44.99 11.41L44.99 11.41L48.69 11.41L48.69 11.31Q48.64 10.35 48.17 9.82Q47.71 9.29 46.92 9.29ZM57.67 12.05L57.67 12.17Q57.67 13.86 56.90 14.89Q56.13 15.92 54.81 15.92L54.81 15.92Q53.46 15.92 52.69 15.07L52.69 15.07L52.69 18.63L51.42 18.63L51.42 8.39L52.58 8.39L52.64 9.21Q53.41 8.25 54.79 8.25L54.79 8.25Q56.12 8.25 56.89 9.26Q57.67 10.26 57.67 12.05L57.67 12.05ZM56.41 12.03L56.41 12.03Q56.41 10.77 55.87 10.05Q55.34 9.33 54.41 9.33L54.41 9.33Q53.26 9.33 52.69 10.34L52.69 10.34L52.69 13.88Q53.25 14.89 54.42 14.89L54.42 14.89Q55.33 14.89 55.87 14.17Q56.41 13.45 56.41 12.03ZM59.73 6.60L60.99 6.60L60.99 8.39L62.37 8.39L62.37 9.37L60.99 9.37L60.99 13.95Q60.99 14.40 61.18 14.62Q61.36 14.84 61.81 14.84L61.81 14.84Q62.02 14.84 62.41 14.76L62.41 14.76L62.41 15.79Q61.91 15.92 61.44 15.92L61.44 15.92Q60.59 15.92 60.16 15.41Q59.73 14.90 59.73 13.95L59.73 13.95L59.73 9.37L58.38 9.37L58.38 8.39L59.73 8.39L59.73 6.60Z"/>
    </svg>
    