<svg width="55" height="22" viewBox="0 0 55 22" fill="none" xmlns="http://www.w3.org/2000/svg">
<path d="M0 11C0 4.92487 4.92487 0 11 0H44C50.0751 0 55 4.92487 55 11V11C55 17.0751 50.0751 22 44 22H11C4.92487 22 0 17.0751 0 11V11Z" fill="#DDF4FF"/>
<path d="M10.3311 16H9.06641V5.5H10.3311V16ZM13.7354 16H12.4707V8.60352H13.7354V16ZM12.3682 6.6416C12.3682 6.43652 12.4297 6.26335 12.5527 6.12207C12.6803 5.98079 12.8672 5.91016 13.1133 5.91016C13.3594 5.91016 13.5462 5.98079 13.6738 6.12207C13.8014 6.26335 13.8652 6.43652 13.8652 6.6416C13.8652 6.84668 13.8014 7.01758 13.6738 7.1543C13.5462 7.29102 13.3594 7.35938 13.1133 7.35938C12.8672 7.35938 12.6803 7.29102 12.5527 7.1543C12.4297 7.01758 12.3682 6.84668 12.3682 6.6416ZM22.0273 12.3838C22.0273 13.514 21.7676 14.4232 21.248 15.1113C20.7285 15.7949 20.0312 16.1367 19.1562 16.1367C18.222 16.1367 17.4997 15.8063 16.9893 15.1455L16.9277 16H15.7656V5.5H17.0303V9.41699C17.5407 8.78353 18.2448 8.4668 19.1426 8.4668C20.0404 8.4668 20.7445 8.80632 21.2549 9.48535C21.7699 10.1644 22.0273 11.0941 22.0273 12.2744V12.3838ZM20.7627 12.2402C20.7627 11.3789 20.5964 10.7135 20.2637 10.2441C19.931 9.77474 19.4525 9.54004 18.8281 9.54004C17.9941 9.54004 17.3949 9.92741 17.0303 10.7021V13.9014C17.4176 14.6761 18.0215 15.0635 18.8418 15.0635C19.4479 15.0635 19.9196 14.8288 20.2568 14.3594C20.5941 13.89 20.7627 13.1836 20.7627 12.2402ZM27.2021 9.73828C27.0107 9.70638 26.8034 9.69043 26.5801 9.69043C25.7507 9.69043 25.1878 10.0436 24.8916 10.75V16H23.627V8.60352H24.8574L24.8779 9.45801C25.2926 8.7972 25.8805 8.4668 26.6416 8.4668C26.8877 8.4668 27.0745 8.4987 27.2021 8.5625V9.73828ZM32.6641 16C32.5911 15.8542 32.5319 15.5944 32.4863 15.2207C31.8984 15.8314 31.1966 16.1367 30.3809 16.1367C29.6517 16.1367 29.0524 15.9316 28.583 15.5215C28.1182 15.1068 27.8857 14.5827 27.8857 13.9492C27.8857 13.179 28.1774 12.582 28.7607 12.1582C29.3486 11.7298 30.1735 11.5156 31.2354 11.5156H32.4658V10.9346C32.4658 10.4925 32.3337 10.1416 32.0693 9.88184C31.805 9.61751 31.4154 9.48535 30.9004 9.48535C30.4492 9.48535 30.071 9.59928 29.7656 9.82715C29.4603 10.055 29.3076 10.3307 29.3076 10.6543H28.0361C28.0361 10.2852 28.166 9.92969 28.4258 9.58789C28.6901 9.24154 29.0456 8.9681 29.4922 8.76758C29.9434 8.56706 30.4378 8.4668 30.9756 8.4668C31.8278 8.4668 32.4954 8.68099 32.9785 9.10938C33.4616 9.5332 33.7122 10.1188 33.7305 10.8662V14.2705C33.7305 14.9495 33.8171 15.4896 33.9902 15.8906V16H32.6641ZM30.5654 15.0361C30.9619 15.0361 31.3379 14.9336 31.6934 14.7285C32.0488 14.5234 32.3063 14.2568 32.4658 13.9287V12.4111H31.4746C29.9251 12.4111 29.1504 12.8646 29.1504 13.7715C29.1504 14.168 29.2826 14.4779 29.5469 14.7012C29.8112 14.9245 30.1507 15.0361 30.5654 15.0361ZM39.2881 9.73828C39.0967 9.70638 38.8893 9.69043 38.666 9.69043C37.8366 9.69043 37.2738 10.0436 36.9775 10.75V16H35.7129V8.60352H36.9434L36.9639 9.45801C37.3786 8.7972 37.9665 8.4668 38.7275 8.4668C38.9736 8.4668 39.1605 8.4987 39.2881 8.5625V9.73828ZM43 14.1475L44.7227 8.60352H46.0762L43.1025 17.1416C42.6423 18.3721 41.9108 18.9873 40.9082 18.9873L40.6689 18.9668L40.1973 18.8779V17.8525L40.5391 17.8799C40.9674 17.8799 41.3001 17.7933 41.5371 17.6201C41.7786 17.4469 41.9769 17.1302 42.1318 16.6699L42.4121 15.918L39.7734 8.60352H41.1543L43 14.1475Z" fill="#0969DA"/>
</svg>
