
    <svg width="54.212890625" height="22" viewBox="0 0 54.212890625 22" fill="red" xmlns="http://www.w3.org/2000/svg">
        <path d="M0 11C0 4.92487 4.92487 0 11 0H43.212890625C49.288020625 0 54.212890625 4.92487 54.212890625 11C54.212890625 17.0751 49.288020625 22 43.212890625 22H11C4.92487 22 0 17.0751 0 11Z" fill="#58A6FF" fill-opacity="0.2"/>
        <path fill="#58A6FF" d="M10.33 5.29L10.33 15.79L9.07 15.79L9.07 5.29L10.33 5.29ZM13.73 8.39L13.73 15.79L12.46 15.79L12.46 8.39L13.73 8.39ZM12.36 6.43L12.36 6.43Q12.36 6.12 12.55 5.91Q12.74 5.70 13.11 5.70Q13.48 5.70 13.67 5.91Q13.86 6.12 13.86 6.43Q13.86 6.73 13.67 6.94Q13.48 7.14 13.11 7.14Q12.74 7.14 12.55 6.94Q12.36 6.73 12.36 6.43ZM22.01 12.06L22.01 12.17Q22.01 13.86 21.23 14.89Q20.46 15.92 19.14 15.92L19.14 15.92Q17.74 15.92 16.98 14.93L16.98 14.93L16.91 15.79L15.75 15.79L15.75 5.29L17.02 5.29L17.02 9.20Q17.78 8.25 19.13 8.25Q20.48 8.25 21.24 9.27Q22.01 10.29 22.01 12.06L22.01 12.06ZM20.75 12.03L20.75 12.03Q20.75 10.73 20.25 10.03Q19.75 9.33 18.81 9.33L18.81 9.33Q17.56 9.33 17.02 10.49L17.02 10.49L17.02 13.69Q17.60 14.85 18.83 14.85L18.83 14.85Q19.74 14.85 20.24 14.14Q20.75 13.44 20.75 12.03ZM27.18 8.35L27.18 9.52Q26.89 9.48 26.56 9.48L26.56 9.48Q25.32 9.48 24.87 10.54L24.87 10.54L24.87 15.79L23.61 15.79L23.61 8.39L24.84 8.39L24.86 9.24Q25.48 8.25 26.62 8.25L26.62 8.25Q26.99 8.25 27.18 8.35L27.18 8.35ZM33.96 15.79L32.64 15.79Q32.53 15.57 32.46 15.01L32.46 15.01Q31.58 15.92 30.35 15.92L30.35 15.92Q29.26 15.92 28.56 15.30Q27.86 14.68 27.86 13.73L27.86 13.73Q27.86 12.58 28.74 11.94Q29.62 11.30 31.21 11.30L31.21 11.30L32.44 11.30L32.44 10.72Q32.44 10.06 32.04 9.66Q31.65 9.27 30.87 9.27L30.87 9.27Q30.20 9.27 29.74 9.61Q29.28 9.95 29.28 10.44L29.28 10.44L28.01 10.44Q28.01 9.89 28.40 9.37Q28.79 8.85 29.47 8.55Q30.14 8.25 30.95 8.25L30.95 8.25Q32.23 8.25 32.95 8.89Q33.68 9.53 33.70 10.65L33.70 10.65L33.70 14.06Q33.70 15.07 33.96 15.68L33.96 15.68L33.96 15.79ZM30.54 14.82L30.54 14.82Q31.13 14.82 31.67 14.51Q32.20 14.21 32.44 13.71L32.44 13.71L32.44 12.20L31.45 12.20Q29.12 12.20 29.12 13.56L29.12 13.56Q29.12 14.15 29.52 14.49Q29.92 14.82 30.54 14.82ZM39.26 8.35L39.26 9.52Q38.97 9.48 38.64 9.48L38.64 9.48Q37.39 9.48 36.95 10.54L36.95 10.54L36.95 15.79L35.69 15.79L35.69 8.39L36.92 8.39L36.94 9.24Q37.56 8.25 38.70 8.25L38.70 8.25Q39.07 8.25 39.26 8.35L39.26 8.35ZM41.12 8.39L42.97 13.93L44.69 8.39L46.04 8.39L43.07 16.93Q42.38 18.77 40.87 18.77L40.87 18.77L40.63 18.75L40.16 18.66L40.16 17.64L40.50 17.67Q41.15 17.67 41.51 17.41Q41.87 17.15 42.10 16.46L42.10 16.46L42.38 15.70L39.74 8.39L41.12 8.39Z"/>
    </svg>
    