
    <svg width="50.958984375" height="22" viewBox="0 0 50.958984375 22" fill="red" xmlns="http://www.w3.org/2000/svg">
        <path d="M0 11C0 4.92487 4.92487 0 11 0H39.958984375C46.034114375 0 50.958984375 4.92487 50.958984375 11C50.958984375 17.0751 46.034114375 22 39.958984375 22H11C4.92487 22 0 17.0751 0 11Z" fill="#58A6FF" fill-opacity="0.2"/>
        <path fill="#58A6FF" d="M8.95 8.39L10.15 8.39L10.18 9.21Q10.99 8.25 12.38 8.25L12.38 8.25Q13.93 8.25 14.49 9.44L14.49 9.44Q14.86 8.91 15.45 8.58Q16.04 8.25 16.85 8.25L16.85 8.25Q19.28 8.25 19.32 10.83L19.32 10.83L19.32 15.79L18.06 15.79L18.06 10.90Q18.06 10.11 17.69 9.72Q17.33 9.33 16.48 9.33L16.48 9.33Q15.77 9.33 15.31 9.75Q14.84 10.17 14.77 10.88L14.77 10.88L14.77 15.79L13.50 15.79L13.50 10.94Q13.50 9.33 11.92 9.33L11.92 9.33Q10.67 9.33 10.21 10.38L10.21 10.38L10.21 15.79L8.95 15.79L8.95 8.39ZM27.12 15.79L25.79 15.79Q25.68 15.57 25.62 15.01L25.62 15.01Q24.73 15.92 23.51 15.92L23.51 15.92Q22.42 15.92 21.72 15.30Q21.02 14.68 21.02 13.73L21.02 13.73Q21.02 12.58 21.89 11.94Q22.77 11.30 24.37 11.30L24.37 11.30L25.60 11.30L25.60 10.72Q25.60 10.06 25.20 9.66Q24.80 9.27 24.03 9.27L24.03 9.27Q23.35 9.27 22.90 9.61Q22.44 9.95 22.44 10.44L22.44 10.44L21.17 10.44Q21.17 9.89 21.56 9.37Q21.95 8.85 22.63 8.55Q23.30 8.25 24.11 8.25L24.11 8.25Q25.38 8.25 26.11 8.89Q26.83 9.53 26.86 10.65L26.86 10.65L26.86 14.06Q26.86 15.07 27.12 15.68L27.12 15.68L27.12 15.79ZM23.70 14.82L23.70 14.82Q24.29 14.82 24.82 14.51Q25.36 14.21 25.60 13.71L25.60 13.71L25.60 12.20L24.60 12.20Q22.28 12.20 22.28 13.56L22.28 13.56Q22.28 14.15 22.68 14.49Q23.07 14.82 23.70 14.82ZM35.09 12.05L35.09 12.17Q35.09 13.86 34.32 14.89Q33.55 15.92 32.23 15.92L32.23 15.92Q30.88 15.92 30.11 15.07L30.11 15.07L30.11 18.63L28.84 18.63L28.84 8.39L30.00 8.39L30.06 9.21Q30.83 8.25 32.21 8.25L32.21 8.25Q33.54 8.25 34.31 9.26Q35.09 10.26 35.09 12.05L35.09 12.05ZM33.83 12.03L33.83 12.03Q33.83 10.77 33.29 10.05Q32.76 9.33 31.83 9.33L31.83 9.33Q30.68 9.33 30.11 10.34L30.11 10.34L30.11 13.88Q30.67 14.89 31.84 14.89L31.84 14.89Q32.75 14.89 33.29 14.17Q33.83 13.45 33.83 12.03ZM41.00 13.82L41.00 13.82Q41.00 13.31 40.62 13.03Q40.23 12.74 39.27 12.54Q38.31 12.33 37.75 12.05Q37.18 11.76 36.91 11.36Q36.64 10.97 36.64 10.42L36.64 10.42Q36.64 9.51 37.41 8.88Q38.18 8.25 39.38 8.25L39.38 8.25Q40.63 8.25 41.42 8.90Q42.20 9.55 42.20 10.56L42.20 10.56L40.93 10.56Q40.93 10.04 40.49 9.67Q40.05 9.29 39.38 9.29L39.38 9.29Q38.69 9.29 38.30 9.59Q37.91 9.89 37.91 10.38L37.91 10.38Q37.91 10.84 38.27 11.07Q38.63 11.30 39.58 11.51Q40.53 11.72 41.11 12.02Q41.70 12.31 41.98 12.73Q42.27 13.14 42.27 13.73L42.27 13.73Q42.27 14.73 41.48 15.32Q40.68 15.92 39.42 15.92L39.42 15.92Q38.53 15.92 37.85 15.61Q37.16 15.29 36.78 14.73Q36.39 14.17 36.39 13.51L36.39 13.51L37.65 13.51Q37.69 14.14 38.16 14.52Q38.64 14.89 39.42 14.89L39.42 14.89Q40.14 14.89 40.57 14.60Q41.00 14.31 41.00 13.82Z"/>
    </svg>
    