<svg width="66" height="22" viewBox="0 0 66 22" fill="none" xmlns="http://www.w3.org/2000/svg">
<path d="M0 11C0 4.92487 4.92487 0 11 0H55C61.0751 0 66 4.92487 66 11V11C66 17.0751 61.0751 22 55 22H11C4.92487 22 0 17.0751 0 11V11Z" fill="#DDF4FF"/>
<path d="M10.1465 8.60352L10.1807 9.42383C10.723 8.78581 11.4544 8.4668 12.375 8.4668C13.4095 8.4668 14.1136 8.86328 14.4873 9.65625C14.7334 9.30078 15.0524 9.01367 15.4443 8.79492C15.8408 8.57617 16.3079 8.4668 16.8457 8.4668C18.4681 8.4668 19.293 9.32585 19.3203 11.0439V16H18.0557V11.1191C18.0557 10.5905 17.9349 10.1963 17.6934 9.93652C17.4518 9.6722 17.0462 9.54004 16.4766 9.54004C16.0072 9.54004 15.6175 9.68132 15.3076 9.96387C14.9977 10.2419 14.8177 10.6178 14.7676 11.0918V16H13.4961V11.1533C13.4961 10.0778 12.9697 9.54004 11.917 9.54004C11.0876 9.54004 10.5202 9.89323 10.2148 10.5996V16H8.9502V8.60352H10.1465ZM22.6084 16H21.3438V8.60352H22.6084V16ZM21.2412 6.6416C21.2412 6.43652 21.3027 6.26335 21.4258 6.12207C21.5534 5.98079 21.7402 5.91016 21.9863 5.91016C22.2324 5.91016 22.4193 5.98079 22.5469 6.12207C22.6745 6.26335 22.7383 6.43652 22.7383 6.6416C22.7383 6.84668 22.6745 7.01758 22.5469 7.1543C22.4193 7.29102 22.2324 7.35938 21.9863 7.35938C21.7402 7.35938 21.5534 7.29102 21.4258 7.1543C21.3027 7.01758 21.2412 6.84668 21.2412 6.6416ZM28.9453 14.0381C28.9453 13.6963 28.8154 13.432 28.5557 13.2451C28.3005 13.0537 27.8516 12.8896 27.209 12.7529C26.571 12.6162 26.0628 12.4521 25.6846 12.2607C25.3109 12.0693 25.0329 11.8415 24.8506 11.5771C24.6729 11.3128 24.584 10.9984 24.584 10.6338C24.584 10.0277 24.8392 9.51497 25.3496 9.0957C25.8646 8.67643 26.5208 8.4668 27.3184 8.4668C28.1569 8.4668 28.8359 8.68327 29.3555 9.11621C29.8796 9.54915 30.1416 10.1029 30.1416 10.7773H28.8701C28.8701 10.431 28.722 10.1325 28.4258 9.88184C28.1341 9.63118 27.765 9.50586 27.3184 9.50586C26.8581 9.50586 26.498 9.60612 26.2383 9.80664C25.9785 10.0072 25.8486 10.2692 25.8486 10.5928C25.8486 10.8981 25.9694 11.1283 26.2109 11.2832C26.4525 11.4382 26.8877 11.5863 27.5166 11.7275C28.1501 11.8688 28.6628 12.0374 29.0547 12.2334C29.4466 12.4294 29.736 12.6663 29.9229 12.9443C30.1143 13.2178 30.21 13.5527 30.21 13.9492C30.21 14.61 29.9456 15.141 29.417 15.542C28.8883 15.9385 28.2025 16.1367 27.3594 16.1367C26.7669 16.1367 26.2428 16.0319 25.7871 15.8223C25.3314 15.6126 24.9736 15.321 24.7139 14.9473C24.4587 14.569 24.3311 14.1611 24.3311 13.7236H25.5957C25.6185 14.1475 25.7871 14.4847 26.1016 14.7354C26.4206 14.9814 26.8398 15.1045 27.3594 15.1045C27.8379 15.1045 28.2207 15.0088 28.5078 14.8174C28.7995 14.6214 28.9453 14.3617 28.9453 14.0381ZM36.1641 14.0381C36.1641 13.6963 36.0342 13.432 35.7744 13.2451C35.5192 13.0537 35.0703 12.8896 34.4277 12.7529C33.7897 12.6162 33.2816 12.4521 32.9033 12.2607C32.5296 12.0693 32.2516 11.8415 32.0693 11.5771C31.8916 11.3128 31.8027 10.9984 31.8027 10.6338C31.8027 10.0277 32.0579 9.51497 32.5684 9.0957C33.0833 8.67643 33.7396 8.4668 34.5371 8.4668C35.3757 8.4668 36.0547 8.68327 36.5742 9.11621C37.0983 9.54915 37.3604 10.1029 37.3604 10.7773H36.0889C36.0889 10.431 35.9408 10.1325 35.6445 9.88184C35.3529 9.63118 34.9837 9.50586 34.5371 9.50586C34.0768 9.50586 33.7168 9.60612 33.457 9.80664C33.1973 10.0072 33.0674 10.2692 33.0674 10.5928C33.0674 10.8981 33.1882 11.1283 33.4297 11.2832C33.6712 11.4382 34.1064 11.5863 34.7354 11.7275C35.3688 11.8688 35.8815 12.0374 36.2734 12.2334C36.6654 12.4294 36.9548 12.6663 37.1416 12.9443C37.333 13.2178 37.4287 13.5527 37.4287 13.9492C37.4287 14.61 37.1644 15.141 36.6357 15.542C36.1071 15.9385 35.4212 16.1367 34.5781 16.1367C33.9857 16.1367 33.4616 16.0319 33.0059 15.8223C32.5501 15.6126 32.1924 15.321 31.9326 14.9473C31.6774 14.569 31.5498 14.1611 31.5498 13.7236H32.8145C32.8372 14.1475 33.0059 14.4847 33.3203 14.7354C33.6393 14.9814 34.0586 15.1045 34.5781 15.1045C35.0566 15.1045 35.4395 15.0088 35.7266 14.8174C36.0182 14.6214 36.1641 14.3617 36.1641 14.0381ZM40.4502 16H39.1855V8.60352H40.4502V16ZM39.083 6.6416C39.083 6.43652 39.1445 6.26335 39.2676 6.12207C39.3952 5.98079 39.582 5.91016 39.8281 5.91016C40.0742 5.91016 40.2611 5.98079 40.3887 6.12207C40.5163 6.26335 40.5801 6.43652 40.5801 6.6416C40.5801 6.84668 40.5163 7.01758 40.3887 7.1543C40.2611 7.29102 40.0742 7.35938 39.8281 7.35938C39.582 7.35938 39.3952 7.29102 39.2676 7.1543C39.1445 7.01758 39.083 6.84668 39.083 6.6416ZM42.1455 12.2334C42.1455 11.5088 42.2868 10.8571 42.5693 10.2783C42.8564 9.69954 43.2529 9.25293 43.7588 8.93848C44.2692 8.62402 44.8503 8.4668 45.502 8.4668C46.5091 8.4668 47.3226 8.81543 47.9424 9.5127C48.5667 10.21 48.8789 11.1374 48.8789 12.2949V12.3838C48.8789 13.1038 48.7399 13.751 48.4619 14.3252C48.1885 14.8949 47.7943 15.3392 47.2793 15.6582C46.7689 15.9772 46.181 16.1367 45.5156 16.1367C44.513 16.1367 43.6995 15.7881 43.0752 15.0908C42.4554 14.3936 42.1455 13.4707 42.1455 12.3223V12.2334ZM43.417 12.3838C43.417 13.2041 43.6061 13.8626 43.9844 14.3594C44.3672 14.8561 44.8776 15.1045 45.5156 15.1045C46.1582 15.1045 46.6686 14.8538 47.0469 14.3525C47.4251 13.8467 47.6143 13.1403 47.6143 12.2334C47.6143 11.4222 47.4206 10.766 47.0332 10.2646C46.6504 9.75879 46.14 9.50586 45.502 9.50586C44.8776 9.50586 44.374 9.75423 43.9912 10.251C43.6084 10.7477 43.417 11.4587 43.417 12.3838ZM51.6611 8.60352L51.7021 9.5332C52.2673 8.82227 53.0055 8.4668 53.917 8.4668C55.4801 8.4668 56.2686 9.34863 56.2822 11.1123V16H55.0176V11.1055C55.013 10.5723 54.89 10.1781 54.6484 9.92285C54.4115 9.66764 54.04 9.54004 53.5342 9.54004C53.124 9.54004 52.764 9.64941 52.4541 9.86816C52.1442 10.0869 51.9027 10.374 51.7295 10.7295V16H50.4648V8.60352H51.6611Z" fill="#0969DA"/>
</svg>
