
    <svg width="65.2119140625" height="22" viewBox="0 0 65.2119140625 22" fill="red" xmlns="http://www.w3.org/2000/svg">
        <path d="M0 11C0 4.92487 4.92487 0 11 0H54.2119140625C60.2870440625 0 65.2119140625 4.92487 65.2119140625 11C65.2119140625 17.0751 60.2870440625 22 54.2119140625 22H11C4.92487 22 0 17.0751 0 11Z" fill="#58A6FF" fill-opacity="0.2"/>
        <path fill="#58A6FF" d="M8.95 8.39L10.15 8.39L10.18 9.21Q10.99 8.25 12.38 8.25L12.38 8.25Q13.93 8.25 14.49 9.44L14.49 9.44Q14.86 8.91 15.45 8.58Q16.04 8.25 16.85 8.25L16.85 8.25Q19.28 8.25 19.32 10.83L19.32 10.83L19.32 15.79L18.06 15.79L18.06 10.90Q18.06 10.11 17.69 9.72Q17.33 9.33 16.48 9.33L16.48 9.33Q15.77 9.33 15.31 9.75Q14.84 10.17 14.77 10.88L14.77 10.88L14.77 15.79L13.50 15.79L13.50 10.94Q13.50 9.33 11.92 9.33L11.92 9.33Q10.67 9.33 10.21 10.38L10.21 10.38L10.21 15.79L8.95 15.79L8.95 8.39ZM22.60 8.39L22.60 15.79L21.34 15.79L21.34 8.39L22.60 8.39ZM21.23 6.43L21.23 6.43Q21.23 6.12 21.42 5.91Q21.61 5.70 21.98 5.70Q22.35 5.70 22.54 5.91Q22.73 6.12 22.73 6.43Q22.73 6.73 22.54 6.94Q22.35 7.14 21.98 7.14Q21.61 7.14 21.42 6.94Q21.23 6.73 21.23 6.43ZM28.93 13.82L28.93 13.82Q28.93 13.31 28.55 13.03Q28.16 12.74 27.20 12.54Q26.24 12.33 25.67 12.05Q25.11 11.76 24.84 11.36Q24.57 10.97 24.57 10.42L24.57 10.42Q24.57 9.51 25.34 8.88Q26.11 8.25 27.30 8.25L27.30 8.25Q28.56 8.25 29.35 8.90Q30.13 9.55 30.13 10.56L30.13 10.56L28.86 10.56Q28.86 10.04 28.42 9.67Q27.97 9.29 27.30 9.29L27.30 9.29Q26.61 9.29 26.22 9.59Q25.83 9.89 25.83 10.38L25.83 10.38Q25.83 10.84 26.20 11.07Q26.56 11.30 27.51 11.51Q28.45 11.72 29.04 12.02Q29.63 12.31 29.91 12.73Q30.20 13.14 30.20 13.73L30.20 13.73Q30.20 14.73 29.40 15.32Q28.61 15.92 27.35 15.92L27.35 15.92Q26.46 15.92 25.77 15.61Q25.09 15.29 24.70 14.73Q24.32 14.17 24.32 13.51L24.32 13.51L25.58 13.51Q25.62 14.14 26.09 14.52Q26.57 14.89 27.35 14.89L27.35 14.89Q28.06 14.89 28.50 14.60Q28.93 14.31 28.93 13.82ZM36.15 13.82L36.15 13.82Q36.15 13.31 35.76 13.03Q35.38 12.74 34.42 12.54Q33.46 12.33 32.89 12.05Q32.33 11.76 32.06 11.36Q31.79 10.97 31.79 10.42L31.79 10.42Q31.79 9.51 32.56 8.88Q33.33 8.25 34.52 8.25L34.52 8.25Q35.78 8.25 36.56 8.90Q37.35 9.55 37.35 10.56L37.35 10.56L36.08 10.56Q36.08 10.04 35.63 9.67Q35.19 9.29 34.52 9.29L34.52 9.29Q33.83 9.29 33.44 9.59Q33.05 9.89 33.05 10.38L33.05 10.38Q33.05 10.84 33.42 11.07Q33.78 11.30 34.73 11.51Q35.67 11.72 36.26 12.02Q36.85 12.31 37.13 12.73Q37.42 13.14 37.42 13.73L37.42 13.73Q37.42 14.73 36.62 15.32Q35.83 15.92 34.56 15.92L34.56 15.92Q33.68 15.92 32.99 15.61Q32.31 15.29 31.92 14.73Q31.54 14.17 31.54 13.51L31.54 13.51L32.80 13.51Q32.83 14.14 33.31 14.52Q33.79 14.89 34.56 14.89L34.56 14.89Q35.28 14.89 35.72 14.60Q36.15 14.31 36.15 13.82ZM40.44 8.39L40.44 15.79L39.17 15.79L39.17 8.39L40.44 8.39ZM39.07 6.43L39.07 6.43Q39.07 6.12 39.26 5.91Q39.45 5.70 39.81 5.70Q40.18 5.70 40.38 5.91Q40.57 6.12 40.57 6.43Q40.57 6.73 40.38 6.94Q40.18 7.14 39.81 7.14Q39.45 7.14 39.26 6.94Q39.07 6.73 39.07 6.43ZM42.13 12.11L42.13 12.02Q42.13 10.93 42.55 10.06Q42.98 9.20 43.74 8.72Q44.50 8.25 45.48 8.25L45.48 8.25Q46.99 8.25 47.93 9.30Q48.86 10.34 48.86 12.08L48.86 12.08L48.86 12.17Q48.86 13.25 48.44 14.11Q48.03 14.96 47.26 15.44Q46.49 15.92 45.50 15.92L45.50 15.92Q43.99 15.92 43.06 14.88Q42.13 13.83 42.13 12.11L42.13 12.11ZM43.40 12.17L43.40 12.17Q43.40 13.40 43.97 14.14Q44.54 14.89 45.50 14.89L45.50 14.89Q46.46 14.89 47.03 14.13Q47.59 13.38 47.59 12.02L47.59 12.02Q47.59 10.80 47.02 10.05Q46.44 9.29 45.48 9.29L45.48 9.29Q44.54 9.29 43.97 10.04Q43.40 10.78 43.40 12.17ZM50.44 8.39L51.64 8.39L51.68 9.32Q52.53 8.25 53.90 8.25L53.90 8.25Q56.24 8.25 56.26 10.90L56.26 10.90L56.26 15.79L55.00 15.79L55.00 10.89Q54.99 10.09 54.63 9.71Q54.27 9.33 53.51 9.33L53.51 9.33Q52.90 9.33 52.43 9.65Q51.97 9.98 51.71 10.51L51.71 10.51L51.71 15.79L50.44 15.79L50.44 8.39Z"/>
    </svg>
    