<svg width="45" height="22" viewBox="0 0 45 22" fill="none" xmlns="http://www.w3.org/2000/svg">
<path d="M0 11C0 4.92487 4.92487 0 11 0H34C40.0751 0 45 4.92487 45 11V11C45 17.0751 40.0751 22 34 22H11C4.92487 22 0 17.0751 0 11V11Z" fill="#DDF4FF"/>
<path d="M10.1465 8.60352L10.1807 9.42383C10.723 8.78581 11.4544 8.4668 12.375 8.4668C13.4095 8.4668 14.1136 8.86328 14.4873 9.65625C14.7334 9.30078 15.0524 9.01367 15.4443 8.79492C15.8408 8.57617 16.3079 8.4668 16.8457 8.4668C18.4681 8.4668 19.293 9.32585 19.3203 11.0439V16H18.0557V11.1191C18.0557 10.5905 17.9349 10.1963 17.6934 9.93652C17.4518 9.6722 17.0462 9.54004 16.4766 9.54004C16.0072 9.54004 15.6175 9.68132 15.3076 9.96387C14.9977 10.2419 14.8177 10.6178 14.7676 11.0918V16H13.4961V11.1533C13.4961 10.0778 12.9697 9.54004 11.917 9.54004C11.0876 9.54004 10.5202 9.89323 10.2148 10.5996V16H8.9502V8.60352H10.1465ZM20.8994 12.2334C20.8994 11.5088 21.0407 10.8571 21.3232 10.2783C21.6104 9.69954 22.0068 9.25293 22.5127 8.93848C23.0231 8.62402 23.6042 8.4668 24.2559 8.4668C25.263 8.4668 26.0765 8.81543 26.6963 9.5127C27.3206 10.21 27.6328 11.1374 27.6328 12.2949V12.3838C27.6328 13.1038 27.4938 13.751 27.2158 14.3252C26.9424 14.8949 26.5482 15.3392 26.0332 15.6582C25.5228 15.9772 24.9349 16.1367 24.2695 16.1367C23.2669 16.1367 22.4535 15.7881 21.8291 15.0908C21.2093 14.3936 20.8994 13.4707 20.8994 12.3223V12.2334ZM22.1709 12.3838C22.1709 13.2041 22.36 13.8626 22.7383 14.3594C23.1211 14.8561 23.6315 15.1045 24.2695 15.1045C24.9121 15.1045 25.4225 14.8538 25.8008 14.3525C26.179 13.8467 26.3682 13.1403 26.3682 12.2334C26.3682 11.4222 26.1745 10.766 25.7871 10.2646C25.4043 9.75879 24.8939 9.50586 24.2559 9.50586C23.6315 9.50586 23.1279 9.75423 22.7451 10.251C22.3623 10.7477 22.1709 11.4587 22.1709 12.3838ZM28.9111 12.2402C28.9111 11.1055 29.18 10.194 29.7178 9.50586C30.2555 8.81315 30.9596 8.4668 31.8301 8.4668C32.696 8.4668 33.3818 8.76302 33.8877 9.35547V5.5H35.1523V16H33.9902L33.9287 15.207C33.4229 15.8268 32.7188 16.1367 31.8164 16.1367C30.9596 16.1367 30.2601 15.7858 29.7178 15.084C29.18 14.3822 28.9111 13.4661 28.9111 12.3359V12.2402ZM30.1758 12.3838C30.1758 13.2223 30.349 13.8786 30.6953 14.3525C31.0417 14.8265 31.5202 15.0635 32.1309 15.0635C32.9329 15.0635 33.5186 14.7035 33.8877 13.9834V10.5859C33.5094 9.88867 32.9284 9.54004 32.1445 9.54004C31.5247 9.54004 31.0417 9.7793 30.6953 10.2578C30.349 10.7363 30.1758 11.445 30.1758 12.3838Z" fill="#0969DA"/>
</svg>
