
    <svg width="44.150390625" height="22" viewBox="0 0 44.150390625 22" fill="red" xmlns="http://www.w3.org/2000/svg">
        <path d="M0 11C0 4.92487 4.92487 0 11 0H33.150390625C39.225520625 0 44.150390625 4.92487 44.150390625 11C44.150390625 17.0751 39.225520625 22 33.150390625 22H11C4.92487 22 0 17.0751 0 11Z" fill="#58A6FF" fill-opacity="0.2"/>
        <path fill="#58A6FF" d="M8.95 8.39L10.15 8.39L10.18 9.21Q10.99 8.25 12.38 8.25L12.38 8.25Q13.93 8.25 14.49 9.44L14.49 9.44Q14.86 8.91 15.45 8.58Q16.04 8.25 16.85 8.25L16.85 8.25Q19.28 8.25 19.32 10.83L19.32 10.83L19.32 15.79L18.06 15.79L18.06 10.90Q18.06 10.11 17.69 9.72Q17.33 9.33 16.48 9.33L16.48 9.33Q15.77 9.33 15.31 9.75Q14.84 10.17 14.77 10.88L14.77 10.88L14.77 15.79L13.50 15.79L13.50 10.94Q13.50 9.33 11.92 9.33L11.92 9.33Q10.67 9.33 10.21 10.38L10.21 10.38L10.21 15.79L8.95 15.79L8.95 8.39ZM20.89 12.11L20.89 12.02Q20.89 10.93 21.32 10.06Q21.75 9.20 22.51 8.72Q23.27 8.25 24.25 8.25L24.25 8.25Q25.76 8.25 26.69 9.30Q27.63 10.34 27.63 12.08L27.63 12.08L27.63 12.17Q27.63 13.25 27.21 14.11Q26.80 14.96 26.03 15.44Q25.26 15.92 24.26 15.92L24.26 15.92Q22.76 15.92 21.83 14.88Q20.89 13.83 20.89 12.11L20.89 12.11ZM22.16 12.17L22.16 12.17Q22.16 13.40 22.73 14.14Q23.31 14.89 24.26 14.89L24.26 14.89Q25.23 14.89 25.79 14.13Q26.36 13.38 26.36 12.02L26.36 12.02Q26.36 10.80 25.78 10.05Q25.21 9.29 24.25 9.29L24.25 9.29Q23.31 9.29 22.74 10.04Q22.16 10.78 22.16 12.17ZM28.90 12.12L28.90 12.03Q28.90 10.32 29.71 9.29Q30.52 8.25 31.82 8.25L31.82 8.25Q33.12 8.25 33.88 9.14L33.88 9.14L33.88 5.29L35.15 5.29L35.15 15.79L33.98 15.79L33.92 14.99Q33.16 15.92 31.81 15.92L31.81 15.92Q30.52 15.92 29.71 14.87Q28.90 13.82 28.90 12.12L28.90 12.12ZM30.17 12.17L30.17 12.17Q30.17 13.43 30.69 14.14Q31.21 14.85 32.12 14.85L32.12 14.85Q33.33 14.85 33.88 13.77L33.88 13.77L33.88 10.37Q33.31 9.33 32.14 9.33L32.14 9.33Q31.21 9.33 30.69 10.04Q30.17 10.76 30.17 12.17Z"/>
    </svg>
    