
    <svg width="62.73046875" height="22" viewBox="0 0 62.73046875 22" fill="red" xmlns="http://www.w3.org/2000/svg">
        <path d="M0 11C0 4.92487 4.92487 0 11 0H51.73046875C57.80559875 0 62.73046875 4.92487 62.73046875 11C62.73046875 17.0751 57.80559875 22 51.73046875 22H11C4.92487 22 0 17.0751 0 11Z" fill="#58A6FF" fill-opacity="0.2"/>
        <path fill="#58A6FF" d="M8.96 8.39L10.15 8.39L10.19 9.32Q11.04 8.25 12.41 8.25L12.41 8.25Q14.75 8.25 14.77 10.90L14.77 10.90L14.77 15.79L13.51 15.79L13.51 10.89Q13.50 10.09 13.14 9.71Q12.79 9.33 12.03 9.33L12.03 9.33Q11.41 9.33 10.95 9.65Q10.48 9.98 10.22 10.51L10.22 10.51L10.22 15.79L8.96 15.79L8.96 8.39ZM16.35 12.11L16.35 12.02Q16.35 10.93 16.77 10.06Q17.20 9.20 17.96 8.72Q18.73 8.25 19.70 8.25L19.70 8.25Q21.21 8.25 22.15 9.30Q23.08 10.34 23.08 12.08L23.08 12.08L23.08 12.17Q23.08 13.25 22.67 14.11Q22.25 14.96 21.48 15.44Q20.71 15.92 19.72 15.92L19.72 15.92Q18.21 15.92 17.28 14.88Q16.35 13.83 16.35 12.11L16.35 12.11ZM17.62 12.17L17.62 12.17Q17.62 13.40 18.19 14.14Q18.76 14.89 19.72 14.89L19.72 14.89Q20.68 14.89 21.25 14.13Q21.82 13.38 21.82 12.02L21.82 12.02Q21.82 10.80 21.24 10.05Q20.66 9.29 19.70 9.29L19.70 9.29Q18.77 9.29 18.19 10.04Q17.62 10.78 17.62 12.17ZM24.36 12.12L24.36 12.03Q24.36 10.32 25.17 9.29Q25.97 8.25 27.28 8.25L27.28 8.25Q28.58 8.25 29.33 9.14L29.33 9.14L29.33 5.29L30.60 5.29L30.60 15.79L29.44 15.79L29.38 14.99Q28.62 15.92 27.26 15.92L27.26 15.92Q25.98 15.92 25.17 14.87Q24.36 13.82 24.36 12.12L24.36 12.12ZM25.62 12.17L25.62 12.17Q25.62 13.43 26.14 14.14Q26.66 14.85 27.58 14.85L27.58 14.85Q28.78 14.85 29.33 13.77L29.33 13.77L29.33 10.37Q28.77 9.33 27.59 9.33L27.59 9.33Q26.66 9.33 26.14 10.04Q25.62 10.76 25.62 12.17ZM35.63 15.92L35.63 15.92Q34.13 15.92 33.18 14.93Q32.24 13.95 32.24 12.29L32.24 12.29L32.24 12.06Q32.24 10.96 32.66 10.09Q33.08 9.23 33.84 8.74Q34.59 8.25 35.47 8.25L35.47 8.25Q36.92 8.25 37.72 9.20Q38.52 10.15 38.52 11.92L38.52 11.92L38.52 12.45L33.50 12.45Q33.53 13.54 34.14 14.22Q34.76 14.89 35.70 14.89L35.70 14.89Q36.37 14.89 36.83 14.62Q37.30 14.34 37.65 13.89L37.65 13.89L38.42 14.49Q37.49 15.92 35.63 15.92ZM35.47 9.29L35.47 9.29Q34.71 9.29 34.19 9.85Q33.67 10.41 33.55 11.41L33.55 11.41L37.25 11.41L37.25 11.31Q37.20 10.35 36.73 9.82Q36.27 9.29 35.47 9.29ZM46.24 12.06L46.24 12.17Q46.24 13.86 45.46 14.89Q44.68 15.92 43.37 15.92L43.37 15.92Q41.97 15.92 41.20 14.93L41.20 14.93L41.14 15.79L39.98 15.79L39.98 5.29L41.24 5.29L41.24 9.20Q42.01 8.25 43.36 8.25Q44.70 8.25 45.47 9.27Q46.24 10.29 46.24 12.06L46.24 12.06ZM44.98 12.03L44.98 12.03Q44.98 10.73 44.48 10.03Q43.98 9.33 43.04 9.33L43.04 9.33Q41.79 9.33 41.24 10.49L41.24 10.49L41.24 13.69Q41.82 14.85 43.05 14.85L43.05 14.85Q43.96 14.85 44.47 14.14Q44.98 13.44 44.98 12.03ZM54.09 12.06L54.09 12.17Q54.09 13.86 53.32 14.89Q52.54 15.92 51.22 15.92L51.22 15.92Q49.82 15.92 49.06 14.93L49.06 14.93L49.00 15.79L47.83 15.79L47.83 5.29L49.10 5.29L49.10 9.20Q49.86 8.25 51.21 8.25Q52.56 8.25 53.33 9.27Q54.09 10.29 54.09 12.06L54.09 12.06ZM52.83 12.03L52.83 12.03Q52.83 10.73 52.33 10.03Q51.83 9.33 50.90 9.33L50.90 9.33Q49.64 9.33 49.10 10.49L49.10 10.49L49.10 13.69Q49.68 14.85 50.91 14.85L50.91 14.85Q51.82 14.85 52.32 14.14Q52.83 13.44 52.83 12.03Z"/>
    </svg>
    