
    <svg width="39.0849609375" height="22" viewBox="0 0 39.0849609375 22" fill="red" xmlns="http://www.w3.org/2000/svg">
        <path d="M0 11C0 4.92487 4.92487 0 11 0H28.0849609375C34.1600909375 0 39.0849609375 4.92487 39.0849609375 11C39.0849609375 17.0751 34.1600909375 22 28.0849609375 22H11C4.92487 22 0 17.0751 0 11Z" fill="#58A6FF" fill-opacity="0.2"/>
        <path fill="#58A6FF" d="M15.21 12.05L15.21 12.17Q15.21 13.86 14.43 14.89Q13.66 15.92 12.34 15.92L12.34 15.92Q10.99 15.92 10.22 15.07L10.22 15.07L10.22 18.63L8.96 18.63L8.96 8.39L10.11 8.39L10.17 9.21Q10.95 8.25 12.32 8.25L12.32 8.25Q13.65 8.25 14.43 9.26Q15.21 10.26 15.21 12.05L15.21 12.05ZM13.94 12.03L13.94 12.03Q13.94 10.77 13.41 10.05Q12.87 9.33 11.94 9.33L11.94 9.33Q10.80 9.33 10.22 10.34L10.22 10.34L10.22 13.88Q10.79 14.89 11.96 14.89L11.96 14.89Q12.87 14.89 13.40 14.17Q13.94 13.45 13.94 12.03ZM22.70 15.79L21.38 15.79Q21.27 15.57 21.20 15.01L21.20 15.01Q20.32 15.92 19.09 15.92L19.09 15.92Q18.00 15.92 17.30 15.30Q16.60 14.68 16.60 13.73L16.60 13.73Q16.60 12.58 17.48 11.94Q18.36 11.30 19.95 11.30L19.95 11.30L21.18 11.30L21.18 10.72Q21.18 10.06 20.78 9.66Q20.39 9.27 19.61 9.27L19.61 9.27Q18.94 9.27 18.48 9.61Q18.02 9.95 18.02 10.44L18.02 10.44L16.75 10.44Q16.75 9.89 17.14 9.37Q17.54 8.85 18.21 8.55Q18.88 8.25 19.69 8.25L19.69 8.25Q20.97 8.25 21.69 8.89Q22.42 9.53 22.44 10.65L22.44 10.65L22.44 14.06Q22.44 15.07 22.70 15.68L22.70 15.68L22.70 15.79ZM19.28 14.82L19.28 14.82Q19.87 14.82 20.41 14.51Q20.94 14.21 21.18 13.71L21.18 13.71L21.18 12.20L20.19 12.20Q17.86 12.20 17.86 13.56L17.86 13.56Q17.86 14.15 18.26 14.49Q18.66 14.82 19.28 14.82ZM30.32 15.79L28.99 15.79Q28.88 15.57 28.82 15.01L28.82 15.01Q27.93 15.92 26.71 15.92L26.71 15.92Q25.62 15.92 24.92 15.30Q24.21 14.68 24.21 13.73L24.21 13.73Q24.21 12.58 25.09 11.94Q25.97 11.30 27.56 11.30L27.56 11.30L28.79 11.30L28.79 10.72Q28.79 10.06 28.40 9.66Q28.00 9.27 27.23 9.27L27.23 9.27Q26.55 9.27 26.09 9.61Q25.64 9.95 25.64 10.44L25.64 10.44L24.37 10.44Q24.37 9.89 24.76 9.37Q25.15 8.85 25.82 8.55Q26.50 8.25 27.30 8.25L27.30 8.25Q28.58 8.25 29.31 8.89Q30.03 9.53 30.06 10.65L30.06 10.65L30.06 14.06Q30.06 15.07 30.32 15.68L30.32 15.68L30.32 15.79ZM26.89 14.82L26.89 14.82Q27.49 14.82 28.02 14.51Q28.56 14.21 28.79 13.71L28.79 13.71L28.79 12.20L27.80 12.20Q25.48 12.20 25.48 13.56L25.48 13.56Q25.48 14.15 25.88 14.49Q26.27 14.82 26.89 14.82Z"/>
    </svg>
    