
    <svg width="65.4853515625" height="22" viewBox="0 0 65.4853515625 22" fill="red" xmlns="http://www.w3.org/2000/svg">
        <path d="M0 11C0 4.92487 4.92487 0 11 0H54.4853515625C60.5604815625 0 65.4853515625 4.92487 65.4853515625 11C65.4853515625 17.0751 60.5604815625 22 54.4853515625 22H11C4.92487 22 0 17.0751 0 11Z" fill="#58A6FF" fill-opacity="0.2"/>
        <path fill="#58A6FF" d="M12.53 8.35L12.53 9.52Q12.25 9.48 11.91 9.48L11.91 9.48Q10.67 9.48 10.22 10.54L10.22 10.54L10.22 15.79L8.96 15.79L8.96 8.39L10.19 8.39L10.21 9.24Q10.83 8.25 11.97 8.25L11.97 8.25Q12.34 8.25 12.53 8.35L12.53 8.35ZM16.63 15.92L16.63 15.92Q15.13 15.92 14.19 14.93Q13.24 13.95 13.24 12.29L13.24 12.29L13.24 12.06Q13.24 10.96 13.66 10.09Q14.08 9.23 14.84 8.74Q15.59 8.25 16.48 8.25L16.48 8.25Q17.92 8.25 18.72 9.20Q19.52 10.15 19.52 11.92L19.52 11.92L19.52 12.45L14.51 12.45Q14.54 13.54 15.15 14.22Q15.76 14.89 16.70 14.89L16.70 14.89Q17.37 14.89 17.84 14.62Q18.30 14.34 18.65 13.89L18.65 13.89L19.42 14.49Q18.49 15.92 16.63 15.92ZM16.48 9.29L16.48 9.29Q15.71 9.29 15.19 9.85Q14.67 10.41 14.55 11.41L14.55 11.41L18.25 11.41L18.25 11.31Q18.20 10.35 17.73 9.82Q17.27 9.29 16.48 9.29ZM22.87 15.79L21.60 15.79L21.60 9.37L20.43 9.37L20.43 8.39L21.60 8.39L21.60 7.63Q21.60 6.44 22.24 5.79Q22.88 5.14 24.04 5.14L24.04 5.14Q24.47 5.14 24.91 5.26L24.91 5.26L24.84 6.28Q24.52 6.22 24.15 6.22L24.15 6.22Q23.54 6.22 23.20 6.58Q22.87 6.94 22.87 7.61L22.87 7.61L22.87 8.39L24.45 8.39L24.45 9.37L22.87 9.37L22.87 15.79ZM25.51 12.11L25.51 12.02Q25.51 10.93 25.93 10.06Q26.36 9.20 27.12 8.72Q27.89 8.25 28.86 8.25L28.86 8.25Q30.37 8.25 31.31 9.30Q32.24 10.34 32.24 12.08L32.24 12.08L32.24 12.17Q32.24 13.25 31.83 14.11Q31.41 14.96 30.64 15.44Q29.88 15.92 28.88 15.92L28.88 15.92Q27.37 15.92 26.44 14.88Q25.51 13.83 25.51 12.11L25.51 12.11ZM26.78 12.17L26.78 12.17Q26.78 13.40 27.35 14.14Q27.92 14.89 28.88 14.89L28.88 14.89Q29.84 14.89 30.41 14.13Q30.98 13.38 30.98 12.02L30.98 12.02Q30.98 10.80 30.40 10.05Q29.82 9.29 28.86 9.29L28.86 9.29Q27.93 9.29 27.35 10.04Q26.78 10.78 26.78 12.17ZM37.40 8.35L37.40 9.52Q37.11 9.48 36.78 9.48L36.78 9.48Q35.54 9.48 35.09 10.54L35.09 10.54L35.09 15.79L33.83 15.79L33.83 8.39L35.06 8.39L35.08 9.24Q35.70 8.25 36.84 8.25L36.84 8.25Q37.21 8.25 37.40 8.35L37.40 8.35ZM38.13 12.03L38.13 12.03Q38.13 10.30 38.93 9.27Q39.73 8.25 41.05 8.25L41.05 8.25Q42.41 8.25 43.16 9.21L43.16 9.21L43.23 8.39L44.38 8.39L44.38 15.61Q44.38 17.04 43.53 17.87Q42.68 18.70 41.24 18.70L41.24 18.70Q40.44 18.70 39.68 18.36Q38.91 18.01 38.51 17.42L38.51 17.42L39.17 16.66Q39.98 17.67 41.15 17.67L41.15 17.67Q42.08 17.67 42.59 17.15Q43.11 16.63 43.11 15.68L43.11 15.68L43.11 15.05Q42.35 15.92 41.04 15.92L41.04 15.92Q39.74 15.92 38.94 14.88Q38.13 13.83 38.13 12.03ZM39.40 12.17L39.40 12.17Q39.40 13.42 39.92 14.13Q40.43 14.85 41.35 14.85L41.35 14.85Q42.55 14.85 43.11 13.76L43.11 13.76L43.11 10.38Q42.53 9.33 41.37 9.33L41.37 9.33Q40.44 9.33 39.92 10.04Q39.40 10.76 39.40 12.17ZM49.36 15.92L49.36 15.92Q47.85 15.92 46.91 14.93Q45.97 13.95 45.97 12.29L45.97 12.29L45.97 12.06Q45.97 10.96 46.39 10.09Q46.81 9.23 47.56 8.74Q48.32 8.25 49.20 8.25L49.20 8.25Q50.64 8.25 51.44 9.20Q52.24 10.15 52.24 11.92L52.24 11.92L52.24 12.45L47.23 12.45Q47.26 13.54 47.87 14.22Q48.48 14.89 49.43 14.89L49.43 14.89Q50.10 14.89 50.56 14.62Q51.03 14.34 51.37 13.89L51.37 13.89L52.15 14.49Q51.22 15.92 49.36 15.92ZM49.20 9.29L49.20 9.29Q48.43 9.29 47.92 9.85Q47.40 10.41 47.27 11.41L47.27 11.41L50.98 11.41L50.98 11.31Q50.92 10.35 50.46 9.82Q49.99 9.29 49.20 9.29ZM57.28 8.35L57.28 9.52Q56.99 9.48 56.66 9.48L56.66 9.48Q55.41 9.48 54.97 10.54L54.97 10.54L54.97 15.79L53.71 15.79L53.71 8.39L54.94 8.39L54.96 9.24Q55.58 8.25 56.72 8.25L56.72 8.25Q57.09 8.25 57.28 8.35L57.28 8.35Z"/>
    </svg>
    