
    <svg width="97.1083984375" height="22" viewBox="0 0 97.1083984375 22" fill="red" xmlns="http://www.w3.org/2000/svg">
        <path d="M0 11C0 4.92487 4.92487 0 11 0H86.1083984375C92.1835284375 0 97.1083984375 4.92487 97.1083984375 11C97.1083984375 17.0751 92.1835284375 22 86.1083984375 22H11C4.92487 22 0 17.0751 0 11Z" fill="#58A6FF" fill-opacity="0.2"/>
        <path fill="#58A6FF" d="M13.26 13.82L13.26 13.82Q13.26 13.31 12.88 13.03Q12.49 12.74 11.53 12.54Q10.57 12.33 10.01 12.05Q9.44 11.76 9.17 11.36Q8.90 10.97 8.90 10.42L8.90 10.42Q8.90 9.51 9.67 8.88Q10.44 8.25 11.64 8.25L11.64 8.25Q12.89 8.25 13.68 8.90Q14.46 9.55 14.46 10.56L14.46 10.56L13.19 10.56Q13.19 10.04 12.75 9.67Q12.31 9.29 11.64 9.29L11.64 9.29Q10.95 9.29 10.56 9.59Q10.17 9.89 10.17 10.38L10.17 10.38Q10.17 10.84 10.53 11.07Q10.89 11.30 11.84 11.51Q12.79 11.72 13.37 12.02Q13.96 12.31 14.24 12.73Q14.53 13.14 14.53 13.73L14.53 13.73Q14.53 14.73 13.74 15.32Q12.94 15.92 11.68 15.92L11.68 15.92Q10.79 15.92 10.11 15.61Q9.42 15.29 9.04 14.73Q8.65 14.17 8.65 13.51L8.65 13.51L9.91 13.51Q9.95 14.14 10.42 14.52Q10.90 14.89 11.68 14.89L11.68 14.89Q12.40 14.89 12.83 14.60Q13.26 14.31 13.26 13.82ZM19.25 15.92L19.25 15.92Q17.74 15.92 16.80 14.93Q15.85 13.95 15.85 12.29L15.85 12.29L15.85 12.06Q15.85 10.96 16.27 10.09Q16.70 9.23 17.45 8.74Q18.21 8.25 19.09 8.25L19.09 8.25Q20.53 8.25 21.33 9.20Q22.13 10.15 22.13 11.92L22.13 11.92L22.13 12.45L17.12 12.45Q17.15 13.54 17.76 14.22Q18.37 14.89 19.31 14.89L19.31 14.89Q19.98 14.89 20.45 14.62Q20.91 14.34 21.26 13.89L21.26 13.89L22.03 14.49Q21.10 15.92 19.25 15.92ZM19.09 9.29L19.09 9.29Q18.32 9.29 17.80 9.85Q17.28 10.41 17.16 11.41L17.16 11.41L20.87 11.41L20.87 11.31Q20.81 10.35 20.35 9.82Q19.88 9.29 19.09 9.29ZM27.17 8.35L27.17 9.52Q26.88 9.48 26.55 9.48L26.55 9.48Q25.30 9.48 24.86 10.54L24.86 10.54L24.86 15.79L23.59 15.79L23.59 8.39L24.82 8.39L24.84 9.24Q25.47 8.25 26.61 8.25L26.61 8.25Q26.98 8.25 27.17 8.35L27.17 8.35ZM29.01 8.39L30.89 14.07L32.73 8.39L34.02 8.39L31.37 15.79L30.40 15.79L27.72 8.39L29.01 8.39ZM38.21 15.92L38.21 15.92Q36.71 15.92 35.77 14.93Q34.82 13.95 34.82 12.29L34.82 12.29L34.82 12.06Q34.82 10.96 35.24 10.09Q35.67 9.23 36.42 8.74Q37.18 8.25 38.06 8.25L38.06 8.25Q39.50 8.25 40.30 9.20Q41.10 10.15 41.10 11.92L41.10 11.92L41.10 12.45L36.09 12.45Q36.12 13.54 36.73 14.22Q37.34 14.89 38.28 14.89L38.28 14.89Q38.95 14.89 39.42 14.62Q39.88 14.34 40.23 13.89L40.23 13.89L41.00 14.49Q40.07 15.92 38.21 15.92ZM38.06 9.29L38.06 9.29Q37.29 9.29 36.77 9.85Q36.25 10.41 36.13 11.41L36.13 11.41L39.83 11.41L39.83 11.31Q39.78 10.35 39.32 9.82Q38.85 9.29 38.06 9.29ZM46.14 8.35L46.14 9.52Q45.85 9.48 45.52 9.48L45.52 9.48Q44.27 9.48 43.83 10.54L43.83 10.54L43.83 15.79L42.56 15.79L42.56 8.39L43.79 8.39L43.81 9.24Q44.44 8.25 45.58 8.25L45.58 8.25Q45.95 8.25 46.14 8.35L46.14 8.35ZM49.93 11.04L49.93 12.07L46.60 12.07L46.60 11.04L49.93 11.04ZM57.05 15.79L55.73 15.79Q55.62 15.57 55.55 15.01L55.55 15.01Q54.67 15.92 53.45 15.92L53.45 15.92Q52.35 15.92 51.65 15.30Q50.95 14.68 50.95 13.73L50.95 13.73Q50.95 12.58 51.83 11.94Q52.71 11.30 54.30 11.30L54.30 11.30L55.53 11.30L55.53 10.72Q55.53 10.06 55.13 9.66Q54.74 9.27 53.96 9.27L53.96 9.27Q53.29 9.27 52.83 9.61Q52.37 9.95 52.37 10.44L52.37 10.44L51.10 10.44Q51.10 9.89 51.49 9.37Q51.89 8.85 52.56 8.55Q53.23 8.25 54.04 8.25L54.04 8.25Q55.32 8.25 56.04 8.89Q56.77 9.53 56.79 10.65L56.79 10.65L56.79 14.06Q56.79 15.07 57.05 15.68L57.05 15.68L57.05 15.79ZM53.63 14.82L53.63 14.82Q54.22 14.82 54.76 14.51Q55.29 14.21 55.53 13.71L55.53 13.71L55.53 12.20L54.54 12.20Q52.21 12.20 52.21 13.56L52.21 13.56Q52.21 14.15 52.61 14.49Q53.01 14.82 53.63 14.82ZM58.47 12.12L58.47 12.03Q58.47 10.32 59.28 9.29Q60.08 8.25 61.39 8.25L61.39 8.25Q62.69 8.25 63.45 9.14L63.45 9.14L63.45 5.29L64.71 5.29L64.71 15.79L63.55 15.79L63.49 14.99Q62.73 15.92 61.38 15.92L61.38 15.92Q60.09 15.92 59.28 14.87Q58.47 13.82 58.47 12.12L58.47 12.12ZM59.73 12.17L59.73 12.17Q59.73 13.43 60.25 14.14Q60.77 14.85 61.69 14.85L61.69 14.85Q62.89 14.85 63.45 13.77L63.45 13.77L63.45 10.37Q62.88 9.33 61.70 9.33L61.70 9.33Q60.77 9.33 60.25 10.04Q59.73 10.76 59.73 12.17ZM66.67 8.39L67.86 8.39L67.90 9.21Q68.71 8.25 70.09 8.25L70.09 8.25Q71.64 8.25 72.20 9.44L72.20 9.44Q72.57 8.91 73.16 8.58Q73.75 8.25 74.56 8.25L74.56 8.25Q77.00 8.25 77.04 10.83L77.04 10.83L77.04 15.79L75.77 15.79L75.77 10.90Q75.77 10.11 75.41 9.72Q75.05 9.33 74.19 9.33L74.19 9.33Q73.49 9.33 73.02 9.75Q72.56 10.17 72.48 10.88L72.48 10.88L72.48 15.79L71.21 15.79L71.21 10.94Q71.21 9.33 69.63 9.33L69.63 9.33Q68.39 9.33 67.93 10.38L67.93 10.38L67.93 15.79L66.67 15.79L66.67 8.39ZM80.32 8.39L80.32 15.79L79.05 15.79L79.05 8.39L80.32 8.39ZM78.95 6.43L78.95 6.43Q78.95 6.12 79.14 5.91Q79.33 5.70 79.70 5.70Q80.06 5.70 80.26 5.91Q80.45 6.12 80.45 6.43Q80.45 6.73 80.26 6.94Q80.06 7.14 79.70 7.14Q79.33 7.14 79.14 6.94Q78.95 6.73 78.95 6.43ZM82.34 8.39L83.54 8.39L83.58 9.32Q84.43 8.25 85.79 8.25L85.79 8.25Q88.14 8.25 88.16 10.90L88.16 10.90L88.16 15.79L86.89 15.79L86.89 10.89Q86.89 10.09 86.53 9.71Q86.17 9.33 85.41 9.33L85.41 9.33Q84.79 9.33 84.33 9.65Q83.87 9.98 83.61 10.51L83.61 10.51L83.61 15.79L82.34 15.79L82.34 8.39Z"/>
    </svg>
    