
    <svg width="71.1181640625" height="22" viewBox="0 0 71.1181640625 22" fill="red" xmlns="http://www.w3.org/2000/svg">
        <path d="M0 11C0 4.92487 4.92487 0 11 0H60.1181640625C66.1932940625 0 71.1181640625 4.92487 71.1181640625 11C71.1181640625 17.0751 66.1932940625 22 60.1181640625 22H11C4.92487 22 0 17.0751 0 11Z" fill="#58A6FF" fill-opacity="0.2"/>
        <path fill="#58A6FF" d="M9.41 6.60L10.67 6.60L10.67 8.39L12.05 8.39L12.05 9.37L10.67 9.37L10.67 13.95Q10.67 14.40 10.86 14.62Q11.04 14.84 11.49 14.84L11.49 14.84Q11.71 14.84 12.09 14.76L12.09 14.76L12.09 15.79Q11.59 15.92 11.12 15.92L11.12 15.92Q10.27 15.92 9.84 15.41Q9.41 14.90 9.41 13.95L9.41 13.95L9.41 9.37L8.06 9.37L8.06 8.39L9.41 8.39L9.41 6.60ZM16.60 15.92L16.60 15.92Q15.10 15.92 14.15 14.93Q13.21 13.95 13.21 12.29L13.21 12.29L13.21 12.06Q13.21 10.96 13.63 10.09Q14.05 9.23 14.81 8.74Q15.56 8.25 16.44 8.25L16.44 8.25Q17.88 8.25 18.68 9.20Q19.48 10.15 19.48 11.92L19.48 11.92L19.48 12.45L14.47 12.45Q14.50 13.54 15.11 14.22Q15.72 14.89 16.67 14.89L16.67 14.89Q17.34 14.89 17.80 14.62Q18.27 14.34 18.62 13.89L18.62 13.89L19.39 14.49Q18.46 15.92 16.60 15.92ZM16.44 9.29L16.44 9.29Q15.68 9.29 15.16 9.85Q14.64 10.41 14.51 11.41L14.51 11.41L18.22 11.41L18.22 11.31Q18.17 10.35 17.70 9.82Q17.24 9.29 16.44 9.29ZM20.94 8.39L22.14 8.39L22.17 9.21Q22.98 8.25 24.37 8.25L24.37 8.25Q25.92 8.25 26.48 9.44L26.48 9.44Q26.85 8.91 27.44 8.58Q28.03 8.25 28.84 8.25L28.84 8.25Q31.27 8.25 31.31 10.83L31.31 10.83L31.31 15.79L30.05 15.79L30.05 10.90Q30.05 10.11 29.68 9.72Q29.32 9.33 28.47 9.33L28.47 9.33Q27.76 9.33 27.30 9.75Q26.83 10.17 26.76 10.88L26.76 10.88L26.76 15.79L25.49 15.79L25.49 10.94Q25.49 9.33 23.91 9.33L23.91 9.33Q22.66 9.33 22.21 10.38L22.21 10.38L22.21 15.79L20.94 15.79L20.94 8.39ZM39.47 12.05L39.47 12.17Q39.47 13.86 38.69 14.89Q37.92 15.92 36.60 15.92L36.60 15.92Q35.25 15.92 34.48 15.07L34.48 15.07L34.48 18.63L33.22 18.63L33.22 8.39L34.37 8.39L34.43 9.21Q35.21 8.25 36.58 8.25L36.58 8.25Q37.91 8.25 38.69 9.26Q39.47 10.26 39.47 12.05L39.47 12.05ZM38.20 12.03L38.20 12.03Q38.20 10.77 37.67 10.05Q37.13 9.33 36.21 9.33L36.21 9.33Q35.06 9.33 34.48 10.34L34.48 10.34L34.48 13.88Q35.05 14.89 36.22 14.89L36.22 14.89Q37.13 14.89 37.66 14.17Q38.20 13.45 38.20 12.03ZM42.45 5.29L42.45 15.79L41.18 15.79L41.18 5.29L42.45 5.29ZM50.36 15.79L49.04 15.79Q48.93 15.57 48.86 15.01L48.86 15.01Q47.98 15.92 46.75 15.92L46.75 15.92Q45.66 15.92 44.96 15.30Q44.26 14.68 44.26 13.73L44.26 13.73Q44.26 12.58 45.14 11.94Q46.01 11.30 47.61 11.30L47.61 11.30L48.84 11.30L48.84 10.72Q48.84 10.06 48.44 9.66Q48.04 9.27 47.27 9.27L47.27 9.27Q46.60 9.27 46.14 9.61Q45.68 9.95 45.68 10.44L45.68 10.44L44.41 10.44Q44.41 9.89 44.80 9.37Q45.19 8.85 45.87 8.55Q46.54 8.25 47.35 8.25L47.35 8.25Q48.63 8.25 49.35 8.89Q50.08 9.53 50.10 10.65L50.10 10.65L50.10 14.06Q50.10 15.07 50.36 15.68L50.36 15.68L50.36 15.79ZM46.94 14.82L46.94 14.82Q47.53 14.82 48.07 14.51Q48.60 14.21 48.84 13.71L48.84 13.71L48.84 12.20L47.85 12.20Q45.52 12.20 45.52 13.56L45.52 13.56Q45.52 14.15 45.92 14.49Q46.32 14.82 46.94 14.82ZM52.54 6.60L53.80 6.60L53.80 8.39L55.18 8.39L55.18 9.37L53.80 9.37L53.80 13.95Q53.80 14.40 53.99 14.62Q54.17 14.84 54.61 14.84L54.61 14.84Q54.83 14.84 55.22 14.76L55.22 14.76L55.22 15.79Q54.72 15.92 54.25 15.92L54.25 15.92Q53.40 15.92 52.97 15.41Q52.54 14.90 52.54 13.95L52.54 13.95L52.54 9.37L51.19 9.37L51.19 8.39L52.54 8.39L52.54 6.60ZM59.73 15.92L59.73 15.92Q58.22 15.92 57.28 14.93Q56.34 13.95 56.34 12.29L56.34 12.29L56.34 12.06Q56.34 10.96 56.76 10.09Q57.18 9.23 57.93 8.74Q58.69 8.25 59.57 8.25L59.57 8.25Q61.01 8.25 61.81 9.20Q62.61 10.15 62.61 11.92L62.61 11.92L62.61 12.45L57.60 12.45Q57.63 13.54 58.24 14.22Q58.85 14.89 59.80 14.89L59.80 14.89Q60.47 14.89 60.93 14.62Q61.40 14.34 61.74 13.89L61.74 13.89L62.52 14.49Q61.59 15.92 59.73 15.92ZM59.57 9.29L59.57 9.29Q58.80 9.29 58.29 9.85Q57.77 10.41 57.64 11.41L57.64 11.41L61.35 11.41L61.35 11.31Q61.29 10.35 60.83 9.82Q60.36 9.29 59.57 9.29Z"/>
    </svg>
    