<svg width="72" height="22" viewBox="0 0 72 22" fill="none" xmlns="http://www.w3.org/2000/svg">
<path d="M0 11C0 4.92487 4.92487 0 11 0H61C67.0751 0 72 4.92487 72 11V11C72 17.0751 67.0751 22 61 22H11C4.92487 22 0 17.0751 0 11V11Z" fill="#58A6FF" fill-opacity="0.2"/>
<path d="M10.6729 6.8125V8.60352H12.0537V9.58105H10.6729V14.168C10.6729 14.4642 10.7344 14.6875 10.8574 14.8379C10.9805 14.9837 11.1901 15.0566 11.4863 15.0566C11.6322 15.0566 11.8327 15.0293 12.0879 14.9746V16C11.7552 16.0911 11.4316 16.1367 11.1172 16.1367C10.5521 16.1367 10.126 15.9658 9.83887 15.624C9.55176 15.2822 9.4082 14.7969 9.4082 14.168V9.58105H8.06152V8.60352H9.4082V6.8125H10.6729ZM16.6064 16.1367C15.6038 16.1367 14.7881 15.8086 14.1592 15.1523C13.5303 14.4915 13.2158 13.6097 13.2158 12.5068V12.2744C13.2158 11.5407 13.3548 10.8867 13.6328 10.3125C13.9154 9.73372 14.3073 9.28255 14.8086 8.95898C15.3145 8.63086 15.8613 8.4668 16.4492 8.4668C17.4108 8.4668 18.1582 8.78353 18.6914 9.41699C19.2246 10.0505 19.4912 10.9574 19.4912 12.1377V12.6641H14.4805C14.4987 13.3932 14.7106 13.9834 15.1162 14.4346C15.5264 14.8812 16.0459 15.1045 16.6748 15.1045C17.1214 15.1045 17.4997 15.0133 17.8096 14.8311C18.1195 14.6488 18.3906 14.4072 18.623 14.1064L19.3955 14.708C18.7757 15.6605 17.846 16.1367 16.6064 16.1367ZM16.4492 9.50586C15.9388 9.50586 15.5104 9.69271 15.1641 10.0664C14.8177 10.4355 14.6035 10.9551 14.5215 11.625H18.2266V11.5293C18.1901 10.8867 18.0169 10.39 17.707 10.0391C17.3971 9.68359 16.9779 9.50586 16.4492 9.50586ZM22.1504 8.60352L22.1846 9.42383C22.7269 8.78581 23.4583 8.4668 24.3789 8.4668C25.4134 8.4668 26.1175 8.86328 26.4912 9.65625C26.7373 9.30078 27.0563 9.01367 27.4482 8.79492C27.8447 8.57617 28.3118 8.4668 28.8496 8.4668C30.472 8.4668 31.2969 9.32585 31.3242 11.0439V16H30.0596V11.1191C30.0596 10.5905 29.9388 10.1963 29.6973 9.93652C29.4557 9.6722 29.0501 9.54004 28.4805 9.54004C28.0111 9.54004 27.6214 9.68132 27.3115 9.96387C27.0016 10.2419 26.8216 10.6178 26.7715 11.0918V16H25.5V11.1533C25.5 10.0778 24.9736 9.54004 23.9209 9.54004C23.0915 9.54004 22.5241 9.89323 22.2188 10.5996V16H20.9541V8.60352H22.1504ZM39.4863 12.3838C39.4863 13.5094 39.2288 14.4163 38.7139 15.1045C38.1989 15.7926 37.5016 16.1367 36.6221 16.1367C35.7243 16.1367 35.0179 15.8519 34.5029 15.2822V18.8438H33.2383V8.60352H34.3936L34.4551 9.42383C34.9701 8.78581 35.6855 8.4668 36.6016 8.4668C37.4902 8.4668 38.1921 8.80176 38.707 9.47168C39.2266 10.1416 39.4863 11.0736 39.4863 12.2676V12.3838ZM38.2217 12.2402C38.2217 11.4062 38.0439 10.7477 37.6885 10.2646C37.333 9.78158 36.8454 9.54004 36.2256 9.54004C35.46 9.54004 34.8857 9.87956 34.5029 10.5586V14.0928C34.8812 14.7673 35.46 15.1045 36.2393 15.1045C36.8454 15.1045 37.3262 14.8652 37.6816 14.3867C38.0417 13.9036 38.2217 13.1882 38.2217 12.2402ZM42.4736 16H41.209V5.5H42.4736V16ZM49.0703 16C48.9974 15.8542 48.9382 15.5944 48.8926 15.2207C48.3047 15.8314 47.6029 16.1367 46.7871 16.1367C46.0579 16.1367 45.4587 15.9316 44.9893 15.5215C44.5244 15.1068 44.292 14.5827 44.292 13.9492C44.292 13.179 44.5837 12.582 45.167 12.1582C45.7549 11.7298 46.5798 11.5156 47.6416 11.5156H48.8721V10.9346C48.8721 10.4925 48.7399 10.1416 48.4756 9.88184C48.2113 9.61751 47.8216 9.48535 47.3066 9.48535C46.8555 9.48535 46.4772 9.59928 46.1719 9.82715C45.8665 10.055 45.7139 10.3307 45.7139 10.6543H44.4424C44.4424 10.2852 44.5723 9.92969 44.832 9.58789C45.0964 9.24154 45.4518 8.9681 45.8984 8.76758C46.3496 8.56706 46.8441 8.4668 47.3818 8.4668C48.234 8.4668 48.9017 8.68099 49.3848 9.10938C49.8678 9.5332 50.1185 10.1188 50.1367 10.8662V14.2705C50.1367 14.9495 50.2233 15.4896 50.3965 15.8906V16H49.0703ZM46.9717 15.0361C47.3682 15.0361 47.7441 14.9336 48.0996 14.7285C48.4551 14.5234 48.7126 14.2568 48.8721 13.9287V12.4111H47.8809C46.3314 12.4111 45.5566 12.8646 45.5566 13.7715C45.5566 14.168 45.6888 14.4779 45.9531 14.7012C46.2174 14.9245 46.557 15.0361 46.9717 15.0361ZM53.835 6.8125V8.60352H55.2158V9.58105H53.835V14.168C53.835 14.4642 53.8965 14.6875 54.0195 14.8379C54.1426 14.9837 54.3522 15.0566 54.6484 15.0566C54.7943 15.0566 54.9948 15.0293 55.25 14.9746V16C54.9173 16.0911 54.5938 16.1367 54.2793 16.1367C53.7142 16.1367 53.2881 15.9658 53.001 15.624C52.7139 15.2822 52.5703 14.7969 52.5703 14.168V9.58105H51.2236V8.60352H52.5703V6.8125H53.835ZM59.7686 16.1367C58.766 16.1367 57.9502 15.8086 57.3213 15.1523C56.6924 14.4915 56.3779 13.6097 56.3779 12.5068V12.2744C56.3779 11.5407 56.5169 10.8867 56.7949 10.3125C57.0775 9.73372 57.4694 9.28255 57.9707 8.95898C58.4766 8.63086 59.0234 8.4668 59.6113 8.4668C60.5729 8.4668 61.3203 8.78353 61.8535 9.41699C62.3867 10.0505 62.6533 10.9574 62.6533 12.1377V12.6641H57.6426C57.6608 13.3932 57.8727 13.9834 58.2783 14.4346C58.6885 14.8812 59.208 15.1045 59.8369 15.1045C60.2835 15.1045 60.6618 15.0133 60.9717 14.8311C61.2816 14.6488 61.5527 14.4072 61.7852 14.1064L62.5576 14.708C61.9378 15.6605 61.0081 16.1367 59.7686 16.1367ZM59.6113 9.50586C59.1009 9.50586 58.6725 9.69271 58.3262 10.0664C57.9798 10.4355 57.7656 10.9551 57.6836 11.625H61.3887V11.5293C61.3522 10.8867 61.179 10.39 60.8691 10.0391C60.5592 9.68359 60.14 9.50586 59.6113 9.50586Z" fill="#58A6FF"/>
</svg>
