<svg width="90" height="22" viewBox="0 0 90 22" fill="none" xmlns="http://www.w3.org/2000/svg">
<path d="M0 11C0 4.92487 4.92487 0 11 0H79C85.0751 0 90 4.92487 90 11V11C90 17.0751 85.0751 22 79 22H11C4.92487 22 0 17.0751 0 11V11Z" fill="#58A6FF" fill-opacity="0.2"/>
<path d="M10.6729 6.8125V8.60352H12.0537V9.58105H10.6729V14.168C10.6729 14.4642 10.7344 14.6875 10.8574 14.8379C10.9805 14.9837 11.1901 15.0566 11.4863 15.0566C11.6322 15.0566 11.8327 15.0293 12.0879 14.9746V16C11.7552 16.0911 11.4316 16.1367 11.1172 16.1367C10.5521 16.1367 10.126 15.9658 9.83887 15.624C9.55176 15.2822 9.4082 14.7969 9.4082 14.168V9.58105H8.06152V8.60352H9.4082V6.8125H10.6729ZM16.6064 16.1367C15.6038 16.1367 14.7881 15.8086 14.1592 15.1523C13.5303 14.4915 13.2158 13.6097 13.2158 12.5068V12.2744C13.2158 11.5407 13.3548 10.8867 13.6328 10.3125C13.9154 9.73372 14.3073 9.28255 14.8086 8.95898C15.3145 8.63086 15.8613 8.4668 16.4492 8.4668C17.4108 8.4668 18.1582 8.78353 18.6914 9.41699C19.2246 10.0505 19.4912 10.9574 19.4912 12.1377V12.6641H14.4805C14.4987 13.3932 14.7106 13.9834 15.1162 14.4346C15.5264 14.8812 16.0459 15.1045 16.6748 15.1045C17.1214 15.1045 17.4997 15.0133 17.8096 14.8311C18.1195 14.6488 18.3906 14.4072 18.623 14.1064L19.3955 14.708C18.7757 15.6605 17.846 16.1367 16.6064 16.1367ZM16.4492 9.50586C15.9388 9.50586 15.5104 9.69271 15.1641 10.0664C14.8177 10.4355 14.6035 10.9551 14.5215 11.625H18.2266V11.5293C18.1901 10.8867 18.0169 10.39 17.707 10.0391C17.3971 9.68359 16.9779 9.50586 16.4492 9.50586ZM25.2676 14.0381C25.2676 13.6963 25.1377 13.432 24.8779 13.2451C24.6227 13.0537 24.1738 12.8896 23.5312 12.7529C22.8932 12.6162 22.3851 12.4521 22.0068 12.2607C21.6331 12.0693 21.3551 11.8415 21.1729 11.5771C20.9951 11.3128 20.9062 10.9984 20.9062 10.6338C20.9062 10.0277 21.1615 9.51497 21.6719 9.0957C22.1868 8.67643 22.8431 8.4668 23.6406 8.4668C24.4792 8.4668 25.1582 8.68327 25.6777 9.11621C26.2018 9.54915 26.4639 10.1029 26.4639 10.7773H25.1924C25.1924 10.431 25.0443 10.1325 24.748 9.88184C24.4564 9.63118 24.0872 9.50586 23.6406 9.50586C23.1803 9.50586 22.8203 9.60612 22.5605 9.80664C22.3008 10.0072 22.1709 10.2692 22.1709 10.5928C22.1709 10.8981 22.2917 11.1283 22.5332 11.2832C22.7747 11.4382 23.21 11.5863 23.8389 11.7275C24.4723 11.8688 24.985 12.0374 25.377 12.2334C25.7689 12.4294 26.0583 12.6663 26.2451 12.9443C26.4365 13.2178 26.5322 13.5527 26.5322 13.9492C26.5322 14.61 26.2679 15.141 25.7393 15.542C25.2106 15.9385 24.5247 16.1367 23.6816 16.1367C23.0892 16.1367 22.5651 16.0319 22.1094 15.8223C21.6536 15.6126 21.2959 15.321 21.0361 14.9473C20.7809 14.569 20.6533 14.1611 20.6533 13.7236H21.918C21.9408 14.1475 22.1094 14.4847 22.4238 14.7354C22.7428 14.9814 23.1621 15.1045 23.6816 15.1045C24.1602 15.1045 24.543 15.0088 24.8301 14.8174C25.1217 14.6214 25.2676 14.3617 25.2676 14.0381ZM29.8955 6.8125V8.60352H31.2764V9.58105H29.8955V14.168C29.8955 14.4642 29.957 14.6875 30.0801 14.8379C30.2031 14.9837 30.4128 15.0566 30.709 15.0566C30.8548 15.0566 31.0553 15.0293 31.3105 14.9746V16C30.9779 16.0911 30.6543 16.1367 30.3398 16.1367C29.7747 16.1367 29.3486 15.9658 29.0615 15.624C28.7744 15.2822 28.6309 14.7969 28.6309 14.168V9.58105H27.2842V8.60352H28.6309V6.8125H29.8955ZM33.9492 8.60352L33.9834 9.42383C34.5257 8.78581 35.2572 8.4668 36.1777 8.4668C37.2122 8.4668 37.9163 8.86328 38.29 9.65625C38.5361 9.30078 38.8551 9.01367 39.2471 8.79492C39.6436 8.57617 40.1107 8.4668 40.6484 8.4668C42.2708 8.4668 43.0957 9.32585 43.123 11.0439V16H41.8584V11.1191C41.8584 10.5905 41.7376 10.1963 41.4961 9.93652C41.2546 9.6722 40.849 9.54004 40.2793 9.54004C39.8099 9.54004 39.4202 9.68132 39.1104 9.96387C38.8005 10.2419 38.6204 10.6178 38.5703 11.0918V16H37.2988V11.1533C37.2988 10.0778 36.7725 9.54004 35.7197 9.54004C34.8903 9.54004 34.3229 9.89323 34.0176 10.5996V16H32.7529V8.60352H33.9492ZM46.4111 16H45.1465V8.60352H46.4111V16ZM45.0439 6.6416C45.0439 6.43652 45.1055 6.26335 45.2285 6.12207C45.3561 5.98079 45.543 5.91016 45.7891 5.91016C46.0352 5.91016 46.222 5.98079 46.3496 6.12207C46.4772 6.26335 46.541 6.43652 46.541 6.6416C46.541 6.84668 46.4772 7.01758 46.3496 7.1543C46.222 7.29102 46.0352 7.35938 45.7891 7.35938C45.543 7.35938 45.3561 7.29102 45.2285 7.1543C45.1055 7.01758 45.0439 6.84668 45.0439 6.6416ZM52.748 14.0381C52.748 13.6963 52.6182 13.432 52.3584 13.2451C52.1032 13.0537 51.6543 12.8896 51.0117 12.7529C50.3737 12.6162 49.8656 12.4521 49.4873 12.2607C49.1136 12.0693 48.8356 11.8415 48.6533 11.5771C48.4756 11.3128 48.3867 10.9984 48.3867 10.6338C48.3867 10.0277 48.6419 9.51497 49.1523 9.0957C49.6673 8.67643 50.3236 8.4668 51.1211 8.4668C51.9596 8.4668 52.6387 8.68327 53.1582 9.11621C53.6823 9.54915 53.9443 10.1029 53.9443 10.7773H52.6729C52.6729 10.431 52.5247 10.1325 52.2285 9.88184C51.9368 9.63118 51.5677 9.50586 51.1211 9.50586C50.6608 9.50586 50.3008 9.60612 50.041 9.80664C49.7812 10.0072 49.6514 10.2692 49.6514 10.5928C49.6514 10.8981 49.7721 11.1283 50.0137 11.2832C50.2552 11.4382 50.6904 11.5863 51.3193 11.7275C51.9528 11.8688 52.4655 12.0374 52.8574 12.2334C53.2493 12.4294 53.5387 12.6663 53.7256 12.9443C53.917 13.2178 54.0127 13.5527 54.0127 13.9492C54.0127 14.61 53.7484 15.141 53.2197 15.542C52.6911 15.9385 52.0052 16.1367 51.1621 16.1367C50.5697 16.1367 50.0456 16.0319 49.5898 15.8223C49.1341 15.6126 48.7764 15.321 48.5166 14.9473C48.2614 14.569 48.1338 14.1611 48.1338 13.7236H49.3984C49.4212 14.1475 49.5898 14.4847 49.9043 14.7354C50.2233 14.9814 50.6426 15.1045 51.1621 15.1045C51.6406 15.1045 52.0234 15.0088 52.3105 14.8174C52.6022 14.6214 52.748 14.3617 52.748 14.0381ZM59.9668 14.0381C59.9668 13.6963 59.8369 13.432 59.5771 13.2451C59.3219 13.0537 58.873 12.8896 58.2305 12.7529C57.5924 12.6162 57.0843 12.4521 56.7061 12.2607C56.3324 12.0693 56.0544 11.8415 55.8721 11.5771C55.6943 11.3128 55.6055 10.9984 55.6055 10.6338C55.6055 10.0277 55.8607 9.51497 56.3711 9.0957C56.8861 8.67643 57.5423 8.4668 58.3398 8.4668C59.1784 8.4668 59.8574 8.68327 60.377 9.11621C60.901 9.54915 61.1631 10.1029 61.1631 10.7773H59.8916C59.8916 10.431 59.7435 10.1325 59.4473 9.88184C59.1556 9.63118 58.7865 9.50586 58.3398 9.50586C57.8796 9.50586 57.5195 9.60612 57.2598 9.80664C57 10.0072 56.8701 10.2692 56.8701 10.5928C56.8701 10.8981 56.9909 11.1283 57.2324 11.2832C57.474 11.4382 57.9092 11.5863 58.5381 11.7275C59.1715 11.8688 59.6842 12.0374 60.0762 12.2334C60.4681 12.4294 60.7575 12.6663 60.9443 12.9443C61.1357 13.2178 61.2314 13.5527 61.2314 13.9492C61.2314 14.61 60.9671 15.141 60.4385 15.542C59.9098 15.9385 59.224 16.1367 58.3809 16.1367C57.7884 16.1367 57.2643 16.0319 56.8086 15.8223C56.3529 15.6126 55.9951 15.321 55.7354 14.9473C55.4801 14.569 55.3525 14.1611 55.3525 13.7236H56.6172C56.64 14.1475 56.8086 14.4847 57.123 14.7354C57.4421 14.9814 57.8613 15.1045 58.3809 15.1045C58.8594 15.1045 59.2422 15.0088 59.5293 14.8174C59.821 14.6214 59.9668 14.3617 59.9668 14.0381ZM64.2529 16H62.9883V8.60352H64.2529V16ZM62.8857 6.6416C62.8857 6.43652 62.9473 6.26335 63.0703 6.12207C63.1979 5.98079 63.3848 5.91016 63.6309 5.91016C63.877 5.91016 64.0638 5.98079 64.1914 6.12207C64.319 6.26335 64.3828 6.43652 64.3828 6.6416C64.3828 6.84668 64.319 7.01758 64.1914 7.1543C64.0638 7.29102 63.877 7.35938 63.6309 7.35938C63.3848 7.35938 63.1979 7.29102 63.0703 7.1543C62.9473 7.01758 62.8857 6.84668 62.8857 6.6416ZM65.9482 12.2334C65.9482 11.5088 66.0895 10.8571 66.3721 10.2783C66.6592 9.69954 67.0557 9.25293 67.5615 8.93848C68.0719 8.62402 68.653 8.4668 69.3047 8.4668C70.3118 8.4668 71.1253 8.81543 71.7451 9.5127C72.3695 10.21 72.6816 11.1374 72.6816 12.2949V12.3838C72.6816 13.1038 72.5426 13.751 72.2646 14.3252C71.9912 14.8949 71.597 15.3392 71.082 15.6582C70.5716 15.9772 69.9837 16.1367 69.3184 16.1367C68.3158 16.1367 67.5023 15.7881 66.8779 15.0908C66.2581 14.3936 65.9482 13.4707 65.9482 12.3223V12.2334ZM67.2197 12.3838C67.2197 13.2041 67.4089 13.8626 67.7871 14.3594C68.1699 14.8561 68.6803 15.1045 69.3184 15.1045C69.9609 15.1045 70.4714 14.8538 70.8496 14.3525C71.2279 13.8467 71.417 13.1403 71.417 12.2334C71.417 11.4222 71.2233 10.766 70.8359 10.2646C70.4531 9.75879 69.9427 9.50586 69.3047 9.50586C68.6803 9.50586 68.1768 9.75423 67.7939 10.251C67.4111 10.7477 67.2197 11.4587 67.2197 12.3838ZM75.4639 8.60352L75.5049 9.5332C76.07 8.82227 76.8083 8.4668 77.7197 8.4668C79.2829 8.4668 80.0713 9.34863 80.085 11.1123V16H78.8203V11.1055C78.8158 10.5723 78.6927 10.1781 78.4512 9.92285C78.2142 9.66764 77.8428 9.54004 77.3369 9.54004C76.9268 9.54004 76.5667 9.64941 76.2568 9.86816C75.9469 10.0869 75.7054 10.374 75.5322 10.7295V16H74.2676V8.60352H75.4639Z" fill="#58A6FF"/>
</svg>
