
    <svg width="31.927734375" height="22" viewBox="0 0 31.927734375 22" fill="red" xmlns="http://www.w3.org/2000/svg">
        <path d="M0 11C0 4.92487 4.92487 0 11 0H20.927734375C27.002864375 0 31.927734375 4.92487 31.927734375 11C31.927734375 17.0751 27.002864375 22 20.927734375 22H11C4.92487 22 0 17.0751 0 11Z" fill="#58A6FF" fill-opacity="0.2"/>
        <path fill="#58A6FF" d="M9.41 6.60L10.67 6.60L10.67 8.39L12.05 8.39L12.05 9.37L10.67 9.37L10.67 13.95Q10.67 14.40 10.86 14.62Q11.04 14.84 11.49 14.84L11.49 14.84Q11.71 14.84 12.09 14.76L12.09 14.76L12.09 15.79Q11.59 15.92 11.12 15.92L11.12 15.92Q10.27 15.92 9.84 15.41Q9.41 14.90 9.41 13.95L9.41 13.95L9.41 9.37L8.06 9.37L8.06 8.39L9.41 8.39L9.41 6.60ZM14.09 8.39L15.97 14.07L17.80 8.39L19.09 8.39L16.44 15.79L15.48 15.79L12.80 8.39L14.09 8.39ZM20.76 6.60L22.03 6.60L22.03 8.39L23.41 8.39L23.41 9.37L22.03 9.37L22.03 13.95Q22.03 14.40 22.21 14.62Q22.40 14.84 22.84 14.84L22.84 14.84Q23.06 14.84 23.44 14.76L23.44 14.76L23.44 15.79Q22.94 15.92 22.47 15.92L22.47 15.92Q21.62 15.92 21.19 15.41Q20.76 14.90 20.76 13.95L20.76 13.95L20.76 9.37L19.42 9.37L19.42 8.39L20.76 8.39L20.76 6.60Z"/>
    </svg>
    