<svg width="32" height="22" viewBox="0 0 32 22" fill="none" xmlns="http://www.w3.org/2000/svg">
<path d="M0 11C0 4.92487 4.92487 0 11 0H21C27.0751 0 32 4.92487 32 11V11C32 17.0751 27.0751 22 21 22H11C4.92487 22 0 17.0751 0 11V11Z" fill="#58A6FF" fill-opacity="0.2"/>
<path d="M10.6729 6.8125V8.60352H12.0537V9.58105H10.6729V14.168C10.6729 14.4642 10.7344 14.6875 10.8574 14.8379C10.9805 14.9837 11.1901 15.0566 11.4863 15.0566C11.6322 15.0566 11.8327 15.0293 12.0879 14.9746V16C11.7552 16.0911 11.4316 16.1367 11.1172 16.1367C10.5521 16.1367 10.126 15.9658 9.83887 15.624C9.55176 15.2822 9.4082 14.7969 9.4082 14.168V9.58105H8.06152V8.60352H9.4082V6.8125H10.6729ZM15.9775 14.2842L17.8096 8.60352H19.1016L16.4492 16H15.4854L12.8057 8.60352H14.0977L15.9775 14.2842ZM22.0342 6.8125V8.60352H23.415V9.58105H22.0342V14.168C22.0342 14.4642 22.0957 14.6875 22.2188 14.8379C22.3418 14.9837 22.5514 15.0566 22.8477 15.0566C22.9935 15.0566 23.194 15.0293 23.4492 14.9746V16C23.1165 16.0911 22.793 16.1367 22.4785 16.1367C21.9134 16.1367 21.4873 15.9658 21.2002 15.624C20.9131 15.2822 20.7695 14.7969 20.7695 14.168V9.58105H19.4229V8.60352H20.7695V6.8125H22.0342Z" fill="#58A6FF"/>
</svg>
