<svg width="42" height="22" viewBox="0 0 42 22" fill="none" xmlns="http://www.w3.org/2000/svg">
<path d="M0 11C0 4.92487 4.92487 0 11 0H31C37.0751 0 42 4.92487 42 11V11C42 17.0751 37.0751 22 31 22H11C4.92487 22 0 17.0751 0 11V11Z" fill="#58A6FF" fill-opacity="0.2"/>
<path d="M15.5059 14.2568L16.9277 8.60352H18.1924L16.0391 16H15.0137L13.2158 10.3945L11.4658 16H10.4404L8.29395 8.60352H9.55176L11.0078 14.1406L12.7305 8.60352H13.749L15.5059 14.2568ZM22.5537 16.1367C21.5511 16.1367 20.7354 15.8086 20.1064 15.1523C19.4775 14.4915 19.1631 13.6097 19.1631 12.5068V12.2744C19.1631 11.5407 19.3021 10.8867 19.5801 10.3125C19.8626 9.73372 20.2546 9.28255 20.7559 8.95898C21.2617 8.63086 21.8086 8.4668 22.3965 8.4668C23.3581 8.4668 24.1055 8.78353 24.6387 9.41699C25.1719 10.0505 25.4385 10.9574 25.4385 12.1377V12.6641H20.4277C20.446 13.3932 20.6579 13.9834 21.0635 14.4346C21.4736 14.8812 21.9932 15.1045 22.6221 15.1045C23.0687 15.1045 23.4469 15.0133 23.7568 14.8311C24.0667 14.6488 24.3379 14.4072 24.5703 14.1064L25.3428 14.708C24.723 15.6605 23.7933 16.1367 22.5537 16.1367ZM22.3965 9.50586C21.8861 9.50586 21.4577 9.69271 21.1113 10.0664C20.765 10.4355 20.5508 10.9551 20.4688 11.625H24.1738V11.5293C24.1374 10.8867 23.9642 10.39 23.6543 10.0391C23.3444 9.68359 22.9251 9.50586 22.3965 9.50586ZM33.1699 12.3838C33.1699 13.514 32.9102 14.4232 32.3906 15.1113C31.8711 15.7949 31.1738 16.1367 30.2988 16.1367C29.3646 16.1367 28.6423 15.8063 28.1318 15.1455L28.0703 16H26.9082V5.5H28.1729V9.41699C28.6833 8.78353 29.3874 8.4668 30.2852 8.4668C31.1829 8.4668 31.887 8.80632 32.3975 9.48535C32.9124 10.1644 33.1699 11.0941 33.1699 12.2744V12.3838ZM31.9053 12.2402C31.9053 11.3789 31.7389 10.7135 31.4062 10.2441C31.0736 9.77474 30.5951 9.54004 29.9707 9.54004C29.1367 9.54004 28.5374 9.92741 28.1729 10.7021V13.9014C28.5602 14.6761 29.1641 15.0635 29.9844 15.0635C30.5905 15.0635 31.0622 14.8288 31.3994 14.3594C31.7367 13.89 31.9053 13.1836 31.9053 12.2402Z" fill="#58A6FF"/>
</svg>
