
    <svg width="41.7919921875" height="22" viewBox="0 0 41.7919921875 22" fill="red" xmlns="http://www.w3.org/2000/svg">
        <path d="M0 11C0 4.92487 4.92487 0 11 0H30.7919921875C36.8671221875 0 41.7919921875 4.92487 41.7919921875 11C41.7919921875 17.0751 36.8671221875 22 30.7919921875 22H11C4.92487 22 0 17.0751 0 11Z" fill="#58A6FF" fill-opacity="0.2"/>
        <path fill="#58A6FF" d="M13.75 8.39L15.51 14.04L16.93 8.39L18.19 8.39L16.04 15.79L15.01 15.79L13.22 10.18L11.47 15.79L10.44 15.79L8.29 8.39L9.55 8.39L11.01 13.93L12.73 8.39L13.75 8.39ZM22.55 15.92L22.55 15.92Q21.04 15.92 20.10 14.93Q19.16 13.95 19.16 12.29L19.16 12.29L19.16 12.06Q19.16 10.96 19.58 10.09Q20.00 9.23 20.75 8.74Q21.51 8.25 22.39 8.25L22.39 8.25Q23.83 8.25 24.63 9.20Q25.43 10.15 25.43 11.92L25.43 11.92L25.43 12.45L20.42 12.45Q20.45 13.54 21.06 14.22Q21.67 14.89 22.62 14.89L22.62 14.89Q23.29 14.89 23.75 14.62Q24.21 14.34 24.56 13.89L24.56 13.89L25.34 14.49Q24.41 15.92 22.55 15.92ZM22.39 9.29L22.39 9.29Q21.62 9.29 21.10 9.85Q20.58 10.41 20.46 11.41L20.46 11.41L24.17 11.41L24.17 11.31Q24.11 10.35 23.65 9.82Q23.18 9.29 22.39 9.29ZM33.16 12.06L33.16 12.17Q33.16 13.86 32.38 14.89Q31.60 15.92 30.29 15.92L30.29 15.92Q28.88 15.92 28.12 14.93L28.12 14.93L28.06 15.79L26.89 15.79L26.89 5.29L28.16 5.29L28.16 9.20Q28.92 8.25 30.27 8.25Q31.62 8.25 32.39 9.27Q33.16 10.29 33.16 12.06L33.16 12.06ZM31.89 12.03L31.89 12.03Q31.89 10.73 31.39 10.03Q30.89 9.33 29.96 9.33L29.96 9.33Q28.71 9.33 28.16 10.49L28.16 10.49L28.16 13.69Q28.74 14.85 29.97 14.85L29.97 14.85Q30.88 14.85 31.39 14.14Q31.89 13.44 31.89 12.03Z"/>
    </svg>
    