
    <svg width="37.7724609375" height="22" viewBox="0 0 37.7724609375 22" fill="red" xmlns="http://www.w3.org/2000/svg">
        <path d="M0 11C0 4.92487 4.92487 0 11 0H26.7724609375C32.8475909375 0 37.7724609375 4.92487 37.7724609375 11C37.7724609375 17.0751 32.8475909375 22 26.7724609375 22H11C4.92487 22 0 17.0751 0 11Z" fill="#58A6FF" fill-opacity="0.2"/>
        <path fill="#58A6FF" d="M13.75 8.39L15.51 14.04L16.93 8.39L18.19 8.39L16.04 15.79L15.01 15.79L13.22 10.18L11.47 15.79L10.44 15.79L8.29 8.39L9.55 8.39L11.01 13.93L12.73 8.39L13.75 8.39ZM20.85 8.39L20.85 15.79L19.59 15.79L19.59 8.39L20.85 8.39ZM19.48 6.43L19.48 6.43Q19.48 6.12 19.67 5.91Q19.86 5.70 20.23 5.70Q20.60 5.70 20.79 5.91Q20.98 6.12 20.98 6.43Q20.98 6.73 20.79 6.94Q20.60 7.14 20.23 7.14Q19.86 7.14 19.67 6.94Q19.48 6.73 19.48 6.43ZM29.12 12.05L29.12 12.17Q29.12 13.86 28.35 14.89Q27.58 15.92 26.26 15.92L26.26 15.92Q24.91 15.92 24.14 15.07L24.14 15.07L24.14 18.63L22.88 18.63L22.88 8.39L24.03 8.39L24.09 9.21Q24.86 8.25 26.24 8.25L26.24 8.25Q27.57 8.25 28.35 9.26Q29.12 10.26 29.12 12.05L29.12 12.05ZM27.86 12.03L27.86 12.03Q27.86 10.77 27.33 10.05Q26.79 9.33 25.86 9.33L25.86 9.33Q24.71 9.33 24.14 10.34L24.14 10.34L24.14 13.88Q24.71 14.89 25.88 14.89L25.88 14.89Q26.79 14.89 27.32 14.17Q27.86 13.45 27.86 12.03Z"/>
    </svg>
    