<svg width="256" height="136" viewBox="0 0 256 136" fill="none" xmlns="http://www.w3.org/2000/svg">
<path fill-rule="evenodd" clip-rule="evenodd" d="M19 18.75C19 18.0207 19.2897 17.3212 19.8055 16.8055C20.3212 16.2897 21.0207 16 21.75 16H36.25C36.4489 16 36.6397 16.079 36.7803 16.2197C36.921 16.3603 37 16.5511 37 16.75V37.25C37 37.4489 36.921 37.6397 36.7803 37.7803C36.6397 37.921 36.4489 38 36.25 38H30.25C30.0511 38 29.8603 37.921 29.7197 37.7803C29.579 37.6397 29.5 37.4489 29.5 37.25C29.5 37.0511 29.579 36.8603 29.7197 36.7197C29.8603 36.579 30.0511 36.5 30.25 36.5H35.5V32.5H22C21.6022 32.5 21.2206 32.658 20.9393 32.9393C20.658 33.2206 20.5 33.6022 20.5 34V34.75C20.5 35.466 20.93 36.084 21.55 36.355C21.7262 36.4385 21.8629 36.5872 21.9313 36.7698C21.9996 36.9523 21.9942 37.1543 21.9162 37.3329C21.8382 37.5116 21.6937 37.6528 21.5134 37.7267C21.333 37.8007 21.1309 37.8015 20.95 37.729C20.3704 37.476 19.8771 37.0594 19.5308 36.5303C19.1844 36.0011 18.9999 35.3824 19 34.75V18.75ZM35.5 17.5V31H22C21.454 31 20.941 31.146 20.5 31.401V18.75C20.5 18.06 21.06 17.5 21.75 17.5H35.5Z" fill="#30363D"/>
<path d="M23 34.25C23 34.1837 23.0263 34.1201 23.0732 34.0732C23.1201 34.0263 23.1837 34 23.25 34H28.25C28.3163 34 28.3799 34.0263 28.4268 34.0732C28.4737 34.1201 28.5 34.1837 28.5 34.25V39.26C28.4998 39.306 28.4869 39.3511 28.4627 39.3902C28.4385 39.4293 28.404 39.461 28.3629 39.4818C28.3219 39.5026 28.2759 39.5117 28.23 39.508C28.1842 39.5043 28.1402 39.4881 28.103 39.461L25.897 37.857C25.8543 37.8259 25.8028 37.8092 25.75 37.8092C25.6972 37.8092 25.6457 37.8259 25.603 37.857L23.397 39.46C23.3599 39.487 23.316 39.5033 23.2702 39.507C23.2244 39.5107 23.1785 39.5017 23.1375 39.4811C23.0965 39.4604 23.062 39.4288 23.0377 39.3898C23.0135 39.3508 23.0004 39.3059 23 39.26V34.25Z" fill="#30363D"/>
<path d="M48.5391 28.7109C48.5391 27.4141 48.8464 26.3698 49.4609 25.5781C50.0807 24.7865 50.9141 24.3906 51.9609 24.3906C52.888 24.3906 53.6094 24.7083 54.125 25.3438L54.2188 24.5469H56.2656V32.7188C56.2656 33.4583 56.0964 34.1016 55.7578 34.6484C55.4245 35.1953 54.9531 35.612 54.3438 35.8984C53.7344 36.1849 53.0208 36.3281 52.2031 36.3281C51.5833 36.3281 50.9792 36.2031 50.3906 35.9531C49.8021 35.7083 49.3568 35.3906 49.0547 35L50.0547 33.625C50.6172 34.2552 51.2995 34.5703 52.1016 34.5703C52.7005 34.5703 53.1667 34.4089 53.5 34.0859C53.8333 33.7682 54 33.3151 54 32.7266V32.2734C53.4792 32.862 52.7943 33.1562 51.9453 33.1562C50.9297 33.1562 50.1068 32.7604 49.4766 31.9688C48.8516 31.1719 48.5391 30.1172 48.5391 28.8047V28.7109ZM50.7969 28.875C50.7969 29.6406 50.9505 30.2422 51.2578 30.6797C51.5651 31.112 51.987 31.3281 52.5234 31.3281C53.2109 31.3281 53.7031 31.0703 54 30.5547V27C53.6979 26.4844 53.2109 26.2266 52.5391 26.2266C51.9974 26.2266 51.5703 26.4479 51.2578 26.8906C50.9505 27.3333 50.7969 27.9948 50.7969 28.875ZM62.7578 26.6641C62.4505 26.6224 62.1797 26.6016 61.9453 26.6016C61.0911 26.6016 60.5312 26.8906 60.2656 27.4688V33H58.0078V24.5469H60.1406L60.2031 25.5547C60.6562 24.7786 61.2839 24.3906 62.0859 24.3906C62.3359 24.3906 62.5703 24.4245 62.7891 24.4922L62.7578 26.6641ZM68.5156 33C68.4115 32.7969 68.3359 32.5443 68.2891 32.2422C67.7422 32.8516 67.0312 33.1562 66.1562 33.1562C65.3281 33.1562 64.6406 32.9167 64.0938 32.4375C63.5521 31.9583 63.2812 31.3542 63.2812 30.625C63.2812 29.7292 63.612 29.0417 64.2734 28.5625C64.9401 28.0833 65.901 27.8411 67.1562 27.8359H68.1953V27.3516C68.1953 26.9609 68.0938 26.6484 67.8906 26.4141C67.6927 26.1797 67.3776 26.0625 66.9453 26.0625C66.5651 26.0625 66.2656 26.1536 66.0469 26.3359C65.8333 26.5182 65.7266 26.7682 65.7266 27.0859H63.4688C63.4688 26.5964 63.6198 26.1432 63.9219 25.7266C64.224 25.3099 64.651 24.9844 65.2031 24.75C65.7552 24.5104 66.375 24.3906 67.0625 24.3906C68.1042 24.3906 68.9297 24.6536 69.5391 25.1797C70.1536 25.7005 70.4609 26.4349 70.4609 27.3828V31.0469C70.4661 31.849 70.5781 32.4557 70.7969 32.8672V33H68.5156ZM66.6484 31.4297C66.9818 31.4297 67.2891 31.3568 67.5703 31.2109C67.8516 31.0599 68.0599 30.8594 68.1953 30.6094V29.1562H67.3516C66.2214 29.1562 65.6198 29.5469 65.5469 30.3281L65.5391 30.4609C65.5391 30.7422 65.638 30.974 65.8359 31.1562C66.0339 31.3385 66.3047 31.4297 66.6484 31.4297ZM71.8438 28.7109C71.8438 27.3932 72.138 26.3438 72.7266 25.5625C73.3203 24.7812 74.1302 24.3906 75.1562 24.3906C75.9792 24.3906 76.6589 24.6979 77.1953 25.3125V21H79.4609V33H77.4219L77.3125 32.1016C76.75 32.8047 76.026 33.1562 75.1406 33.1562C74.1458 33.1562 73.3464 32.7656 72.7422 31.9844C72.1432 31.1979 71.8438 30.1068 71.8438 28.7109ZM74.1016 28.875C74.1016 29.6667 74.2396 30.2734 74.5156 30.6953C74.7917 31.1172 75.1927 31.3281 75.7188 31.3281C76.4167 31.3281 76.9089 31.0339 77.1953 30.4453V27.1094C76.9141 26.5208 76.4271 26.2266 75.7344 26.2266C74.6458 26.2266 74.1016 27.1094 74.1016 28.875ZM87.4688 34.7656H80.3516V33H87.4688V34.7656ZM90.4688 24.5469L90.5391 25.4922C91.138 24.7578 91.9479 24.3906 92.9688 24.3906C94.0573 24.3906 94.8047 24.8203 95.2109 25.6797C95.8047 24.8203 96.651 24.3906 97.75 24.3906C98.6667 24.3906 99.349 24.6589 99.7969 25.1953C100.245 25.7266 100.469 26.5286 100.469 27.6016V33H98.2031V27.6094C98.2031 27.1302 98.1094 26.7812 97.9219 26.5625C97.7344 26.3385 97.4036 26.2266 96.9297 26.2266C96.2526 26.2266 95.7839 26.5495 95.5234 27.1953L95.5312 33H93.2734V27.6172C93.2734 27.1276 93.1771 26.7734 92.9844 26.5547C92.7917 26.3359 92.4635 26.2266 92 26.2266C91.3594 26.2266 90.8958 26.4922 90.6094 27.0234V33H88.3516V24.5469H90.4688ZM104.594 33H102.328V24.5469H104.594V33ZM102.195 22.3594C102.195 22.0208 102.307 21.7422 102.531 21.5234C102.76 21.3047 103.07 21.1953 103.461 21.1953C103.846 21.1953 104.154 21.3047 104.383 21.5234C104.612 21.7422 104.727 22.0208 104.727 22.3594C104.727 22.7031 104.609 22.9844 104.375 23.2031C104.146 23.4219 103.841 23.5312 103.461 23.5312C103.081 23.5312 102.773 23.4219 102.539 23.2031C102.31 22.9844 102.195 22.7031 102.195 22.3594ZM108.539 24.5469L108.609 25.5234C109.214 24.7682 110.023 24.3906 111.039 24.3906C111.935 24.3906 112.602 24.6536 113.039 25.1797C113.477 25.7057 113.701 26.4922 113.711 27.5391V33H111.453V27.5938C111.453 27.1146 111.349 26.7682 111.141 26.5547C110.932 26.3359 110.586 26.2266 110.102 26.2266C109.466 26.2266 108.99 26.4974 108.672 27.0391V33H106.414V24.5469H108.539ZM120.492 32.1406C119.935 32.8177 119.164 33.1562 118.18 33.1562C117.273 33.1562 116.581 32.8958 116.102 32.375C115.628 31.8542 115.385 31.0911 115.375 30.0859V24.5469H117.633V30.0078C117.633 30.888 118.034 31.3281 118.836 31.3281C119.602 31.3281 120.128 31.0625 120.414 30.5312V24.5469H122.68V33H120.555L120.492 32.1406ZM126.766 33H124.5V24.5469H126.766V33ZM124.367 22.3594C124.367 22.0208 124.479 21.7422 124.703 21.5234C124.932 21.3047 125.242 21.1953 125.633 21.1953C126.018 21.1953 126.326 21.3047 126.555 21.5234C126.784 21.7422 126.898 22.0208 126.898 22.3594C126.898 22.7031 126.781 22.9844 126.547 23.2031C126.318 23.4219 126.013 23.5312 125.633 23.5312C125.253 23.5312 124.945 23.4219 124.711 23.2031C124.482 22.9844 124.367 22.7031 124.367 22.3594Z" fill="#58A6FF"/>
<path d="M23.2891 59.8809C23 60.2949 22.5957 60.6055 22.0762 60.8125C21.5605 61.0156 20.959 61.1172 20.2715 61.1172C19.5762 61.1172 18.959 60.9551 18.4199 60.6309C17.8809 60.3027 17.4629 59.8379 17.166 59.2363C16.873 58.6348 16.7227 57.9375 16.7148 57.1445V56.4004C16.7148 55.1152 17.0137 54.1191 17.6113 53.4121C18.2129 52.7051 19.0566 52.3516 20.1426 52.3516C21.0332 52.3516 21.75 52.5801 22.293 53.0371C22.8359 53.4902 23.168 54.1348 23.2891 54.9707H22.1641C21.9531 53.8418 21.2812 53.2773 20.1484 53.2773C19.3945 53.2773 18.8223 53.543 18.4316 54.0742C18.0449 54.6016 17.8496 55.3672 17.8457 56.3711V57.0684C17.8457 58.0254 18.0645 58.7871 18.502 59.3535C18.9395 59.916 19.5312 60.1973 20.2773 60.1973C20.6992 60.1973 21.0684 60.1504 21.3848 60.0566C21.7012 59.9629 21.9629 59.8047 22.1699 59.582V57.666H20.1953V56.752H23.2891V59.8809ZM28.0645 55.6328C27.9004 55.6055 27.7227 55.5918 27.5312 55.5918C26.8203 55.5918 26.3379 55.8945 26.084 56.5V61H25V54.6602H26.0547L26.0723 55.3926C26.4277 54.8262 26.9316 54.543 27.584 54.543C27.7949 54.543 27.9551 54.5703 28.0645 54.625V55.6328ZM32.9805 60.373C32.5586 60.8691 31.9395 61.1172 31.123 61.1172C30.4473 61.1172 29.9316 60.9219 29.5762 60.5312C29.2246 60.1367 29.0469 59.5547 29.043 58.7852V54.6602H30.127V58.7559C30.127 59.7168 30.5176 60.1973 31.2988 60.1973C32.127 60.1973 32.6777 59.8887 32.9512 59.2715V54.6602H34.0352V61H33.0039L32.9805 60.373ZM41.043 57.9004C41.043 58.8652 40.8223 59.6426 40.3809 60.2324C39.9395 60.8223 39.3418 61.1172 38.5879 61.1172C37.8184 61.1172 37.2129 60.873 36.7715 60.3848V63.4375H35.6875V54.6602H36.6777L36.7305 55.3633C37.1719 54.8164 37.7852 54.543 38.5703 54.543C39.332 54.543 39.9336 54.8301 40.375 55.4043C40.8203 55.9785 41.043 56.7773 41.043 57.8008V57.9004ZM39.959 57.7773C39.959 57.0625 39.8066 56.498 39.502 56.084C39.1973 55.6699 38.7793 55.4629 38.248 55.4629C37.5918 55.4629 37.0996 55.7539 36.7715 56.3359V59.3652C37.0957 59.9434 37.5918 60.2324 38.2598 60.2324C38.7793 60.2324 39.1914 60.0273 39.4961 59.6172C39.8047 59.2031 39.959 58.5898 39.959 57.7773ZM47.7812 57.9004C47.7812 58.8652 47.5605 59.6426 47.1191 60.2324C46.6777 60.8223 46.0801 61.1172 45.3262 61.1172C44.5566 61.1172 43.9512 60.873 43.5098 60.3848V63.4375H42.4258V54.6602H43.416L43.4688 55.3633C43.9102 54.8164 44.5234 54.543 45.3086 54.543C46.0703 54.543 46.6719 54.8301 47.1133 55.4043C47.5586 55.9785 47.7812 56.7773 47.7812 57.8008V57.9004ZM46.6973 57.7773C46.6973 57.0625 46.5449 56.498 46.2402 56.084C45.9355 55.6699 45.5176 55.4629 44.9863 55.4629C44.3301 55.4629 43.8379 55.7539 43.5098 56.3359V59.3652C43.834 59.9434 44.3301 60.2324 44.998 60.2324C45.5176 60.2324 45.9297 60.0273 46.2344 59.6172C46.543 59.2031 46.6973 58.5898 46.6973 57.7773ZM51.7949 61.1172C50.9355 61.1172 50.2363 60.8359 49.6973 60.2734C49.1582 59.707 48.8887 58.9512 48.8887 58.0059V57.8066C48.8887 57.1777 49.0078 56.6172 49.2461 56.125C49.4883 55.6289 49.8242 55.2422 50.2539 54.9648C50.6875 54.6836 51.1562 54.543 51.6602 54.543C52.4844 54.543 53.125 54.8145 53.582 55.3574C54.0391 55.9004 54.2676 56.6777 54.2676 57.6895V58.1406H49.9727C49.9883 58.7656 50.1699 59.2715 50.5176 59.6582C50.8691 60.041 51.3145 60.2324 51.8535 60.2324C52.2363 60.2324 52.5605 60.1543 52.8262 59.998C53.0918 59.8418 53.3242 59.6348 53.5234 59.377L54.1855 59.8926C53.6543 60.709 52.8574 61.1172 51.7949 61.1172ZM51.6602 55.4336C51.2227 55.4336 50.8555 55.5938 50.5586 55.9141C50.2617 56.2305 50.0781 56.6758 50.0078 57.25H53.1836V57.168C53.1523 56.6172 53.0039 56.1914 52.7383 55.8906C52.4727 55.5859 52.1133 55.4336 51.6602 55.4336ZM63.3848 58.7734H59.8105L59.0078 61H57.8477L61.1055 52.4688H62.0898L65.3535 61H64.1992L63.3848 58.7734ZM60.1504 57.8477H63.0508L61.5977 53.8574L60.1504 57.8477ZM66.0684 57.7773C66.0684 56.8047 66.2988 56.0234 66.7598 55.4336C67.2207 54.8398 67.8242 54.543 68.5703 54.543C69.3125 54.543 69.9004 54.7969 70.334 55.3047V52H71.418V61H70.4219L70.3691 60.3203C69.9355 60.8516 69.332 61.1172 68.5586 61.1172C67.8242 61.1172 67.2246 60.8164 66.7598 60.2148C66.2988 59.6133 66.0684 58.8281 66.0684 57.8594V57.7773ZM67.1523 57.9004C67.1523 58.6191 67.3008 59.1816 67.5977 59.5879C67.8945 59.9941 68.3047 60.1973 68.8281 60.1973C69.5156 60.1973 70.0176 59.8887 70.334 59.2715V56.3594C70.0098 55.7617 69.5117 55.4629 68.8398 55.4629C68.3086 55.4629 67.8945 55.668 67.5977 56.0781C67.3008 56.4883 67.1523 57.0957 67.1523 57.9004ZM74.2832 61H73.1992V52H74.2832V61ZM78.6543 61.1172C77.7949 61.1172 77.0957 60.8359 76.5566 60.2734C76.0176 59.707 75.748 58.9512 75.748 58.0059V57.8066C75.748 57.1777 75.8672 56.6172 76.1055 56.125C76.3477 55.6289 76.6836 55.2422 77.1133 54.9648C77.5469 54.6836 78.0156 54.543 78.5195 54.543C79.3438 54.543 79.9844 54.8145 80.4414 55.3574C80.8984 55.9004 81.127 56.6777 81.127 57.6895V58.1406H76.832C76.8477 58.7656 77.0293 59.2715 77.377 59.6582C77.7285 60.041 78.1738 60.2324 78.7129 60.2324C79.0957 60.2324 79.4199 60.1543 79.6855 59.998C79.9512 59.8418 80.1836 59.6348 80.3828 59.377L81.0449 59.8926C80.5137 60.709 79.7168 61.1172 78.6543 61.1172ZM78.5195 55.4336C78.082 55.4336 77.7148 55.5938 77.418 55.9141C77.1211 56.2305 76.9375 56.6758 76.8672 57.25H80.043V57.168C80.0117 56.6172 79.8633 56.1914 79.5977 55.8906C79.332 55.5859 78.9727 55.4336 78.5195 55.4336ZM85.4512 55.6328C85.2871 55.6055 85.1094 55.5918 84.918 55.5918C84.207 55.5918 83.7246 55.8945 83.4707 56.5V61H82.3867V54.6602H83.4414L83.459 55.3926C83.8145 54.8262 84.3184 54.543 84.9707 54.543C85.1816 54.543 85.3418 54.5703 85.4512 54.625V55.6328ZM91.0527 52.4688L93.8418 59.4297L96.6309 52.4688H98.0898V61H96.9648V57.6777L97.0703 54.0918L94.2695 61H93.4082L90.6133 54.1094L90.7246 57.6777V61H89.5996V52.4688H91.0527ZM101.084 61H100V54.6602H101.084V61ZM99.9121 52.9785C99.9121 52.8027 99.9648 52.6543 100.07 52.5332C100.18 52.4121 100.34 52.3516 100.551 52.3516C100.762 52.3516 100.922 52.4121 101.031 52.5332C101.141 52.6543 101.195 52.8027 101.195 52.9785C101.195 53.1543 101.141 53.3008 101.031 53.418C100.922 53.5352 100.762 53.5938 100.551 53.5938C100.34 53.5938 100.18 53.5352 100.07 53.418C99.9648 53.3008 99.9121 53.1543 99.9121 52.9785ZM103.85 54.6602L103.885 55.457C104.369 54.8477 105.002 54.543 105.783 54.543C107.123 54.543 107.799 55.2988 107.811 56.8105V61H106.727V56.8047C106.723 56.3477 106.617 56.0098 106.41 55.791C106.207 55.5723 105.889 55.4629 105.455 55.4629C105.104 55.4629 104.795 55.5566 104.529 55.7441C104.264 55.9316 104.057 56.1777 103.908 56.4824V61H102.824V54.6602H103.85ZM115.621 52.4688V58.2695C115.617 59.0742 115.363 59.7324 114.859 60.2441C114.359 60.7559 113.68 61.043 112.82 61.1055L112.521 61.1172C111.588 61.1172 110.844 60.8652 110.289 60.3613C109.734 59.8574 109.453 59.1641 109.445 58.2812V52.4688H110.559V58.2461C110.559 58.8633 110.729 59.3438 111.068 59.6875C111.408 60.0273 111.893 60.1973 112.521 60.1973C113.158 60.1973 113.645 60.0273 113.98 59.6875C114.32 59.3477 114.49 58.8691 114.49 58.252V52.4688H115.621ZM118.604 61H117.479V52.4688H118.604V61ZM124.65 61H123.566V54.6602H124.65V61ZM123.479 52.9785C123.479 52.8027 123.531 52.6543 123.637 52.5332C123.746 52.4121 123.906 52.3516 124.117 52.3516C124.328 52.3516 124.488 52.4121 124.598 52.5332C124.707 52.6543 124.762 52.8027 124.762 52.9785C124.762 53.1543 124.707 53.3008 124.598 53.418C124.488 53.5352 124.328 53.5938 124.117 53.5938C123.906 53.5938 123.746 53.5352 123.637 53.418C123.531 53.3008 123.479 53.1543 123.479 52.9785ZM130.082 59.3184C130.082 59.0254 129.971 58.7988 129.748 58.6387C129.529 58.4746 129.145 58.334 128.594 58.2168C128.047 58.0996 127.611 57.959 127.287 57.7949C126.967 57.6309 126.729 57.4355 126.572 57.209C126.42 56.9824 126.344 56.7129 126.344 56.4004C126.344 55.8809 126.562 55.4414 127 55.082C127.441 54.7227 128.004 54.543 128.688 54.543C129.406 54.543 129.988 54.7285 130.434 55.0996C130.883 55.4707 131.107 55.9453 131.107 56.5234H130.018C130.018 56.2266 129.891 55.9707 129.637 55.7559C129.387 55.541 129.07 55.4336 128.688 55.4336C128.293 55.4336 127.984 55.5195 127.762 55.6914C127.539 55.8633 127.428 56.0879 127.428 56.3652C127.428 56.627 127.531 56.8242 127.738 56.957C127.945 57.0898 128.318 57.2168 128.857 57.3379C129.4 57.459 129.84 57.6035 130.176 57.7715C130.512 57.9395 130.76 58.1426 130.92 58.3809C131.084 58.6152 131.166 58.9023 131.166 59.2422C131.166 59.8086 130.939 60.2637 130.486 60.6074C130.033 60.9473 129.445 61.1172 128.723 61.1172C128.215 61.1172 127.766 61.0273 127.375 60.8477C126.984 60.668 126.678 60.418 126.455 60.0977C126.236 59.7734 126.127 59.4238 126.127 59.0488H127.211C127.23 59.4121 127.375 59.7012 127.645 59.916C127.918 60.127 128.277 60.2324 128.723 60.2324C129.133 60.2324 129.461 60.1504 129.707 59.9863C129.957 59.8184 130.082 59.5957 130.082 59.3184ZM139.469 61C139.406 60.875 139.355 60.6523 139.316 60.332C138.812 60.8555 138.211 61.1172 137.512 61.1172C136.887 61.1172 136.373 60.9414 135.971 60.5898C135.572 60.2344 135.373 59.7852 135.373 59.2422C135.373 58.582 135.623 58.0703 136.123 57.707C136.627 57.3398 137.334 57.1562 138.244 57.1562H139.299V56.6582C139.299 56.2793 139.186 55.9785 138.959 55.7559C138.732 55.5293 138.398 55.416 137.957 55.416C137.57 55.416 137.246 55.5137 136.984 55.709C136.723 55.9043 136.592 56.1406 136.592 56.418H135.502C135.502 56.1016 135.613 55.7969 135.836 55.5039C136.062 55.207 136.367 54.9727 136.75 54.8008C137.137 54.6289 137.561 54.543 138.021 54.543C138.752 54.543 139.324 54.7266 139.738 55.0938C140.152 55.457 140.367 55.959 140.383 56.5996V59.5176C140.383 60.0996 140.457 60.5625 140.605 60.9062V61H139.469ZM137.67 60.1738C138.01 60.1738 138.332 60.0859 138.637 59.9102C138.941 59.7344 139.162 59.5059 139.299 59.2246V57.9238H138.449C137.121 57.9238 136.457 58.3125 136.457 59.0898C136.457 59.4297 136.57 59.6953 136.797 59.8867C137.023 60.0781 137.314 60.1738 137.67 60.1738ZM143.107 54.6602L143.143 55.457C143.627 54.8477 144.26 54.543 145.041 54.543C146.381 54.543 147.057 55.2988 147.068 56.8105V61H145.984V56.8047C145.98 56.3477 145.875 56.0098 145.668 55.791C145.465 55.5723 145.146 55.4629 144.713 55.4629C144.361 55.4629 144.053 55.5566 143.787 55.7441C143.521 55.9316 143.314 56.1777 143.166 56.4824V61H142.082V54.6602H143.107ZM152.699 54.6602L152.729 55.3633C153.193 54.8164 153.82 54.543 154.609 54.543C155.496 54.543 156.1 54.8828 156.42 55.5625C156.631 55.2578 156.904 55.0117 157.24 54.8242C157.58 54.6367 157.98 54.543 158.441 54.543C159.832 54.543 160.539 55.2793 160.562 56.752V61H159.479V56.8164C159.479 56.3633 159.375 56.0254 159.168 55.8027C158.961 55.5762 158.613 55.4629 158.125 55.4629C157.723 55.4629 157.389 55.584 157.123 55.8262C156.857 56.0645 156.703 56.3867 156.66 56.793V61H155.57V56.8457C155.57 55.9238 155.119 55.4629 154.217 55.4629C153.506 55.4629 153.02 55.7656 152.758 56.3711V61H151.674V54.6602H152.699ZM161.916 57.7715C161.916 57.1504 162.037 56.5918 162.279 56.0957C162.525 55.5996 162.865 55.2168 163.299 54.9473C163.736 54.6777 164.234 54.543 164.793 54.543C165.656 54.543 166.354 54.8418 166.885 55.4395C167.42 56.0371 167.688 56.832 167.688 57.8242V57.9004C167.688 58.5176 167.568 59.0723 167.33 59.5645C167.096 60.0527 166.758 60.4336 166.316 60.707C165.879 60.9805 165.375 61.1172 164.805 61.1172C163.945 61.1172 163.248 60.8184 162.713 60.2207C162.182 59.623 161.916 58.832 161.916 57.8477V57.7715ZM163.006 57.9004C163.006 58.6035 163.168 59.168 163.492 59.5938C163.82 60.0195 164.258 60.2324 164.805 60.2324C165.355 60.2324 165.793 60.0176 166.117 59.5879C166.441 59.1543 166.604 58.5488 166.604 57.7715C166.604 57.0762 166.438 56.5137 166.105 56.084C165.777 55.6504 165.34 55.4336 164.793 55.4336C164.258 55.4336 163.826 55.6465 163.498 56.0723C163.17 56.498 163.006 57.1074 163.006 57.9004ZM168.783 57.7773C168.783 56.8047 169.014 56.0234 169.475 55.4336C169.936 54.8398 170.539 54.543 171.285 54.543C172.027 54.543 172.615 54.7969 173.049 55.3047V52H174.133V61H173.137L173.084 60.3203C172.65 60.8516 172.047 61.1172 171.273 61.1172C170.539 61.1172 169.939 60.8164 169.475 60.2148C169.014 59.6133 168.783 58.8281 168.783 57.8594V57.7773ZM169.867 57.9004C169.867 58.6191 170.016 59.1816 170.312 59.5879C170.609 59.9941 171.02 60.1973 171.543 60.1973C172.23 60.1973 172.732 59.8887 173.049 59.2715V56.3594C172.725 55.7617 172.227 55.4629 171.555 55.4629C171.023 55.4629 170.609 55.668 170.312 56.0781C170.016 56.4883 169.867 57.0957 169.867 57.9004ZM179.33 61V55.498H178.328V54.6602H179.33V54.0098C179.33 53.3301 179.512 52.8047 179.875 52.4336C180.238 52.0625 180.752 51.877 181.416 51.877C181.666 51.877 181.914 51.9102 182.16 51.9766L182.102 52.8555C181.918 52.8203 181.723 52.8027 181.516 52.8027C181.164 52.8027 180.893 52.9062 180.701 53.1133C180.51 53.3164 180.414 53.6094 180.414 53.9922V54.6602H181.768V55.498H180.414V61H179.33ZM182.682 57.7715C182.682 57.1504 182.803 56.5918 183.045 56.0957C183.291 55.5996 183.631 55.2168 184.064 54.9473C184.502 54.6777 185 54.543 185.559 54.543C186.422 54.543 187.119 54.8418 187.65 55.4395C188.186 56.0371 188.453 56.832 188.453 57.8242V57.9004C188.453 58.5176 188.334 59.0723 188.096 59.5645C187.861 60.0527 187.523 60.4336 187.082 60.707C186.645 60.9805 186.141 61.1172 185.57 61.1172C184.711 61.1172 184.014 60.8184 183.479 60.2207C182.947 59.623 182.682 58.832 182.682 57.8477V57.7715ZM183.771 57.9004C183.771 58.6035 183.934 59.168 184.258 59.5938C184.586 60.0195 185.023 60.2324 185.57 60.2324C186.121 60.2324 186.559 60.0176 186.883 59.5879C187.207 59.1543 187.369 58.5488 187.369 57.7715C187.369 57.0762 187.203 56.5137 186.871 56.084C186.543 55.6504 186.105 55.4336 185.559 55.4336C185.023 55.4336 184.592 55.6465 184.264 56.0723C183.936 56.498 183.771 57.1074 183.771 57.9004ZM192.877 55.6328C192.713 55.6055 192.535 55.5918 192.344 55.5918C191.633 55.5918 191.15 55.8945 190.896 56.5V61H189.812V54.6602H190.867L190.885 55.3926C191.24 54.8262 191.744 54.543 192.396 54.543C192.607 54.543 192.768 54.5703 192.877 54.625V55.6328ZM201.736 58.7734H198.162L197.359 61H196.199L199.457 52.4688H200.441L203.705 61H202.551L201.736 58.7734ZM198.502 57.8477H201.402L199.949 53.8574L198.502 57.8477ZM207.748 55.6328C207.584 55.6055 207.406 55.5918 207.215 55.5918C206.504 55.5918 206.021 55.8945 205.768 56.5V61H204.684V54.6602H205.738L205.756 55.3926C206.111 54.8262 206.615 54.543 207.268 54.543C207.479 54.543 207.639 54.5703 207.748 54.625V55.6328ZM209.77 54.6602L209.799 55.3633C210.264 54.8164 210.891 54.543 211.68 54.543C212.566 54.543 213.17 54.8828 213.49 55.5625C213.701 55.2578 213.975 55.0117 214.311 54.8242C214.65 54.6367 215.051 54.543 215.512 54.543C216.902 54.543 217.609 55.2793 217.633 56.752V61H216.549V56.8164C216.549 56.3633 216.445 56.0254 216.238 55.8027C216.031 55.5762 215.684 55.4629 215.195 55.4629C214.793 55.4629 214.459 55.584 214.193 55.8262C213.928 56.0645 213.773 56.3867 213.73 56.793V61H212.641V56.8457C212.641 55.9238 212.189 55.4629 211.287 55.4629C210.576 55.4629 210.09 55.7656 209.828 56.3711V61H208.744V54.6602H209.77ZM223.188 61C223.125 60.875 223.074 60.6523 223.035 60.332C222.531 60.8555 221.93 61.1172 221.23 61.1172C220.605 61.1172 220.092 60.9414 219.689 60.5898C219.291 60.2344 219.092 59.7852 219.092 59.2422C219.092 58.582 219.342 58.0703 219.842 57.707C220.346 57.3398 221.053 57.1562 221.963 57.1562H223.018V56.6582C223.018 56.2793 222.904 55.9785 222.678 55.7559C222.451 55.5293 222.117 55.416 221.676 55.416C221.289 55.416 220.965 55.5137 220.703 55.709C220.441 55.9043 220.311 56.1406 220.311 56.418H219.221C219.221 56.1016 219.332 55.7969 219.555 55.5039C219.781 55.207 220.086 54.9727 220.469 54.8008C220.855 54.6289 221.279 54.543 221.74 54.543C222.471 54.543 223.043 54.7266 223.457 55.0938C223.871 55.457 224.086 55.959 224.102 56.5996V59.5176C224.102 60.0996 224.176 60.5625 224.324 60.9062V61H223.188ZM221.389 60.1738C221.729 60.1738 222.051 60.0859 222.355 59.9102C222.66 59.7344 222.881 59.5059 223.018 59.2246V57.9238H222.168C220.84 57.9238 220.176 58.3125 220.176 59.0898C220.176 59.4297 220.289 59.6953 220.516 59.8867C220.742 60.0781 221.033 60.1738 221.389 60.1738ZM230.242 56.207H231.057C231.568 56.1992 231.971 56.0645 232.264 55.8027C232.557 55.541 232.703 55.1875 232.703 54.7422C232.703 53.7422 232.205 53.2422 231.209 53.2422C230.74 53.2422 230.365 53.377 230.084 53.6465C229.807 53.9121 229.668 54.2656 229.668 54.707H228.584C228.584 54.0312 228.83 53.4707 229.322 53.0254C229.818 52.5762 230.447 52.3516 231.209 52.3516C232.014 52.3516 232.645 52.5645 233.102 52.9902C233.559 53.416 233.787 54.0078 233.787 54.7656C233.787 55.1367 233.666 55.4961 233.424 55.8438C233.186 56.1914 232.859 56.4512 232.445 56.623C232.914 56.7715 233.275 57.0176 233.529 57.3613C233.787 57.7051 233.916 58.125 233.916 58.6211C233.916 59.3867 233.666 59.9941 233.166 60.4434C232.666 60.8926 232.016 61.1172 231.215 61.1172C230.414 61.1172 229.762 60.9004 229.258 60.4668C228.758 60.0332 228.508 59.4609 228.508 58.75H229.598C229.598 59.1992 229.744 59.5586 230.037 59.8281C230.33 60.0977 230.723 60.2324 231.215 60.2324C231.738 60.2324 232.139 60.0957 232.416 59.8223C232.693 59.5488 232.832 59.1562 232.832 58.6445C232.832 58.1484 232.68 57.7676 232.375 57.502C232.07 57.2363 231.631 57.0996 231.057 57.0918H230.242V56.207ZM235.48 62.6992L234.865 62.2773C235.232 61.7656 235.424 61.2383 235.439 60.6953V59.7168H236.5V60.5664C236.5 60.9609 236.402 61.3555 236.207 61.75C236.016 62.1445 235.773 62.4609 235.48 62.6992ZM22.4336 77.5059L23.6523 72.6602H24.7363L22.8906 79H22.0117L20.4707 74.1953L18.9707 79H18.0918L16.252 72.6602H17.3301L18.5781 77.4062L20.0547 72.6602H20.9277L22.4336 77.5059ZM26.9277 73.4277C27.4082 72.8379 28.0332 72.543 28.8027 72.543C30.1426 72.543 30.8184 73.2988 30.8301 74.8105V79H29.7461V74.8047C29.7422 74.3477 29.6367 74.0098 29.4297 73.791C29.2266 73.5723 28.9082 73.4629 28.4746 73.4629C28.123 73.4629 27.8145 73.5566 27.5488 73.7441C27.2832 73.9316 27.0762 74.1777 26.9277 74.4824V79H25.8438V70H26.9277V73.4277ZM33.6309 79H32.5469V72.6602H33.6309V79ZM32.459 70.9785C32.459 70.8027 32.5117 70.6543 32.6172 70.5332C32.7266 70.4121 32.8867 70.3516 33.0977 70.3516C33.3086 70.3516 33.4688 70.4121 33.5781 70.5332C33.6875 70.6543 33.7422 70.8027 33.7422 70.9785C33.7422 71.1543 33.6875 71.3008 33.5781 71.418C33.4688 71.5352 33.3086 71.5938 33.0977 71.5938C32.8867 71.5938 32.7266 71.5352 32.6172 71.418C32.5117 71.3008 32.459 71.1543 32.459 70.9785ZM37.9141 78.2324C38.3008 78.2324 38.6387 78.1152 38.9277 77.8809C39.2168 77.6465 39.377 77.3535 39.4082 77.002H40.4336C40.4141 77.3652 40.2891 77.7109 40.0586 78.0391C39.8281 78.3672 39.5195 78.6289 39.1328 78.8242C38.75 79.0195 38.3438 79.1172 37.9141 79.1172C37.0508 79.1172 36.3633 78.8301 35.8516 78.2559C35.3438 77.6777 35.0898 76.8887 35.0898 75.8887V75.707C35.0898 75.0898 35.2031 74.541 35.4297 74.0605C35.6562 73.5801 35.9805 73.207 36.4023 72.9414C36.8281 72.6758 37.3301 72.543 37.9082 72.543C38.6191 72.543 39.209 72.7559 39.6777 73.1816C40.1504 73.6074 40.4023 74.1602 40.4336 74.8398H39.4082C39.377 74.4297 39.2207 74.0938 38.9395 73.832C38.6621 73.5664 38.3184 73.4336 37.9082 73.4336C37.3574 73.4336 36.9297 73.6328 36.625 74.0312C36.3242 74.4258 36.1738 74.998 36.1738 75.748V75.9531C36.1738 76.6836 36.3242 77.2461 36.625 77.6406C36.9258 78.0352 37.3555 78.2324 37.9141 78.2324ZM42.7363 73.4277C43.2168 72.8379 43.8418 72.543 44.6113 72.543C45.9512 72.543 46.627 73.2988 46.6387 74.8105V79H45.5547V74.8047C45.5508 74.3477 45.4453 74.0098 45.2383 73.791C45.0352 73.5723 44.7168 73.4629 44.2832 73.4629C43.9316 73.4629 43.623 73.5566 43.3574 73.7441C43.0918 73.9316 42.8848 74.1777 42.7363 74.4824V79H41.6523V70H42.7363V73.4277ZM54.3027 73.6328C54.1387 73.6055 53.9609 73.5918 53.7695 73.5918C53.0586 73.5918 52.5762 73.8945 52.3223 74.5V79H51.2383V72.6602H52.293L52.3105 73.3926C52.666 72.8262 53.1699 72.543 53.8223 72.543C54.0332 72.543 54.1934 72.5703 54.3027 72.625V73.6328ZM57.8184 79.1172C56.959 79.1172 56.2598 78.8359 55.7207 78.2734C55.1816 77.707 54.9121 76.9512 54.9121 76.0059V75.8066C54.9121 75.1777 55.0312 74.6172 55.2695 74.125C55.5117 73.6289 55.8477 73.2422 56.2773 72.9648C56.7109 72.6836 57.1797 72.543 57.6836 72.543C58.5078 72.543 59.1484 72.8145 59.6055 73.3574C60.0625 73.9004 60.291 74.6777 60.291 75.6895V76.1406H55.9961C56.0117 76.7656 56.1934 77.2715 56.541 77.6582C56.8926 78.041 57.3379 78.2324 57.877 78.2324C58.2598 78.2324 58.584 78.1543 58.8496 77.998C59.1152 77.8418 59.3477 77.6348 59.5469 77.377L60.209 77.8926C59.6777 78.709 58.8809 79.1172 57.8184 79.1172ZM57.6836 73.4336C57.2461 73.4336 56.8789 73.5938 56.582 73.9141C56.2852 74.2305 56.1016 74.6758 56.0312 75.25H59.207V75.168C59.1758 74.6172 59.0273 74.1914 58.7617 73.8906C58.4961 73.5859 58.1367 73.4336 57.6836 73.4336ZM62.5703 72.6602L62.5996 73.3633C63.0645 72.8164 63.6914 72.543 64.4805 72.543C65.3672 72.543 65.9707 72.8828 66.291 73.5625C66.502 73.2578 66.7754 73.0117 67.1113 72.8242C67.4512 72.6367 67.8516 72.543 68.3125 72.543C69.7031 72.543 70.4102 73.2793 70.4336 74.752V79H69.3496V74.8164C69.3496 74.3633 69.2461 74.0254 69.0391 73.8027C68.832 73.5762 68.4844 73.4629 67.9961 73.4629C67.5938 73.4629 67.2598 73.584 66.9941 73.8262C66.7285 74.0645 66.5742 74.3867 66.5312 74.793V79H65.4414V74.8457C65.4414 73.9238 64.9902 73.4629 64.0879 73.4629C63.377 73.4629 62.8906 73.7656 62.6289 74.3711V79H61.5449V72.6602H62.5703ZM71.7871 75.7715C71.7871 75.1504 71.9082 74.5918 72.1504 74.0957C72.3965 73.5996 72.7363 73.2168 73.1699 72.9473C73.6074 72.6777 74.1055 72.543 74.6641 72.543C75.5273 72.543 76.2246 72.8418 76.7559 73.4395C77.291 74.0371 77.5586 74.832 77.5586 75.8242V75.9004C77.5586 76.5176 77.4395 77.0723 77.2012 77.5645C76.9668 78.0527 76.6289 78.4336 76.1875 78.707C75.75 78.9805 75.2461 79.1172 74.6758 79.1172C73.8164 79.1172 73.1191 78.8184 72.584 78.2207C72.0527 77.623 71.7871 76.832 71.7871 75.8477V75.7715ZM72.877 75.9004C72.877 76.6035 73.0391 77.168 73.3633 77.5938C73.6914 78.0195 74.1289 78.2324 74.6758 78.2324C75.2266 78.2324 75.6641 78.0176 75.9883 77.5879C76.3125 77.1543 76.4746 76.5488 76.4746 75.7715C76.4746 75.0762 76.3086 74.5137 75.9766 74.084C75.6484 73.6504 75.2109 73.4336 74.6641 73.4336C74.1289 73.4336 73.6973 73.6465 73.3691 74.0723C73.041 74.498 72.877 75.1074 72.877 75.9004ZM80.916 77.5293L82.4863 72.6602H83.5938L81.3203 79H80.4941L78.1973 72.6602H79.3047L80.916 77.5293ZM87.1855 79.1172C86.3262 79.1172 85.627 78.8359 85.0879 78.2734C84.5488 77.707 84.2793 76.9512 84.2793 76.0059V75.8066C84.2793 75.1777 84.3984 74.6172 84.6367 74.125C84.8789 73.6289 85.2148 73.2422 85.6445 72.9648C86.0781 72.6836 86.5469 72.543 87.0508 72.543C87.875 72.543 88.5156 72.8145 88.9727 73.3574C89.4297 73.9004 89.6582 74.6777 89.6582 75.6895V76.1406H85.3633C85.3789 76.7656 85.5605 77.2715 85.9082 77.6582C86.2598 78.041 86.7051 78.2324 87.2441 78.2324C87.627 78.2324 87.9512 78.1543 88.2168 77.998C88.4824 77.8418 88.7148 77.6348 88.9141 77.377L89.5762 77.8926C89.0449 78.709 88.248 79.1172 87.1855 79.1172ZM87.0508 73.4336C86.6133 73.4336 86.2461 73.5938 85.9492 73.9141C85.6523 74.2305 85.4688 74.6758 85.3984 75.25H88.5742V75.168C88.543 74.6172 88.3945 74.1914 88.1289 73.8906C87.8633 73.5859 87.5039 73.4336 87.0508 73.4336ZM94.6094 77.3184C94.6094 77.0254 94.498 76.7988 94.2754 76.6387C94.0566 76.4746 93.6719 76.334 93.1211 76.2168C92.5742 76.0996 92.1387 75.959 91.8145 75.7949C91.4941 75.6309 91.2559 75.4355 91.0996 75.209C90.9473 74.9824 90.8711 74.7129 90.8711 74.4004C90.8711 73.8809 91.0898 73.4414 91.5273 73.082C91.9688 72.7227 92.5312 72.543 93.2148 72.543C93.9336 72.543 94.5156 72.7285 94.9609 73.0996C95.4102 73.4707 95.6348 73.9453 95.6348 74.5234H94.5449C94.5449 74.2266 94.418 73.9707 94.1641 73.7559C93.9141 73.541 93.5977 73.4336 93.2148 73.4336C92.8203 73.4336 92.5117 73.5195 92.2891 73.6914C92.0664 73.8633 91.9551 74.0879 91.9551 74.3652C91.9551 74.627 92.0586 74.8242 92.2656 74.957C92.4727 75.0898 92.8457 75.2168 93.3848 75.3379C93.9277 75.459 94.3672 75.6035 94.7031 75.7715C95.0391 75.9395 95.2871 76.1426 95.4473 76.3809C95.6113 76.6152 95.6934 76.9023 95.6934 77.2422C95.6934 77.8086 95.4668 78.2637 95.0137 78.6074C94.5605 78.9473 93.9727 79.1172 93.25 79.1172C92.7422 79.1172 92.293 79.0273 91.9023 78.8477C91.5117 78.668 91.2051 78.418 90.9824 78.0977C90.7637 77.7734 90.6543 77.4238 90.6543 77.0488H91.7383C91.7578 77.4121 91.9023 77.7012 92.1719 77.916C92.4453 78.127 92.8047 78.2324 93.25 78.2324C93.6602 78.2324 93.9883 78.1504 94.2344 77.9863C94.4844 77.8184 94.6094 77.5957 94.6094 77.3184ZM103.773 77.3184C103.773 77.0254 103.662 76.7988 103.439 76.6387C103.221 76.4746 102.836 76.334 102.285 76.2168C101.738 76.0996 101.303 75.959 100.979 75.7949C100.658 75.6309 100.42 75.4355 100.264 75.209C100.111 74.9824 100.035 74.7129 100.035 74.4004C100.035 73.8809 100.254 73.4414 100.691 73.082C101.133 72.7227 101.695 72.543 102.379 72.543C103.098 72.543 103.68 72.7285 104.125 73.0996C104.574 73.4707 104.799 73.9453 104.799 74.5234H103.709C103.709 74.2266 103.582 73.9707 103.328 73.7559C103.078 73.541 102.762 73.4336 102.379 73.4336C101.984 73.4336 101.676 73.5195 101.453 73.6914C101.23 73.8633 101.119 74.0879 101.119 74.3652C101.119 74.627 101.223 74.8242 101.43 74.957C101.637 75.0898 102.01 75.2168 102.549 75.3379C103.092 75.459 103.531 75.6035 103.867 75.7715C104.203 75.9395 104.451 76.1426 104.611 76.3809C104.775 76.6152 104.857 76.9023 104.857 77.2422C104.857 77.8086 104.631 78.2637 104.178 78.6074C103.725 78.9473 103.137 79.1172 102.414 79.1172C101.906 79.1172 101.457 79.0273 101.066 78.8477C100.676 78.668 100.369 78.418 100.146 78.0977C99.9277 77.7734 99.8184 77.4238 99.8184 77.0488H100.902C100.922 77.4121 101.066 77.7012 101.336 77.916C101.609 78.127 101.969 78.2324 102.414 78.2324C102.824 78.2324 103.152 78.1504 103.398 77.9863C103.648 77.8184 103.773 77.5957 103.773 77.3184ZM105.982 75.7715C105.982 75.1504 106.104 74.5918 106.346 74.0957C106.592 73.5996 106.932 73.2168 107.365 72.9473C107.803 72.6777 108.301 72.543 108.859 72.543C109.723 72.543 110.42 72.8418 110.951 73.4395C111.486 74.0371 111.754 74.832 111.754 75.8242V75.9004C111.754 76.5176 111.635 77.0723 111.396 77.5645C111.162 78.0527 110.824 78.4336 110.383 78.707C109.945 78.9805 109.441 79.1172 108.871 79.1172C108.012 79.1172 107.314 78.8184 106.779 78.2207C106.248 77.623 105.982 76.832 105.982 75.8477V75.7715ZM107.072 75.9004C107.072 76.6035 107.234 77.168 107.559 77.5938C107.887 78.0195 108.324 78.2324 108.871 78.2324C109.422 78.2324 109.859 78.0176 110.184 77.5879C110.508 77.1543 110.67 76.5488 110.67 75.7715C110.67 75.0762 110.504 74.5137 110.172 74.084C109.844 73.6504 109.406 73.4336 108.859 73.4336C108.324 73.4336 107.893 73.6465 107.564 74.0723C107.236 74.498 107.072 75.1074 107.072 75.9004ZM114.133 72.6602L114.162 73.3633C114.627 72.8164 115.254 72.543 116.043 72.543C116.93 72.543 117.533 72.8828 117.854 73.5625C118.064 73.2578 118.338 73.0117 118.674 72.8242C119.014 72.6367 119.414 72.543 119.875 72.543C121.266 72.543 121.973 73.2793 121.996 74.752V79H120.912V74.8164C120.912 74.3633 120.809 74.0254 120.602 73.8027C120.395 73.5762 120.047 73.4629 119.559 73.4629C119.156 73.4629 118.822 73.584 118.557 73.8262C118.291 74.0645 118.137 74.3867 118.094 74.793V79H117.004V74.8457C117.004 73.9238 116.553 73.4629 115.65 73.4629C114.939 73.4629 114.453 73.7656 114.191 74.3711V79H113.107V72.6602H114.133ZM126.268 79.1172C125.408 79.1172 124.709 78.8359 124.17 78.2734C123.631 77.707 123.361 76.9512 123.361 76.0059V75.8066C123.361 75.1777 123.48 74.6172 123.719 74.125C123.961 73.6289 124.297 73.2422 124.727 72.9648C125.16 72.6836 125.629 72.543 126.133 72.543C126.957 72.543 127.598 72.8145 128.055 73.3574C128.512 73.9004 128.74 74.6777 128.74 75.6895V76.1406H124.445C124.461 76.7656 124.643 77.2715 124.99 77.6582C125.342 78.041 125.787 78.2324 126.326 78.2324C126.709 78.2324 127.033 78.1543 127.299 77.998C127.564 77.8418 127.797 77.6348 127.996 77.377L128.658 77.8926C128.127 78.709 127.33 79.1172 126.268 79.1172ZM126.133 73.4336C125.695 73.4336 125.328 73.5938 125.031 73.9141C124.734 74.2305 124.551 74.6758 124.48 75.25H127.656V75.168C127.625 74.6172 127.477 74.1914 127.211 73.8906C126.945 73.5859 126.586 73.4336 126.133 73.4336ZM139.152 70.4688V76.2695C139.148 77.0742 138.895 77.7324 138.391 78.2441C137.891 78.7559 137.211 79.043 136.352 79.1055L136.053 79.1172C135.119 79.1172 134.375 78.8652 133.82 78.3613C133.266 77.8574 132.984 77.1641 132.977 76.2812V70.4688H134.09V76.2461C134.09 76.8633 134.26 77.3438 134.6 77.6875C134.939 78.0273 135.424 78.1973 136.053 78.1973C136.689 78.1973 137.176 78.0273 137.512 77.6875C137.852 77.3477 138.021 76.8691 138.021 76.252V70.4688H139.152ZM142.135 79H141.01V70.4688H142.135V79ZM149.547 78.2324C149.934 78.2324 150.271 78.1152 150.561 77.8809C150.85 77.6465 151.01 77.3535 151.041 77.002H152.066C152.047 77.3652 151.922 77.7109 151.691 78.0391C151.461 78.3672 151.152 78.6289 150.766 78.8242C150.383 79.0195 149.977 79.1172 149.547 79.1172C148.684 79.1172 147.996 78.8301 147.484 78.2559C146.977 77.6777 146.723 76.8887 146.723 75.8887V75.707C146.723 75.0898 146.836 74.541 147.062 74.0605C147.289 73.5801 147.613 73.207 148.035 72.9414C148.461 72.6758 148.963 72.543 149.541 72.543C150.252 72.543 150.842 72.7559 151.311 73.1816C151.783 73.6074 152.035 74.1602 152.066 74.8398H151.041C151.01 74.4297 150.854 74.0938 150.572 73.832C150.295 73.5664 149.951 73.4336 149.541 73.4336C148.99 73.4336 148.562 73.6328 148.258 74.0312C147.957 74.4258 147.807 74.998 147.807 75.748V75.9531C147.807 76.6836 147.957 77.2461 148.258 77.6406C148.559 78.0352 148.988 78.2324 149.547 78.2324ZM152.998 75.7715C152.998 75.1504 153.119 74.5918 153.361 74.0957C153.607 73.5996 153.947 73.2168 154.381 72.9473C154.818 72.6777 155.316 72.543 155.875 72.543C156.738 72.543 157.436 72.8418 157.967 73.4395C158.502 74.0371 158.77 74.832 158.77 75.8242V75.9004C158.77 76.5176 158.65 77.0723 158.412 77.5645C158.178 78.0527 157.84 78.4336 157.398 78.707C156.961 78.9805 156.457 79.1172 155.887 79.1172C155.027 79.1172 154.33 78.8184 153.795 78.2207C153.264 77.623 152.998 76.832 152.998 75.8477V75.7715ZM154.088 75.9004C154.088 76.6035 154.25 77.168 154.574 77.5938C154.902 78.0195 155.34 78.2324 155.887 78.2324C156.438 78.2324 156.875 78.0176 157.199 77.5879C157.523 77.1543 157.686 76.5488 157.686 75.7715C157.686 75.0762 157.52 74.5137 157.188 74.084C156.859 73.6504 156.422 73.4336 155.875 73.4336C155.34 73.4336 154.908 73.6465 154.58 74.0723C154.252 74.498 154.088 75.1074 154.088 75.9004ZM161.148 72.6602L161.178 73.3633C161.643 72.8164 162.27 72.543 163.059 72.543C163.945 72.543 164.549 72.8828 164.869 73.5625C165.08 73.2578 165.354 73.0117 165.689 72.8242C166.029 72.6367 166.43 72.543 166.891 72.543C168.281 72.543 168.988 73.2793 169.012 74.752V79H167.928V74.8164C167.928 74.3633 167.824 74.0254 167.617 73.8027C167.41 73.5762 167.062 73.4629 166.574 73.4629C166.172 73.4629 165.838 73.584 165.572 73.8262C165.307 74.0645 165.152 74.3867 165.109 74.793V79H164.02V74.8457C164.02 73.9238 163.568 73.4629 162.666 73.4629C161.955 73.4629 161.469 73.7656 161.207 74.3711V79H160.123V72.6602H161.148ZM176.008 75.9004C176.008 76.8652 175.787 77.6426 175.346 78.2324C174.904 78.8223 174.307 79.1172 173.553 79.1172C172.783 79.1172 172.178 78.873 171.736 78.3848V81.4375H170.652V72.6602H171.643L171.695 73.3633C172.137 72.8164 172.75 72.543 173.535 72.543C174.297 72.543 174.898 72.8301 175.34 73.4043C175.785 73.9785 176.008 74.7773 176.008 75.8008V75.9004ZM174.924 75.7773C174.924 75.0625 174.771 74.498 174.467 74.084C174.162 73.6699 173.744 73.4629 173.213 73.4629C172.557 73.4629 172.064 73.7539 171.736 74.3359V77.3652C172.061 77.9434 172.557 78.2324 173.225 78.2324C173.744 78.2324 174.156 78.0273 174.461 77.6172C174.77 77.2031 174.924 76.5898 174.924 75.7773ZM177.104 75.7715C177.104 75.1504 177.225 74.5918 177.467 74.0957C177.713 73.5996 178.053 73.2168 178.486 72.9473C178.924 72.6777 179.422 72.543 179.98 72.543C180.844 72.543 181.541 72.8418 182.072 73.4395C182.607 74.0371 182.875 74.832 182.875 75.8242V75.9004C182.875 76.5176 182.756 77.0723 182.518 77.5645C182.283 78.0527 181.945 78.4336 181.504 78.707C181.066 78.9805 180.562 79.1172 179.992 79.1172C179.133 79.1172 178.436 78.8184 177.9 78.2207C177.369 77.623 177.104 76.832 177.104 75.8477V75.7715ZM178.193 75.9004C178.193 76.6035 178.355 77.168 178.68 77.5938C179.008 78.0195 179.445 78.2324 179.992 78.2324C180.543 78.2324 180.98 78.0176 181.305 77.5879C181.629 77.1543 181.791 76.5488 181.791 75.7715C181.791 75.0762 181.625 74.5137 181.293 74.084C180.965 73.6504 180.527 73.4336 179.98 73.4336C179.445 73.4336 179.014 73.6465 178.686 74.0723C178.357 74.498 178.193 75.1074 178.193 75.9004ZM185.26 72.6602L185.295 73.457C185.779 72.8477 186.412 72.543 187.193 72.543C188.533 72.543 189.209 73.2988 189.221 74.8105V79H188.137V74.8047C188.133 74.3477 188.027 74.0098 187.82 73.791C187.617 73.5723 187.299 73.4629 186.865 73.4629C186.514 73.4629 186.205 73.5566 185.939 73.7441C185.674 73.9316 185.467 74.1777 185.318 74.4824V79H184.234V72.6602H185.26ZM193.486 79.1172C192.627 79.1172 191.928 78.8359 191.389 78.2734C190.85 77.707 190.58 76.9512 190.58 76.0059V75.8066C190.58 75.1777 190.699 74.6172 190.938 74.125C191.18 73.6289 191.516 73.2422 191.945 72.9648C192.379 72.6836 192.848 72.543 193.352 72.543C194.176 72.543 194.816 72.8145 195.273 73.3574C195.73 73.9004 195.959 74.6777 195.959 75.6895V76.1406H191.664C191.68 76.7656 191.861 77.2715 192.209 77.6582C192.561 78.041 193.006 78.2324 193.545 78.2324C193.928 78.2324 194.252 78.1543 194.518 77.998C194.783 77.8418 195.016 77.6348 195.215 77.377L195.877 77.8926C195.346 78.709 194.549 79.1172 193.486 79.1172ZM193.352 73.4336C192.914 73.4336 192.547 73.5938 192.25 73.9141C191.953 74.2305 191.77 74.6758 191.699 75.25H194.875V75.168C194.844 74.6172 194.695 74.1914 194.43 73.8906C194.164 73.5859 193.805 73.4336 193.352 73.4336ZM198.244 72.6602L198.279 73.457C198.764 72.8477 199.396 72.543 200.178 72.543C201.518 72.543 202.193 73.2988 202.205 74.8105V79H201.121V74.8047C201.117 74.3477 201.012 74.0098 200.805 73.791C200.602 73.5723 200.283 73.4629 199.85 73.4629C199.498 73.4629 199.189 73.5566 198.924 73.7441C198.658 73.9316 198.451 74.1777 198.303 74.4824V79H197.219V72.6602H198.244ZM205.311 71.125V72.6602H206.494V73.498H205.311V77.4297C205.311 77.6836 205.363 77.875 205.469 78.0039C205.574 78.1289 205.754 78.1914 206.008 78.1914C206.133 78.1914 206.305 78.168 206.523 78.1211V79C206.238 79.0781 205.961 79.1172 205.691 79.1172C205.207 79.1172 204.842 78.9707 204.596 78.6777C204.35 78.3848 204.227 77.9688 204.227 77.4297V73.498H203.072V72.6602H204.227V71.125H205.311ZM211.457 77.3184C211.457 77.0254 211.346 76.7988 211.123 76.6387C210.904 76.4746 210.52 76.334 209.969 76.2168C209.422 76.0996 208.986 75.959 208.662 75.7949C208.342 75.6309 208.104 75.4355 207.947 75.209C207.795 74.9824 207.719 74.7129 207.719 74.4004C207.719 73.8809 207.938 73.4414 208.375 73.082C208.816 72.7227 209.379 72.543 210.062 72.543C210.781 72.543 211.363 72.7285 211.809 73.0996C212.258 73.4707 212.482 73.9453 212.482 74.5234H211.393C211.393 74.2266 211.266 73.9707 211.012 73.7559C210.762 73.541 210.445 73.4336 210.062 73.4336C209.668 73.4336 209.359 73.5195 209.137 73.6914C208.914 73.8633 208.803 74.0879 208.803 74.3652C208.803 74.627 208.906 74.8242 209.113 74.957C209.32 75.0898 209.693 75.2168 210.232 75.3379C210.775 75.459 211.215 75.6035 211.551 75.7715C211.887 75.9395 212.135 76.1426 212.295 76.3809C212.459 76.6152 212.541 76.9023 212.541 77.2422C212.541 77.8086 212.314 78.2637 211.861 78.6074C211.408 78.9473 210.82 79.1172 210.098 79.1172C209.59 79.1172 209.141 79.0273 208.75 78.8477C208.359 78.668 208.053 78.418 207.83 78.0977C207.611 77.7734 207.502 77.4238 207.502 77.0488H208.586C208.605 77.4121 208.75 77.7012 209.02 77.916C209.293 78.127 209.652 78.2324 210.098 78.2324C210.508 78.2324 210.836 78.1504 211.082 77.9863C211.332 77.8184 211.457 77.5957 211.457 77.3184ZM220.844 79C220.781 78.875 220.73 78.6523 220.691 78.332C220.188 78.8555 219.586 79.1172 218.887 79.1172C218.262 79.1172 217.748 78.9414 217.346 78.5898C216.947 78.2344 216.748 77.7852 216.748 77.2422C216.748 76.582 216.998 76.0703 217.498 75.707C218.002 75.3398 218.709 75.1562 219.619 75.1562H220.674V74.6582C220.674 74.2793 220.561 73.9785 220.334 73.7559C220.107 73.5293 219.773 73.416 219.332 73.416C218.945 73.416 218.621 73.5137 218.359 73.709C218.098 73.9043 217.967 74.1406 217.967 74.418H216.877C216.877 74.1016 216.988 73.7969 217.211 73.5039C217.438 73.207 217.742 72.9727 218.125 72.8008C218.512 72.6289 218.936 72.543 219.396 72.543C220.127 72.543 220.699 72.7266 221.113 73.0938C221.527 73.457 221.742 73.959 221.758 74.5996V77.5176C221.758 78.0996 221.832 78.5625 221.98 78.9062V79H220.844ZM219.045 78.1738C219.385 78.1738 219.707 78.0859 220.012 77.9102C220.316 77.7344 220.537 77.5059 220.674 77.2246V75.9238H219.824C218.496 75.9238 217.832 76.3125 217.832 77.0898C217.832 77.4297 217.945 77.6953 218.172 77.8867C218.398 78.0781 218.689 78.1738 219.045 78.1738ZM224.482 72.6602L224.518 73.457C225.002 72.8477 225.635 72.543 226.416 72.543C227.756 72.543 228.432 73.2988 228.443 74.8105V79H227.359V74.8047C227.355 74.3477 227.25 74.0098 227.043 73.791C226.84 73.5723 226.521 73.4629 226.088 73.4629C225.736 73.4629 225.428 73.5566 225.162 73.7441C224.896 73.9316 224.689 74.1777 224.541 74.4824V79H223.457V72.6602H224.482ZM229.814 75.7773C229.814 74.8047 230.045 74.0234 230.506 73.4336C230.967 72.8398 231.57 72.543 232.316 72.543C233.059 72.543 233.646 72.7969 234.08 73.3047V70H235.164V79H234.168L234.115 78.3203C233.682 78.8516 233.078 79.1172 232.305 79.1172C231.57 79.1172 230.971 78.8164 230.506 78.2148C230.045 77.6133 229.814 76.8281 229.814 75.8594V75.7773ZM230.898 75.9004C230.898 76.6191 231.047 77.1816 231.344 77.5879C231.641 77.9941 232.051 78.1973 232.574 78.1973C233.262 78.1973 233.764 77.8887 234.08 77.2715V74.3594C233.756 73.7617 233.258 73.4629 232.586 73.4629C232.055 73.4629 231.641 73.668 231.344 74.0781C231.047 74.4883 230.898 75.0957 230.898 75.9004ZM20.5117 95.3184C20.5117 95.0254 20.4004 94.7988 20.1777 94.6387C19.959 94.4746 19.5742 94.334 19.0234 94.2168C18.4766 94.0996 18.041 93.959 17.7168 93.7949C17.3965 93.6309 17.1582 93.4355 17.002 93.209C16.8496 92.9824 16.7734 92.7129 16.7734 92.4004C16.7734 91.8809 16.9922 91.4414 17.4297 91.082C17.8711 90.7227 18.4336 90.543 19.1172 90.543C19.8359 90.543 20.418 90.7285 20.8633 91.0996C21.3125 91.4707 21.5371 91.9453 21.5371 92.5234H20.4473C20.4473 92.2266 20.3203 91.9707 20.0664 91.7559C19.8164 91.541 19.5 91.4336 19.1172 91.4336C18.7227 91.4336 18.4141 91.5195 18.1914 91.6914C17.9688 91.8633 17.8574 92.0879 17.8574 92.3652C17.8574 92.627 17.9609 92.8242 18.168 92.957C18.375 93.0898 18.748 93.2168 19.2871 93.3379C19.8301 93.459 20.2695 93.6035 20.6055 93.7715C20.9414 93.9395 21.1895 94.1426 21.3496 94.3809C21.5137 94.6152 21.5957 94.9023 21.5957 95.2422C21.5957 95.8086 21.3691 96.2637 20.916 96.6074C20.4629 96.9473 19.875 97.1172 19.1523 97.1172C18.6445 97.1172 18.1953 97.0273 17.8047 96.8477C17.4141 96.668 17.1074 96.418 16.8848 96.0977C16.666 95.7734 16.5566 95.4238 16.5566 95.0488H17.6406C17.6602 95.4121 17.8047 95.7012 18.0742 95.916C18.3477 96.127 18.707 96.2324 19.1523 96.2324C19.5625 96.2324 19.8906 96.1504 20.1367 95.9863C20.3867 95.8184 20.5117 95.5957 20.5117 95.3184ZM26.9219 96.373C26.5 96.8691 25.8809 97.1172 25.0645 97.1172C24.3887 97.1172 23.873 96.9219 23.5176 96.5312C23.166 96.1367 22.9883 95.5547 22.9844 94.7852V90.6602H24.0684V94.7559C24.0684 95.7168 24.459 96.1973 25.2402 96.1973C26.0684 96.1973 26.6191 95.8887 26.8926 95.2715V90.6602H27.9766V97H26.9453L26.9219 96.373ZM34.9961 93.9004C34.9961 94.8691 34.7734 95.6484 34.3281 96.2383C33.8828 96.8242 33.2852 97.1172 32.5352 97.1172C31.7344 97.1172 31.1152 96.834 30.6777 96.2676L30.625 97H29.6289V88H30.7129V91.3574C31.1504 90.8145 31.7539 90.543 32.5234 90.543C33.293 90.543 33.8965 90.834 34.334 91.416C34.7754 91.998 34.9961 92.7949 34.9961 93.8066V93.9004ZM33.9121 93.7773C33.9121 93.0391 33.7695 92.4688 33.4844 92.0664C33.1992 91.6641 32.7891 91.4629 32.2539 91.4629C31.5391 91.4629 31.0254 91.7949 30.7129 92.459V95.2012C31.0449 95.8652 31.5625 96.1973 32.2656 96.1973C32.7852 96.1973 33.1895 95.9961 33.4785 95.5938C33.7676 95.1914 33.9121 94.5859 33.9121 93.7773ZM40.0586 95.3184C40.0586 95.0254 39.9473 94.7988 39.7246 94.6387C39.5059 94.4746 39.1211 94.334 38.5703 94.2168C38.0234 94.0996 37.5879 93.959 37.2637 93.7949C36.9434 93.6309 36.7051 93.4355 36.5488 93.209C36.3965 92.9824 36.3203 92.7129 36.3203 92.4004C36.3203 91.8809 36.5391 91.4414 36.9766 91.082C37.418 90.7227 37.9805 90.543 38.6641 90.543C39.3828 90.543 39.9648 90.7285 40.4102 91.0996C40.8594 91.4707 41.084 91.9453 41.084 92.5234H39.9941C39.9941 92.2266 39.8672 91.9707 39.6133 91.7559C39.3633 91.541 39.0469 91.4336 38.6641 91.4336C38.2695 91.4336 37.9609 91.5195 37.7383 91.6914C37.5156 91.8633 37.4043 92.0879 37.4043 92.3652C37.4043 92.627 37.5078 92.8242 37.7148 92.957C37.9219 93.0898 38.2949 93.2168 38.834 93.3379C39.377 93.459 39.8164 93.6035 40.1523 93.7715C40.4883 93.9395 40.7363 94.1426 40.8965 94.3809C41.0605 94.6152 41.1426 94.9023 41.1426 95.2422C41.1426 95.8086 40.916 96.2637 40.4629 96.6074C40.0098 96.9473 39.4219 97.1172 38.6992 97.1172C38.1914 97.1172 37.7422 97.0273 37.3516 96.8477C36.9609 96.668 36.6543 96.418 36.4316 96.0977C36.2129 95.7734 36.1035 95.4238 36.1035 95.0488H37.1875C37.207 95.4121 37.3516 95.7012 37.6211 95.916C37.8945 96.127 38.2539 96.2324 38.6992 96.2324C39.1094 96.2324 39.4375 96.1504 39.6836 95.9863C39.9336 95.8184 40.0586 95.5957 40.0586 95.3184ZM44.0254 89.125V90.6602H45.209V91.498H44.0254V95.4297C44.0254 95.6836 44.0781 95.875 44.1836 96.0039C44.2891 96.1289 44.4688 96.1914 44.7227 96.1914C44.8477 96.1914 45.0195 96.168 45.2383 96.1211V97C44.9531 97.0781 44.6758 97.1172 44.4062 97.1172C43.9219 97.1172 43.5566 96.9707 43.3105 96.6777C43.0645 96.3848 42.9414 95.9688 42.9414 95.4297V91.498H41.7871V90.6602H42.9414V89.125H44.0254ZM47.6582 97H46.5742V90.6602H47.6582V97ZM46.4863 88.9785C46.4863 88.8027 46.5391 88.6543 46.6445 88.5332C46.7539 88.4121 46.9141 88.3516 47.125 88.3516C47.3359 88.3516 47.4961 88.4121 47.6055 88.5332C47.7148 88.6543 47.7695 88.8027 47.7695 88.9785C47.7695 89.1543 47.7148 89.3008 47.6055 89.418C47.4961 89.5352 47.3359 89.5938 47.125 89.5938C46.9141 89.5938 46.7539 89.5352 46.6445 89.418C46.5391 89.3008 46.4863 89.1543 46.4863 88.9785ZM50.8691 89.125V90.6602H52.0527V91.498H50.8691V95.4297C50.8691 95.6836 50.9219 95.875 51.0273 96.0039C51.1328 96.1289 51.3125 96.1914 51.5664 96.1914C51.6914 96.1914 51.8633 96.168 52.082 96.1211V97C51.7969 97.0781 51.5195 97.1172 51.25 97.1172C50.7656 97.1172 50.4004 96.9707 50.1543 96.6777C49.9082 96.3848 49.7852 95.9688 49.7852 95.4297V91.498H48.6309V90.6602H49.7852V89.125H50.8691ZM57.2383 96.373C56.8164 96.8691 56.1973 97.1172 55.3809 97.1172C54.7051 97.1172 54.1895 96.9219 53.834 96.5312C53.4824 96.1367 53.3047 95.5547 53.3008 94.7852V90.6602H54.3848V94.7559C54.3848 95.7168 54.7754 96.1973 55.5566 96.1973C56.3848 96.1973 56.9355 95.8887 57.209 95.2715V90.6602H58.293V97H57.2617L57.2383 96.373ZM61.416 89.125V90.6602H62.5996V91.498H61.416V95.4297C61.416 95.6836 61.4688 95.875 61.5742 96.0039C61.6797 96.1289 61.8594 96.1914 62.1133 96.1914C62.2383 96.1914 62.4102 96.168 62.6289 96.1211V97C62.3438 97.0781 62.0664 97.1172 61.7969 97.1172C61.3125 97.1172 60.9473 96.9707 60.7012 96.6777C60.4551 96.3848 60.332 95.9688 60.332 95.4297V91.498H59.1777V90.6602H60.332V89.125H61.416ZM66.502 97.1172C65.6426 97.1172 64.9434 96.8359 64.4043 96.2734C63.8652 95.707 63.5957 94.9512 63.5957 94.0059V93.8066C63.5957 93.1777 63.7148 92.6172 63.9531 92.125C64.1953 91.6289 64.5312 91.2422 64.9609 90.9648C65.3945 90.6836 65.8633 90.543 66.3672 90.543C67.1914 90.543 67.832 90.8145 68.2891 91.3574C68.7461 91.9004 68.9746 92.6777 68.9746 93.6895V94.1406H64.6797C64.6953 94.7656 64.877 95.2715 65.2246 95.6582C65.5762 96.041 66.0215 96.2324 66.5605 96.2324C66.9434 96.2324 67.2676 96.1543 67.5332 95.998C67.7988 95.8418 68.0312 95.6348 68.2305 95.377L68.8926 95.8926C68.3613 96.709 67.5645 97.1172 66.502 97.1172ZM66.3672 91.4336C65.9297 91.4336 65.5625 91.5938 65.2656 91.9141C64.9688 92.2305 64.7852 92.6758 64.7148 93.25H67.8906V93.168C67.8594 92.6172 67.7109 92.1914 67.4453 91.8906C67.1797 91.5859 66.8203 91.4336 66.3672 91.4336ZM73.9258 95.3184C73.9258 95.0254 73.8145 94.7988 73.5918 94.6387C73.373 94.4746 72.9883 94.334 72.4375 94.2168C71.8906 94.0996 71.4551 93.959 71.1309 93.7949C70.8105 93.6309 70.5723 93.4355 70.416 93.209C70.2637 92.9824 70.1875 92.7129 70.1875 92.4004C70.1875 91.8809 70.4062 91.4414 70.8438 91.082C71.2852 90.7227 71.8477 90.543 72.5312 90.543C73.25 90.543 73.832 90.7285 74.2773 91.0996C74.7266 91.4707 74.9512 91.9453 74.9512 92.5234H73.8613C73.8613 92.2266 73.7344 91.9707 73.4805 91.7559C73.2305 91.541 72.9141 91.4336 72.5312 91.4336C72.1367 91.4336 71.8281 91.5195 71.6055 91.6914C71.3828 91.8633 71.2715 92.0879 71.2715 92.3652C71.2715 92.627 71.375 92.8242 71.582 92.957C71.7891 93.0898 72.1621 93.2168 72.7012 93.3379C73.2441 93.459 73.6836 93.6035 74.0195 93.7715C74.3555 93.9395 74.6035 94.1426 74.7637 94.3809C74.9277 94.6152 75.0098 94.9023 75.0098 95.2422C75.0098 95.8086 74.7832 96.2637 74.3301 96.6074C73.877 96.9473 73.2891 97.1172 72.5664 97.1172C72.0586 97.1172 71.6094 97.0273 71.2188 96.8477C70.8281 96.668 70.5215 96.418 70.2988 96.0977C70.0801 95.7734 69.9707 95.4238 69.9707 95.0488H71.0547C71.0742 95.4121 71.2188 95.7012 71.4883 95.916C71.7617 96.127 72.1211 96.2324 72.5664 96.2324C72.9766 96.2324 73.3047 96.1504 73.5508 95.9863C73.8008 95.8184 73.9258 95.5957 73.9258 95.3184ZM83.0898 95.3184C83.0898 95.0254 82.9785 94.7988 82.7559 94.6387C82.5371 94.4746 82.1523 94.334 81.6016 94.2168C81.0547 94.0996 80.6191 93.959 80.2949 93.7949C79.9746 93.6309 79.7363 93.4355 79.5801 93.209C79.4277 92.9824 79.3516 92.7129 79.3516 92.4004C79.3516 91.8809 79.5703 91.4414 80.0078 91.082C80.4492 90.7227 81.0117 90.543 81.6953 90.543C82.4141 90.543 82.9961 90.7285 83.4414 91.0996C83.8906 91.4707 84.1152 91.9453 84.1152 92.5234H83.0254C83.0254 92.2266 82.8984 91.9707 82.6445 91.7559C82.3945 91.541 82.0781 91.4336 81.6953 91.4336C81.3008 91.4336 80.9922 91.5195 80.7695 91.6914C80.5469 91.8633 80.4355 92.0879 80.4355 92.3652C80.4355 92.627 80.5391 92.8242 80.7461 92.957C80.9531 93.0898 81.3262 93.2168 81.8652 93.3379C82.4082 93.459 82.8477 93.6035 83.1836 93.7715C83.5195 93.9395 83.7676 94.1426 83.9277 94.3809C84.0918 94.6152 84.1738 94.9023 84.1738 95.2422C84.1738 95.8086 83.9473 96.2637 83.4941 96.6074C83.041 96.9473 82.4531 97.1172 81.7305 97.1172C81.2227 97.1172 80.7734 97.0273 80.3828 96.8477C79.9922 96.668 79.6855 96.418 79.4629 96.0977C79.2441 95.7734 79.1348 95.4238 79.1348 95.0488H80.2188C80.2383 95.4121 80.3828 95.7012 80.6523 95.916C80.9258 96.127 81.2852 96.2324 81.7305 96.2324C82.1406 96.2324 82.4688 96.1504 82.7148 95.9863C82.9648 95.8184 83.0898 95.5957 83.0898 95.3184ZM85.2988 93.7715C85.2988 93.1504 85.4199 92.5918 85.6621 92.0957C85.9082 91.5996 86.248 91.2168 86.6816 90.9473C87.1191 90.6777 87.6172 90.543 88.1758 90.543C89.0391 90.543 89.7363 90.8418 90.2676 91.4395C90.8027 92.0371 91.0703 92.832 91.0703 93.8242V93.9004C91.0703 94.5176 90.9512 95.0723 90.7129 95.5645C90.4785 96.0527 90.1406 96.4336 89.6992 96.707C89.2617 96.9805 88.7578 97.1172 88.1875 97.1172C87.3281 97.1172 86.6309 96.8184 86.0957 96.2207C85.5645 95.623 85.2988 94.832 85.2988 93.8477V93.7715ZM86.3887 93.9004C86.3887 94.6035 86.5508 95.168 86.875 95.5938C87.2031 96.0195 87.6406 96.2324 88.1875 96.2324C88.7383 96.2324 89.1758 96.0176 89.5 95.5879C89.8242 95.1543 89.9863 94.5488 89.9863 93.7715C89.9863 93.0762 89.8203 92.5137 89.4883 92.084C89.1602 91.6504 88.7227 91.4336 88.1758 91.4336C87.6406 91.4336 87.209 91.6465 86.8809 92.0723C86.5527 92.498 86.3887 93.1074 86.3887 93.9004ZM93.4492 90.6602L93.4785 91.3633C93.9434 90.8164 94.5703 90.543 95.3594 90.543C96.2461 90.543 96.8496 90.8828 97.1699 91.5625C97.3809 91.2578 97.6543 91.0117 97.9902 90.8242C98.3301 90.6367 98.7305 90.543 99.1914 90.543C100.582 90.543 101.289 91.2793 101.312 92.752V97H100.229V92.8164C100.229 92.3633 100.125 92.0254 99.918 91.8027C99.7109 91.5762 99.3633 91.4629 98.875 91.4629C98.4727 91.4629 98.1387 91.584 97.873 91.8262C97.6074 92.0645 97.4531 92.3867 97.4102 92.793V97H96.3203V92.8457C96.3203 91.9238 95.8691 91.4629 94.9668 91.4629C94.2559 91.4629 93.7695 91.7656 93.5078 92.3711V97H92.4238V90.6602H93.4492ZM105.584 97.1172C104.725 97.1172 104.025 96.8359 103.486 96.2734C102.947 95.707 102.678 94.9512 102.678 94.0059V93.8066C102.678 93.1777 102.797 92.6172 103.035 92.125C103.277 91.6289 103.613 91.2422 104.043 90.9648C104.477 90.6836 104.945 90.543 105.449 90.543C106.273 90.543 106.914 90.8145 107.371 91.3574C107.828 91.9004 108.057 92.6777 108.057 93.6895V94.1406H103.762C103.777 94.7656 103.959 95.2715 104.307 95.6582C104.658 96.041 105.104 96.2324 105.643 96.2324C106.025 96.2324 106.35 96.1543 106.615 95.998C106.881 95.8418 107.113 95.6348 107.312 95.377L107.975 95.8926C107.443 96.709 106.646 97.1172 105.584 97.1172ZM105.449 91.4336C105.012 91.4336 104.645 91.5938 104.348 91.9141C104.051 92.2305 103.867 92.6758 103.797 93.25H106.973V93.168C106.941 92.6172 106.793 92.1914 106.527 91.8906C106.262 91.5859 105.902 91.4336 105.449 91.4336ZM112.006 93.7715C112.006 93.1504 112.127 92.5918 112.369 92.0957C112.615 91.5996 112.955 91.2168 113.389 90.9473C113.826 90.6777 114.324 90.543 114.883 90.543C115.746 90.543 116.443 90.8418 116.975 91.4395C117.51 92.0371 117.777 92.832 117.777 93.8242V93.9004C117.777 94.5176 117.658 95.0723 117.42 95.5645C117.186 96.0527 116.848 96.4336 116.406 96.707C115.969 96.9805 115.465 97.1172 114.895 97.1172C114.035 97.1172 113.338 96.8184 112.803 96.2207C112.271 95.623 112.006 94.832 112.006 93.8477V93.7715ZM113.096 93.9004C113.096 94.6035 113.258 95.168 113.582 95.5938C113.91 96.0195 114.348 96.2324 114.895 96.2324C115.445 96.2324 115.883 96.0176 116.207 95.5879C116.531 95.1543 116.693 94.5488 116.693 93.7715C116.693 93.0762 116.527 92.5137 116.195 92.084C115.867 91.6504 115.43 91.4336 114.883 91.4336C114.348 91.4336 113.916 91.6465 113.588 92.0723C113.26 92.498 113.096 93.1074 113.096 93.9004ZM119.67 97V91.498H118.668V90.6602H119.67V90.0098C119.67 89.3301 119.852 88.8047 120.215 88.4336C120.578 88.0625 121.092 87.877 121.756 87.877C122.006 87.877 122.254 87.9102 122.5 87.9766L122.441 88.8555C122.258 88.8203 122.062 88.8027 121.855 88.8027C121.504 88.8027 121.232 88.9062 121.041 89.1133C120.85 89.3164 120.754 89.6094 120.754 89.9922V90.6602H122.107V91.498H120.754V97H119.67ZM127.756 89.125V90.6602H128.939V91.498H127.756V95.4297C127.756 95.6836 127.809 95.875 127.914 96.0039C128.02 96.1289 128.199 96.1914 128.453 96.1914C128.578 96.1914 128.75 96.168 128.969 96.1211V97C128.684 97.0781 128.406 97.1172 128.137 97.1172C127.652 97.1172 127.287 96.9707 127.041 96.6777C126.795 96.3848 126.672 95.9688 126.672 95.4297V91.498H125.518V90.6602H126.672V89.125H127.756ZM131.295 91.4277C131.775 90.8379 132.4 90.543 133.17 90.543C134.51 90.543 135.186 91.2988 135.197 92.8105V97H134.113V92.8047C134.109 92.3477 134.004 92.0098 133.797 91.791C133.594 91.5723 133.275 91.4629 132.842 91.4629C132.49 91.4629 132.182 91.5566 131.916 91.7441C131.65 91.9316 131.443 92.1777 131.295 92.4824V97H130.211V88H131.295V91.4277ZM139.451 97.1172C138.592 97.1172 137.893 96.8359 137.354 96.2734C136.814 95.707 136.545 94.9512 136.545 94.0059V93.8066C136.545 93.1777 136.664 92.6172 136.902 92.125C137.145 91.6289 137.48 91.2422 137.91 90.9648C138.344 90.6836 138.812 90.543 139.316 90.543C140.141 90.543 140.781 90.8145 141.238 91.3574C141.695 91.9004 141.924 92.6777 141.924 93.6895V94.1406H137.629C137.645 94.7656 137.826 95.2715 138.174 95.6582C138.525 96.041 138.971 96.2324 139.51 96.2324C139.893 96.2324 140.217 96.1543 140.482 95.998C140.748 95.8418 140.98 95.6348 141.18 95.377L141.842 95.8926C141.311 96.709 140.514 97.1172 139.451 97.1172ZM139.316 91.4336C138.879 91.4336 138.512 91.5938 138.215 91.9141C137.918 92.2305 137.734 92.6758 137.664 93.25H140.84V93.168C140.809 92.6172 140.66 92.1914 140.395 91.8906C140.129 91.5859 139.77 91.4336 139.316 91.4336ZM148.252 95.5293L149.822 90.6602H150.93L148.656 97H147.83L145.533 90.6602H146.641L148.252 95.5293ZM155.793 97C155.73 96.875 155.68 96.6523 155.641 96.332C155.137 96.8555 154.535 97.1172 153.836 97.1172C153.211 97.1172 152.697 96.9414 152.295 96.5898C151.896 96.2344 151.697 95.7852 151.697 95.2422C151.697 94.582 151.947 94.0703 152.447 93.707C152.951 93.3398 153.658 93.1562 154.568 93.1562H155.623V92.6582C155.623 92.2793 155.51 91.9785 155.283 91.7559C155.057 91.5293 154.723 91.416 154.281 91.416C153.895 91.416 153.57 91.5137 153.309 91.709C153.047 91.9043 152.916 92.1406 152.916 92.418H151.826C151.826 92.1016 151.938 91.7969 152.16 91.5039C152.387 91.207 152.691 90.9727 153.074 90.8008C153.461 90.6289 153.885 90.543 154.346 90.543C155.076 90.543 155.648 90.7266 156.062 91.0938C156.477 91.457 156.691 91.959 156.707 92.5996V95.5176C156.707 96.0996 156.781 96.5625 156.93 96.9062V97H155.793ZM153.994 96.1738C154.334 96.1738 154.656 96.0859 154.961 95.9102C155.266 95.7344 155.486 95.5059 155.623 95.2246V93.9238H154.773C153.445 93.9238 152.781 94.3125 152.781 95.0898C152.781 95.4297 152.895 95.6953 153.121 95.8867C153.348 96.0781 153.639 96.1738 153.994 96.1738ZM159.432 90.6602L159.467 91.457C159.951 90.8477 160.584 90.543 161.365 90.543C162.705 90.543 163.381 91.2988 163.393 92.8105V97H162.309V92.8047C162.305 92.3477 162.199 92.0098 161.992 91.791C161.789 91.5723 161.471 91.4629 161.037 91.4629C160.686 91.4629 160.377 91.5566 160.111 91.7441C159.846 91.9316 159.639 92.1777 159.49 92.4824V97H158.406V90.6602H159.432ZM166.205 97H165.121V90.6602H166.205V97ZM165.033 88.9785C165.033 88.8027 165.086 88.6543 165.191 88.5332C165.301 88.4121 165.461 88.3516 165.672 88.3516C165.883 88.3516 166.043 88.4121 166.152 88.5332C166.262 88.6543 166.316 88.8027 166.316 88.9785C166.316 89.1543 166.262 89.3008 166.152 89.418C166.043 89.5352 165.883 89.5938 165.672 89.5938C165.461 89.5938 165.301 89.5352 165.191 89.418C165.086 89.3008 165.033 89.1543 165.033 88.9785ZM169.123 97H168.039V88H169.123V97ZM172.041 97H170.957V88H172.041V97ZM177.695 97C177.633 96.875 177.582 96.6523 177.543 96.332C177.039 96.8555 176.438 97.1172 175.738 97.1172C175.113 97.1172 174.6 96.9414 174.197 96.5898C173.799 96.2344 173.6 95.7852 173.6 95.2422C173.6 94.582 173.85 94.0703 174.35 93.707C174.854 93.3398 175.561 93.1562 176.471 93.1562H177.525V92.6582C177.525 92.2793 177.412 91.9785 177.186 91.7559C176.959 91.5293 176.625 91.416 176.184 91.416C175.797 91.416 175.473 91.5137 175.211 91.709C174.949 91.9043 174.818 92.1406 174.818 92.418H173.729C173.729 92.1016 173.84 91.7969 174.062 91.5039C174.289 91.207 174.594 90.9727 174.977 90.8008C175.363 90.6289 175.787 90.543 176.248 90.543C176.979 90.543 177.551 90.7266 177.965 91.0938C178.379 91.457 178.594 91.959 178.609 92.5996V95.5176C178.609 96.0996 178.684 96.5625 178.832 96.9062V97H177.695ZM175.896 96.1738C176.236 96.1738 176.559 96.0859 176.863 95.9102C177.168 95.7344 177.389 95.5059 177.525 95.2246V93.9238H176.676C175.348 93.9238 174.684 94.3125 174.684 95.0898C174.684 95.4297 174.797 95.6953 175.023 95.8867C175.25 96.0781 175.541 96.1738 175.896 96.1738ZM185.916 97.1172C185.057 97.1172 184.357 96.8359 183.818 96.2734C183.279 95.707 183.01 94.9512 183.01 94.0059V93.8066C183.01 93.1777 183.129 92.6172 183.367 92.125C183.609 91.6289 183.945 91.2422 184.375 90.9648C184.809 90.6836 185.277 90.543 185.781 90.543C186.605 90.543 187.246 90.8145 187.703 91.3574C188.16 91.9004 188.389 92.6777 188.389 93.6895V94.1406H184.094C184.109 94.7656 184.291 95.2715 184.639 95.6582C184.99 96.041 185.436 96.2324 185.975 96.2324C186.357 96.2324 186.682 96.1543 186.947 95.998C187.213 95.8418 187.445 95.6348 187.645 95.377L188.307 95.8926C187.775 96.709 186.979 97.1172 185.916 97.1172ZM185.781 91.4336C185.344 91.4336 184.977 91.5938 184.68 91.9141C184.383 92.2305 184.199 92.6758 184.129 93.25H187.305V93.168C187.273 92.6172 187.125 92.1914 186.859 91.8906C186.594 91.5859 186.234 91.4336 185.781 91.4336ZM190.826 97H189.742V88H190.826V97ZM195.197 97.1172C194.338 97.1172 193.639 96.8359 193.1 96.2734C192.561 95.707 192.291 94.9512 192.291 94.0059V93.8066C192.291 93.1777 192.41 92.6172 192.648 92.125C192.891 91.6289 193.227 91.2422 193.656 90.9648C194.09 90.6836 194.559 90.543 195.062 90.543C195.887 90.543 196.527 90.8145 196.984 91.3574C197.441 91.9004 197.67 92.6777 197.67 93.6895V94.1406H193.375C193.391 94.7656 193.572 95.2715 193.92 95.6582C194.271 96.041 194.717 96.2324 195.256 96.2324C195.639 96.2324 195.963 96.1543 196.229 95.998C196.494 95.8418 196.727 95.6348 196.926 95.377L197.588 95.8926C197.057 96.709 196.26 97.1172 195.197 97.1172ZM195.062 91.4336C194.625 91.4336 194.258 91.5938 193.961 91.9141C193.664 92.2305 193.48 92.6758 193.41 93.25H196.586V93.168C196.555 92.6172 196.406 92.1914 196.141 91.8906C195.875 91.5859 195.516 91.4336 195.062 91.4336ZM199.949 90.6602L199.979 91.3633C200.443 90.8164 201.07 90.543 201.859 90.543C202.746 90.543 203.35 90.8828 203.67 91.5625C203.881 91.2578 204.154 91.0117 204.49 90.8242C204.83 90.6367 205.23 90.543 205.691 90.543C207.082 90.543 207.789 91.2793 207.812 92.752V97H206.729V92.8164C206.729 92.3633 206.625 92.0254 206.418 91.8027C206.211 91.5762 205.863 91.4629 205.375 91.4629C204.973 91.4629 204.639 91.584 204.373 91.8262C204.107 92.0645 203.953 92.3867 203.91 92.793V97H202.82V92.8457C202.82 91.9238 202.369 91.4629 201.467 91.4629C200.756 91.4629 200.27 91.7656 200.008 92.3711V97H198.924V90.6602H199.949ZM212.084 97.1172C211.225 97.1172 210.525 96.8359 209.986 96.2734C209.447 95.707 209.178 94.9512 209.178 94.0059V93.8066C209.178 93.1777 209.297 92.6172 209.535 92.125C209.777 91.6289 210.113 91.2422 210.543 90.9648C210.977 90.6836 211.445 90.543 211.949 90.543C212.773 90.543 213.414 90.8145 213.871 91.3574C214.328 91.9004 214.557 92.6777 214.557 93.6895V94.1406H210.262C210.277 94.7656 210.459 95.2715 210.807 95.6582C211.158 96.041 211.604 96.2324 212.143 96.2324C212.525 96.2324 212.85 96.1543 213.115 95.998C213.381 95.8418 213.613 95.6348 213.812 95.377L214.475 95.8926C213.943 96.709 213.146 97.1172 212.084 97.1172ZM211.949 91.4336C211.512 91.4336 211.145 91.5938 210.848 91.9141C210.551 92.2305 210.367 92.6758 210.297 93.25H213.473V93.168C213.441 92.6172 213.293 92.1914 213.027 91.8906C212.762 91.5859 212.402 91.4336 211.949 91.4336ZM216.842 90.6602L216.877 91.457C217.361 90.8477 217.994 90.543 218.775 90.543C220.115 90.543 220.791 91.2988 220.803 92.8105V97H219.719V92.8047C219.715 92.3477 219.609 92.0098 219.402 91.791C219.199 91.5723 218.881 91.4629 218.447 91.4629C218.096 91.4629 217.787 91.5566 217.521 91.7441C217.256 91.9316 217.049 92.1777 216.9 92.4824V97H215.816V90.6602H216.842ZM223.908 89.125V90.6602H225.092V91.498H223.908V95.4297C223.908 95.6836 223.961 95.875 224.066 96.0039C224.172 96.1289 224.352 96.1914 224.605 96.1914C224.73 96.1914 224.902 96.168 225.121 96.1211V97C224.836 97.0781 224.559 97.1172 224.289 97.1172C223.805 97.1172 223.439 96.9707 223.193 96.6777C222.947 96.3848 222.824 95.9688 222.824 95.4297V91.498H221.67V90.6602H222.824V89.125H223.908ZM230.055 95.3184C230.055 95.0254 229.943 94.7988 229.721 94.6387C229.502 94.4746 229.117 94.334 228.566 94.2168C228.02 94.0996 227.584 93.959 227.26 93.7949C226.939 93.6309 226.701 93.4355 226.545 93.209C226.393 92.9824 226.316 92.7129 226.316 92.4004C226.316 91.8809 226.535 91.4414 226.973 91.082C227.414 90.7227 227.977 90.543 228.66 90.543C229.379 90.543 229.961 90.7285 230.406 91.0996C230.855 91.4707 231.08 91.9453 231.08 92.5234H229.99C229.99 92.2266 229.863 91.9707 229.609 91.7559C229.359 91.541 229.043 91.4336 228.66 91.4336C228.266 91.4336 227.957 91.5195 227.734 91.6914C227.512 91.8633 227.4 92.0879 227.4 92.3652C227.4 92.627 227.504 92.8242 227.711 92.957C227.918 93.0898 228.291 93.2168 228.83 93.3379C229.373 93.459 229.812 93.6035 230.148 93.7715C230.484 93.9395 230.732 94.1426 230.893 94.3809C231.057 94.6152 231.139 94.9023 231.139 95.2422C231.139 95.8086 230.912 96.2637 230.459 96.6074C230.006 96.9473 229.418 97.1172 228.695 97.1172C228.188 97.1172 227.738 97.0273 227.348 96.8477C226.957 96.668 226.65 96.418 226.428 96.0977C226.209 95.7734 226.1 95.4238 226.1 95.0488H227.184C227.203 95.4121 227.348 95.7012 227.617 95.916C227.891 96.127 228.25 96.2324 228.695 96.2324C229.105 96.2324 229.434 96.1504 229.68 95.9863C229.93 95.8184 230.055 95.5957 230.055 95.3184ZM22.4336 113.506L23.6523 108.66H24.7363L22.8906 115H22.0117L20.4707 110.195L18.9707 115H18.0918L16.252 108.66H17.3301L18.5781 113.406L20.0547 108.66H20.9277L22.4336 113.506ZM27.0215 115H25.9375V108.66H27.0215V115ZM25.8496 106.979C25.8496 106.803 25.9023 106.654 26.0078 106.533C26.1172 106.412 26.2773 106.352 26.4883 106.352C26.6992 106.352 26.8594 106.412 26.9688 106.533C27.0781 106.654 27.1328 106.803 27.1328 106.979C27.1328 107.154 27.0781 107.301 26.9688 107.418C26.8594 107.535 26.6992 107.594 26.4883 107.594C26.2773 107.594 26.1172 107.535 26.0078 107.418C25.9023 107.301 25.8496 107.154 25.8496 106.979ZM30.2324 107.125V108.66H31.416V109.498H30.2324V113.43C30.2324 113.684 30.2852 113.875 30.3906 114.004C30.4961 114.129 30.6758 114.191 30.9297 114.191C31.0547 114.191 31.2266 114.168 31.4453 114.121V115C31.1602 115.078 30.8828 115.117 30.6133 115.117C30.1289 115.117 29.7637 114.971 29.5176 114.678C29.2715 114.385 29.1484 113.969 29.1484 113.43V109.498H27.9941V108.66H29.1484V107.125H30.2324ZM33.7715 109.428C34.252 108.838 34.877 108.543 35.6465 108.543C36.9863 108.543 37.6621 109.299 37.6738 110.811V115H36.5898V110.805C36.5859 110.348 36.4805 110.01 36.2734 109.791C36.0703 109.572 35.752 109.463 35.3184 109.463C34.9668 109.463 34.6582 109.557 34.3926 109.744C34.127 109.932 33.9199 110.178 33.7715 110.482V115H32.6875V106H33.7715V109.428ZM43.293 108.66L43.3223 109.363C43.7871 108.816 44.4141 108.543 45.2031 108.543C46.0898 108.543 46.6934 108.883 47.0137 109.562C47.2246 109.258 47.498 109.012 47.834 108.824C48.1738 108.637 48.5742 108.543 49.0352 108.543C50.4258 108.543 51.1328 109.279 51.1562 110.752V115H50.0723V110.816C50.0723 110.363 49.9688 110.025 49.7617 109.803C49.5547 109.576 49.207 109.463 48.7188 109.463C48.3164 109.463 47.9824 109.584 47.7168 109.826C47.4512 110.064 47.2969 110.387 47.2539 110.793V115H46.1641V110.846C46.1641 109.924 45.7129 109.463 44.8105 109.463C44.0996 109.463 43.6133 109.766 43.3516 110.371V115H42.2676V108.66H43.293ZM53.9746 115H52.8906V108.66H53.9746V115ZM52.8027 106.979C52.8027 106.803 52.8555 106.654 52.9609 106.533C53.0703 106.412 53.2305 106.352 53.4414 106.352C53.6523 106.352 53.8125 106.412 53.9219 106.533C54.0312 106.654 54.0859 106.803 54.0859 106.979C54.0859 107.154 54.0312 107.301 53.9219 107.418C53.8125 107.535 53.6523 107.594 53.4414 107.594C53.2305 107.594 53.0703 107.535 52.9609 107.418C52.8555 107.301 52.8027 107.154 52.8027 106.979ZM56.7402 108.66L56.7754 109.457C57.2598 108.848 57.8926 108.543 58.6738 108.543C60.0137 108.543 60.6895 109.299 60.7012 110.811V115H59.6172V110.805C59.6133 110.348 59.5078 110.01 59.3008 109.791C59.0977 109.572 58.7793 109.463 58.3457 109.463C57.9941 109.463 57.6855 109.557 57.4199 109.744C57.1543 109.932 56.9473 110.178 56.7988 110.482V115H55.7148V108.66H56.7402ZM63.5137 115H62.4297V108.66H63.5137V115ZM62.3418 106.979C62.3418 106.803 62.3945 106.654 62.5 106.533C62.6094 106.412 62.7695 106.352 62.9805 106.352C63.1914 106.352 63.3516 106.412 63.4609 106.533C63.5703 106.654 63.625 106.803 63.625 106.979C63.625 107.154 63.5703 107.301 63.4609 107.418C63.3516 107.535 63.1914 107.594 62.9805 107.594C62.7695 107.594 62.6094 107.535 62.5 107.418C62.3945 107.301 62.3418 107.154 62.3418 106.979ZM66.2734 108.66L66.3027 109.363C66.7676 108.816 67.3945 108.543 68.1836 108.543C69.0703 108.543 69.6738 108.883 69.9941 109.562C70.2051 109.258 70.4785 109.012 70.8145 108.824C71.1543 108.637 71.5547 108.543 72.0156 108.543C73.4062 108.543 74.1133 109.279 74.1367 110.752V115H73.0527V110.816C73.0527 110.363 72.9492 110.025 72.7422 109.803C72.5352 109.576 72.1875 109.463 71.6992 109.463C71.2969 109.463 70.9629 109.584 70.6973 109.826C70.4316 110.064 70.2773 110.387 70.2344 110.793V115H69.1445V110.846C69.1445 109.924 68.6934 109.463 67.791 109.463C67.0801 109.463 66.5938 109.766 66.332 110.371V115H65.248V108.66H66.2734ZM79.6914 115C79.6289 114.875 79.5781 114.652 79.5391 114.332C79.0352 114.855 78.4336 115.117 77.7344 115.117C77.1094 115.117 76.5957 114.941 76.1934 114.59C75.7949 114.234 75.5957 113.785 75.5957 113.242C75.5957 112.582 75.8457 112.07 76.3457 111.707C76.8496 111.34 77.5566 111.156 78.4668 111.156H79.5215V110.658C79.5215 110.279 79.4082 109.979 79.1816 109.756C78.9551 109.529 78.6211 109.416 78.1797 109.416C77.793 109.416 77.4688 109.514 77.207 109.709C76.9453 109.904 76.8145 110.141 76.8145 110.418H75.7246C75.7246 110.102 75.8359 109.797 76.0586 109.504C76.2852 109.207 76.5898 108.973 76.9727 108.801C77.3594 108.629 77.7832 108.543 78.2441 108.543C78.9746 108.543 79.5469 108.727 79.9609 109.094C80.375 109.457 80.5898 109.959 80.6055 110.6V113.518C80.6055 114.1 80.6797 114.562 80.8281 114.906V115H79.6914ZM77.8926 114.174C78.2324 114.174 78.5547 114.086 78.8594 113.91C79.1641 113.734 79.3848 113.506 79.5215 113.225V111.924H78.6719C77.3438 111.924 76.6797 112.312 76.6797 113.09C76.6797 113.43 76.793 113.695 77.0195 113.887C77.2461 114.078 77.5371 114.174 77.8926 114.174ZM83.4824 115H82.3984V106H83.4824V115ZM86.4004 115H85.3164V108.66H86.4004V115ZM85.2285 106.979C85.2285 106.803 85.2812 106.654 85.3867 106.533C85.4961 106.412 85.6562 106.352 85.8672 106.352C86.0781 106.352 86.2383 106.412 86.3477 106.533C86.457 106.654 86.5117 106.803 86.5117 106.979C86.5117 107.154 86.457 107.301 86.3477 107.418C86.2383 107.535 86.0781 107.594 85.8672 107.594C85.6562 107.594 85.4961 107.535 85.3867 107.418C85.2812 107.301 85.2285 107.154 85.2285 106.979ZM91.832 113.318C91.832 113.025 91.7207 112.799 91.498 112.639C91.2793 112.475 90.8945 112.334 90.3438 112.217C89.7969 112.1 89.3613 111.959 89.0371 111.795C88.7168 111.631 88.4785 111.436 88.3223 111.209C88.1699 110.982 88.0938 110.713 88.0938 110.4C88.0938 109.881 88.3125 109.441 88.75 109.082C89.1914 108.723 89.7539 108.543 90.4375 108.543C91.1562 108.543 91.7383 108.729 92.1836 109.1C92.6328 109.471 92.8574 109.945 92.8574 110.523H91.7676C91.7676 110.227 91.6406 109.971 91.3867 109.756C91.1367 109.541 90.8203 109.434 90.4375 109.434C90.043 109.434 89.7344 109.52 89.5117 109.691C89.2891 109.863 89.1777 110.088 89.1777 110.365C89.1777 110.627 89.2812 110.824 89.4883 110.957C89.6953 111.09 90.0684 111.217 90.6074 111.338C91.1504 111.459 91.5898 111.604 91.9258 111.771C92.2617 111.939 92.5098 112.143 92.6699 112.381C92.834 112.615 92.916 112.902 92.916 113.242C92.916 113.809 92.6895 114.264 92.2363 114.607C91.7832 114.947 91.1953 115.117 90.4727 115.117C89.9648 115.117 89.5156 115.027 89.125 114.848C88.7344 114.668 88.4277 114.418 88.2051 114.098C87.9863 113.773 87.877 113.424 87.877 113.049H88.9609C88.9805 113.412 89.125 113.701 89.3945 113.916C89.668 114.127 90.0273 114.232 90.4727 114.232C90.8828 114.232 91.2109 114.15 91.457 113.986C91.707 113.818 91.832 113.596 91.832 113.318ZM95.7988 107.125V108.66H96.9824V109.498H95.7988V113.43C95.7988 113.684 95.8516 113.875 95.957 114.004C96.0625 114.129 96.2422 114.191 96.4961 114.191C96.6211 114.191 96.793 114.168 97.0117 114.121V115C96.7266 115.078 96.4492 115.117 96.1797 115.117C95.6953 115.117 95.3301 114.971 95.084 114.678C94.8379 114.385 94.7148 113.969 94.7148 113.43V109.498H93.5605V108.66H94.7148V107.125H95.7988ZM99.4316 115H98.3477V108.66H99.4316V115ZM98.2598 106.979C98.2598 106.803 98.3125 106.654 98.418 106.533C98.5273 106.412 98.6875 106.352 98.8984 106.352C99.1094 106.352 99.2695 106.412 99.3789 106.533C99.4883 106.654 99.543 106.803 99.543 106.979C99.543 107.154 99.4883 107.301 99.3789 107.418C99.2695 107.535 99.1094 107.594 98.8984 107.594C98.6875 107.594 98.5273 107.535 98.418 107.418C98.3125 107.301 98.2598 107.154 98.2598 106.979ZM103.715 114.232C104.102 114.232 104.439 114.115 104.729 113.881C105.018 113.646 105.178 113.354 105.209 113.002H106.234C106.215 113.365 106.09 113.711 105.859 114.039C105.629 114.367 105.32 114.629 104.934 114.824C104.551 115.02 104.145 115.117 103.715 115.117C102.852 115.117 102.164 114.83 101.652 114.256C101.145 113.678 100.891 112.889 100.891 111.889V111.707C100.891 111.09 101.004 110.541 101.23 110.061C101.457 109.58 101.781 109.207 102.203 108.941C102.629 108.676 103.131 108.543 103.709 108.543C104.42 108.543 105.01 108.756 105.479 109.182C105.951 109.607 106.203 110.16 106.234 110.84H105.209C105.178 110.43 105.021 110.094 104.74 109.832C104.463 109.566 104.119 109.434 103.709 109.434C103.158 109.434 102.73 109.633 102.426 110.031C102.125 110.426 101.975 110.998 101.975 111.748V111.953C101.975 112.684 102.125 113.246 102.426 113.641C102.727 114.035 103.156 114.232 103.715 114.232ZM113.494 109.633C113.33 109.605 113.152 109.592 112.961 109.592C112.25 109.592 111.768 109.895 111.514 110.5V115H110.43V108.66H111.484L111.502 109.393C111.857 108.826 112.361 108.543 113.014 108.543C113.225 108.543 113.385 108.57 113.494 108.625V109.633ZM117.01 115.117C116.15 115.117 115.451 114.836 114.912 114.273C114.373 113.707 114.104 112.951 114.104 112.006V111.807C114.104 111.178 114.223 110.617 114.461 110.125C114.703 109.629 115.039 109.242 115.469 108.965C115.902 108.684 116.371 108.543 116.875 108.543C117.699 108.543 118.34 108.814 118.797 109.357C119.254 109.9 119.482 110.678 119.482 111.689V112.141H115.188C115.203 112.766 115.385 113.271 115.732 113.658C116.084 114.041 116.529 114.232 117.068 114.232C117.451 114.232 117.775 114.154 118.041 113.998C118.307 113.842 118.539 113.635 118.738 113.377L119.4 113.893C118.869 114.709 118.072 115.117 117.01 115.117ZM116.875 109.434C116.438 109.434 116.07 109.594 115.773 109.914C115.477 110.23 115.293 110.676 115.223 111.25H118.398V111.168C118.367 110.617 118.219 110.191 117.953 109.891C117.688 109.586 117.328 109.434 116.875 109.434ZM126.098 111.9C126.098 112.865 125.877 113.643 125.436 114.232C124.994 114.822 124.396 115.117 123.643 115.117C122.873 115.117 122.268 114.873 121.826 114.385V117.438H120.742V108.66H121.732L121.785 109.363C122.227 108.816 122.84 108.543 123.625 108.543C124.387 108.543 124.988 108.83 125.43 109.404C125.875 109.979 126.098 110.777 126.098 111.801V111.9ZM125.014 111.777C125.014 111.062 124.861 110.498 124.557 110.084C124.252 109.67 123.834 109.463 123.303 109.463C122.646 109.463 122.154 109.754 121.826 110.336V113.365C122.15 113.943 122.646 114.232 123.314 114.232C123.834 114.232 124.246 114.027 124.551 113.617C124.859 113.203 125.014 112.59 125.014 111.777ZM128.658 115H127.574V106H128.658V115ZM134.312 115C134.25 114.875 134.199 114.652 134.16 114.332C133.656 114.855 133.055 115.117 132.355 115.117C131.73 115.117 131.217 114.941 130.814 114.59C130.416 114.234 130.217 113.785 130.217 113.242C130.217 112.582 130.467 112.07 130.967 111.707C131.471 111.34 132.178 111.156 133.088 111.156H134.143V110.658C134.143 110.279 134.029 109.979 133.803 109.756C133.576 109.529 133.242 109.416 132.801 109.416C132.414 109.416 132.09 109.514 131.828 109.709C131.566 109.904 131.436 110.141 131.436 110.418H130.346C130.346 110.102 130.457 109.797 130.68 109.504C130.906 109.207 131.211 108.973 131.594 108.801C131.98 108.629 132.404 108.543 132.865 108.543C133.596 108.543 134.168 108.727 134.582 109.094C134.996 109.457 135.211 109.959 135.227 110.6V113.518C135.227 114.1 135.301 114.562 135.449 114.906V115H134.312ZM132.514 114.174C132.854 114.174 133.176 114.086 133.48 113.91C133.785 113.734 134.006 113.506 134.143 113.225V111.924H133.293C131.965 111.924 131.301 112.312 131.301 113.09C131.301 113.43 131.414 113.695 131.641 113.887C131.867 114.078 132.158 114.174 132.514 114.174ZM139.469 114.232C139.855 114.232 140.193 114.115 140.482 113.881C140.771 113.646 140.932 113.354 140.963 113.002H141.988C141.969 113.365 141.844 113.711 141.613 114.039C141.383 114.367 141.074 114.629 140.688 114.824C140.305 115.02 139.898 115.117 139.469 115.117C138.605 115.117 137.918 114.83 137.406 114.256C136.898 113.678 136.645 112.889 136.645 111.889V111.707C136.645 111.09 136.758 110.541 136.984 110.061C137.211 109.58 137.535 109.207 137.957 108.941C138.383 108.676 138.885 108.543 139.463 108.543C140.174 108.543 140.764 108.756 141.232 109.182C141.705 109.607 141.957 110.16 141.988 110.84H140.963C140.932 110.43 140.775 110.094 140.494 109.832C140.217 109.566 139.873 109.434 139.463 109.434C138.912 109.434 138.484 109.633 138.18 110.031C137.879 110.426 137.729 110.998 137.729 111.748V111.953C137.729 112.684 137.879 113.246 138.18 113.641C138.48 114.035 138.91 114.232 139.469 114.232ZM145.838 115.117C144.979 115.117 144.279 114.836 143.74 114.273C143.201 113.707 142.932 112.951 142.932 112.006V111.807C142.932 111.178 143.051 110.617 143.289 110.125C143.531 109.629 143.867 109.242 144.297 108.965C144.73 108.684 145.199 108.543 145.703 108.543C146.527 108.543 147.168 108.814 147.625 109.357C148.082 109.9 148.311 110.678 148.311 111.689V112.141H144.016C144.031 112.766 144.213 113.271 144.561 113.658C144.912 114.041 145.357 114.232 145.896 114.232C146.279 114.232 146.604 114.154 146.869 113.998C147.135 113.842 147.367 113.635 147.566 113.377L148.229 113.893C147.697 114.709 146.9 115.117 145.838 115.117ZM145.703 109.434C145.266 109.434 144.898 109.594 144.602 109.914C144.305 110.23 144.121 110.676 144.051 111.25H147.227V111.168C147.195 110.617 147.047 110.191 146.781 109.891C146.516 109.586 146.156 109.434 145.703 109.434ZM150.59 108.66L150.619 109.363C151.084 108.816 151.711 108.543 152.5 108.543C153.387 108.543 153.99 108.883 154.311 109.562C154.521 109.258 154.795 109.012 155.131 108.824C155.471 108.637 155.871 108.543 156.332 108.543C157.723 108.543 158.43 109.279 158.453 110.752V115H157.369V110.816C157.369 110.363 157.266 110.025 157.059 109.803C156.852 109.576 156.504 109.463 156.016 109.463C155.613 109.463 155.279 109.584 155.014 109.826C154.748 110.064 154.594 110.387 154.551 110.793V115H153.461V110.846C153.461 109.924 153.01 109.463 152.107 109.463C151.396 109.463 150.91 109.766 150.648 110.371V115H149.564V108.66H150.59ZM162.725 115.117C161.865 115.117 161.166 114.836 160.627 114.273C160.088 113.707 159.818 112.951 159.818 112.006V111.807C159.818 111.178 159.938 110.617 160.176 110.125C160.418 109.629 160.754 109.242 161.184 108.965C161.617 108.684 162.086 108.543 162.59 108.543C163.414 108.543 164.055 108.814 164.512 109.357C164.969 109.9 165.197 110.678 165.197 111.689V112.141H160.902C160.918 112.766 161.1 113.271 161.447 113.658C161.799 114.041 162.244 114.232 162.783 114.232C163.166 114.232 163.49 114.154 163.756 113.998C164.021 113.842 164.254 113.635 164.453 113.377L165.115 113.893C164.584 114.709 163.787 115.117 162.725 115.117ZM162.59 109.434C162.152 109.434 161.785 109.594 161.488 109.914C161.191 110.23 161.008 110.676 160.938 111.25H164.113V111.168C164.082 110.617 163.934 110.191 163.668 109.891C163.402 109.586 163.043 109.434 162.59 109.434ZM167.482 108.66L167.518 109.457C168.002 108.848 168.635 108.543 169.416 108.543C170.756 108.543 171.432 109.299 171.443 110.811V115H170.359V110.805C170.355 110.348 170.25 110.01 170.043 109.791C169.84 109.572 169.521 109.463 169.088 109.463C168.736 109.463 168.428 109.557 168.162 109.744C167.896 109.932 167.689 110.178 167.541 110.482V115H166.457V108.66H167.482ZM174.549 107.125V108.66H175.732V109.498H174.549V113.43C174.549 113.684 174.602 113.875 174.707 114.004C174.812 114.129 174.992 114.191 175.246 114.191C175.371 114.191 175.543 114.168 175.762 114.121V115C175.477 115.078 175.199 115.117 174.93 115.117C174.445 115.117 174.08 114.971 173.834 114.678C173.588 114.385 173.465 113.969 173.465 113.43V109.498H172.311V108.66H173.465V107.125H174.549ZM180.695 113.318C180.695 113.025 180.584 112.799 180.361 112.639C180.143 112.475 179.758 112.334 179.207 112.217C178.66 112.1 178.225 111.959 177.9 111.795C177.58 111.631 177.342 111.436 177.186 111.209C177.033 110.982 176.957 110.713 176.957 110.4C176.957 109.881 177.176 109.441 177.613 109.082C178.055 108.723 178.617 108.543 179.301 108.543C180.02 108.543 180.602 108.729 181.047 109.1C181.496 109.471 181.721 109.945 181.721 110.523H180.631C180.631 110.227 180.504 109.971 180.25 109.756C180 109.541 179.684 109.434 179.301 109.434C178.906 109.434 178.598 109.52 178.375 109.691C178.152 109.863 178.041 110.088 178.041 110.365C178.041 110.627 178.145 110.824 178.352 110.957C178.559 111.09 178.932 111.217 179.471 111.338C180.014 111.459 180.453 111.604 180.789 111.771C181.125 111.939 181.373 112.143 181.533 112.381C181.697 112.615 181.779 112.902 181.779 113.242C181.779 113.809 181.553 114.264 181.1 114.607C180.646 114.947 180.059 115.117 179.336 115.117C178.828 115.117 178.379 115.027 177.988 114.848C177.598 114.668 177.291 114.418 177.068 114.098C176.85 113.773 176.74 113.424 176.74 113.049H177.824C177.844 113.412 177.988 113.701 178.258 113.916C178.531 114.127 178.891 114.232 179.336 114.232C179.746 114.232 180.074 114.15 180.32 113.986C180.57 113.818 180.695 113.596 180.695 113.318ZM183.215 114.432C183.215 114.244 183.27 114.088 183.379 113.963C183.492 113.838 183.66 113.775 183.883 113.775C184.105 113.775 184.273 113.838 184.387 113.963C184.504 114.088 184.562 114.244 184.562 114.432C184.562 114.611 184.504 114.762 184.387 114.883C184.273 115.004 184.105 115.064 183.883 115.064C183.66 115.064 183.492 115.004 183.379 114.883C183.27 114.762 183.215 114.611 183.215 114.432Z" fill="#C9D1D9"/>
<rect x="0.5" y="0.5" width="255" height="135" rx="5.5" stroke="#30363D"/>
</svg>
