<svg width="384" height="154" viewBox="0 0 384 154" fill="none" xmlns="http://www.w3.org/2000/svg">
<path fill-rule="evenodd" clip-rule="evenodd" d="M26 29.8333C26 29.3471 26.1932 28.8808 26.537 28.537C26.8808 28.1932 27.3471 28 27.8333 28H37.5C37.6326 28 37.7598 28.0527 37.8536 28.1464C37.9473 28.2402 38 28.3674 38 28.5V42.1667C38 42.2993 37.9473 42.4265 37.8536 42.5202C37.7598 42.614 37.6326 42.6667 37.5 42.6667H33.5C33.3674 42.6667 33.2402 42.614 33.1464 42.5202C33.0527 42.4265 33 42.2993 33 42.1667C33 42.0341 33.0527 41.9069 33.1464 41.8131C33.2402 41.7193 33.3674 41.6667 33.5 41.6667H37V39H28C27.7348 39 27.4804 39.1054 27.2929 39.2929C27.1054 39.4804 27 39.7348 27 40V40.5C27 40.9773 27.2867 41.3893 27.7 41.57C27.8174 41.6256 27.9086 41.7248 27.9542 41.8465C27.9997 41.9682 27.9961 42.1029 27.9441 42.2219C27.8921 42.341 27.7958 42.4352 27.6756 42.4845C27.5553 42.5338 27.4206 42.5343 27.3 42.486C26.9136 42.3174 26.5848 42.0396 26.3538 41.6869C26.1229 41.3341 26 40.9216 26 40.5V29.8333ZM37 29V38H28C27.636 38 27.294 38.0973 27 38.2673V29.8333C27 29.3733 27.3733 29 27.8333 29H37Z" fill="#30363D"/>
<path d="M28.6667 40.1667C28.6667 40.1225 28.6842 40.0801 28.7155 40.0488C28.7468 40.0176 28.7892 40 28.8334 40H32.1667C32.2109 40 32.2533 40.0176 32.2845 40.0488C32.3158 40.0801 32.3334 40.1225 32.3334 40.1667V43.5067C32.3332 43.5373 32.3246 43.5674 32.3085 43.5935C32.2923 43.6196 32.2693 43.6407 32.242 43.6546C32.2146 43.6684 32.184 43.6744 32.1534 43.672C32.1228 43.6695 32.0935 43.6587 32.0687 43.6407L30.598 42.5713C30.5695 42.5506 30.5352 42.5395 30.5 42.5395C30.4648 42.5395 30.4305 42.5506 30.402 42.5713L28.9314 43.64C28.9066 43.658 28.8773 43.6688 28.8468 43.6713C28.8163 43.6738 28.7857 43.6678 28.7584 43.654C28.731 43.6403 28.708 43.6192 28.6918 43.5932C28.6757 43.5672 28.667 43.5373 28.6667 43.5067V40.1667Z" fill="#30363D"/>
<path d="M48.5391 36.7109C48.5391 35.4141 48.8464 34.3698 49.4609 33.5781C50.0807 32.7865 50.9141 32.3906 51.9609 32.3906C52.888 32.3906 53.6094 32.7083 54.125 33.3438L54.2188 32.5469H56.2656V40.7188C56.2656 41.4583 56.0964 42.1016 55.7578 42.6484C55.4245 43.1953 54.9531 43.612 54.3438 43.8984C53.7344 44.1849 53.0208 44.3281 52.2031 44.3281C51.5833 44.3281 50.9792 44.2031 50.3906 43.9531C49.8021 43.7083 49.3568 43.3906 49.0547 43L50.0547 41.625C50.6172 42.2552 51.2995 42.5703 52.1016 42.5703C52.7005 42.5703 53.1667 42.4089 53.5 42.0859C53.8333 41.7682 54 41.3151 54 40.7266V40.2734C53.4792 40.862 52.7943 41.1562 51.9453 41.1562C50.9297 41.1562 50.1068 40.7604 49.4766 39.9688C48.8516 39.1719 48.5391 38.1172 48.5391 36.8047V36.7109ZM50.7969 36.875C50.7969 37.6406 50.9505 38.2422 51.2578 38.6797C51.5651 39.112 51.987 39.3281 52.5234 39.3281C53.2109 39.3281 53.7031 39.0703 54 38.5547V35C53.6979 34.4844 53.2109 34.2266 52.5391 34.2266C51.9974 34.2266 51.5703 34.4479 51.2578 34.8906C50.9505 35.3333 50.7969 35.9948 50.7969 36.875ZM62.7578 34.6641C62.4505 34.6224 62.1797 34.6016 61.9453 34.6016C61.0911 34.6016 60.5312 34.8906 60.2656 35.4688V41H58.0078V32.5469H60.1406L60.2031 33.5547C60.6562 32.7786 61.2839 32.3906 62.0859 32.3906C62.3359 32.3906 62.5703 32.4245 62.7891 32.4922L62.7578 34.6641ZM68.5156 41C68.4115 40.7969 68.3359 40.5443 68.2891 40.2422C67.7422 40.8516 67.0312 41.1562 66.1562 41.1562C65.3281 41.1562 64.6406 40.9167 64.0938 40.4375C63.5521 39.9583 63.2812 39.3542 63.2812 38.625C63.2812 37.7292 63.612 37.0417 64.2734 36.5625C64.9401 36.0833 65.901 35.8411 67.1562 35.8359H68.1953V35.3516C68.1953 34.9609 68.0938 34.6484 67.8906 34.4141C67.6927 34.1797 67.3776 34.0625 66.9453 34.0625C66.5651 34.0625 66.2656 34.1536 66.0469 34.3359C65.8333 34.5182 65.7266 34.7682 65.7266 35.0859H63.4688C63.4688 34.5964 63.6198 34.1432 63.9219 33.7266C64.224 33.3099 64.651 32.9844 65.2031 32.75C65.7552 32.5104 66.375 32.3906 67.0625 32.3906C68.1042 32.3906 68.9297 32.6536 69.5391 33.1797C70.1536 33.7005 70.4609 34.4349 70.4609 35.3828V39.0469C70.4661 39.849 70.5781 40.4557 70.7969 40.8672V41H68.5156ZM66.6484 39.4297C66.9818 39.4297 67.2891 39.3568 67.5703 39.2109C67.8516 39.0599 68.0599 38.8594 68.1953 38.6094V37.1562H67.3516C66.2214 37.1562 65.6198 37.5469 65.5469 38.3281L65.5391 38.4609C65.5391 38.7422 65.638 38.974 65.8359 39.1562C66.0339 39.3385 66.3047 39.4297 66.6484 39.4297ZM71.8438 36.7109C71.8438 35.3932 72.138 34.3438 72.7266 33.5625C73.3203 32.7812 74.1302 32.3906 75.1562 32.3906C75.9792 32.3906 76.6589 32.6979 77.1953 33.3125V29H79.4609V41H77.4219L77.3125 40.1016C76.75 40.8047 76.026 41.1562 75.1406 41.1562C74.1458 41.1562 73.3464 40.7656 72.7422 39.9844C72.1432 39.1979 71.8438 38.1068 71.8438 36.7109ZM74.1016 36.875C74.1016 37.6667 74.2396 38.2734 74.5156 38.6953C74.7917 39.1172 75.1927 39.3281 75.7188 39.3281C76.4167 39.3281 76.9089 39.0339 77.1953 38.4453V35.1094C76.9141 34.5208 76.4271 34.2266 75.7344 34.2266C74.6458 34.2266 74.1016 35.1094 74.1016 36.875ZM87.4688 42.7656H80.3516V41H87.4688V42.7656ZM90.4688 32.5469L90.5391 33.4922C91.138 32.7578 91.9479 32.3906 92.9688 32.3906C94.0573 32.3906 94.8047 32.8203 95.2109 33.6797C95.8047 32.8203 96.651 32.3906 97.75 32.3906C98.6667 32.3906 99.349 32.6589 99.7969 33.1953C100.245 33.7266 100.469 34.5286 100.469 35.6016V41H98.2031V35.6094C98.2031 35.1302 98.1094 34.7812 97.9219 34.5625C97.7344 34.3385 97.4036 34.2266 96.9297 34.2266C96.2526 34.2266 95.7839 34.5495 95.5234 35.1953L95.5312 41H93.2734V35.6172C93.2734 35.1276 93.1771 34.7734 92.9844 34.5547C92.7917 34.3359 92.4635 34.2266 92 34.2266C91.3594 34.2266 90.8958 34.4922 90.6094 35.0234V41H88.3516V32.5469H90.4688ZM104.594 41H102.328V32.5469H104.594V41ZM102.195 30.3594C102.195 30.0208 102.307 29.7422 102.531 29.5234C102.76 29.3047 103.07 29.1953 103.461 29.1953C103.846 29.1953 104.154 29.3047 104.383 29.5234C104.612 29.7422 104.727 30.0208 104.727 30.3594C104.727 30.7031 104.609 30.9844 104.375 31.2031C104.146 31.4219 103.841 31.5312 103.461 31.5312C103.081 31.5312 102.773 31.4219 102.539 31.2031C102.31 30.9844 102.195 30.7031 102.195 30.3594ZM108.539 32.5469L108.609 33.5234C109.214 32.7682 110.023 32.3906 111.039 32.3906C111.935 32.3906 112.602 32.6536 113.039 33.1797C113.477 33.7057 113.701 34.4922 113.711 35.5391V41H111.453V35.5938C111.453 35.1146 111.349 34.7682 111.141 34.5547C110.932 34.3359 110.586 34.2266 110.102 34.2266C109.466 34.2266 108.99 34.4974 108.672 35.0391V41H106.414V32.5469H108.539ZM120.492 40.1406C119.935 40.8177 119.164 41.1562 118.18 41.1562C117.273 41.1562 116.581 40.8958 116.102 40.375C115.628 39.8542 115.385 39.0911 115.375 38.0859V32.5469H117.633V38.0078C117.633 38.888 118.034 39.3281 118.836 39.3281C119.602 39.3281 120.128 39.0625 120.414 38.5312V32.5469H122.68V41H120.555L120.492 40.1406ZM126.766 41H124.5V32.5469H126.766V41ZM124.367 30.3594C124.367 30.0208 124.479 29.7422 124.703 29.5234C124.932 29.3047 125.242 29.1953 125.633 29.1953C126.018 29.1953 126.326 29.3047 126.555 29.5234C126.784 29.7422 126.898 30.0208 126.898 30.3594C126.898 30.7031 126.781 30.9844 126.547 31.2031C126.318 31.4219 126.013 31.5312 125.633 31.5312C125.253 31.5312 124.945 31.4219 124.711 31.2031C124.482 30.9844 124.367 30.7031 124.367 30.3594Z" fill="#58A6FF"/>
<path d="M32.5039 68.6943C32.1667 69.1774 31.695 69.5397 31.0889 69.7812C30.4873 70.0182 29.7855 70.1367 28.9834 70.1367C28.1722 70.1367 27.4521 69.9476 26.8232 69.5693C26.1943 69.1865 25.7067 68.6442 25.3604 67.9424C25.0186 67.2406 24.8431 66.4271 24.834 65.502V64.6338C24.834 63.1344 25.1826 61.9723 25.8799 61.1475C26.5817 60.3226 27.5661 59.9102 28.833 59.9102C29.8721 59.9102 30.7083 60.1768 31.3418 60.71C31.9753 61.2386 32.3626 61.9906 32.5039 62.9658H31.1914C30.9453 61.6488 30.1615 60.9902 28.8398 60.9902C27.9603 60.9902 27.2926 61.3001 26.8369 61.9199C26.3857 62.5352 26.1579 63.4284 26.1533 64.5996V65.4131C26.1533 66.5296 26.4085 67.4183 26.9189 68.0791C27.4294 68.7354 28.1198 69.0635 28.9902 69.0635C29.4824 69.0635 29.9131 69.0088 30.2822 68.8994C30.6514 68.79 30.9567 68.6055 31.1982 68.3457V66.1104H28.8945V65.0439H32.5039V68.6943ZM38.0752 63.7383C37.8838 63.7064 37.6764 63.6904 37.4531 63.6904C36.6237 63.6904 36.0609 64.0436 35.7646 64.75V70H34.5V62.6035H35.7305L35.751 63.458C36.1657 62.7972 36.7536 62.4668 37.5146 62.4668C37.7607 62.4668 37.9476 62.4987 38.0752 62.5625V63.7383ZM43.8105 69.2686C43.3184 69.8473 42.596 70.1367 41.6436 70.1367C40.8551 70.1367 40.2536 69.9089 39.8389 69.4531C39.4287 68.9928 39.2214 68.3138 39.2168 67.416V62.6035H40.4814V67.3818C40.4814 68.5029 40.9372 69.0635 41.8486 69.0635C42.8148 69.0635 43.4574 68.7035 43.7764 67.9834V62.6035H45.041V70H43.8379L43.8105 69.2686ZM53.2168 66.3838C53.2168 67.5094 52.9593 68.4163 52.4443 69.1045C51.9294 69.7926 51.2321 70.1367 50.3525 70.1367C49.4548 70.1367 48.7484 69.8519 48.2334 69.2822V72.8438H46.9688V62.6035H48.124L48.1855 63.4238C48.7005 62.7858 49.416 62.4668 50.332 62.4668C51.2207 62.4668 51.9225 62.8018 52.4375 63.4717C52.957 64.1416 53.2168 65.0736 53.2168 66.2676V66.3838ZM51.9521 66.2402C51.9521 65.4062 51.7744 64.7477 51.4189 64.2646C51.0635 63.7816 50.5758 63.54 49.9561 63.54C49.1904 63.54 48.6162 63.8796 48.2334 64.5586V68.0928C48.6117 68.7673 49.1904 69.1045 49.9697 69.1045C50.5758 69.1045 51.0566 68.8652 51.4121 68.3867C51.7721 67.9036 51.9521 67.1882 51.9521 66.2402ZM61.0781 66.3838C61.0781 67.5094 60.8206 68.4163 60.3057 69.1045C59.7907 69.7926 59.0934 70.1367 58.2139 70.1367C57.3161 70.1367 56.6097 69.8519 56.0947 69.2822V72.8438H54.8301V62.6035H55.9854L56.0469 63.4238C56.5618 62.7858 57.2773 62.4668 58.1934 62.4668C59.082 62.4668 59.7839 62.8018 60.2988 63.4717C60.8184 64.1416 61.0781 65.0736 61.0781 66.2676V66.3838ZM59.8135 66.2402C59.8135 65.4062 59.6357 64.7477 59.2803 64.2646C58.9248 63.7816 58.4372 63.54 57.8174 63.54C57.0518 63.54 56.4775 63.8796 56.0947 64.5586V68.0928C56.473 68.7673 57.0518 69.1045 57.8311 69.1045C58.4372 69.1045 58.918 68.8652 59.2734 68.3867C59.6335 67.9036 59.8135 67.1882 59.8135 66.2402ZM65.7607 70.1367C64.7581 70.1367 63.9424 69.8086 63.3135 69.1523C62.6846 68.4915 62.3701 67.6097 62.3701 66.5068V66.2744C62.3701 65.5407 62.5091 64.8867 62.7871 64.3125C63.0697 63.7337 63.4616 63.2826 63.9629 62.959C64.4688 62.6309 65.0156 62.4668 65.6035 62.4668C66.5651 62.4668 67.3125 62.7835 67.8457 63.417C68.3789 64.0505 68.6455 64.9574 68.6455 66.1377V66.6641H63.6348C63.653 67.3932 63.8649 67.9834 64.2705 68.4346C64.6807 68.8812 65.2002 69.1045 65.8291 69.1045C66.2757 69.1045 66.654 69.0133 66.9639 68.8311C67.2738 68.6488 67.5449 68.4072 67.7773 68.1064L68.5498 68.708C67.93 69.6605 67.0003 70.1367 65.7607 70.1367ZM65.6035 63.5059C65.0931 63.5059 64.6647 63.6927 64.3184 64.0664C63.972 64.4355 63.7578 64.9551 63.6758 65.625H67.3809V65.5293C67.3444 64.8867 67.1712 64.39 66.8613 64.0391C66.5514 63.6836 66.1322 63.5059 65.6035 63.5059ZM79.2822 67.4023H75.1123L74.1758 70H72.8223L76.623 60.0469H77.7715L81.5791 70H80.2324L79.2822 67.4023ZM75.5088 66.3223H78.8926L77.1973 61.667L75.5088 66.3223ZM82.4131 66.2402C82.4131 65.1055 82.682 64.194 83.2197 63.5059C83.7575 62.8132 84.4616 62.4668 85.332 62.4668C86.1979 62.4668 86.8838 62.763 87.3896 63.3555V59.5H88.6543V70H87.4922L87.4307 69.207C86.9248 69.8268 86.2207 70.1367 85.3184 70.1367C84.4616 70.1367 83.762 69.7858 83.2197 69.084C82.682 68.3822 82.4131 67.4661 82.4131 66.3359V66.2402ZM83.6777 66.3838C83.6777 67.2223 83.8509 67.8786 84.1973 68.3525C84.5436 68.8265 85.0221 69.0635 85.6328 69.0635C86.4349 69.0635 87.0205 68.7035 87.3896 67.9834V64.5859C87.0114 63.8887 86.4303 63.54 85.6465 63.54C85.0267 63.54 84.5436 63.7793 84.1973 64.2578C83.8509 64.7363 83.6777 65.445 83.6777 66.3838ZM91.9971 70H90.7324V59.5H91.9971V70ZM97.0967 70.1367C96.0941 70.1367 95.2783 69.8086 94.6494 69.1523C94.0205 68.4915 93.7061 67.6097 93.7061 66.5068V66.2744C93.7061 65.5407 93.8451 64.8867 94.123 64.3125C94.4056 63.7337 94.7975 63.2826 95.2988 62.959C95.8047 62.6309 96.3516 62.4668 96.9395 62.4668C97.901 62.4668 98.6484 62.7835 99.1816 63.417C99.7148 64.0505 99.9814 64.9574 99.9814 66.1377V66.6641H94.9707C94.9889 67.3932 95.2008 67.9834 95.6064 68.4346C96.0166 68.8812 96.5361 69.1045 97.165 69.1045C97.6117 69.1045 97.9899 69.0133 98.2998 68.8311C98.6097 68.6488 98.8809 68.4072 99.1133 68.1064L99.8857 68.708C99.266 69.6605 98.3363 70.1367 97.0967 70.1367ZM96.9395 63.5059C96.429 63.5059 96.0007 63.6927 95.6543 64.0664C95.3079 64.4355 95.0938 64.9551 95.0117 65.625H98.7168V65.5293C98.6803 64.8867 98.5072 64.39 98.1973 64.0391C97.8874 63.6836 97.4681 63.5059 96.9395 63.5059ZM105.026 63.7383C104.835 63.7064 104.628 63.6904 104.404 63.6904C103.575 63.6904 103.012 64.0436 102.716 64.75V70H101.451V62.6035H102.682L102.702 63.458C103.117 62.7972 103.705 62.4668 104.466 62.4668C104.712 62.4668 104.899 62.4987 105.026 62.5625V63.7383ZM111.562 60.0469L114.815 68.168L118.069 60.0469H119.771V70H118.459V66.124L118.582 61.9404L115.314 70H114.31L111.049 61.9609L111.179 66.124V70H109.866V60.0469H111.562ZM123.265 70H122V62.6035H123.265V70ZM121.897 60.6416C121.897 60.4365 121.959 60.2633 122.082 60.1221C122.21 59.9808 122.396 59.9102 122.643 59.9102C122.889 59.9102 123.076 59.9808 123.203 60.1221C123.331 60.2633 123.395 60.4365 123.395 60.6416C123.395 60.8467 123.331 61.0176 123.203 61.1543C123.076 61.291 122.889 61.3594 122.643 61.3594C122.396 61.3594 122.21 61.291 122.082 61.1543C121.959 61.0176 121.897 60.8467 121.897 60.6416ZM126.491 62.6035L126.532 63.5332C127.097 62.8223 127.836 62.4668 128.747 62.4668C130.31 62.4668 131.099 63.3486 131.112 65.1123V70H129.848V65.1055C129.843 64.5723 129.72 64.1781 129.479 63.9229C129.242 63.6676 128.87 63.54 128.364 63.54C127.954 63.54 127.594 63.6494 127.284 63.8682C126.974 64.0869 126.733 64.374 126.56 64.7295V70H125.295V62.6035H126.491ZM140.225 60.0469V66.8145C140.22 67.7533 139.924 68.5212 139.336 69.1182C138.753 69.7152 137.96 70.0501 136.957 70.123L136.608 70.1367C135.519 70.1367 134.651 69.8428 134.004 69.2549C133.357 68.667 133.029 67.8581 133.02 66.8281V60.0469H134.318V66.7871C134.318 67.5072 134.517 68.0677 134.913 68.4688C135.31 68.8652 135.875 69.0635 136.608 69.0635C137.351 69.0635 137.919 68.8652 138.311 68.4688C138.707 68.0723 138.905 67.514 138.905 66.7939V60.0469H140.225ZM143.704 70H142.392V60.0469H143.704V70ZM150.759 70H149.494V62.6035H150.759V70ZM149.392 60.6416C149.392 60.4365 149.453 60.2633 149.576 60.1221C149.704 59.9808 149.891 59.9102 150.137 59.9102C150.383 59.9102 150.57 59.9808 150.697 60.1221C150.825 60.2633 150.889 60.4365 150.889 60.6416C150.889 60.8467 150.825 61.0176 150.697 61.1543C150.57 61.291 150.383 61.3594 150.137 61.3594C149.891 61.3594 149.704 61.291 149.576 61.1543C149.453 61.0176 149.392 60.8467 149.392 60.6416ZM157.096 68.0381C157.096 67.6963 156.966 67.432 156.706 67.2451C156.451 67.0537 156.002 66.8896 155.359 66.7529C154.721 66.6162 154.213 66.4521 153.835 66.2607C153.461 66.0693 153.183 65.8415 153.001 65.5771C152.823 65.3128 152.734 64.9984 152.734 64.6338C152.734 64.0277 152.99 63.515 153.5 63.0957C154.015 62.6764 154.671 62.4668 155.469 62.4668C156.307 62.4668 156.986 62.6833 157.506 63.1162C158.03 63.5492 158.292 64.1029 158.292 64.7773H157.021C157.021 64.431 156.872 64.1325 156.576 63.8818C156.285 63.6312 155.915 63.5059 155.469 63.5059C155.008 63.5059 154.648 63.6061 154.389 63.8066C154.129 64.0072 153.999 64.2692 153.999 64.5928C153.999 64.8981 154.12 65.1283 154.361 65.2832C154.603 65.4382 155.038 65.5863 155.667 65.7275C156.3 65.8688 156.813 66.0374 157.205 66.2334C157.597 66.4294 157.886 66.6663 158.073 66.9443C158.265 67.2178 158.36 67.5527 158.36 67.9492C158.36 68.61 158.096 69.141 157.567 69.542C157.039 69.9385 156.353 70.1367 155.51 70.1367C154.917 70.1367 154.393 70.0319 153.938 69.8223C153.482 69.6126 153.124 69.321 152.864 68.9473C152.609 68.569 152.481 68.1611 152.481 67.7236H153.746C153.769 68.1475 153.938 68.4847 154.252 68.7354C154.571 68.9814 154.99 69.1045 155.51 69.1045C155.988 69.1045 156.371 69.0088 156.658 68.8174C156.95 68.6214 157.096 68.3617 157.096 68.0381ZM168.047 70C167.974 69.8542 167.915 69.5944 167.869 69.2207C167.281 69.8314 166.579 70.1367 165.764 70.1367C165.035 70.1367 164.435 69.9316 163.966 69.5215C163.501 69.1068 163.269 68.5827 163.269 67.9492C163.269 67.179 163.56 66.582 164.144 66.1582C164.731 65.7298 165.556 65.5156 166.618 65.5156H167.849V64.9346C167.849 64.4925 167.716 64.1416 167.452 63.8818C167.188 63.6175 166.798 63.4854 166.283 63.4854C165.832 63.4854 165.454 63.5993 165.148 63.8271C164.843 64.055 164.69 64.3307 164.69 64.6543H163.419C163.419 64.2852 163.549 63.9297 163.809 63.5879C164.073 63.2415 164.428 62.9681 164.875 62.7676C165.326 62.5671 165.821 62.4668 166.358 62.4668C167.211 62.4668 167.878 62.681 168.361 63.1094C168.844 63.5332 169.095 64.1188 169.113 64.8662V68.2705C169.113 68.9495 169.2 69.4896 169.373 69.8906V70H168.047ZM165.948 69.0361C166.345 69.0361 166.721 68.9336 167.076 68.7285C167.432 68.5234 167.689 68.2568 167.849 67.9287V66.4111H166.857C165.308 66.4111 164.533 66.8646 164.533 67.7715C164.533 68.168 164.665 68.4779 164.93 68.7012C165.194 68.9245 165.534 69.0361 165.948 69.0361ZM172.292 62.6035L172.333 63.5332C172.898 62.8223 173.636 62.4668 174.548 62.4668C176.111 62.4668 176.899 63.3486 176.913 65.1123V70H175.648V65.1055C175.644 64.5723 175.521 64.1781 175.279 63.9229C175.042 63.6676 174.671 63.54 174.165 63.54C173.755 63.54 173.395 63.6494 173.085 63.8682C172.775 64.0869 172.534 64.374 172.36 64.7295V70H171.096V62.6035H172.292ZM183.482 62.6035L183.517 63.4238C184.059 62.7858 184.79 62.4668 185.711 62.4668C186.745 62.4668 187.45 62.8633 187.823 63.6562C188.069 63.3008 188.388 63.0137 188.78 62.7949C189.177 62.5762 189.644 62.4668 190.182 62.4668C191.804 62.4668 192.629 63.3258 192.656 65.0439V70H191.392V65.1191C191.392 64.5905 191.271 64.1963 191.029 63.9365C190.788 63.6722 190.382 63.54 189.812 63.54C189.343 63.54 188.953 63.6813 188.644 63.9639C188.334 64.2419 188.154 64.6178 188.104 65.0918V70H186.832V65.1533C186.832 64.0778 186.306 63.54 185.253 63.54C184.424 63.54 183.856 63.8932 183.551 64.5996V70H182.286V62.6035H183.482ZM194.235 66.2334C194.235 65.5088 194.377 64.8571 194.659 64.2783C194.946 63.6995 195.343 63.2529 195.849 62.9385C196.359 62.624 196.94 62.4668 197.592 62.4668C198.599 62.4668 199.412 62.8154 200.032 63.5127C200.657 64.21 200.969 65.1374 200.969 66.2949V66.3838C200.969 67.1038 200.83 67.751 200.552 68.3252C200.278 68.8949 199.884 69.3392 199.369 69.6582C198.859 69.9772 198.271 70.1367 197.605 70.1367C196.603 70.1367 195.789 69.7881 195.165 69.0908C194.545 68.3936 194.235 67.4707 194.235 66.3223V66.2334ZM195.507 66.3838C195.507 67.2041 195.696 67.8626 196.074 68.3594C196.457 68.8561 196.967 69.1045 197.605 69.1045C198.248 69.1045 198.758 68.8538 199.137 68.3525C199.515 67.8467 199.704 67.1403 199.704 66.2334C199.704 65.4222 199.51 64.766 199.123 64.2646C198.74 63.7588 198.23 63.5059 197.592 63.5059C196.967 63.5059 196.464 63.7542 196.081 64.251C195.698 64.7477 195.507 65.4587 195.507 66.3838ZM202.247 66.2402C202.247 65.1055 202.516 64.194 203.054 63.5059C203.591 62.8132 204.296 62.4668 205.166 62.4668C206.032 62.4668 206.718 62.763 207.224 63.3555V59.5H208.488V70H207.326L207.265 69.207C206.759 69.8268 206.055 70.1367 205.152 70.1367C204.296 70.1367 203.596 69.7858 203.054 69.084C202.516 68.3822 202.247 67.4661 202.247 66.3359V66.2402ZM203.512 66.3838C203.512 67.2223 203.685 67.8786 204.031 68.3525C204.378 68.8265 204.856 69.0635 205.467 69.0635C206.269 69.0635 206.854 68.7035 207.224 67.9834V64.5859C206.845 63.8887 206.264 63.54 205.48 63.54C204.861 63.54 204.378 63.7793 204.031 64.2578C203.685 64.7363 203.512 65.445 203.512 66.3838ZM214.552 70V63.5811H213.383V62.6035H214.552V61.8447C214.552 61.0518 214.764 60.4388 215.188 60.0059C215.611 59.5729 216.211 59.3564 216.985 59.3564C217.277 59.3564 217.566 59.3952 217.854 59.4727L217.785 60.498C217.571 60.457 217.343 60.4365 217.102 60.4365C216.691 60.4365 216.375 60.5573 216.151 60.7988C215.928 61.0358 215.816 61.3776 215.816 61.8242V62.6035H217.396V63.5811H215.816V70H214.552ZM218.462 66.2334C218.462 65.5088 218.603 64.8571 218.886 64.2783C219.173 63.6995 219.569 63.2529 220.075 62.9385C220.586 62.624 221.167 62.4668 221.818 62.4668C222.826 62.4668 223.639 62.8154 224.259 63.5127C224.883 64.21 225.195 65.1374 225.195 66.2949V66.3838C225.195 67.1038 225.056 67.751 224.778 68.3252C224.505 68.8949 224.111 69.3392 223.596 69.6582C223.085 69.9772 222.497 70.1367 221.832 70.1367C220.829 70.1367 220.016 69.7881 219.392 69.0908C218.772 68.3936 218.462 67.4707 218.462 66.3223V66.2334ZM219.733 66.3838C219.733 67.2041 219.923 67.8626 220.301 68.3594C220.684 68.8561 221.194 69.1045 221.832 69.1045C222.475 69.1045 222.985 68.8538 223.363 68.3525C223.742 67.8467 223.931 67.1403 223.931 66.2334C223.931 65.4222 223.737 64.766 223.35 64.2646C222.967 63.7588 222.456 63.5059 221.818 63.5059C221.194 63.5059 220.69 63.7542 220.308 64.251C219.925 64.7477 219.733 65.4587 219.733 66.3838ZM230.356 63.7383C230.165 63.7064 229.958 63.6904 229.734 63.6904C228.905 63.6904 228.342 64.0436 228.046 64.75V70H226.781V62.6035H228.012L228.032 63.458C228.447 62.7972 229.035 62.4668 229.796 62.4668C230.042 62.4668 230.229 62.4987 230.356 62.5625V63.7383ZM240.692 67.4023H236.522L235.586 70H234.232L238.033 60.0469H239.182L242.989 70H241.643L240.692 67.4023ZM236.919 66.3223H240.303L238.607 61.667L236.919 66.3223ZM247.706 63.7383C247.515 63.7064 247.307 63.6904 247.084 63.6904C246.255 63.6904 245.692 64.0436 245.396 64.75V70H244.131V62.6035H245.361L245.382 63.458C245.797 62.7972 246.384 62.4668 247.146 62.4668C247.392 62.4668 247.578 62.4987 247.706 62.5625V63.7383ZM250.064 62.6035L250.099 63.4238C250.641 62.7858 251.372 62.4668 252.293 62.4668C253.327 62.4668 254.032 62.8633 254.405 63.6562C254.651 63.3008 254.97 63.0137 255.362 62.7949C255.759 62.5762 256.226 62.4668 256.764 62.4668C258.386 62.4668 259.211 63.3258 259.238 65.0439V70H257.974V65.1191C257.974 64.5905 257.853 64.1963 257.611 63.9365C257.37 63.6722 256.964 63.54 256.395 63.54C255.925 63.54 255.535 63.6813 255.226 63.9639C254.916 64.2419 254.736 64.6178 254.686 65.0918V70H253.414V65.1533C253.414 64.0778 252.888 63.54 251.835 63.54C251.006 63.54 250.438 63.8932 250.133 64.5996V70H248.868V62.6035H250.064ZM265.719 70C265.646 69.8542 265.587 69.5944 265.541 69.2207C264.953 69.8314 264.251 70.1367 263.436 70.1367C262.706 70.1367 262.107 69.9316 261.638 69.5215C261.173 69.1068 260.94 68.5827 260.94 67.9492C260.94 67.179 261.232 66.582 261.815 66.1582C262.403 65.7298 263.228 65.5156 264.29 65.5156H265.521V64.9346C265.521 64.4925 265.388 64.1416 265.124 63.8818C264.86 63.6175 264.47 63.4854 263.955 63.4854C263.504 63.4854 263.126 63.5993 262.82 63.8271C262.515 64.055 262.362 64.3307 262.362 64.6543H261.091C261.091 64.2852 261.221 63.9297 261.48 63.5879C261.745 63.2415 262.1 62.9681 262.547 62.7676C262.998 62.5671 263.493 62.4668 264.03 62.4668C264.882 62.4668 265.55 62.681 266.033 63.1094C266.516 63.5332 266.767 64.1188 266.785 64.8662V68.2705C266.785 68.9495 266.872 69.4896 267.045 69.8906V70H265.719ZM263.62 69.0361C264.017 69.0361 264.393 68.9336 264.748 68.7285C265.104 68.5234 265.361 68.2568 265.521 67.9287V66.4111H264.529C262.98 66.4111 262.205 66.8646 262.205 67.7715C262.205 68.168 262.337 68.4779 262.602 68.7012C262.866 68.9245 263.205 69.0361 263.62 69.0361ZM273.949 64.4082H274.899C275.496 64.3991 275.966 64.2419 276.308 63.9365C276.649 63.6312 276.82 63.2188 276.82 62.6992C276.82 61.5326 276.239 60.9492 275.077 60.9492C274.53 60.9492 274.093 61.1064 273.765 61.4209C273.441 61.7308 273.279 62.1432 273.279 62.6582H272.015C272.015 61.8698 272.302 61.2158 272.876 60.6963C273.455 60.1722 274.188 59.9102 275.077 59.9102C276.016 59.9102 276.752 60.1585 277.285 60.6553C277.818 61.152 278.085 61.8424 278.085 62.7266C278.085 63.1595 277.944 63.5788 277.661 63.9844C277.383 64.39 277.003 64.693 276.52 64.8936C277.066 65.0667 277.488 65.3538 277.784 65.7549C278.085 66.1559 278.235 66.6458 278.235 67.2246C278.235 68.1178 277.944 68.8265 277.36 69.3506C276.777 69.8747 276.018 70.1367 275.084 70.1367C274.15 70.1367 273.389 69.8838 272.801 69.3779C272.217 68.8721 271.926 68.2044 271.926 67.375H273.197C273.197 67.8991 273.368 68.3184 273.71 68.6328C274.052 68.9473 274.51 69.1045 275.084 69.1045C275.695 69.1045 276.162 68.945 276.485 68.626C276.809 68.307 276.971 67.849 276.971 67.252C276.971 66.6732 276.793 66.2288 276.438 65.9189C276.082 65.609 275.569 65.4495 274.899 65.4404H273.949V64.4082ZM280.061 71.9824L279.343 71.4902C279.771 70.8932 279.994 70.278 280.013 69.6445V68.5029H281.25V69.4941C281.25 69.9544 281.136 70.4147 280.908 70.875C280.685 71.3353 280.402 71.7044 280.061 71.9824ZM292.871 68.2568L294.293 62.6035H295.558L293.404 70H292.379L290.581 64.3945L288.831 70H287.806L285.659 62.6035H286.917L288.373 68.1406L290.096 62.6035H291.114L292.871 68.2568ZM298.114 63.499C298.675 62.8109 299.404 62.4668 300.302 62.4668C301.865 62.4668 302.653 63.3486 302.667 65.1123V70H301.402V65.1055C301.398 64.5723 301.275 64.1781 301.033 63.9229C300.796 63.6676 300.425 63.54 299.919 63.54C299.509 63.54 299.149 63.6494 298.839 63.8682C298.529 64.0869 298.287 64.374 298.114 64.7295V70H296.85V59.5H298.114V63.499ZM305.935 70H304.67V62.6035H305.935V70ZM304.567 60.6416C304.567 60.4365 304.629 60.2633 304.752 60.1221C304.88 59.9808 305.066 59.9102 305.312 59.9102C305.559 59.9102 305.745 59.9808 305.873 60.1221C306.001 60.2633 306.064 60.4365 306.064 60.6416C306.064 60.8467 306.001 61.0176 305.873 61.1543C305.745 61.291 305.559 61.3594 305.312 61.3594C305.066 61.3594 304.88 61.291 304.752 61.1543C304.629 61.0176 304.567 60.8467 304.567 60.6416ZM310.932 69.1045C311.383 69.1045 311.777 68.9678 312.114 68.6943C312.451 68.4209 312.638 68.0791 312.675 67.6689H313.871C313.848 68.0928 313.702 68.4961 313.434 68.8789C313.165 69.2617 312.805 69.5671 312.354 69.7949C311.907 70.0228 311.433 70.1367 310.932 70.1367C309.924 70.1367 309.122 69.8018 308.525 69.1318C307.933 68.4574 307.637 67.5368 307.637 66.3701V66.1582C307.637 65.4382 307.769 64.7979 308.033 64.2373C308.298 63.6768 308.676 63.2415 309.168 62.9316C309.665 62.6217 310.25 62.4668 310.925 62.4668C311.754 62.4668 312.442 62.7152 312.989 63.2119C313.541 63.7087 313.835 64.3535 313.871 65.1465H312.675C312.638 64.668 312.456 64.276 312.128 63.9707C311.804 63.6608 311.403 63.5059 310.925 63.5059C310.282 63.5059 309.783 63.7383 309.428 64.2031C309.077 64.6634 308.901 65.3311 308.901 66.2061V66.4453C308.901 67.2975 309.077 67.9538 309.428 68.4141C309.779 68.8743 310.28 69.1045 310.932 69.1045ZM316.558 63.499C317.118 62.8109 317.847 62.4668 318.745 62.4668C320.308 62.4668 321.097 63.3486 321.11 65.1123V70H319.846V65.1055C319.841 64.5723 319.718 64.1781 319.477 63.9229C319.24 63.6676 318.868 63.54 318.362 63.54C317.952 63.54 317.592 63.6494 317.282 63.8682C316.972 64.0869 316.731 64.374 316.558 64.7295V70H315.293V59.5H316.558V63.499ZM28.5322 81.7383C28.3408 81.7064 28.1335 81.6904 27.9102 81.6904C27.0807 81.6904 26.5179 82.0436 26.2217 82.75V88H24.957V80.6035H26.1875L26.208 81.458C26.6227 80.7972 27.2106 80.4668 27.9717 80.4668C28.2178 80.4668 28.4046 80.4987 28.5322 80.5625V81.7383ZM32.6338 88.1367C31.6312 88.1367 30.8154 87.8086 30.1865 87.1523C29.5576 86.4915 29.2432 85.6097 29.2432 84.5068V84.2744C29.2432 83.5407 29.3822 82.8867 29.6602 82.3125C29.9427 81.7337 30.3346 81.2826 30.8359 80.959C31.3418 80.6309 31.8887 80.4668 32.4766 80.4668C33.4382 80.4668 34.1855 80.7835 34.7188 81.417C35.252 82.0505 35.5186 82.9574 35.5186 84.1377V84.6641H30.5078C30.526 85.3932 30.738 85.9834 31.1436 86.4346C31.5537 86.8812 32.0732 87.1045 32.7021 87.1045C33.1488 87.1045 33.527 87.0133 33.8369 86.8311C34.1468 86.6488 34.418 86.4072 34.6504 86.1064L35.4229 86.708C34.8031 87.6605 33.8734 88.1367 32.6338 88.1367ZM32.4766 81.5059C31.9661 81.5059 31.5378 81.6927 31.1914 82.0664C30.8451 82.4355 30.6309 82.9551 30.5488 83.625H34.2539V83.5293C34.2174 82.8867 34.0443 82.39 33.7344 82.0391C33.4245 81.6836 33.0052 81.5059 32.4766 81.5059ZM38.1777 80.6035L38.2119 81.4238C38.7542 80.7858 39.4857 80.4668 40.4062 80.4668C41.4408 80.4668 42.1449 80.8633 42.5186 81.6562C42.7646 81.3008 43.0837 81.0137 43.4756 80.7949C43.8721 80.5762 44.3392 80.4668 44.877 80.4668C46.4993 80.4668 47.3242 81.3258 47.3516 83.0439V88H46.0869V83.1191C46.0869 82.5905 45.9661 82.1963 45.7246 81.9365C45.4831 81.6722 45.0775 81.54 44.5078 81.54C44.0384 81.54 43.6488 81.6813 43.3389 81.9639C43.029 82.2419 42.849 82.6178 42.7988 83.0918V88H41.5273V83.1533C41.5273 82.0778 41.001 81.54 39.9482 81.54C39.1188 81.54 38.5514 81.8932 38.2461 82.5996V88H36.9814V80.6035H38.1777ZM48.9307 84.2334C48.9307 83.5088 49.0719 82.8571 49.3545 82.2783C49.6416 81.6995 50.0381 81.2529 50.5439 80.9385C51.0544 80.624 51.6354 80.4668 52.2871 80.4668C53.2943 80.4668 54.1077 80.8154 54.7275 81.5127C55.3519 82.21 55.6641 83.1374 55.6641 84.2949V84.3838C55.6641 85.1038 55.5251 85.751 55.2471 86.3252C54.9736 86.8949 54.5794 87.3392 54.0645 87.6582C53.554 87.9772 52.9661 88.1367 52.3008 88.1367C51.2982 88.1367 50.4847 87.7881 49.8604 87.0908C49.2406 86.3936 48.9307 85.4707 48.9307 84.3223V84.2334ZM50.2021 84.3838C50.2021 85.2041 50.3913 85.8626 50.7695 86.3594C51.1523 86.8561 51.6628 87.1045 52.3008 87.1045C52.9434 87.1045 53.4538 86.8538 53.832 86.3525C54.2103 85.8467 54.3994 85.1403 54.3994 84.2334C54.3994 83.4222 54.2057 82.766 53.8184 82.2646C53.4355 81.7588 52.9251 81.5059 52.2871 81.5059C51.6628 81.5059 51.1592 81.7542 50.7764 82.251C50.3936 82.7477 50.2021 83.4587 50.2021 84.3838ZM59.5811 86.2842L61.4131 80.6035H62.7051L60.0527 88H59.0889L56.4092 80.6035H57.7012L59.5811 86.2842ZM66.8955 88.1367C65.8929 88.1367 65.0771 87.8086 64.4482 87.1523C63.8193 86.4915 63.5049 85.6097 63.5049 84.5068V84.2744C63.5049 83.5407 63.6439 82.8867 63.9219 82.3125C64.2044 81.7337 64.5964 81.2826 65.0977 80.959C65.6035 80.6309 66.1504 80.4668 66.7383 80.4668C67.6999 80.4668 68.4473 80.7835 68.9805 81.417C69.5137 82.0505 69.7803 82.9574 69.7803 84.1377V84.6641H64.7695C64.7878 85.3932 64.9997 85.9834 65.4053 86.4346C65.8154 86.8812 66.335 87.1045 66.9639 87.1045C67.4105 87.1045 67.7887 87.0133 68.0986 86.8311C68.4085 86.6488 68.6797 86.4072 68.9121 86.1064L69.6846 86.708C69.0648 87.6605 68.1351 88.1367 66.8955 88.1367ZM66.7383 81.5059C66.2279 81.5059 65.7995 81.6927 65.4531 82.0664C65.1068 82.4355 64.8926 82.9551 64.8105 83.625H68.5156V83.5293C68.4792 82.8867 68.306 82.39 67.9961 82.0391C67.6862 81.6836 67.2669 81.5059 66.7383 81.5059ZM75.5566 86.0381C75.5566 85.6963 75.4268 85.432 75.167 85.2451C74.9118 85.0537 74.4629 84.8896 73.8203 84.7529C73.1823 84.6162 72.6742 84.4521 72.2959 84.2607C71.9222 84.0693 71.6442 83.8415 71.4619 83.5771C71.2842 83.3128 71.1953 82.9984 71.1953 82.6338C71.1953 82.0277 71.4505 81.515 71.9609 81.0957C72.4759 80.6764 73.1322 80.4668 73.9297 80.4668C74.7682 80.4668 75.4473 80.6833 75.9668 81.1162C76.4909 81.5492 76.7529 82.1029 76.7529 82.7773H75.4814C75.4814 82.431 75.3333 82.1325 75.0371 81.8818C74.7454 81.6312 74.3763 81.5059 73.9297 81.5059C73.4694 81.5059 73.1094 81.6061 72.8496 81.8066C72.5898 82.0072 72.46 82.2692 72.46 82.5928C72.46 82.8981 72.5807 83.1283 72.8223 83.2832C73.0638 83.4382 73.499 83.5863 74.1279 83.7275C74.7614 83.8688 75.2741 84.0374 75.666 84.2334C76.0579 84.4294 76.3473 84.6663 76.5342 84.9443C76.7256 85.2178 76.8213 85.5527 76.8213 85.9492C76.8213 86.61 76.557 87.141 76.0283 87.542C75.4997 87.9385 74.8138 88.1367 73.9707 88.1367C73.3783 88.1367 72.8542 88.0319 72.3984 87.8223C71.9427 87.6126 71.585 87.321 71.3252 86.9473C71.07 86.569 70.9424 86.1611 70.9424 85.7236H72.207C72.2298 86.1475 72.3984 86.4847 72.7129 86.7354C73.0319 86.9814 73.4512 87.1045 73.9707 87.1045C74.4492 87.1045 74.832 87.0088 75.1191 86.8174C75.4108 86.6214 75.5566 86.3617 75.5566 86.0381ZM86.248 86.0381C86.248 85.6963 86.1182 85.432 85.8584 85.2451C85.6032 85.0537 85.1543 84.8896 84.5117 84.7529C83.8737 84.6162 83.3656 84.4521 82.9873 84.2607C82.6136 84.0693 82.3356 83.8415 82.1533 83.5771C81.9756 83.3128 81.8867 82.9984 81.8867 82.6338C81.8867 82.0277 82.1419 81.515 82.6523 81.0957C83.1673 80.6764 83.8236 80.4668 84.6211 80.4668C85.4596 80.4668 86.1387 80.6833 86.6582 81.1162C87.1823 81.5492 87.4443 82.1029 87.4443 82.7773H86.1729C86.1729 82.431 86.0247 82.1325 85.7285 81.8818C85.4368 81.6312 85.0677 81.5059 84.6211 81.5059C84.1608 81.5059 83.8008 81.6061 83.541 81.8066C83.2812 82.0072 83.1514 82.2692 83.1514 82.5928C83.1514 82.8981 83.2721 83.1283 83.5137 83.2832C83.7552 83.4382 84.1904 83.5863 84.8193 83.7275C85.4528 83.8688 85.9655 84.0374 86.3574 84.2334C86.7493 84.4294 87.0387 84.6663 87.2256 84.9443C87.417 85.2178 87.5127 85.5527 87.5127 85.9492C87.5127 86.61 87.2484 87.141 86.7197 87.542C86.1911 87.9385 85.5052 88.1367 84.6621 88.1367C84.0697 88.1367 83.5456 88.0319 83.0898 87.8223C82.6341 87.6126 82.2764 87.321 82.0166 86.9473C81.7614 86.569 81.6338 86.1611 81.6338 85.7236H82.8984C82.9212 86.1475 83.0898 86.4847 83.4043 86.7354C83.7233 86.9814 84.1426 87.1045 84.6621 87.1045C85.1406 87.1045 85.5234 87.0088 85.8105 86.8174C86.1022 86.6214 86.248 86.3617 86.248 86.0381ZM88.8252 84.2334C88.8252 83.5088 88.9665 82.8571 89.249 82.2783C89.5361 81.6995 89.9326 81.2529 90.4385 80.9385C90.9489 80.624 91.5299 80.4668 92.1816 80.4668C93.1888 80.4668 94.0023 80.8154 94.6221 81.5127C95.2464 82.21 95.5586 83.1374 95.5586 84.2949V84.3838C95.5586 85.1038 95.4196 85.751 95.1416 86.3252C94.8682 86.8949 94.474 87.3392 93.959 87.6582C93.4486 87.9772 92.8607 88.1367 92.1953 88.1367C91.1927 88.1367 90.3792 87.7881 89.7549 87.0908C89.1351 86.3936 88.8252 85.4707 88.8252 84.3223V84.2334ZM90.0967 84.3838C90.0967 85.2041 90.2858 85.8626 90.6641 86.3594C91.0469 86.8561 91.5573 87.1045 92.1953 87.1045C92.8379 87.1045 93.3483 86.8538 93.7266 86.3525C94.1048 85.8467 94.2939 85.1403 94.2939 84.2334C94.2939 83.4222 94.1003 82.766 93.7129 82.2646C93.3301 81.7588 92.8197 81.5059 92.1816 81.5059C91.5573 81.5059 91.0537 81.7542 90.6709 82.251C90.2881 82.7477 90.0967 83.4587 90.0967 84.3838ZM98.334 80.6035L98.3682 81.4238C98.9105 80.7858 99.6419 80.4668 100.562 80.4668C101.597 80.4668 102.301 80.8633 102.675 81.6562C102.921 81.3008 103.24 81.0137 103.632 80.7949C104.028 80.5762 104.495 80.4668 105.033 80.4668C106.656 80.4668 107.48 81.3258 107.508 83.0439V88H106.243V83.1191C106.243 82.5905 106.122 82.1963 105.881 81.9365C105.639 81.6722 105.234 81.54 104.664 81.54C104.195 81.54 103.805 81.6813 103.495 81.9639C103.185 82.2419 103.005 82.6178 102.955 83.0918V88H101.684V83.1533C101.684 82.0778 101.157 81.54 100.104 81.54C99.2751 81.54 98.7077 81.8932 98.4023 82.5996V88H97.1377V80.6035H98.334ZM112.491 88.1367C111.489 88.1367 110.673 87.8086 110.044 87.1523C109.415 86.4915 109.101 85.6097 109.101 84.5068V84.2744C109.101 83.5407 109.24 82.8867 109.518 82.3125C109.8 81.7337 110.192 81.2826 110.693 80.959C111.199 80.6309 111.746 80.4668 112.334 80.4668C113.296 80.4668 114.043 80.7835 114.576 81.417C115.109 82.0505 115.376 82.9574 115.376 84.1377V84.6641H110.365C110.383 85.3932 110.595 85.9834 111.001 86.4346C111.411 86.8812 111.931 87.1045 112.56 87.1045C113.006 87.1045 113.384 87.0133 113.694 86.8311C114.004 86.6488 114.275 86.4072 114.508 86.1064L115.28 86.708C114.66 87.6605 113.731 88.1367 112.491 88.1367ZM112.334 81.5059C111.824 81.5059 111.395 81.6927 111.049 82.0664C110.702 82.4355 110.488 82.9551 110.406 83.625H114.111V83.5293C114.075 82.8867 113.902 82.39 113.592 82.0391C113.282 81.6836 112.863 81.5059 112.334 81.5059ZM127.523 78.0469V84.8145C127.519 85.7533 127.223 86.5212 126.635 87.1182C126.051 87.7152 125.258 88.0501 124.256 88.123L123.907 88.1367C122.818 88.1367 121.95 87.8428 121.303 87.2549C120.656 86.667 120.327 85.8581 120.318 84.8281V78.0469H121.617V84.7871C121.617 85.5072 121.815 86.0677 122.212 86.4688C122.608 86.8652 123.174 87.0635 123.907 87.0635C124.65 87.0635 125.217 86.8652 125.609 86.4688C126.006 86.0723 126.204 85.514 126.204 84.7939V78.0469H127.523ZM131.003 88H129.69V78.0469H131.003V88ZM139.65 87.1045C140.102 87.1045 140.496 86.9678 140.833 86.6943C141.17 86.4209 141.357 86.0791 141.394 85.6689H142.59C142.567 86.0928 142.421 86.4961 142.152 86.8789C141.883 87.2617 141.523 87.5671 141.072 87.7949C140.626 88.0228 140.152 88.1367 139.65 88.1367C138.643 88.1367 137.841 87.8018 137.244 87.1318C136.652 86.4574 136.355 85.5368 136.355 84.3701V84.1582C136.355 83.4382 136.488 82.7979 136.752 82.2373C137.016 81.6768 137.395 81.2415 137.887 80.9316C138.383 80.6217 138.969 80.4668 139.644 80.4668C140.473 80.4668 141.161 80.7152 141.708 81.2119C142.259 81.7087 142.553 82.3535 142.59 83.1465H141.394C141.357 82.668 141.175 82.276 140.847 81.9707C140.523 81.6608 140.122 81.5059 139.644 81.5059C139.001 81.5059 138.502 81.7383 138.146 82.2031C137.796 82.6634 137.62 83.3311 137.62 84.2061V84.4453C137.62 85.2975 137.796 85.9538 138.146 86.4141C138.497 86.8743 138.999 87.1045 139.65 87.1045ZM143.677 84.2334C143.677 83.5088 143.818 82.8571 144.101 82.2783C144.388 81.6995 144.784 81.2529 145.29 80.9385C145.8 80.624 146.382 80.4668 147.033 80.4668C148.04 80.4668 148.854 80.8154 149.474 81.5127C150.098 82.21 150.41 83.1374 150.41 84.2949V84.3838C150.41 85.1038 150.271 85.751 149.993 86.3252C149.72 86.8949 149.326 87.3392 148.811 87.6582C148.3 87.9772 147.712 88.1367 147.047 88.1367C146.044 88.1367 145.231 87.7881 144.606 87.0908C143.987 86.3936 143.677 85.4707 143.677 84.3223V84.2334ZM144.948 84.3838C144.948 85.2041 145.137 85.8626 145.516 86.3594C145.898 86.8561 146.409 87.1045 147.047 87.1045C147.689 87.1045 148.2 86.8538 148.578 86.3525C148.956 85.8467 149.146 85.1403 149.146 84.2334C149.146 83.4222 148.952 82.766 148.564 82.2646C148.182 81.7588 147.671 81.5059 147.033 81.5059C146.409 81.5059 145.905 81.7542 145.522 82.251C145.14 82.7477 144.948 83.4587 144.948 84.3838ZM153.186 80.6035L153.22 81.4238C153.762 80.7858 154.493 80.4668 155.414 80.4668C156.449 80.4668 157.153 80.8633 157.526 81.6562C157.772 81.3008 158.091 81.0137 158.483 80.7949C158.88 80.5762 159.347 80.4668 159.885 80.4668C161.507 80.4668 162.332 81.3258 162.359 83.0439V88H161.095V83.1191C161.095 82.5905 160.974 82.1963 160.732 81.9365C160.491 81.6722 160.085 81.54 159.516 81.54C159.046 81.54 158.657 81.6813 158.347 81.9639C158.037 82.2419 157.857 82.6178 157.807 83.0918V88H156.535V83.1533C156.535 82.0778 156.009 81.54 154.956 81.54C154.127 81.54 153.559 81.8932 153.254 82.5996V88H151.989V80.6035H153.186ZM170.521 84.3838C170.521 85.5094 170.264 86.4163 169.749 87.1045C169.234 87.7926 168.537 88.1367 167.657 88.1367C166.759 88.1367 166.053 87.8519 165.538 87.2822V90.8438H164.273V80.6035H165.429L165.49 81.4238C166.005 80.7858 166.721 80.4668 167.637 80.4668C168.525 80.4668 169.227 80.8018 169.742 81.4717C170.262 82.1416 170.521 83.0736 170.521 84.2676V84.3838ZM169.257 84.2402C169.257 83.4062 169.079 82.7477 168.724 82.2646C168.368 81.7816 167.881 81.54 167.261 81.54C166.495 81.54 165.921 81.8796 165.538 82.5586V86.0928C165.916 86.7673 166.495 87.1045 167.274 87.1045C167.881 87.1045 168.361 86.8652 168.717 86.3867C169.077 85.9036 169.257 85.1882 169.257 84.2402ZM171.8 84.2334C171.8 83.5088 171.941 82.8571 172.224 82.2783C172.511 81.6995 172.907 81.2529 173.413 80.9385C173.924 80.624 174.505 80.4668 175.156 80.4668C176.163 80.4668 176.977 80.8154 177.597 81.5127C178.221 82.21 178.533 83.1374 178.533 84.2949V84.3838C178.533 85.1038 178.394 85.751 178.116 86.3252C177.843 86.8949 177.449 87.3392 176.934 87.6582C176.423 87.9772 175.835 88.1367 175.17 88.1367C174.167 88.1367 173.354 87.7881 172.729 87.0908C172.11 86.3936 171.8 85.4707 171.8 84.3223V84.2334ZM173.071 84.3838C173.071 85.2041 173.26 85.8626 173.639 86.3594C174.021 86.8561 174.532 87.1045 175.17 87.1045C175.812 87.1045 176.323 86.8538 176.701 86.3525C177.079 85.8467 177.269 85.1403 177.269 84.2334C177.269 83.4222 177.075 82.766 176.688 82.2646C176.305 81.7588 175.794 81.5059 175.156 81.5059C174.532 81.5059 174.028 81.7542 173.646 82.251C173.263 82.7477 173.071 83.4587 173.071 84.3838ZM181.315 80.6035L181.356 81.5332C181.922 80.8223 182.66 80.4668 183.571 80.4668C185.134 80.4668 185.923 81.3486 185.937 83.1123V88H184.672V83.1055C184.667 82.5723 184.544 82.1781 184.303 81.9229C184.066 81.6676 183.694 81.54 183.188 81.54C182.778 81.54 182.418 81.6494 182.108 81.8682C181.799 82.0869 181.557 82.374 181.384 82.7295V88H180.119V80.6035H181.315ZM190.913 88.1367C189.91 88.1367 189.095 87.8086 188.466 87.1523C187.837 86.4915 187.522 85.6097 187.522 84.5068V84.2744C187.522 83.5407 187.661 82.8867 187.939 82.3125C188.222 81.7337 188.614 81.2826 189.115 80.959C189.621 80.6309 190.168 80.4668 190.756 80.4668C191.717 80.4668 192.465 80.7835 192.998 81.417C193.531 82.0505 193.798 82.9574 193.798 84.1377V84.6641H188.787C188.805 85.3932 189.017 85.9834 189.423 86.4346C189.833 86.8812 190.353 87.1045 190.981 87.1045C191.428 87.1045 191.806 87.0133 192.116 86.8311C192.426 86.6488 192.697 86.4072 192.93 86.1064L193.702 86.708C193.082 87.6605 192.153 88.1367 190.913 88.1367ZM190.756 81.5059C190.245 81.5059 189.817 81.6927 189.471 82.0664C189.124 82.4355 188.91 82.9551 188.828 83.625H192.533V83.5293C192.497 82.8867 192.324 82.39 192.014 82.0391C191.704 81.6836 191.285 81.5059 190.756 81.5059ZM196.464 80.6035L196.505 81.5332C197.07 80.8223 197.808 80.4668 198.72 80.4668C200.283 80.4668 201.071 81.3486 201.085 83.1123V88H199.82V83.1055C199.816 82.5723 199.693 82.1781 199.451 81.9229C199.214 81.6676 198.843 81.54 198.337 81.54C197.927 81.54 197.567 81.6494 197.257 81.8682C196.947 82.0869 196.705 82.374 196.532 82.7295V88H195.268V80.6035H196.464ZM204.708 78.8125V80.6035H206.089V81.5811H204.708V86.168C204.708 86.4642 204.77 86.6875 204.893 86.8379C205.016 86.9837 205.225 87.0566 205.521 87.0566C205.667 87.0566 205.868 87.0293 206.123 86.9746V88C205.79 88.0911 205.467 88.1367 205.152 88.1367C204.587 88.1367 204.161 87.9658 203.874 87.624C203.587 87.2822 203.443 86.7969 203.443 86.168V81.5811H202.097V80.6035H203.443V78.8125H204.708ZM211.879 86.0381C211.879 85.6963 211.749 85.432 211.489 85.2451C211.234 85.0537 210.785 84.8896 210.143 84.7529C209.505 84.6162 208.996 84.4521 208.618 84.2607C208.244 84.0693 207.966 83.8415 207.784 83.5771C207.606 83.3128 207.518 82.9984 207.518 82.6338C207.518 82.0277 207.773 81.515 208.283 81.0957C208.798 80.6764 209.454 80.4668 210.252 80.4668C211.09 80.4668 211.77 80.6833 212.289 81.1162C212.813 81.5492 213.075 82.1029 213.075 82.7773H211.804C211.804 82.431 211.656 82.1325 211.359 81.8818C211.068 81.6312 210.699 81.5059 210.252 81.5059C209.792 81.5059 209.432 81.6061 209.172 81.8066C208.912 82.0072 208.782 82.2692 208.782 82.5928C208.782 82.8981 208.903 83.1283 209.145 83.2832C209.386 83.4382 209.821 83.5863 210.45 83.7275C211.084 83.8688 211.596 84.0374 211.988 84.2334C212.38 84.4294 212.67 84.6663 212.856 84.9443C213.048 85.2178 213.144 85.5527 213.144 85.9492C213.144 86.61 212.879 87.141 212.351 87.542C211.822 87.9385 211.136 88.1367 210.293 88.1367C209.701 88.1367 209.176 88.0319 208.721 87.8223C208.265 87.6126 207.907 87.321 207.647 86.9473C207.392 86.569 207.265 86.1611 207.265 85.7236H208.529C208.552 86.1475 208.721 86.4847 209.035 86.7354C209.354 86.9814 209.773 87.1045 210.293 87.1045C210.771 87.1045 211.154 87.0088 211.441 86.8174C211.733 86.6214 211.879 86.3617 211.879 86.0381ZM222.83 88C222.757 87.8542 222.698 87.5944 222.652 87.2207C222.064 87.8314 221.363 88.1367 220.547 88.1367C219.818 88.1367 219.218 87.9316 218.749 87.5215C218.284 87.1068 218.052 86.5827 218.052 85.9492C218.052 85.179 218.343 84.582 218.927 84.1582C219.515 83.7298 220.34 83.5156 221.401 83.5156H222.632V82.9346C222.632 82.4925 222.5 82.1416 222.235 81.8818C221.971 81.6175 221.581 81.4854 221.066 81.4854C220.615 81.4854 220.237 81.5993 219.932 81.8271C219.626 82.055 219.474 82.3307 219.474 82.6543H218.202C218.202 82.2852 218.332 81.9297 218.592 81.5879C218.856 81.2415 219.212 80.9681 219.658 80.7676C220.109 80.5671 220.604 80.4668 221.142 80.4668C221.994 80.4668 222.661 80.681 223.145 81.1094C223.628 81.5332 223.878 82.1188 223.896 82.8662V86.2705C223.896 86.9495 223.983 87.4896 224.156 87.8906V88H222.83ZM220.731 87.0361C221.128 87.0361 221.504 86.9336 221.859 86.7285C222.215 86.5234 222.472 86.2568 222.632 85.9287V84.4111H221.641C220.091 84.4111 219.316 84.8646 219.316 85.7715C219.316 86.168 219.449 86.4779 219.713 86.7012C219.977 86.9245 220.317 87.0361 220.731 87.0361ZM227.075 80.6035L227.116 81.5332C227.681 80.8223 228.42 80.4668 229.331 80.4668C230.894 80.4668 231.683 81.3486 231.696 83.1123V88H230.432V83.1055C230.427 82.5723 230.304 82.1781 230.062 81.9229C229.826 81.6676 229.454 81.54 228.948 81.54C228.538 81.54 228.178 81.6494 227.868 81.8682C227.558 82.0869 227.317 82.374 227.144 82.7295V88H225.879V80.6035H227.075ZM233.296 84.2402C233.296 83.1055 233.565 82.194 234.103 81.5059C234.64 80.8132 235.344 80.4668 236.215 80.4668C237.081 80.4668 237.767 80.763 238.272 81.3555V77.5H239.537V88H238.375L238.313 87.207C237.808 87.8268 237.104 88.1367 236.201 88.1367C235.344 88.1367 234.645 87.7858 234.103 87.084C233.565 86.3822 233.296 85.4661 233.296 84.3359V84.2402ZM234.561 84.3838C234.561 85.2223 234.734 85.8786 235.08 86.3525C235.426 86.8265 235.905 87.0635 236.516 87.0635C237.318 87.0635 237.903 86.7035 238.272 85.9834V82.5859C237.894 81.8887 237.313 81.54 236.529 81.54C235.91 81.54 235.426 81.7793 235.08 82.2578C234.734 82.7363 234.561 83.445 234.561 84.3838ZM249.285 86.0381C249.285 85.6963 249.155 85.432 248.896 85.2451C248.64 85.0537 248.191 84.8896 247.549 84.7529C246.911 84.6162 246.403 84.4521 246.024 84.2607C245.651 84.0693 245.373 83.8415 245.19 83.5771C245.013 83.3128 244.924 82.9984 244.924 82.6338C244.924 82.0277 245.179 81.515 245.689 81.0957C246.204 80.6764 246.861 80.4668 247.658 80.4668C248.497 80.4668 249.176 80.6833 249.695 81.1162C250.219 81.5492 250.481 82.1029 250.481 82.7773H249.21C249.21 82.431 249.062 82.1325 248.766 81.8818C248.474 81.6312 248.105 81.5059 247.658 81.5059C247.198 81.5059 246.838 81.6061 246.578 81.8066C246.318 82.0072 246.188 82.2692 246.188 82.5928C246.188 82.8981 246.309 83.1283 246.551 83.2832C246.792 83.4382 247.228 83.5863 247.856 83.7275C248.49 83.8688 249.003 84.0374 249.395 84.2334C249.786 84.4294 250.076 84.6663 250.263 84.9443C250.454 85.2178 250.55 85.5527 250.55 85.9492C250.55 86.61 250.285 87.141 249.757 87.542C249.228 87.9385 248.542 88.1367 247.699 88.1367C247.107 88.1367 246.583 88.0319 246.127 87.8223C245.671 87.6126 245.313 87.321 245.054 86.9473C244.799 86.569 244.671 86.1611 244.671 85.7236H245.936C245.958 86.1475 246.127 86.4847 246.441 86.7354C246.76 86.9814 247.18 87.1045 247.699 87.1045C248.178 87.1045 248.561 87.0088 248.848 86.8174C249.139 86.6214 249.285 86.3617 249.285 86.0381ZM256.764 87.2686C256.271 87.8473 255.549 88.1367 254.597 88.1367C253.808 88.1367 253.207 87.9089 252.792 87.4531C252.382 86.9928 252.174 86.3138 252.17 85.416V80.6035H253.435V85.3818C253.435 86.5029 253.89 87.0635 254.802 87.0635C255.768 87.0635 256.41 86.7035 256.729 85.9834V80.6035H257.994V88H256.791L256.764 87.2686ZM266.184 84.3838C266.184 85.514 265.924 86.4232 265.404 87.1113C264.885 87.7949 264.188 88.1367 263.312 88.1367C262.378 88.1367 261.656 87.8063 261.146 87.1455L261.084 88H259.922V77.5H261.187V81.417C261.697 80.7835 262.401 80.4668 263.299 80.4668C264.197 80.4668 264.901 80.8063 265.411 81.4854C265.926 82.1644 266.184 83.0941 266.184 84.2744V84.3838ZM264.919 84.2402C264.919 83.3789 264.753 82.7135 264.42 82.2441C264.087 81.7747 263.609 81.54 262.984 81.54C262.15 81.54 261.551 81.9274 261.187 82.7021V85.9014C261.574 86.6761 262.178 87.0635 262.998 87.0635C263.604 87.0635 264.076 86.8288 264.413 86.3594C264.75 85.89 264.919 85.1836 264.919 84.2402ZM272.09 86.0381C272.09 85.6963 271.96 85.432 271.7 85.2451C271.445 85.0537 270.996 84.8896 270.354 84.7529C269.715 84.6162 269.207 84.4521 268.829 84.2607C268.455 84.0693 268.177 83.8415 267.995 83.5771C267.817 83.3128 267.729 82.9984 267.729 82.6338C267.729 82.0277 267.984 81.515 268.494 81.0957C269.009 80.6764 269.665 80.4668 270.463 80.4668C271.301 80.4668 271.98 80.6833 272.5 81.1162C273.024 81.5492 273.286 82.1029 273.286 82.7773H272.015C272.015 82.431 271.867 82.1325 271.57 81.8818C271.279 81.6312 270.91 81.5059 270.463 81.5059C270.003 81.5059 269.643 81.6061 269.383 81.8066C269.123 82.0072 268.993 82.2692 268.993 82.5928C268.993 82.8981 269.114 83.1283 269.355 83.2832C269.597 83.4382 270.032 83.5863 270.661 83.7275C271.295 83.8688 271.807 84.0374 272.199 84.2334C272.591 84.4294 272.881 84.6663 273.067 84.9443C273.259 85.2178 273.354 85.5527 273.354 85.9492C273.354 86.61 273.09 87.141 272.562 87.542C272.033 87.9385 271.347 88.1367 270.504 88.1367C269.911 88.1367 269.387 88.0319 268.932 87.8223C268.476 87.6126 268.118 87.321 267.858 86.9473C267.603 86.569 267.476 86.1611 267.476 85.7236H268.74C268.763 86.1475 268.932 86.4847 269.246 86.7354C269.565 86.9814 269.984 87.1045 270.504 87.1045C270.982 87.1045 271.365 87.0088 271.652 86.8174C271.944 86.6214 272.09 86.3617 272.09 86.0381ZM276.718 78.8125V80.6035H278.099V81.5811H276.718V86.168C276.718 86.4642 276.779 86.6875 276.902 86.8379C277.025 86.9837 277.235 87.0566 277.531 87.0566C277.677 87.0566 277.878 87.0293 278.133 86.9746V88C277.8 88.0911 277.477 88.1367 277.162 88.1367C276.597 88.1367 276.171 87.9658 275.884 87.624C275.597 87.2822 275.453 86.7969 275.453 86.168V81.5811H274.106V80.6035H275.453V78.8125H276.718ZM280.956 88H279.691V80.6035H280.956V88ZM279.589 78.6416C279.589 78.4365 279.65 78.2633 279.773 78.1221C279.901 77.9808 280.088 77.9102 280.334 77.9102C280.58 77.9102 280.767 77.9808 280.895 78.1221C281.022 78.2633 281.086 78.4365 281.086 78.6416C281.086 78.8467 281.022 79.0176 280.895 79.1543C280.767 79.291 280.58 79.3594 280.334 79.3594C280.088 79.3594 279.901 79.291 279.773 79.1543C279.65 79.0176 279.589 78.8467 279.589 78.6416ZM284.702 78.8125V80.6035H286.083V81.5811H284.702V86.168C284.702 86.4642 284.764 86.6875 284.887 86.8379C285.01 86.9837 285.219 87.0566 285.516 87.0566C285.661 87.0566 285.862 87.0293 286.117 86.9746V88C285.785 88.0911 285.461 88.1367 285.146 88.1367C284.581 88.1367 284.155 87.9658 283.868 87.624C283.581 87.2822 283.438 86.7969 283.438 86.168V81.5811H282.091V80.6035H283.438V78.8125H284.702ZM292.133 87.2686C291.641 87.8473 290.918 88.1367 289.966 88.1367C289.177 88.1367 288.576 87.9089 288.161 87.4531C287.751 86.9928 287.544 86.3138 287.539 85.416V80.6035H288.804V85.3818C288.804 86.5029 289.259 87.0635 290.171 87.0635C291.137 87.0635 291.78 86.7035 292.099 85.9834V80.6035H293.363V88H292.16L292.133 87.2686ZM297.007 78.8125V80.6035H298.388V81.5811H297.007V86.168C297.007 86.4642 297.068 86.6875 297.191 86.8379C297.314 86.9837 297.524 87.0566 297.82 87.0566C297.966 87.0566 298.167 87.0293 298.422 86.9746V88C298.089 88.0911 297.766 88.1367 297.451 88.1367C296.886 88.1367 296.46 87.9658 296.173 87.624C295.886 87.2822 295.742 86.7969 295.742 86.168V81.5811H294.396V80.6035H295.742V78.8125H297.007ZM302.94 88.1367C301.938 88.1367 301.122 87.8086 300.493 87.1523C299.864 86.4915 299.55 85.6097 299.55 84.5068V84.2744C299.55 83.5407 299.689 82.8867 299.967 82.3125C300.249 81.7337 300.641 81.2826 301.143 80.959C301.648 80.6309 302.195 80.4668 302.783 80.4668C303.745 80.4668 304.492 80.7835 305.025 81.417C305.559 82.0505 305.825 82.9574 305.825 84.1377V84.6641H300.814C300.833 85.3932 301.045 85.9834 301.45 86.4346C301.86 86.8812 302.38 87.1045 303.009 87.1045C303.455 87.1045 303.834 87.0133 304.144 86.8311C304.453 86.6488 304.725 86.4072 304.957 86.1064L305.729 86.708C305.11 87.6605 304.18 88.1367 302.94 88.1367ZM302.783 81.5059C302.273 81.5059 301.844 81.6927 301.498 82.0664C301.152 82.4355 300.938 82.9551 300.855 83.625H304.561V83.5293C304.524 82.8867 304.351 82.39 304.041 82.0391C303.731 81.6836 303.312 81.5059 302.783 81.5059ZM311.602 86.0381C311.602 85.6963 311.472 85.432 311.212 85.2451C310.957 85.0537 310.508 84.8896 309.865 84.7529C309.227 84.6162 308.719 84.4521 308.341 84.2607C307.967 84.0693 307.689 83.8415 307.507 83.5771C307.329 83.3128 307.24 82.9984 307.24 82.6338C307.24 82.0277 307.495 81.515 308.006 81.0957C308.521 80.6764 309.177 80.4668 309.975 80.4668C310.813 80.4668 311.492 80.6833 312.012 81.1162C312.536 81.5492 312.798 82.1029 312.798 82.7773H311.526C311.526 82.431 311.378 82.1325 311.082 81.8818C310.79 81.6312 310.421 81.5059 309.975 81.5059C309.514 81.5059 309.154 81.6061 308.895 81.8066C308.635 82.0072 308.505 82.2692 308.505 82.5928C308.505 82.8981 308.626 83.1283 308.867 83.2832C309.109 83.4382 309.544 83.5863 310.173 83.7275C310.806 83.8688 311.319 84.0374 311.711 84.2334C312.103 84.4294 312.392 84.6663 312.579 84.9443C312.771 85.2178 312.866 85.5527 312.866 85.9492C312.866 86.61 312.602 87.141 312.073 87.542C311.545 87.9385 310.859 88.1367 310.016 88.1367C309.423 88.1367 308.899 88.0319 308.443 87.8223C307.988 87.6126 307.63 87.321 307.37 86.9473C307.115 86.569 306.987 86.1611 306.987 85.7236H308.252C308.275 86.1475 308.443 86.4847 308.758 86.7354C309.077 86.9814 309.496 87.1045 310.016 87.1045C310.494 87.1045 310.877 87.0088 311.164 86.8174C311.456 86.6214 311.602 86.3617 311.602 86.0381ZM322.293 86.0381C322.293 85.6963 322.163 85.432 321.903 85.2451C321.648 85.0537 321.199 84.8896 320.557 84.7529C319.919 84.6162 319.41 84.4521 319.032 84.2607C318.659 84.0693 318.381 83.8415 318.198 83.5771C318.021 83.3128 317.932 82.9984 317.932 82.6338C317.932 82.0277 318.187 81.515 318.697 81.0957C319.212 80.6764 319.868 80.4668 320.666 80.4668C321.505 80.4668 322.184 80.6833 322.703 81.1162C323.227 81.5492 323.489 82.1029 323.489 82.7773H322.218C322.218 82.431 322.07 82.1325 321.773 81.8818C321.482 81.6312 321.113 81.5059 320.666 81.5059C320.206 81.5059 319.846 81.6061 319.586 81.8066C319.326 82.0072 319.196 82.2692 319.196 82.5928C319.196 82.8981 319.317 83.1283 319.559 83.2832C319.8 83.4382 320.235 83.5863 320.864 83.7275C321.498 83.8688 322.01 84.0374 322.402 84.2334C322.794 84.4294 323.084 84.6663 323.271 84.9443C323.462 85.2178 323.558 85.5527 323.558 85.9492C323.558 86.61 323.293 87.141 322.765 87.542C322.236 87.9385 321.55 88.1367 320.707 88.1367C320.115 88.1367 319.59 88.0319 319.135 87.8223C318.679 87.6126 318.321 87.321 318.062 86.9473C317.806 86.569 317.679 86.1611 317.679 85.7236H318.943C318.966 86.1475 319.135 86.4847 319.449 86.7354C319.768 86.9814 320.188 87.1045 320.707 87.1045C321.186 87.1045 321.568 87.0088 321.855 86.8174C322.147 86.6214 322.293 86.3617 322.293 86.0381ZM324.87 84.2334C324.87 83.5088 325.011 82.8571 325.294 82.2783C325.581 81.6995 325.978 81.2529 326.483 80.9385C326.994 80.624 327.575 80.4668 328.227 80.4668C329.234 80.4668 330.047 80.8154 330.667 81.5127C331.291 82.21 331.604 83.1374 331.604 84.2949V84.3838C331.604 85.1038 331.465 85.751 331.187 86.3252C330.913 86.8949 330.519 87.3392 330.004 87.6582C329.493 87.9772 328.906 88.1367 328.24 88.1367C327.238 88.1367 326.424 87.7881 325.8 87.0908C325.18 86.3936 324.87 85.4707 324.87 84.3223V84.2334ZM326.142 84.3838C326.142 85.2041 326.331 85.8626 326.709 86.3594C327.092 86.8561 327.602 87.1045 328.24 87.1045C328.883 87.1045 329.393 86.8538 329.771 86.3525C330.15 85.8467 330.339 85.1403 330.339 84.2334C330.339 83.4222 330.145 82.766 329.758 82.2646C329.375 81.7588 328.865 81.5059 328.227 81.5059C327.602 81.5059 327.099 81.7542 326.716 82.251C326.333 82.7477 326.142 83.4587 326.142 84.3838ZM334.379 80.6035L334.413 81.4238C334.955 80.7858 335.687 80.4668 336.607 80.4668C337.642 80.4668 338.346 80.8633 338.72 81.6562C338.966 81.3008 339.285 81.0137 339.677 80.7949C340.073 80.5762 340.54 80.4668 341.078 80.4668C342.701 80.4668 343.525 81.3258 343.553 83.0439V88H342.288V83.1191C342.288 82.5905 342.167 82.1963 341.926 81.9365C341.684 81.6722 341.279 81.54 340.709 81.54C340.24 81.54 339.85 81.6813 339.54 81.9639C339.23 82.2419 339.05 82.6178 339 83.0918V88H337.729V83.1533C337.729 82.0778 337.202 81.54 336.149 81.54C335.32 81.54 334.753 81.8932 334.447 82.5996V88H333.183V80.6035H334.379ZM348.536 88.1367C347.534 88.1367 346.718 87.8086 346.089 87.1523C345.46 86.4915 345.146 85.6097 345.146 84.5068V84.2744C345.146 83.5407 345.285 82.8867 345.562 82.3125C345.845 81.7337 346.237 81.2826 346.738 80.959C347.244 80.6309 347.791 80.4668 348.379 80.4668C349.34 80.4668 350.088 80.7835 350.621 81.417C351.154 82.0505 351.421 82.9574 351.421 84.1377V84.6641H346.41C346.428 85.3932 346.64 85.9834 347.046 86.4346C347.456 86.8812 347.976 87.1045 348.604 87.1045C349.051 87.1045 349.429 87.0133 349.739 86.8311C350.049 86.6488 350.32 86.4072 350.553 86.1064L351.325 86.708C350.705 87.6605 349.776 88.1367 348.536 88.1367ZM348.379 81.5059C347.868 81.5059 347.44 81.6927 347.094 82.0664C346.747 82.4355 346.533 82.9551 346.451 83.625H350.156V83.5293C350.12 82.8867 349.947 82.39 349.637 82.0391C349.327 81.6836 348.908 81.5059 348.379 81.5059ZM24.6221 102.233C24.6221 101.509 24.7633 100.857 25.0459 100.278C25.333 99.6995 25.7295 99.2529 26.2354 98.9385C26.7458 98.624 27.3268 98.4668 27.9785 98.4668C28.9857 98.4668 29.7992 98.8154 30.4189 99.5127C31.0433 100.21 31.3555 101.137 31.3555 102.295V102.384C31.3555 103.104 31.2165 103.751 30.9385 104.325C30.665 104.895 30.2708 105.339 29.7559 105.658C29.2454 105.977 28.6576 106.137 27.9922 106.137C26.9896 106.137 26.1761 105.788 25.5518 105.091C24.932 104.394 24.6221 103.471 24.6221 102.322V102.233ZM25.8936 102.384C25.8936 103.204 26.0827 103.863 26.4609 104.359C26.8438 104.856 27.3542 105.104 27.9922 105.104C28.6348 105.104 29.1452 104.854 29.5234 104.353C29.9017 103.847 30.0908 103.14 30.0908 102.233C30.0908 101.422 29.8971 100.766 29.5098 100.265C29.127 99.7588 28.6165 99.5059 27.9785 99.5059C27.3542 99.5059 26.8506 99.7542 26.4678 100.251C26.085 100.748 25.8936 101.459 25.8936 102.384ZM33.5635 106V99.5811H32.3945V98.6035H33.5635V97.8447C33.5635 97.0518 33.7754 96.4388 34.1992 96.0059C34.623 95.5729 35.2223 95.3564 35.9971 95.3564C36.2887 95.3564 36.5781 95.3952 36.8652 95.4727L36.7969 96.498C36.5827 96.457 36.3548 96.4365 36.1133 96.4365C35.7031 96.4365 35.3864 96.5573 35.1631 96.7988C34.9398 97.0358 34.8281 97.3776 34.8281 97.8242V98.6035H36.4072V99.5811H34.8281V106H33.5635ZM42.9971 96.8125V98.6035H44.3779V99.5811H42.9971V104.168C42.9971 104.464 43.0586 104.688 43.1816 104.838C43.3047 104.984 43.5143 105.057 43.8105 105.057C43.9564 105.057 44.1569 105.029 44.4121 104.975V106C44.0794 106.091 43.7559 106.137 43.4414 106.137C42.8763 106.137 42.4502 105.966 42.1631 105.624C41.876 105.282 41.7324 104.797 41.7324 104.168V99.5811H40.3857V98.6035H41.7324V96.8125H42.9971ZM47.126 99.499C47.6865 98.8109 48.4157 98.4668 49.3135 98.4668C50.8766 98.4668 51.665 99.3486 51.6787 101.112V106H50.4141V101.105C50.4095 100.572 50.2865 100.178 50.0449 99.9229C49.8079 99.6676 49.4365 99.54 48.9307 99.54C48.5205 99.54 48.1605 99.6494 47.8506 99.8682C47.5407 100.087 47.2992 100.374 47.126 100.729V106H45.8613V95.5H47.126V99.499ZM56.6416 106.137C55.639 106.137 54.8232 105.809 54.1943 105.152C53.5654 104.492 53.251 103.61 53.251 102.507V102.274C53.251 101.541 53.39 100.887 53.668 100.312C53.9505 99.7337 54.3424 99.2826 54.8438 98.959C55.3496 98.6309 55.8965 98.4668 56.4844 98.4668C57.446 98.4668 58.1934 98.7835 58.7266 99.417C59.2598 100.05 59.5264 100.957 59.5264 102.138V102.664H54.5156C54.5339 103.393 54.7458 103.983 55.1514 104.435C55.5615 104.881 56.0811 105.104 56.71 105.104C57.1566 105.104 57.5348 105.013 57.8447 104.831C58.1546 104.649 58.4258 104.407 58.6582 104.106L59.4307 104.708C58.8109 105.66 57.8812 106.137 56.6416 106.137ZM56.4844 99.5059C55.974 99.5059 55.5456 99.6927 55.1992 100.066C54.8529 100.436 54.6387 100.955 54.5566 101.625H58.2617V101.529C58.2253 100.887 58.0521 100.39 57.7422 100.039C57.4323 99.6836 57.013 99.5059 56.4844 99.5059ZM66.9092 104.284L68.7412 98.6035H70.0332L67.3809 106H66.417L63.7373 98.6035H65.0293L66.9092 104.284ZM75.707 106C75.6341 105.854 75.5749 105.594 75.5293 105.221C74.9414 105.831 74.2396 106.137 73.4238 106.137C72.6947 106.137 72.0954 105.932 71.626 105.521C71.1611 105.107 70.9287 104.583 70.9287 103.949C70.9287 103.179 71.2204 102.582 71.8037 102.158C72.3916 101.73 73.2165 101.516 74.2783 101.516H75.5088V100.935C75.5088 100.493 75.3766 100.142 75.1123 99.8818C74.848 99.6175 74.4583 99.4854 73.9434 99.4854C73.4922 99.4854 73.1139 99.5993 72.8086 99.8271C72.5033 100.055 72.3506 100.331 72.3506 100.654H71.0791C71.0791 100.285 71.209 99.9297 71.4688 99.5879C71.7331 99.2415 72.0885 98.9681 72.5352 98.7676C72.9863 98.5671 73.4808 98.4668 74.0186 98.4668C74.8708 98.4668 75.5384 98.681 76.0215 99.1094C76.5046 99.5332 76.7552 100.119 76.7734 100.866V104.271C76.7734 104.95 76.86 105.49 77.0332 105.891V106H75.707ZM73.6084 105.036C74.0049 105.036 74.3809 104.934 74.7363 104.729C75.0918 104.523 75.3493 104.257 75.5088 103.929V102.411H74.5176C72.9681 102.411 72.1934 102.865 72.1934 103.771C72.1934 104.168 72.3255 104.478 72.5898 104.701C72.8542 104.924 73.1937 105.036 73.6084 105.036ZM79.9521 98.6035L79.9932 99.5332C80.5583 98.8223 81.2965 98.4668 82.208 98.4668C83.7712 98.4668 84.5596 99.3486 84.5732 101.112V106H83.3086V101.105C83.304 100.572 83.181 100.178 82.9395 99.9229C82.7025 99.6676 82.3311 99.54 81.8252 99.54C81.415 99.54 81.055 99.6494 80.7451 99.8682C80.4352 100.087 80.1937 100.374 80.0205 100.729V106H78.7559V98.6035H79.9521ZM87.8545 106H86.5898V98.6035H87.8545V106ZM86.4873 96.6416C86.4873 96.4365 86.5488 96.2633 86.6719 96.1221C86.7995 95.9808 86.9863 95.9102 87.2324 95.9102C87.4785 95.9102 87.6654 95.9808 87.793 96.1221C87.9206 96.2633 87.9844 96.4365 87.9844 96.6416C87.9844 96.8467 87.9206 97.0176 87.793 97.1543C87.6654 97.291 87.4785 97.3594 87.2324 97.3594C86.9863 97.3594 86.7995 97.291 86.6719 97.1543C86.5488 97.0176 86.4873 96.8467 86.4873 96.6416ZM91.2588 106H89.9941V95.5H91.2588V106ZM94.6631 106H93.3984V95.5H94.6631V106ZM101.26 106C101.187 105.854 101.128 105.594 101.082 105.221C100.494 105.831 99.7923 106.137 98.9766 106.137C98.2474 106.137 97.6481 105.932 97.1787 105.521C96.7139 105.107 96.4814 104.583 96.4814 103.949C96.4814 103.179 96.7731 102.582 97.3564 102.158C97.9443 101.73 98.7692 101.516 99.8311 101.516H101.062V100.935C101.062 100.493 100.929 100.142 100.665 99.8818C100.401 99.6175 100.011 99.4854 99.4961 99.4854C99.0449 99.4854 98.6667 99.5993 98.3613 99.8271C98.056 100.055 97.9033 100.331 97.9033 100.654H96.6318C96.6318 100.285 96.7617 99.9297 97.0215 99.5879C97.2858 99.2415 97.6413 98.9681 98.0879 98.7676C98.5391 98.5671 99.0335 98.4668 99.5713 98.4668C100.424 98.4668 101.091 98.681 101.574 99.1094C102.057 99.5332 102.308 100.119 102.326 100.866V104.271C102.326 104.95 102.413 105.49 102.586 105.891V106H101.26ZM99.1611 105.036C99.5576 105.036 99.9336 104.934 100.289 104.729C100.645 104.523 100.902 104.257 101.062 103.929V102.411H100.07C98.5208 102.411 97.7461 102.865 97.7461 103.771C97.7461 104.168 97.8783 104.478 98.1426 104.701C98.4069 104.924 98.7464 105.036 99.1611 105.036ZM110.851 106.137C109.848 106.137 109.032 105.809 108.403 105.152C107.774 104.492 107.46 103.61 107.46 102.507V102.274C107.46 101.541 107.599 100.887 107.877 100.312C108.16 99.7337 108.551 99.2826 109.053 98.959C109.559 98.6309 110.105 98.4668 110.693 98.4668C111.655 98.4668 112.402 98.7835 112.936 99.417C113.469 100.05 113.735 100.957 113.735 102.138V102.664H108.725C108.743 103.393 108.955 103.983 109.36 104.435C109.771 104.881 110.29 105.104 110.919 105.104C111.366 105.104 111.744 105.013 112.054 104.831C112.364 104.649 112.635 104.407 112.867 104.106L113.64 104.708C113.02 105.66 112.09 106.137 110.851 106.137ZM110.693 99.5059C110.183 99.5059 109.755 99.6927 109.408 100.066C109.062 100.436 108.848 100.955 108.766 101.625H112.471V101.529C112.434 100.887 112.261 100.39 111.951 100.039C111.641 99.6836 111.222 99.5059 110.693 99.5059ZM116.579 106H115.314V95.5H116.579V106ZM121.679 106.137C120.676 106.137 119.86 105.809 119.231 105.152C118.603 104.492 118.288 103.61 118.288 102.507V102.274C118.288 101.541 118.427 100.887 118.705 100.312C118.988 99.7337 119.38 99.2826 119.881 98.959C120.387 98.6309 120.934 98.4668 121.521 98.4668C122.483 98.4668 123.23 98.7835 123.764 99.417C124.297 100.05 124.563 100.957 124.563 102.138V102.664H119.553C119.571 103.393 119.783 103.983 120.188 104.435C120.599 104.881 121.118 105.104 121.747 105.104C122.194 105.104 122.572 105.013 122.882 104.831C123.192 104.649 123.463 104.407 123.695 104.106L124.468 104.708C123.848 105.66 122.918 106.137 121.679 106.137ZM121.521 99.5059C121.011 99.5059 120.583 99.6927 120.236 100.066C119.89 100.436 119.676 100.955 119.594 101.625H123.299V101.529C123.262 100.887 123.089 100.39 122.779 100.039C122.469 99.6836 122.05 99.5059 121.521 99.5059ZM127.223 98.6035L127.257 99.4238C127.799 98.7858 128.531 98.4668 129.451 98.4668C130.486 98.4668 131.19 98.8633 131.563 99.6562C131.81 99.3008 132.129 99.0137 132.521 98.7949C132.917 98.5762 133.384 98.4668 133.922 98.4668C135.544 98.4668 136.369 99.3258 136.396 101.044V106H135.132V101.119C135.132 100.59 135.011 100.196 134.77 99.9365C134.528 99.6722 134.122 99.54 133.553 99.54C133.083 99.54 132.694 99.6813 132.384 99.9639C132.074 100.242 131.894 100.618 131.844 101.092V106H130.572V101.153C130.572 100.078 130.046 99.54 128.993 99.54C128.164 99.54 127.596 99.8932 127.291 100.6V106H126.026V98.6035H127.223ZM141.38 106.137C140.377 106.137 139.562 105.809 138.933 105.152C138.304 104.492 137.989 103.61 137.989 102.507V102.274C137.989 101.541 138.128 100.887 138.406 100.312C138.689 99.7337 139.081 99.2826 139.582 98.959C140.088 98.6309 140.635 98.4668 141.223 98.4668C142.184 98.4668 142.932 98.7835 143.465 99.417C143.998 100.05 144.265 100.957 144.265 102.138V102.664H139.254C139.272 103.393 139.484 103.983 139.89 104.435C140.3 104.881 140.819 105.104 141.448 105.104C141.895 105.104 142.273 105.013 142.583 104.831C142.893 104.649 143.164 104.407 143.396 104.106L144.169 104.708C143.549 105.66 142.619 106.137 141.38 106.137ZM141.223 99.5059C140.712 99.5059 140.284 99.6927 139.938 100.066C139.591 100.436 139.377 100.955 139.295 101.625H143V101.529C142.964 100.887 142.79 100.39 142.48 100.039C142.171 99.6836 141.751 99.5059 141.223 99.5059ZM146.931 98.6035L146.972 99.5332C147.537 98.8223 148.275 98.4668 149.187 98.4668C150.75 98.4668 151.538 99.3486 151.552 101.112V106H150.287V101.105C150.283 100.572 150.16 100.178 149.918 99.9229C149.681 99.6676 149.31 99.54 148.804 99.54C148.394 99.54 148.034 99.6494 147.724 99.8682C147.414 100.087 147.172 100.374 146.999 100.729V106H145.734V98.6035H146.931ZM155.175 96.8125V98.6035H156.556V99.5811H155.175V104.168C155.175 104.464 155.236 104.688 155.359 104.838C155.482 104.984 155.692 105.057 155.988 105.057C156.134 105.057 156.335 105.029 156.59 104.975V106C156.257 106.091 155.934 106.137 155.619 106.137C155.054 106.137 154.628 105.966 154.341 105.624C154.054 105.282 153.91 104.797 153.91 104.168V99.5811H152.563V98.6035H153.91V96.8125H155.175ZM162.346 104.038C162.346 103.696 162.216 103.432 161.956 103.245C161.701 103.054 161.252 102.89 160.609 102.753C159.971 102.616 159.463 102.452 159.085 102.261C158.711 102.069 158.433 101.841 158.251 101.577C158.073 101.313 157.984 100.998 157.984 100.634C157.984 100.028 158.24 99.515 158.75 99.0957C159.265 98.6764 159.921 98.4668 160.719 98.4668C161.557 98.4668 162.236 98.6833 162.756 99.1162C163.28 99.5492 163.542 100.103 163.542 100.777H162.271C162.271 100.431 162.122 100.132 161.826 99.8818C161.535 99.6312 161.165 99.5059 160.719 99.5059C160.258 99.5059 159.898 99.6061 159.639 99.8066C159.379 100.007 159.249 100.269 159.249 100.593C159.249 100.898 159.37 101.128 159.611 101.283C159.853 101.438 160.288 101.586 160.917 101.728C161.55 101.869 162.063 102.037 162.455 102.233C162.847 102.429 163.136 102.666 163.323 102.944C163.515 103.218 163.61 103.553 163.61 103.949C163.61 104.61 163.346 105.141 162.817 105.542C162.289 105.938 161.603 106.137 160.76 106.137C160.167 106.137 159.643 106.032 159.188 105.822C158.732 105.613 158.374 105.321 158.114 104.947C157.859 104.569 157.731 104.161 157.731 103.724H158.996C159.019 104.147 159.188 104.485 159.502 104.735C159.821 104.981 160.24 105.104 160.76 105.104C161.238 105.104 161.621 105.009 161.908 104.817C162.2 104.621 162.346 104.362 162.346 104.038ZM175.279 104.257L176.701 98.6035H177.966L175.812 106H174.787L172.989 100.395L171.239 106H170.214L168.067 98.6035H169.325L170.781 104.141L172.504 98.6035H173.522L175.279 104.257ZM180.632 106H179.367V98.6035H180.632V106ZM179.265 96.6416C179.265 96.4365 179.326 96.2633 179.449 96.1221C179.577 95.9808 179.764 95.9102 180.01 95.9102C180.256 95.9102 180.443 95.9808 180.57 96.1221C180.698 96.2633 180.762 96.4365 180.762 96.6416C180.762 96.8467 180.698 97.0176 180.57 97.1543C180.443 97.291 180.256 97.3594 180.01 97.3594C179.764 97.3594 179.577 97.291 179.449 97.1543C179.326 97.0176 179.265 96.8467 179.265 96.6416ZM184.378 96.8125V98.6035H185.759V99.5811H184.378V104.168C184.378 104.464 184.439 104.688 184.562 104.838C184.686 104.984 184.895 105.057 185.191 105.057C185.337 105.057 185.538 105.029 185.793 104.975V106C185.46 106.091 185.137 106.137 184.822 106.137C184.257 106.137 183.831 105.966 183.544 105.624C183.257 105.282 183.113 104.797 183.113 104.168V99.5811H181.767V98.6035H183.113V96.8125H184.378ZM188.507 99.499C189.067 98.8109 189.797 98.4668 190.694 98.4668C192.257 98.4668 193.046 99.3486 193.06 101.112V106H191.795V101.105C191.79 100.572 191.667 100.178 191.426 99.9229C191.189 99.6676 190.817 99.54 190.312 99.54C189.901 99.54 189.541 99.6494 189.231 99.8682C188.922 100.087 188.68 100.374 188.507 100.729V106H187.242V95.5H188.507V99.499ZM199.615 98.6035L199.649 99.4238C200.192 98.7858 200.923 98.4668 201.844 98.4668C202.878 98.4668 203.582 98.8633 203.956 99.6562C204.202 99.3008 204.521 99.0137 204.913 98.7949C205.31 98.5762 205.777 98.4668 206.314 98.4668C207.937 98.4668 208.762 99.3258 208.789 101.044V106H207.524V101.119C207.524 100.59 207.404 100.196 207.162 99.9365C206.921 99.6722 206.515 99.54 205.945 99.54C205.476 99.54 205.086 99.6813 204.776 99.9639C204.466 100.242 204.286 100.618 204.236 101.092V106H202.965V101.153C202.965 100.078 202.438 99.54 201.386 99.54C200.556 99.54 199.989 99.8932 199.684 100.6V106H198.419V98.6035H199.615ZM212.077 106H210.812V98.6035H212.077V106ZM210.71 96.6416C210.71 96.4365 210.771 96.2633 210.895 96.1221C211.022 95.9808 211.209 95.9102 211.455 95.9102C211.701 95.9102 211.888 95.9808 212.016 96.1221C212.143 96.2633 212.207 96.4365 212.207 96.6416C212.207 96.8467 212.143 97.0176 212.016 97.1543C211.888 97.291 211.701 97.3594 211.455 97.3594C211.209 97.3594 211.022 97.291 210.895 97.1543C210.771 97.0176 210.71 96.8467 210.71 96.6416ZM215.304 98.6035L215.345 99.5332C215.91 98.8223 216.648 98.4668 217.56 98.4668C219.123 98.4668 219.911 99.3486 219.925 101.112V106H218.66V101.105C218.656 100.572 218.533 100.178 218.291 99.9229C218.054 99.6676 217.683 99.54 217.177 99.54C216.767 99.54 216.407 99.6494 216.097 99.8682C215.787 100.087 215.545 100.374 215.372 100.729V106H214.107V98.6035H215.304ZM223.206 106H221.941V98.6035H223.206V106ZM221.839 96.6416C221.839 96.4365 221.9 96.2633 222.023 96.1221C222.151 95.9808 222.338 95.9102 222.584 95.9102C222.83 95.9102 223.017 95.9808 223.145 96.1221C223.272 96.2633 223.336 96.4365 223.336 96.6416C223.336 96.8467 223.272 97.0176 223.145 97.1543C223.017 97.291 222.83 97.3594 222.584 97.3594C222.338 97.3594 222.151 97.291 222.023 97.1543C221.9 97.0176 221.839 96.8467 221.839 96.6416ZM226.426 98.6035L226.46 99.4238C227.002 98.7858 227.734 98.4668 228.654 98.4668C229.689 98.4668 230.393 98.8633 230.767 99.6562C231.013 99.3008 231.332 99.0137 231.724 98.7949C232.12 98.5762 232.587 98.4668 233.125 98.4668C234.747 98.4668 235.572 99.3258 235.6 101.044V106H234.335V101.119C234.335 100.59 234.214 100.196 233.973 99.9365C233.731 99.6722 233.326 99.54 232.756 99.54C232.286 99.54 231.897 99.6813 231.587 99.9639C231.277 100.242 231.097 100.618 231.047 101.092V106H229.775V101.153C229.775 100.078 229.249 99.54 228.196 99.54C227.367 99.54 226.799 99.8932 226.494 100.6V106H225.229V98.6035H226.426ZM242.08 106C242.007 105.854 241.948 105.594 241.902 105.221C241.314 105.831 240.613 106.137 239.797 106.137C239.068 106.137 238.468 105.932 237.999 105.521C237.534 105.107 237.302 104.583 237.302 103.949C237.302 103.179 237.593 102.582 238.177 102.158C238.765 101.73 239.59 101.516 240.651 101.516H241.882V100.935C241.882 100.493 241.75 100.142 241.485 99.8818C241.221 99.6175 240.831 99.4854 240.316 99.4854C239.865 99.4854 239.487 99.5993 239.182 99.8271C238.876 100.055 238.724 100.331 238.724 100.654H237.452C237.452 100.285 237.582 99.9297 237.842 99.5879C238.106 99.2415 238.462 98.9681 238.908 98.7676C239.359 98.5671 239.854 98.4668 240.392 98.4668C241.244 98.4668 241.911 98.681 242.395 99.1094C242.878 99.5332 243.128 100.119 243.146 100.866V104.271C243.146 104.95 243.233 105.49 243.406 105.891V106H242.08ZM239.981 105.036C240.378 105.036 240.754 104.934 241.109 104.729C241.465 104.523 241.722 104.257 241.882 103.929V102.411H240.891C239.341 102.411 238.566 102.865 238.566 103.771C238.566 104.168 238.699 104.478 238.963 104.701C239.227 104.924 239.567 105.036 239.981 105.036ZM246.503 106H245.238V95.5H246.503V106ZM249.907 106H248.643V98.6035H249.907V106ZM248.54 96.6416C248.54 96.4365 248.602 96.2633 248.725 96.1221C248.852 95.9808 249.039 95.9102 249.285 95.9102C249.531 95.9102 249.718 95.9808 249.846 96.1221C249.973 96.2633 250.037 96.4365 250.037 96.6416C250.037 96.8467 249.973 97.0176 249.846 97.1543C249.718 97.291 249.531 97.3594 249.285 97.3594C249.039 97.3594 248.852 97.291 248.725 97.1543C248.602 97.0176 248.54 96.8467 248.54 96.6416ZM256.244 104.038C256.244 103.696 256.114 103.432 255.854 103.245C255.599 103.054 255.15 102.89 254.508 102.753C253.87 102.616 253.362 102.452 252.983 102.261C252.61 102.069 252.332 101.841 252.149 101.577C251.972 101.313 251.883 100.998 251.883 100.634C251.883 100.028 252.138 99.515 252.648 99.0957C253.163 98.6764 253.82 98.4668 254.617 98.4668C255.456 98.4668 256.135 98.6833 256.654 99.1162C257.178 99.5492 257.44 100.103 257.44 100.777H256.169C256.169 100.431 256.021 100.132 255.725 99.8818C255.433 99.6312 255.064 99.5059 254.617 99.5059C254.157 99.5059 253.797 99.6061 253.537 99.8066C253.277 100.007 253.147 100.269 253.147 100.593C253.147 100.898 253.268 101.128 253.51 101.283C253.751 101.438 254.187 101.586 254.815 101.728C255.449 101.869 255.962 102.037 256.354 102.233C256.745 102.429 257.035 102.666 257.222 102.944C257.413 103.218 257.509 103.553 257.509 103.949C257.509 104.61 257.244 105.141 256.716 105.542C256.187 105.938 255.501 106.137 254.658 106.137C254.066 106.137 253.542 106.032 253.086 105.822C252.63 105.613 252.272 105.321 252.013 104.947C251.757 104.569 251.63 104.161 251.63 103.724H252.895C252.917 104.147 253.086 104.485 253.4 104.735C253.719 104.981 254.139 105.104 254.658 105.104C255.137 105.104 255.52 105.009 255.807 104.817C256.098 104.621 256.244 104.362 256.244 104.038ZM260.872 96.8125V98.6035H262.253V99.5811H260.872V104.168C260.872 104.464 260.934 104.688 261.057 104.838C261.18 104.984 261.389 105.057 261.686 105.057C261.831 105.057 262.032 105.029 262.287 104.975V106C261.954 106.091 261.631 106.137 261.316 106.137C260.751 106.137 260.325 105.966 260.038 105.624C259.751 105.282 259.607 104.797 259.607 104.168V99.5811H258.261V98.6035H259.607V96.8125H260.872ZM265.11 106H263.846V98.6035H265.11V106ZM263.743 96.6416C263.743 96.4365 263.805 96.2633 263.928 96.1221C264.055 95.9808 264.242 95.9102 264.488 95.9102C264.734 95.9102 264.921 95.9808 265.049 96.1221C265.176 96.2633 265.24 96.4365 265.24 96.6416C265.24 96.8467 265.176 97.0176 265.049 97.1543C264.921 97.291 264.734 97.3594 264.488 97.3594C264.242 97.3594 264.055 97.291 263.928 97.1543C263.805 97.0176 263.743 96.8467 263.743 96.6416ZM270.107 105.104C270.559 105.104 270.953 104.968 271.29 104.694C271.627 104.421 271.814 104.079 271.851 103.669H273.047C273.024 104.093 272.878 104.496 272.609 104.879C272.34 105.262 271.98 105.567 271.529 105.795C271.083 106.023 270.609 106.137 270.107 106.137C269.1 106.137 268.298 105.802 267.701 105.132C267.109 104.457 266.812 103.537 266.812 102.37V102.158C266.812 101.438 266.945 100.798 267.209 100.237C267.473 99.6768 267.852 99.2415 268.344 98.9316C268.84 98.6217 269.426 98.4668 270.101 98.4668C270.93 98.4668 271.618 98.7152 272.165 99.2119C272.716 99.7087 273.01 100.354 273.047 101.146H271.851C271.814 100.668 271.632 100.276 271.304 99.9707C270.98 99.6608 270.579 99.5059 270.101 99.5059C269.458 99.5059 268.959 99.7383 268.604 100.203C268.253 100.663 268.077 101.331 268.077 102.206V102.445C268.077 103.298 268.253 103.954 268.604 104.414C268.954 104.874 269.456 105.104 270.107 105.104ZM28.5322 117.738C28.3408 117.706 28.1335 117.69 27.9102 117.69C27.0807 117.69 26.5179 118.044 26.2217 118.75V124H24.957V116.604H26.1875L26.208 117.458C26.6227 116.797 27.2106 116.467 27.9717 116.467C28.2178 116.467 28.4046 116.499 28.5322 116.562V117.738ZM32.6338 124.137C31.6312 124.137 30.8154 123.809 30.1865 123.152C29.5576 122.492 29.2432 121.61 29.2432 120.507V120.274C29.2432 119.541 29.3822 118.887 29.6602 118.312C29.9427 117.734 30.3346 117.283 30.8359 116.959C31.3418 116.631 31.8887 116.467 32.4766 116.467C33.4382 116.467 34.1855 116.784 34.7188 117.417C35.252 118.05 35.5186 118.957 35.5186 120.138V120.664H30.5078C30.526 121.393 30.738 121.983 31.1436 122.435C31.5537 122.881 32.0732 123.104 32.7021 123.104C33.1488 123.104 33.527 123.013 33.8369 122.831C34.1468 122.649 34.418 122.407 34.6504 122.106L35.4229 122.708C34.8031 123.66 33.8734 124.137 32.6338 124.137ZM32.4766 117.506C31.9661 117.506 31.5378 117.693 31.1914 118.066C30.8451 118.436 30.6309 118.955 30.5488 119.625H34.2539V119.529C34.2174 118.887 34.0443 118.39 33.7344 118.039C33.4245 117.684 33.0052 117.506 32.4766 117.506ZM43.2363 120.384C43.2363 121.509 42.9788 122.416 42.4639 123.104C41.9489 123.793 41.2516 124.137 40.3721 124.137C39.4743 124.137 38.7679 123.852 38.2529 123.282V126.844H36.9883V116.604H38.1436L38.2051 117.424C38.7201 116.786 39.4355 116.467 40.3516 116.467C41.2402 116.467 41.9421 116.802 42.457 117.472C42.9766 118.142 43.2363 119.074 43.2363 120.268V120.384ZM41.9717 120.24C41.9717 119.406 41.7939 118.748 41.4385 118.265C41.083 117.782 40.5954 117.54 39.9756 117.54C39.21 117.54 38.6357 117.88 38.2529 118.559V122.093C38.6312 122.767 39.21 123.104 39.9893 123.104C40.5954 123.104 41.0762 122.865 41.4316 122.387C41.7917 121.904 41.9717 121.188 41.9717 120.24ZM46.2236 124H44.959V113.5H46.2236V124ZM52.8203 124C52.7474 123.854 52.6882 123.594 52.6426 123.221C52.0547 123.831 51.3529 124.137 50.5371 124.137C49.8079 124.137 49.2087 123.932 48.7393 123.521C48.2744 123.107 48.042 122.583 48.042 121.949C48.042 121.179 48.3337 120.582 48.917 120.158C49.5049 119.73 50.3298 119.516 51.3916 119.516H52.6221V118.935C52.6221 118.493 52.4899 118.142 52.2256 117.882C51.9613 117.618 51.5716 117.485 51.0566 117.485C50.6055 117.485 50.2272 117.599 49.9219 117.827C49.6165 118.055 49.4639 118.331 49.4639 118.654H48.1924C48.1924 118.285 48.3223 117.93 48.582 117.588C48.8464 117.242 49.2018 116.968 49.6484 116.768C50.0996 116.567 50.5941 116.467 51.1318 116.467C51.984 116.467 52.6517 116.681 53.1348 117.109C53.6178 117.533 53.8685 118.119 53.8867 118.866V122.271C53.8867 122.95 53.9733 123.49 54.1465 123.891V124H52.8203ZM50.7217 123.036C51.1182 123.036 51.4941 122.934 51.8496 122.729C52.2051 122.523 52.4626 122.257 52.6221 121.929V120.411H51.6309C50.0814 120.411 49.3066 120.865 49.3066 121.771C49.3066 122.168 49.4388 122.478 49.7031 122.701C49.9674 122.924 50.307 123.036 50.7217 123.036ZM58.8359 123.104C59.2871 123.104 59.6813 122.968 60.0186 122.694C60.3558 122.421 60.5426 122.079 60.5791 121.669H61.7754C61.7526 122.093 61.6068 122.496 61.3379 122.879C61.069 123.262 60.709 123.567 60.2578 123.795C59.8112 124.023 59.3372 124.137 58.8359 124.137C57.8288 124.137 57.0267 123.802 56.4297 123.132C55.8372 122.457 55.541 121.537 55.541 120.37V120.158C55.541 119.438 55.6732 118.798 55.9375 118.237C56.2018 117.677 56.5801 117.242 57.0723 116.932C57.569 116.622 58.1546 116.467 58.8291 116.467C59.6585 116.467 60.3467 116.715 60.8936 117.212C61.445 117.709 61.7389 118.354 61.7754 119.146H60.5791C60.5426 118.668 60.3604 118.276 60.0322 117.971C59.7087 117.661 59.3076 117.506 58.8291 117.506C58.1865 117.506 57.6875 117.738 57.332 118.203C56.9811 118.663 56.8057 119.331 56.8057 120.206V120.445C56.8057 121.298 56.9811 121.954 57.332 122.414C57.6829 122.874 58.1842 123.104 58.8359 123.104ZM66.2666 124.137C65.264 124.137 64.4482 123.809 63.8193 123.152C63.1904 122.492 62.876 121.61 62.876 120.507V120.274C62.876 119.541 63.015 118.887 63.293 118.312C63.5755 117.734 63.9674 117.283 64.4688 116.959C64.9746 116.631 65.5215 116.467 66.1094 116.467C67.071 116.467 67.8184 116.784 68.3516 117.417C68.8848 118.05 69.1514 118.957 69.1514 120.138V120.664H64.1406C64.1589 121.393 64.3708 121.983 64.7764 122.435C65.1865 122.881 65.7061 123.104 66.335 123.104C66.7816 123.104 67.1598 123.013 67.4697 122.831C67.7796 122.649 68.0508 122.407 68.2832 122.106L69.0557 122.708C68.4359 123.66 67.5062 124.137 66.2666 124.137ZM66.1094 117.506C65.599 117.506 65.1706 117.693 64.8242 118.066C64.4779 118.436 64.2637 118.955 64.1816 119.625H67.8867V119.529C67.8503 118.887 67.6771 118.39 67.3672 118.039C67.0573 117.684 66.638 117.506 66.1094 117.506ZM71.8105 116.604L71.8447 117.424C72.387 116.786 73.1185 116.467 74.0391 116.467C75.0736 116.467 75.7777 116.863 76.1514 117.656C76.3975 117.301 76.7165 117.014 77.1084 116.795C77.5049 116.576 77.972 116.467 78.5098 116.467C80.1322 116.467 80.957 117.326 80.9844 119.044V124H79.7197V119.119C79.7197 118.59 79.599 118.196 79.3574 117.937C79.1159 117.672 78.7103 117.54 78.1406 117.54C77.6712 117.54 77.2816 117.681 76.9717 117.964C76.6618 118.242 76.4818 118.618 76.4316 119.092V124H75.1602V119.153C75.1602 118.078 74.6338 117.54 73.5811 117.54C72.7516 117.54 72.1842 117.893 71.8789 118.6V124H70.6143V116.604H71.8105ZM85.9678 124.137C84.9652 124.137 84.1494 123.809 83.5205 123.152C82.8916 122.492 82.5771 121.61 82.5771 120.507V120.274C82.5771 119.541 82.7161 118.887 82.9941 118.312C83.2767 117.734 83.6686 117.283 84.1699 116.959C84.6758 116.631 85.2227 116.467 85.8105 116.467C86.7721 116.467 87.5195 116.784 88.0527 117.417C88.5859 118.05 88.8525 118.957 88.8525 120.138V120.664H83.8418C83.86 121.393 84.0719 121.983 84.4775 122.435C84.8877 122.881 85.4072 123.104 86.0361 123.104C86.4827 123.104 86.861 123.013 87.1709 122.831C87.4808 122.649 87.752 122.407 87.9844 122.106L88.7568 122.708C88.137 123.66 87.2074 124.137 85.9678 124.137ZM85.8105 117.506C85.3001 117.506 84.8717 117.693 84.5254 118.066C84.179 118.436 83.9648 118.955 83.8828 119.625H87.5879V119.529C87.5514 118.887 87.3783 118.39 87.0684 118.039C86.7585 117.684 86.3392 117.506 85.8105 117.506ZM91.5186 116.604L91.5596 117.533C92.1247 116.822 92.863 116.467 93.7744 116.467C95.3376 116.467 96.126 117.349 96.1396 119.112V124H94.875V119.105C94.8704 118.572 94.7474 118.178 94.5059 117.923C94.2689 117.668 93.8975 117.54 93.3916 117.54C92.9814 117.54 92.6214 117.649 92.3115 117.868C92.0016 118.087 91.7601 118.374 91.5869 118.729V124H90.3223V116.604H91.5186ZM99.7627 114.812V116.604H101.144V117.581H99.7627V122.168C99.7627 122.464 99.8242 122.688 99.9473 122.838C100.07 122.984 100.28 123.057 100.576 123.057C100.722 123.057 100.923 123.029 101.178 122.975V124C100.845 124.091 100.521 124.137 100.207 124.137C99.6419 124.137 99.2158 123.966 98.9287 123.624C98.6416 123.282 98.498 122.797 98.498 122.168V117.581H97.1514V116.604H98.498V114.812H99.7627ZM106.934 122.038C106.934 121.696 106.804 121.432 106.544 121.245C106.289 121.054 105.84 120.89 105.197 120.753C104.559 120.616 104.051 120.452 103.673 120.261C103.299 120.069 103.021 119.841 102.839 119.577C102.661 119.313 102.572 118.998 102.572 118.634C102.572 118.028 102.827 117.515 103.338 117.096C103.853 116.676 104.509 116.467 105.307 116.467C106.145 116.467 106.824 116.683 107.344 117.116C107.868 117.549 108.13 118.103 108.13 118.777H106.858C106.858 118.431 106.71 118.132 106.414 117.882C106.122 117.631 105.753 117.506 105.307 117.506C104.846 117.506 104.486 117.606 104.227 117.807C103.967 118.007 103.837 118.269 103.837 118.593C103.837 118.898 103.958 119.128 104.199 119.283C104.441 119.438 104.876 119.586 105.505 119.728C106.138 119.869 106.651 120.037 107.043 120.233C107.435 120.429 107.724 120.666 107.911 120.944C108.103 121.218 108.198 121.553 108.198 121.949C108.198 122.61 107.934 123.141 107.405 123.542C106.877 123.938 106.191 124.137 105.348 124.137C104.755 124.137 104.231 124.032 103.775 123.822C103.32 123.613 102.962 123.321 102.702 122.947C102.447 122.569 102.319 122.161 102.319 121.724H103.584C103.607 122.147 103.775 122.485 104.09 122.735C104.409 122.981 104.828 123.104 105.348 123.104C105.826 123.104 106.209 123.009 106.496 122.817C106.788 122.621 106.934 122.362 106.934 122.038ZM109.873 123.337C109.873 123.118 109.937 122.936 110.064 122.79C110.197 122.644 110.393 122.571 110.652 122.571C110.912 122.571 111.108 122.644 111.24 122.79C111.377 122.936 111.445 123.118 111.445 123.337C111.445 123.547 111.377 123.722 111.24 123.863C111.108 124.005 110.912 124.075 110.652 124.075C110.393 124.075 110.197 124.005 110.064 123.863C109.937 123.722 109.873 123.547 109.873 123.337Z" fill="#C9D1D9"/>
<rect x="0.5" y="0.5" width="383" height="153" rx="5.5" stroke="#30363D"/>
</svg>
