<svg width="256" height="128" viewBox="0 0 256 128" fill="none" xmlns="http://www.w3.org/2000/svg">
<path fill-rule="evenodd" clip-rule="evenodd" d="M18 17.8333C18 17.3471 18.1932 16.8808 18.537 16.537C18.8808 16.1932 19.3471 16 19.8333 16H29.5C29.6326 16 29.7598 16.0527 29.8536 16.1464C29.9473 16.2402 30 16.3674 30 16.5V30.1667C30 30.2993 29.9473 30.4265 29.8536 30.5202C29.7598 30.614 29.6326 30.6667 29.5 30.6667H25.5C25.3674 30.6667 25.2402 30.614 25.1464 30.5202C25.0527 30.4265 25 30.2993 25 30.1667C25 30.0341 25.0527 29.9069 25.1464 29.8131C25.2402 29.7193 25.3674 29.6667 25.5 29.6667H29V27H20C19.7348 27 19.4804 27.1054 19.2929 27.2929C19.1054 27.4804 19 27.7348 19 28V28.5C19 28.9773 19.2867 29.3893 19.7 29.57C19.8174 29.6256 19.9086 29.7248 19.9542 29.8465C19.9997 29.9682 19.9961 30.1029 19.9441 30.2219C19.8921 30.341 19.7958 30.4352 19.6756 30.4845C19.5553 30.5338 19.4206 30.5343 19.3 30.486C18.9136 30.3174 18.5848 30.0396 18.3538 29.6869C18.1229 29.3341 18 28.9216 18 28.5V17.8333ZM29 17V26H20C19.636 26 19.294 26.0973 19 26.2673V17.8333C19 17.3733 19.3733 17 19.8333 17H29Z" fill="#30363D"/>
<path d="M20.6667 28.1667C20.6667 28.1225 20.6842 28.0801 20.7155 28.0488C20.7468 28.0176 20.7892 28 20.8334 28H24.1667C24.2109 28 24.2533 28.0176 24.2845 28.0488C24.3158 28.0801 24.3334 28.1225 24.3334 28.1667V31.5067C24.3332 31.5373 24.3246 31.5674 24.3085 31.5935C24.2923 31.6196 24.2693 31.6407 24.242 31.6546C24.2146 31.6684 24.184 31.6744 24.1534 31.672C24.1228 31.6695 24.0935 31.6587 24.0687 31.6407L22.598 30.5713C22.5695 30.5506 22.5352 30.5395 22.5 30.5395C22.4648 30.5395 22.4305 30.5506 22.402 30.5713L20.9314 31.64C20.9066 31.658 20.8773 31.6688 20.8468 31.6713C20.8163 31.6738 20.7857 31.6678 20.7584 31.654C20.731 31.6403 20.708 31.6192 20.6918 31.5932C20.6757 31.5672 20.667 31.5373 20.6667 31.5067V28.1667Z" fill="#30363D"/>
<path d="M37.4043 24.7832C37.4043 23.8105 37.6348 23.0273 38.0957 22.4336C38.5605 21.8398 39.1855 21.543 39.9707 21.543C40.666 21.543 41.207 21.7812 41.5938 22.2578L41.6641 21.6602H43.1992V27.7891C43.1992 28.3438 43.0723 28.8262 42.8184 29.2363C42.5684 29.6465 42.2148 29.959 41.7578 30.1738C41.3008 30.3887 40.7656 30.4961 40.1523 30.4961C39.6875 30.4961 39.2344 30.4023 38.793 30.2148C38.3516 30.0312 38.0176 29.793 37.791 29.5L38.541 28.4688C38.9629 28.9414 39.4746 29.1777 40.0762 29.1777C40.5254 29.1777 40.875 29.0566 41.125 28.8145C41.375 28.5762 41.5 28.2363 41.5 27.7949V27.4551C41.1094 27.8965 40.5957 28.1172 39.959 28.1172C39.1973 28.1172 38.5801 27.8203 38.1074 27.2266C37.6387 26.6289 37.4043 25.8379 37.4043 24.8535V24.7832ZM39.0977 24.9062C39.0977 25.4805 39.2129 25.9316 39.4434 26.2598C39.6738 26.584 39.9902 26.7461 40.3926 26.7461C40.9082 26.7461 41.2773 26.5527 41.5 26.166V23.5C41.2734 23.1133 40.9082 22.9199 40.4043 22.9199C39.998 22.9199 39.6777 23.0859 39.4434 23.418C39.2129 23.75 39.0977 24.2461 39.0977 24.9062ZM48.0684 23.248C47.8379 23.2168 47.6348 23.2012 47.459 23.2012C46.8184 23.2012 46.3984 23.418 46.1992 23.8516V28H44.5059V21.6602H46.1055L46.1523 22.416C46.4922 21.834 46.9629 21.543 47.5645 21.543C47.752 21.543 47.9277 21.5684 48.0918 21.6191L48.0684 23.248ZM52.3867 28C52.3086 27.8477 52.252 27.6582 52.2168 27.4316C51.8066 27.8887 51.2734 28.1172 50.6172 28.1172C49.9961 28.1172 49.4805 27.9375 49.0703 27.5781C48.6641 27.2188 48.4609 26.7656 48.4609 26.2188C48.4609 25.5469 48.709 25.0312 49.2051 24.6719C49.7051 24.3125 50.4258 24.1309 51.3672 24.127H52.1465V23.7637C52.1465 23.4707 52.0703 23.2363 51.918 23.0605C51.7695 22.8848 51.5332 22.7969 51.209 22.7969C50.9238 22.7969 50.6992 22.8652 50.5352 23.002C50.375 23.1387 50.2949 23.3262 50.2949 23.5645H48.6016C48.6016 23.1973 48.7148 22.8574 48.9414 22.5449C49.168 22.2324 49.4883 21.9883 49.9023 21.8125C50.3164 21.6328 50.7812 21.543 51.2969 21.543C52.0781 21.543 52.6973 21.7402 53.1543 22.1348C53.6152 22.5254 53.8457 23.0762 53.8457 23.7871V26.5352C53.8496 27.1367 53.9336 27.5918 54.0977 27.9004V28H52.3867ZM50.9863 26.8223C51.2363 26.8223 51.4668 26.7676 51.6777 26.6582C51.8887 26.5449 52.0449 26.3945 52.1465 26.207V25.1172H51.5137C50.666 25.1172 50.2148 25.4102 50.1602 25.9961L50.1543 26.0957C50.1543 26.3066 50.2285 26.4805 50.377 26.6172C50.5254 26.7539 50.7285 26.8223 50.9863 26.8223ZM54.8828 24.7832C54.8828 23.7949 55.1035 23.0078 55.5449 22.4219C55.9902 21.8359 56.5977 21.543 57.3672 21.543C57.9844 21.543 58.4941 21.7734 58.8965 22.2344V19H60.5957V28H59.0664L58.9844 27.3262C58.5625 27.8535 58.0195 28.1172 57.3555 28.1172C56.6094 28.1172 56.0098 27.8242 55.5566 27.2383C55.1074 26.6484 54.8828 25.8301 54.8828 24.7832ZM56.5762 24.9062C56.5762 25.5 56.6797 25.9551 56.8867 26.2715C57.0938 26.5879 57.3945 26.7461 57.7891 26.7461C58.3125 26.7461 58.6816 26.5254 58.8965 26.084V23.582C58.6855 23.1406 58.3203 22.9199 57.8008 22.9199C56.9844 22.9199 56.5762 23.582 56.5762 24.9062ZM66.6016 29.3242H61.2637V28H66.6016V29.3242ZM68.8516 21.6602L68.9043 22.3691C69.3535 21.8184 69.9609 21.543 70.7266 21.543C71.543 21.543 72.1035 21.8652 72.4082 22.5098C72.8535 21.8652 73.4883 21.543 74.3125 21.543C75 21.543 75.5117 21.7441 75.8477 22.1465C76.1836 22.5449 76.3516 23.1465 76.3516 23.9512V28H74.6523V23.957C74.6523 23.5977 74.582 23.3359 74.4414 23.1719C74.3008 23.0039 74.0527 22.9199 73.6973 22.9199C73.1895 22.9199 72.8379 23.1621 72.6426 23.6465L72.6484 28H70.9551V23.9629C70.9551 23.5957 70.8828 23.3301 70.7383 23.166C70.5938 23.002 70.3477 22.9199 70 22.9199C69.5195 22.9199 69.1719 23.1191 68.957 23.5176V28H67.2637V21.6602H68.8516ZM79.4453 28H77.7461V21.6602H79.4453V28ZM77.6465 20.0195C77.6465 19.7656 77.7305 19.5566 77.8984 19.3926C78.0703 19.2285 78.3027 19.1465 78.5957 19.1465C78.8848 19.1465 79.1152 19.2285 79.2871 19.3926C79.459 19.5566 79.5449 19.7656 79.5449 20.0195C79.5449 20.2773 79.457 20.4883 79.2812 20.6523C79.1094 20.8164 78.8809 20.8984 78.5957 20.8984C78.3105 20.8984 78.0801 20.8164 77.9043 20.6523C77.7324 20.4883 77.6465 20.2773 77.6465 20.0195ZM82.4043 21.6602L82.457 22.3926C82.9102 21.8262 83.5176 21.543 84.2793 21.543C84.9512 21.543 85.4512 21.7402 85.7793 22.1348C86.1074 22.5293 86.2754 23.1191 86.2832 23.9043V28H84.5898V23.9453C84.5898 23.5859 84.5117 23.3262 84.3555 23.166C84.1992 23.002 83.9395 22.9199 83.5762 22.9199C83.0996 22.9199 82.7422 23.123 82.5039 23.5293V28H80.8105V21.6602H82.4043ZM91.3691 27.3555C90.9512 27.8633 90.373 28.1172 89.6348 28.1172C88.9551 28.1172 88.4355 27.9219 88.0762 27.5312C87.7207 27.1406 87.5391 26.5684 87.5312 25.8145V21.6602H89.2246V25.7559C89.2246 26.416 89.5254 26.7461 90.127 26.7461C90.7012 26.7461 91.0957 26.5469 91.3105 26.1484V21.6602H93.0098V28H91.416L91.3691 27.3555ZM96.0742 28H94.375V21.6602H96.0742V28ZM94.2754 20.0195C94.2754 19.7656 94.3594 19.5566 94.5273 19.3926C94.6992 19.2285 94.9316 19.1465 95.2246 19.1465C95.5137 19.1465 95.7441 19.2285 95.916 19.3926C96.0879 19.5566 96.1738 19.7656 96.1738 20.0195C96.1738 20.2773 96.0859 20.4883 95.9102 20.6523C95.7383 20.8164 95.5098 20.8984 95.2246 20.8984C94.9395 20.8984 94.709 20.8164 94.5332 20.6523C94.3613 20.4883 94.2754 20.2773 94.2754 20.0195Z" fill="#58A6FF"/>
<path d="M22.0742 50.0674C21.8333 50.4124 21.4964 50.6712 21.0635 50.8438C20.6338 51.013 20.1325 51.0977 19.5596 51.0977C18.9801 51.0977 18.4658 50.9626 18.0166 50.6924C17.5674 50.4189 17.2191 50.0316 16.9717 49.5303C16.7275 49.029 16.6022 48.4479 16.5957 47.7871V47.167C16.5957 46.096 16.8447 45.266 17.3428 44.6768C17.8441 44.0876 18.5472 43.793 19.4521 43.793C20.1943 43.793 20.7917 43.9834 21.2441 44.3643C21.6966 44.7419 21.9733 45.279 22.0742 45.9756H21.1367C20.9609 45.0348 20.401 44.5645 19.457 44.5645C18.8288 44.5645 18.3519 44.7858 18.0264 45.2285C17.7041 45.668 17.5413 46.306 17.5381 47.1426V47.7236C17.5381 48.5212 17.7204 49.1559 18.085 49.6279C18.4495 50.0967 18.9427 50.3311 19.5645 50.3311C19.916 50.3311 20.2236 50.292 20.4873 50.2139C20.751 50.1357 20.9691 50.0039 21.1416 49.8184V48.2217H19.4961V47.46H22.0742V50.0674ZM26.0537 46.5273C25.917 46.5046 25.7689 46.4932 25.6094 46.4932C25.0169 46.4932 24.6149 46.7454 24.4033 47.25V51H23.5V45.7168H24.3789L24.3936 46.3271C24.6898 45.8551 25.1097 45.6191 25.6533 45.6191C25.8291 45.6191 25.9626 45.6419 26.0537 45.6875V46.5273ZM30.1504 50.4775C29.7988 50.891 29.2829 51.0977 28.6025 51.0977C28.0394 51.0977 27.6097 50.9349 27.3135 50.6094C27.0205 50.2806 26.8724 49.7956 26.8691 49.1543V45.7168H27.7725V49.1299C27.7725 49.9307 28.098 50.3311 28.749 50.3311C29.4391 50.3311 29.8981 50.0739 30.126 49.5596V45.7168H31.0293V51H30.1699L30.1504 50.4775ZM36.8691 48.417C36.8691 49.221 36.6852 49.8688 36.3174 50.3604C35.9495 50.8519 35.4515 51.0977 34.8232 51.0977C34.182 51.0977 33.6774 50.8942 33.3096 50.4873V53.0312H32.4062V45.7168H33.2314L33.2754 46.3027C33.6432 45.847 34.1543 45.6191 34.8086 45.6191C35.4434 45.6191 35.9447 45.8584 36.3125 46.3369C36.6836 46.8154 36.8691 47.4811 36.8691 48.334V48.417ZM35.9658 48.3145C35.9658 47.7188 35.8389 47.2484 35.585 46.9033C35.3311 46.5583 34.9827 46.3857 34.54 46.3857C33.9932 46.3857 33.583 46.6283 33.3096 47.1133V49.6377C33.5798 50.1195 33.9932 50.3604 34.5498 50.3604C34.9827 50.3604 35.3262 50.1895 35.5801 49.8477C35.8372 49.5026 35.9658 48.9915 35.9658 48.3145ZM42.4844 48.417C42.4844 49.221 42.3005 49.8688 41.9326 50.3604C41.5648 50.8519 41.0667 51.0977 40.4385 51.0977C39.7972 51.0977 39.2926 50.8942 38.9248 50.4873V53.0312H38.0215V45.7168H38.8467L38.8906 46.3027C39.2585 45.847 39.7695 45.6191 40.4238 45.6191C41.0586 45.6191 41.5599 45.8584 41.9277 46.3369C42.2988 46.8154 42.4844 47.4811 42.4844 48.334V48.417ZM41.5811 48.3145C41.5811 47.7188 41.4541 47.2484 41.2002 46.9033C40.9463 46.5583 40.598 46.3857 40.1553 46.3857C39.6084 46.3857 39.1982 46.6283 38.9248 47.1133V49.6377C39.195 50.1195 39.6084 50.3604 40.165 50.3604C40.598 50.3604 40.9414 50.1895 41.1953 49.8477C41.4525 49.5026 41.5811 48.9915 41.5811 48.3145ZM45.8291 51.0977C45.113 51.0977 44.5303 50.8633 44.0811 50.3945C43.6318 49.9225 43.4072 49.2926 43.4072 48.5049V48.3389C43.4072 47.8148 43.5065 47.3477 43.7051 46.9375C43.9069 46.5241 44.1868 46.2018 44.5449 45.9707C44.9062 45.7363 45.2969 45.6191 45.7168 45.6191C46.4036 45.6191 46.9375 45.8454 47.3184 46.2979C47.6992 46.7503 47.8896 47.3981 47.8896 48.2412V48.6172H44.3105C44.3236 49.138 44.4749 49.5596 44.7646 49.8818C45.0576 50.2008 45.4287 50.3604 45.8779 50.3604C46.1969 50.3604 46.4671 50.2952 46.6885 50.165C46.9098 50.0348 47.1035 49.8623 47.2695 49.6475L47.8213 50.0771C47.3786 50.7575 46.7145 51.0977 45.8291 51.0977ZM45.7168 46.3613C45.3522 46.3613 45.0462 46.4948 44.7988 46.7617C44.5514 47.0254 44.3984 47.3965 44.3398 47.875H46.9863V47.8066C46.9603 47.3477 46.8366 46.9928 46.6152 46.7422C46.3939 46.4883 46.0944 46.3613 45.7168 46.3613ZM55.4873 49.1445H52.5088L51.8398 51H50.873L53.5879 43.8906H54.4082L57.1279 51H56.166L55.4873 49.1445ZM52.792 48.373H55.209L53.998 45.0479L52.792 48.373ZM57.7236 48.3145C57.7236 47.5039 57.9157 46.8529 58.2998 46.3613C58.6839 45.8665 59.1868 45.6191 59.8086 45.6191C60.4271 45.6191 60.917 45.8307 61.2783 46.2539V43.5H62.1816V51H61.3516L61.3076 50.4336C60.9463 50.8763 60.4434 51.0977 59.7988 51.0977C59.1868 51.0977 58.6872 50.847 58.2998 50.3457C57.9157 49.8444 57.7236 49.1901 57.7236 48.3828V48.3145ZM58.627 48.417C58.627 49.016 58.7507 49.4847 58.998 49.8232C59.2454 50.1618 59.5872 50.3311 60.0234 50.3311C60.5964 50.3311 61.0146 50.0739 61.2783 49.5596V47.1328C61.0081 46.6348 60.5931 46.3857 60.0332 46.3857C59.5905 46.3857 59.2454 46.5566 58.998 46.8984C58.7507 47.2402 58.627 47.7464 58.627 48.417ZM64.5693 51H63.666V43.5H64.5693V51ZM68.2119 51.0977C67.4958 51.0977 66.9131 50.8633 66.4639 50.3945C66.0146 49.9225 65.79 49.2926 65.79 48.5049V48.3389C65.79 47.8148 65.8893 47.3477 66.0879 46.9375C66.2897 46.5241 66.5697 46.2018 66.9277 45.9707C67.2891 45.7363 67.6797 45.6191 68.0996 45.6191C68.7865 45.6191 69.3203 45.8454 69.7012 46.2979C70.082 46.7503 70.2725 47.3981 70.2725 48.2412V48.6172H66.6934C66.7064 49.138 66.8577 49.5596 67.1475 49.8818C67.4404 50.2008 67.8115 50.3604 68.2607 50.3604C68.5798 50.3604 68.8499 50.2952 69.0713 50.165C69.2926 50.0348 69.4863 49.8623 69.6523 49.6475L70.2041 50.0771C69.7614 50.7575 69.0973 51.0977 68.2119 51.0977ZM68.0996 46.3613C67.735 46.3613 67.429 46.4948 67.1816 46.7617C66.9342 47.0254 66.7812 47.3965 66.7227 47.875H69.3691V47.8066C69.3431 47.3477 69.2194 46.9928 68.998 46.7422C68.7767 46.4883 68.4772 46.3613 68.0996 46.3613ZM73.876 46.5273C73.7393 46.5046 73.5911 46.4932 73.4316 46.4932C72.8392 46.4932 72.4372 46.7454 72.2256 47.25V51H71.3223V45.7168H72.2012L72.2158 46.3271C72.512 45.8551 72.932 45.6191 73.4756 45.6191C73.6514 45.6191 73.7848 45.6419 73.876 45.6875V46.5273ZM78.5439 43.8906L80.8682 49.6914L83.1924 43.8906H84.4082V51H83.4707V48.2314L83.5586 45.2432L81.2246 51H80.5068L78.1777 45.2578L78.2705 48.2314V51H77.333V43.8906H78.5439ZM86.9033 51H86V45.7168H86.9033V51ZM85.9268 44.3154C85.9268 44.1689 85.9707 44.0452 86.0586 43.9443C86.1497 43.8434 86.2832 43.793 86.459 43.793C86.6348 43.793 86.7682 43.8434 86.8594 43.9443C86.9505 44.0452 86.9961 44.1689 86.9961 44.3154C86.9961 44.4619 86.9505 44.584 86.8594 44.6816C86.7682 44.7793 86.6348 44.8281 86.459 44.8281C86.2832 44.8281 86.1497 44.7793 86.0586 44.6816C85.9707 44.584 85.9268 44.4619 85.9268 44.3154ZM89.208 45.7168L89.2373 46.3809C89.641 45.873 90.1683 45.6191 90.8193 45.6191C91.9359 45.6191 92.499 46.249 92.5088 47.5088V51H91.6055V47.5039C91.6022 47.123 91.5143 46.8415 91.3418 46.6592C91.1725 46.4769 90.9072 46.3857 90.5459 46.3857C90.2529 46.3857 89.9958 46.4639 89.7744 46.6201C89.5531 46.7764 89.3805 46.9814 89.2568 47.2354V51H88.3535V45.7168H89.208ZM99.0176 43.8906V48.7246C99.0143 49.3952 98.8027 49.9437 98.3828 50.3701C97.9661 50.7965 97.3997 51.0358 96.6836 51.0879L96.4346 51.0977C95.6566 51.0977 95.0365 50.8877 94.5742 50.4678C94.112 50.0479 93.8776 49.4701 93.8711 48.7344V43.8906H94.7988V48.7051C94.7988 49.2194 94.9404 49.6198 95.2236 49.9062C95.5068 50.1895 95.9105 50.3311 96.4346 50.3311C96.9652 50.3311 97.3704 50.1895 97.6504 49.9062C97.9336 49.623 98.0752 49.2243 98.0752 48.71V43.8906H99.0176ZM101.503 51H100.565V43.8906H101.503V51ZM106.542 51H105.639V45.7168H106.542V51ZM105.565 44.3154C105.565 44.1689 105.609 44.0452 105.697 43.9443C105.788 43.8434 105.922 43.793 106.098 43.793C106.273 43.793 106.407 43.8434 106.498 43.9443C106.589 44.0452 106.635 44.1689 106.635 44.3154C106.635 44.4619 106.589 44.584 106.498 44.6816C106.407 44.7793 106.273 44.8281 106.098 44.8281C105.922 44.8281 105.788 44.7793 105.697 44.6816C105.609 44.584 105.565 44.4619 105.565 44.3154ZM111.068 49.5986C111.068 49.3545 110.976 49.1657 110.79 49.0322C110.608 48.8955 110.287 48.7783 109.828 48.6807C109.372 48.583 109.009 48.4658 108.739 48.3291C108.472 48.1924 108.274 48.0296 108.144 47.8408C108.017 47.652 107.953 47.4274 107.953 47.167C107.953 46.734 108.135 46.3678 108.5 46.0684C108.868 45.7689 109.337 45.6191 109.906 45.6191C110.505 45.6191 110.99 45.7738 111.361 46.083C111.736 46.3923 111.923 46.7878 111.923 47.2695H111.015C111.015 47.0221 110.909 46.8089 110.697 46.6299C110.489 46.4508 110.225 46.3613 109.906 46.3613C109.577 46.3613 109.32 46.4329 109.135 46.5762C108.949 46.7194 108.856 46.9066 108.856 47.1377C108.856 47.3558 108.943 47.5202 109.115 47.6309C109.288 47.7415 109.599 47.8473 110.048 47.9482C110.5 48.0492 110.867 48.1696 111.146 48.3096C111.426 48.4495 111.633 48.6188 111.767 48.8174C111.903 49.0127 111.972 49.252 111.972 49.5352C111.972 50.0072 111.783 50.3864 111.405 50.6729C111.028 50.9561 110.538 51.0977 109.936 51.0977C109.512 51.0977 109.138 51.0228 108.812 50.873C108.487 50.7233 108.231 50.515 108.046 50.248C107.864 49.9779 107.772 49.6865 107.772 49.374H108.676C108.692 49.6768 108.812 49.9176 109.037 50.0967C109.265 50.2725 109.564 50.3604 109.936 50.3604C110.277 50.3604 110.551 50.292 110.756 50.1553C110.964 50.0153 111.068 49.8298 111.068 49.5986ZM118.891 51C118.839 50.8958 118.796 50.7103 118.764 50.4434C118.344 50.8796 117.842 51.0977 117.26 51.0977C116.739 51.0977 116.311 50.9512 115.976 50.6582C115.644 50.362 115.478 49.9876 115.478 49.5352C115.478 48.985 115.686 48.5586 116.103 48.2559C116.522 47.9499 117.112 47.7969 117.87 47.7969H118.749V47.3818C118.749 47.0661 118.655 46.8154 118.466 46.6299C118.277 46.4411 117.999 46.3467 117.631 46.3467C117.309 46.3467 117.038 46.4281 116.82 46.5908C116.602 46.7536 116.493 46.9505 116.493 47.1816H115.585C115.585 46.918 115.678 46.6641 115.863 46.4199C116.052 46.1725 116.306 45.9772 116.625 45.834C116.947 45.6908 117.3 45.6191 117.685 45.6191C118.293 45.6191 118.77 45.7721 119.115 46.0781C119.46 46.3809 119.639 46.7992 119.652 47.333V49.7646C119.652 50.2497 119.714 50.6354 119.838 50.9219V51H118.891ZM117.392 50.3115C117.675 50.3115 117.943 50.2383 118.197 50.0918C118.451 49.9453 118.635 49.7549 118.749 49.5205V48.4365H118.041C116.934 48.4365 116.381 48.7604 116.381 49.4082C116.381 49.6914 116.475 49.9128 116.664 50.0723C116.853 50.2318 117.095 50.3115 117.392 50.3115ZM121.923 45.7168L121.952 46.3809C122.356 45.873 122.883 45.6191 123.534 45.6191C124.651 45.6191 125.214 46.249 125.224 47.5088V51H124.32V47.5039C124.317 47.123 124.229 46.8415 124.057 46.6592C123.887 46.4769 123.622 46.3857 123.261 46.3857C122.968 46.3857 122.711 46.4639 122.489 46.6201C122.268 46.7764 122.095 46.9814 121.972 47.2354V51H121.068V45.7168H121.923ZM129.916 45.7168L129.94 46.3027C130.328 45.847 130.85 45.6191 131.508 45.6191C132.247 45.6191 132.75 45.9023 133.017 46.4688C133.192 46.2148 133.42 46.0098 133.7 45.8535C133.983 45.6973 134.317 45.6191 134.701 45.6191C135.86 45.6191 136.449 46.2327 136.469 47.46V51H135.565V47.5137C135.565 47.1361 135.479 46.8545 135.307 46.6689C135.134 46.4801 134.844 46.3857 134.438 46.3857C134.102 46.3857 133.824 46.4867 133.603 46.6885C133.381 46.887 133.253 47.1556 133.217 47.4941V51H132.309V47.5381C132.309 46.7699 131.933 46.3857 131.181 46.3857C130.588 46.3857 130.183 46.638 129.965 47.1426V51H129.062V45.7168H129.916ZM137.597 48.3096C137.597 47.792 137.698 47.3265 137.899 46.9131C138.104 46.4997 138.388 46.1807 138.749 45.9561C139.114 45.7314 139.529 45.6191 139.994 45.6191C140.714 45.6191 141.295 45.8682 141.737 46.3662C142.183 46.8643 142.406 47.5267 142.406 48.3535V48.417C142.406 48.9313 142.307 49.3936 142.108 49.8037C141.913 50.2106 141.632 50.528 141.264 50.7559C140.899 50.9837 140.479 51.0977 140.004 51.0977C139.288 51.0977 138.707 50.8486 138.261 50.3506C137.818 49.8525 137.597 49.1934 137.597 48.373V48.3096ZM138.505 48.417C138.505 49.0029 138.64 49.4733 138.91 49.8281C139.184 50.1829 139.548 50.3604 140.004 50.3604C140.463 50.3604 140.827 50.1813 141.098 49.8232C141.368 49.4619 141.503 48.9574 141.503 48.3096C141.503 47.7301 141.365 47.2614 141.088 46.9033C140.814 46.542 140.45 46.3613 139.994 46.3613C139.548 46.3613 139.188 46.5387 138.915 46.8936C138.642 47.2484 138.505 47.7562 138.505 48.417ZM143.319 48.3145C143.319 47.5039 143.511 46.8529 143.896 46.3613C144.28 45.8665 144.783 45.6191 145.404 45.6191C146.023 45.6191 146.513 45.8307 146.874 46.2539V43.5H147.777V51H146.947L146.903 50.4336C146.542 50.8763 146.039 51.0977 145.395 51.0977C144.783 51.0977 144.283 50.847 143.896 50.3457C143.511 49.8444 143.319 49.1901 143.319 48.3828V48.3145ZM144.223 48.417C144.223 49.016 144.346 49.4847 144.594 49.8232C144.841 50.1618 145.183 50.3311 145.619 50.3311C146.192 50.3311 146.61 50.0739 146.874 49.5596V47.1328C146.604 46.6348 146.189 46.3857 145.629 46.3857C145.186 46.3857 144.841 46.5566 144.594 46.8984C144.346 47.2402 144.223 47.7464 144.223 48.417ZM152.108 51V46.415H151.273V45.7168H152.108V45.1748C152.108 44.6084 152.26 44.1706 152.562 43.8613C152.865 43.5521 153.293 43.3975 153.847 43.3975C154.055 43.3975 154.262 43.4251 154.467 43.4805L154.418 44.2129C154.265 44.1836 154.102 44.1689 153.93 44.1689C153.637 44.1689 153.41 44.2552 153.251 44.4277C153.091 44.597 153.012 44.8411 153.012 45.1602V45.7168H154.14V46.415H153.012V51H152.108ZM154.901 48.3096C154.901 47.792 155.002 47.3265 155.204 46.9131C155.409 46.4997 155.692 46.1807 156.054 45.9561C156.418 45.7314 156.833 45.6191 157.299 45.6191C158.018 45.6191 158.599 45.8682 159.042 46.3662C159.488 46.8643 159.711 47.5267 159.711 48.3535V48.417C159.711 48.9313 159.612 49.3936 159.413 49.8037C159.218 50.2106 158.936 50.528 158.568 50.7559C158.204 50.9837 157.784 51.0977 157.309 51.0977C156.592 51.0977 156.011 50.8486 155.565 50.3506C155.123 49.8525 154.901 49.1934 154.901 48.373V48.3096ZM155.81 48.417C155.81 49.0029 155.945 49.4733 156.215 49.8281C156.488 50.1829 156.853 50.3604 157.309 50.3604C157.768 50.3604 158.132 50.1813 158.402 49.8232C158.673 49.4619 158.808 48.9574 158.808 48.3096C158.808 47.7301 158.669 47.2614 158.393 46.9033C158.119 46.542 157.755 46.3613 157.299 46.3613C156.853 46.3613 156.493 46.5387 156.22 46.8936C155.946 47.2484 155.81 47.7562 155.81 48.417ZM163.397 46.5273C163.261 46.5046 163.113 46.4932 162.953 46.4932C162.361 46.4932 161.959 46.7454 161.747 47.25V51H160.844V45.7168H161.723L161.737 46.3271C162.034 45.8551 162.453 45.6191 162.997 45.6191C163.173 45.6191 163.306 45.6419 163.397 45.6875V46.5273ZM170.78 49.1445H167.802L167.133 51H166.166L168.881 43.8906H169.701L172.421 51H171.459L170.78 49.1445ZM168.085 48.373H170.502L169.291 45.0479L168.085 48.373ZM175.79 46.5273C175.653 46.5046 175.505 46.4932 175.346 46.4932C174.753 46.4932 174.351 46.7454 174.14 47.25V51H173.236V45.7168H174.115L174.13 46.3271C174.426 45.8551 174.846 45.6191 175.39 45.6191C175.565 45.6191 175.699 45.6419 175.79 45.6875V46.5273ZM177.475 45.7168L177.499 46.3027C177.886 45.847 178.409 45.6191 179.066 45.6191C179.805 45.6191 180.308 45.9023 180.575 46.4688C180.751 46.2148 180.979 46.0098 181.259 45.8535C181.542 45.6973 181.876 45.6191 182.26 45.6191C183.419 45.6191 184.008 46.2327 184.027 47.46V51H183.124V47.5137C183.124 47.1361 183.038 46.8545 182.865 46.6689C182.693 46.4801 182.403 46.3857 181.996 46.3857C181.661 46.3857 181.382 46.4867 181.161 46.6885C180.94 46.887 180.811 47.1556 180.775 47.4941V51H179.867V47.5381C179.867 46.7699 179.491 46.3857 178.739 46.3857C178.147 46.3857 177.742 46.638 177.523 47.1426V51H176.62V45.7168H177.475ZM188.656 51C188.604 50.8958 188.562 50.7103 188.529 50.4434C188.109 50.8796 187.608 51.0977 187.025 51.0977C186.505 51.0977 186.076 50.9512 185.741 50.6582C185.409 50.362 185.243 49.9876 185.243 49.5352C185.243 48.985 185.451 48.5586 185.868 48.2559C186.288 47.9499 186.877 47.7969 187.636 47.7969H188.515V47.3818C188.515 47.0661 188.42 46.8154 188.231 46.6299C188.043 46.4411 187.764 46.3467 187.396 46.3467C187.074 46.3467 186.804 46.4281 186.586 46.5908C186.368 46.7536 186.259 46.9505 186.259 47.1816H185.351C185.351 46.918 185.443 46.6641 185.629 46.4199C185.818 46.1725 186.072 45.9772 186.391 45.834C186.713 45.6908 187.066 45.6191 187.45 45.6191C188.059 45.6191 188.536 45.7721 188.881 46.0781C189.226 46.3809 189.405 46.7992 189.418 47.333V49.7646C189.418 50.2497 189.48 50.6354 189.604 50.9219V51H188.656ZM187.157 50.3115C187.44 50.3115 187.709 50.2383 187.963 50.0918C188.217 49.9453 188.401 49.7549 188.515 49.5205V48.4365H187.807C186.7 48.4365 186.146 48.7604 186.146 49.4082C186.146 49.6914 186.241 49.9128 186.43 50.0723C186.618 50.2318 186.861 50.3115 187.157 50.3115ZM194.535 47.0059H195.214C195.64 46.9993 195.976 46.887 196.22 46.6689C196.464 46.4508 196.586 46.1562 196.586 45.7852C196.586 44.9518 196.171 44.5352 195.341 44.5352C194.95 44.5352 194.638 44.6475 194.403 44.8721C194.172 45.0934 194.057 45.388 194.057 45.7559H193.153C193.153 45.1927 193.358 44.7256 193.769 44.3545C194.182 43.9801 194.706 43.793 195.341 43.793C196.011 43.793 196.537 43.9704 196.918 44.3252C197.299 44.68 197.489 45.1732 197.489 45.8047C197.489 46.1139 197.388 46.4134 197.187 46.7031C196.988 46.9928 196.716 47.2093 196.371 47.3525C196.762 47.4762 197.063 47.6813 197.274 47.9678C197.489 48.2542 197.597 48.6042 197.597 49.0176C197.597 49.6556 197.388 50.1618 196.972 50.5361C196.555 50.9105 196.013 51.0977 195.346 51.0977C194.678 51.0977 194.135 50.917 193.715 50.5557C193.298 50.1943 193.09 49.7174 193.09 49.125H193.998C193.998 49.4993 194.12 49.7988 194.364 50.0234C194.608 50.248 194.936 50.3604 195.346 50.3604C195.782 50.3604 196.116 50.2464 196.347 50.0186C196.578 49.7907 196.693 49.4635 196.693 49.0371C196.693 48.6237 196.566 48.3063 196.312 48.085C196.059 47.8636 195.692 47.7497 195.214 47.7432H194.535V47.0059ZM198.9 52.416L198.388 52.0645C198.694 51.638 198.853 51.1986 198.866 50.7461V49.9307H199.75V50.6387C199.75 50.9674 199.669 51.2962 199.506 51.625C199.346 51.9538 199.145 52.2174 198.9 52.416ZM208.051 49.7549L209.066 45.7168H209.97L208.432 51H207.699L206.415 46.9961L205.165 51H204.433L202.899 45.7168H203.798L204.838 49.6719L206.068 45.7168H206.796L208.051 49.7549ZM211.796 46.3564C212.196 45.8649 212.717 45.6191 213.358 45.6191C214.475 45.6191 215.038 46.249 215.048 47.5088V51H214.145V47.5039C214.141 47.123 214.053 46.8415 213.881 46.6592C213.712 46.4769 213.446 46.3857 213.085 46.3857C212.792 46.3857 212.535 46.4639 212.313 46.6201C212.092 46.7764 211.92 46.9814 211.796 47.2354V51H210.893V43.5H211.796V46.3564ZM217.382 51H216.479V45.7168H217.382V51ZM216.405 44.3154C216.405 44.1689 216.449 44.0452 216.537 43.9443C216.628 43.8434 216.762 43.793 216.938 43.793C217.113 43.793 217.247 43.8434 217.338 43.9443C217.429 44.0452 217.475 44.1689 217.475 44.3154C217.475 44.4619 217.429 44.584 217.338 44.6816C217.247 44.7793 217.113 44.8281 216.938 44.8281C216.762 44.8281 216.628 44.7793 216.537 44.6816C216.449 44.584 216.405 44.4619 216.405 44.3154ZM220.951 50.3604C221.273 50.3604 221.555 50.2627 221.796 50.0674C222.037 49.8721 222.17 49.6279 222.196 49.335H223.051C223.035 49.6377 222.93 49.9258 222.738 50.1992C222.546 50.4727 222.289 50.6908 221.967 50.8535C221.648 51.0163 221.309 51.0977 220.951 51.0977C220.232 51.0977 219.659 50.8584 219.232 50.3799C218.809 49.8981 218.598 49.2406 218.598 48.4072V48.2559C218.598 47.7415 218.692 47.2842 218.881 46.8838C219.07 46.4834 219.34 46.1725 219.691 45.9512C220.046 45.7298 220.465 45.6191 220.946 45.6191C221.539 45.6191 222.03 45.7965 222.421 46.1514C222.815 46.5062 223.025 46.9668 223.051 47.5332H222.196C222.17 47.1914 222.04 46.9115 221.806 46.6934C221.575 46.472 221.288 46.3613 220.946 46.3613C220.487 46.3613 220.131 46.5273 219.877 46.8594C219.626 47.1882 219.501 47.665 219.501 48.29V48.4609C219.501 49.0697 219.626 49.5384 219.877 49.8672C220.128 50.196 220.486 50.3604 220.951 50.3604ZM224.97 46.3564C225.37 45.8649 225.891 45.6191 226.532 45.6191C227.649 45.6191 228.212 46.249 228.222 47.5088V51H227.318V47.5039C227.315 47.123 227.227 46.8415 227.055 46.6592C226.885 46.4769 226.62 46.3857 226.259 46.3857C225.966 46.3857 225.709 46.4639 225.487 46.6201C225.266 46.7764 225.093 46.9814 224.97 47.2354V51H224.066V43.5H224.97V46.3564ZM19.2373 60.5273C19.1006 60.5046 18.9525 60.4932 18.793 60.4932C18.2005 60.4932 17.7985 60.7454 17.5869 61.25V65H16.6836V59.7168H17.5625L17.5771 60.3271C17.8734 59.8551 18.2933 59.6191 18.8369 59.6191C19.0127 59.6191 19.1462 59.6419 19.2373 59.6875V60.5273ZM22.167 65.0977C21.4508 65.0977 20.8682 64.8633 20.4189 64.3945C19.9697 63.9225 19.7451 63.2926 19.7451 62.5049V62.3389C19.7451 61.8148 19.8444 61.3477 20.043 60.9375C20.2448 60.5241 20.5247 60.2018 20.8828 59.9707C21.2441 59.7363 21.6348 59.6191 22.0547 59.6191C22.7415 59.6191 23.2754 59.8454 23.6562 60.2979C24.0371 60.7503 24.2275 61.3981 24.2275 62.2412V62.6172H20.6484C20.6615 63.138 20.8128 63.5596 21.1025 63.8818C21.3955 64.2008 21.7666 64.3604 22.2158 64.3604C22.5348 64.3604 22.805 64.2952 23.0264 64.165C23.2477 64.0348 23.4414 63.8623 23.6074 63.6475L24.1592 64.0771C23.7165 64.7575 23.0524 65.0977 22.167 65.0977ZM22.0547 60.3613C21.6901 60.3613 21.3841 60.4948 21.1367 60.7617C20.8893 61.0254 20.7363 61.3965 20.6777 61.875H23.3242V61.8066C23.2982 61.3477 23.1745 60.9928 22.9531 60.7422C22.7318 60.4883 22.4323 60.3613 22.0547 60.3613ZM26.127 59.7168L26.1514 60.3027C26.5387 59.847 27.0612 59.6191 27.7188 59.6191C28.4577 59.6191 28.9606 59.9023 29.2275 60.4688C29.4033 60.2148 29.6312 60.0098 29.9111 59.8535C30.1943 59.6973 30.528 59.6191 30.9121 59.6191C32.071 59.6191 32.6602 60.2327 32.6797 61.46V65H31.7764V61.5137C31.7764 61.1361 31.6901 60.8545 31.5176 60.6689C31.3451 60.4801 31.0553 60.3857 30.6484 60.3857C30.3132 60.3857 30.0348 60.4867 29.8135 60.6885C29.5921 60.887 29.4635 61.1556 29.4277 61.4941V65H28.5195V61.5381C28.5195 60.7699 28.1436 60.3857 27.3916 60.3857C26.7992 60.3857 26.3939 60.638 26.1758 61.1426V65H25.2725V59.7168H26.127ZM33.8076 62.3096C33.8076 61.792 33.9085 61.3265 34.1104 60.9131C34.3154 60.4997 34.5986 60.1807 34.96 59.9561C35.3245 59.7314 35.7396 59.6191 36.2051 59.6191C36.9245 59.6191 37.5055 59.8682 37.9482 60.3662C38.3942 60.8643 38.6172 61.5267 38.6172 62.3535V62.417C38.6172 62.9313 38.5179 63.3936 38.3193 63.8037C38.124 64.2106 37.8424 64.528 37.4746 64.7559C37.11 64.9837 36.6901 65.0977 36.2148 65.0977C35.4987 65.0977 34.9176 64.8486 34.4717 64.3506C34.029 63.8525 33.8076 63.1934 33.8076 62.373V62.3096ZM34.7158 62.417C34.7158 63.0029 34.8509 63.4733 35.1211 63.8281C35.3945 64.1829 35.7591 64.3604 36.2148 64.3604C36.6738 64.3604 37.0384 64.1813 37.3086 63.8232C37.5788 63.4619 37.7139 62.9574 37.7139 62.3096C37.7139 61.7301 37.5755 61.2614 37.2988 60.9033C37.0254 60.542 36.6608 60.3613 36.2051 60.3613C35.7591 60.3613 35.3994 60.5387 35.126 60.8936C34.8525 61.2484 34.7158 61.7562 34.7158 62.417ZM41.415 63.7744L42.7236 59.7168H43.6465L41.752 65H41.0635L39.1494 59.7168H40.0723L41.415 63.7744ZM46.6396 65.0977C45.9235 65.0977 45.3408 64.8633 44.8916 64.3945C44.4424 63.9225 44.2178 63.2926 44.2178 62.5049V62.3389C44.2178 61.8148 44.3171 61.3477 44.5156 60.9375C44.7174 60.5241 44.9974 60.2018 45.3555 59.9707C45.7168 59.7363 46.1074 59.6191 46.5273 59.6191C47.2142 59.6191 47.748 59.8454 48.1289 60.2979C48.5098 60.7503 48.7002 61.3981 48.7002 62.2412V62.6172H45.1211C45.1341 63.138 45.2855 63.5596 45.5752 63.8818C45.8682 64.2008 46.2393 64.3604 46.6885 64.3604C47.0075 64.3604 47.2777 64.2952 47.499 64.165C47.7204 64.0348 47.9141 63.8623 48.0801 63.6475L48.6318 64.0771C48.1891 64.7575 47.5251 65.0977 46.6396 65.0977ZM46.5273 60.3613C46.1628 60.3613 45.8568 60.4948 45.6094 60.7617C45.362 61.0254 45.209 61.3965 45.1504 61.875H47.7969V61.8066C47.7708 61.3477 47.6471 60.9928 47.4258 60.7422C47.2044 60.4883 46.9049 60.3613 46.5273 60.3613ZM52.8262 63.5986C52.8262 63.3545 52.7334 63.1657 52.5479 63.0322C52.3656 62.8955 52.0449 62.7783 51.5859 62.6807C51.1302 62.583 50.7673 62.4658 50.4971 62.3291C50.2301 62.1924 50.0316 62.0296 49.9014 61.8408C49.7744 61.652 49.7109 61.4274 49.7109 61.167C49.7109 60.734 49.8932 60.3678 50.2578 60.0684C50.6257 59.7689 51.0944 59.6191 51.6641 59.6191C52.263 59.6191 52.748 59.7738 53.1191 60.083C53.4935 60.3923 53.6807 60.7878 53.6807 61.2695H52.7725C52.7725 61.0221 52.6667 60.8089 52.4551 60.6299C52.2467 60.4508 51.9831 60.3613 51.6641 60.3613C51.3353 60.3613 51.0781 60.4329 50.8926 60.5762C50.707 60.7194 50.6143 60.9066 50.6143 61.1377C50.6143 61.3558 50.7005 61.5202 50.873 61.6309C51.0456 61.7415 51.3564 61.8473 51.8057 61.9482C52.2581 62.0492 52.6243 62.1696 52.9043 62.3096C53.1842 62.4495 53.391 62.6188 53.5244 62.8174C53.6611 63.0127 53.7295 63.252 53.7295 63.5352C53.7295 64.0072 53.5407 64.3864 53.1631 64.6729C52.7855 64.9561 52.2956 65.0977 51.6934 65.0977C51.2702 65.0977 50.8958 65.0228 50.5703 64.873C50.2448 64.7233 49.9893 64.515 49.8037 64.248C49.6214 63.9779 49.5303 63.6865 49.5303 63.374H50.4336C50.4499 63.6768 50.5703 63.9176 50.7949 64.0967C51.0228 64.2725 51.3223 64.3604 51.6934 64.3604C52.0352 64.3604 52.3086 64.292 52.5137 64.1553C52.722 64.0153 52.8262 63.8298 52.8262 63.5986ZM60.4629 63.5986C60.4629 63.3545 60.3701 63.1657 60.1846 63.0322C60.0023 62.8955 59.6816 62.7783 59.2227 62.6807C58.7669 62.583 58.404 62.4658 58.1338 62.3291C57.8669 62.1924 57.6683 62.0296 57.5381 61.8408C57.4111 61.652 57.3477 61.4274 57.3477 61.167C57.3477 60.734 57.5299 60.3678 57.8945 60.0684C58.2624 59.7689 58.7311 59.6191 59.3008 59.6191C59.8997 59.6191 60.3848 59.7738 60.7559 60.083C61.1302 60.3923 61.3174 60.7878 61.3174 61.2695H60.4092C60.4092 61.0221 60.3034 60.8089 60.0918 60.6299C59.8835 60.4508 59.6198 60.3613 59.3008 60.3613C58.972 60.3613 58.7148 60.4329 58.5293 60.5762C58.3438 60.7194 58.251 60.9066 58.251 61.1377C58.251 61.3558 58.3372 61.5202 58.5098 61.6309C58.6823 61.7415 58.9932 61.8473 59.4424 61.9482C59.8949 62.0492 60.2611 62.1696 60.541 62.3096C60.821 62.4495 61.0277 62.6188 61.1611 62.8174C61.2979 63.0127 61.3662 63.252 61.3662 63.5352C61.3662 64.0072 61.1774 64.3864 60.7998 64.6729C60.4222 64.9561 59.9323 65.0977 59.3301 65.0977C58.9069 65.0977 58.5326 65.0228 58.207 64.873C57.8815 64.7233 57.626 64.515 57.4404 64.248C57.2581 63.9779 57.167 63.6865 57.167 63.374H58.0703C58.0866 63.6768 58.207 63.9176 58.4316 64.0967C58.6595 64.2725 58.959 64.3604 59.3301 64.3604C59.6719 64.3604 59.9453 64.292 60.1504 64.1553C60.3587 64.0153 60.4629 63.8298 60.4629 63.5986ZM62.3037 62.3096C62.3037 61.792 62.4046 61.3265 62.6064 60.9131C62.8115 60.4997 63.0947 60.1807 63.4561 59.9561C63.8206 59.7314 64.2357 59.6191 64.7012 59.6191C65.4206 59.6191 66.0016 59.8682 66.4443 60.3662C66.8903 60.8643 67.1133 61.5267 67.1133 62.3535V62.417C67.1133 62.9313 67.014 63.3936 66.8154 63.8037C66.6201 64.2106 66.3385 64.528 65.9707 64.7559C65.6061 64.9837 65.1862 65.0977 64.7109 65.0977C63.9948 65.0977 63.4137 64.8486 62.9678 64.3506C62.5251 63.8525 62.3037 63.1934 62.3037 62.373V62.3096ZM63.2119 62.417C63.2119 63.0029 63.347 63.4733 63.6172 63.8281C63.8906 64.1829 64.2552 64.3604 64.7109 64.3604C65.1699 64.3604 65.5345 64.1813 65.8047 63.8232C66.0749 63.4619 66.21 62.9574 66.21 62.3096C66.21 61.7301 66.0716 61.2614 65.7949 60.9033C65.5215 60.542 65.1569 60.3613 64.7012 60.3613C64.2552 60.3613 63.8955 60.5387 63.6221 60.8936C63.3486 61.2484 63.2119 61.7562 63.2119 62.417ZM69.0957 59.7168L69.1201 60.3027C69.5075 59.847 70.0299 59.6191 70.6875 59.6191C71.4264 59.6191 71.9294 59.9023 72.1963 60.4688C72.3721 60.2148 72.5999 60.0098 72.8799 59.8535C73.1631 59.6973 73.4967 59.6191 73.8809 59.6191C75.0397 59.6191 75.6289 60.2327 75.6484 61.46V65H74.7451V61.5137C74.7451 61.1361 74.6589 60.8545 74.4863 60.6689C74.3138 60.4801 74.0241 60.3857 73.6172 60.3857C73.2819 60.3857 73.0036 60.4867 72.7822 60.6885C72.5609 60.887 72.4323 61.1556 72.3965 61.4941V65H71.4883V61.5381C71.4883 60.7699 71.1123 60.3857 70.3604 60.3857C69.7679 60.3857 69.3626 60.638 69.1445 61.1426V65H68.2412V59.7168H69.0957ZM79.208 65.0977C78.4919 65.0977 77.9092 64.8633 77.46 64.3945C77.0107 63.9225 76.7861 63.2926 76.7861 62.5049V62.3389C76.7861 61.8148 76.8854 61.3477 77.084 60.9375C77.2858 60.5241 77.5658 60.2018 77.9238 59.9707C78.2852 59.7363 78.6758 59.6191 79.0957 59.6191C79.7826 59.6191 80.3164 59.8454 80.6973 60.2979C81.0781 60.7503 81.2686 61.3981 81.2686 62.2412V62.6172H77.6895C77.7025 63.138 77.8538 63.5596 78.1436 63.8818C78.4365 64.2008 78.8076 64.3604 79.2568 64.3604C79.5758 64.3604 79.846 64.2952 80.0674 64.165C80.2887 64.0348 80.4824 63.8623 80.6484 63.6475L81.2002 64.0771C80.7575 64.7575 80.0934 65.0977 79.208 65.0977ZM79.0957 60.3613C78.7311 60.3613 78.4251 60.4948 78.1777 60.7617C77.9303 61.0254 77.7773 61.3965 77.7188 61.875H80.3652V61.8066C80.3392 61.3477 80.2155 60.9928 79.9941 60.7422C79.7728 60.4883 79.4733 60.3613 79.0957 60.3613ZM89.9453 57.8906V62.7246C89.9421 63.3952 89.7305 63.9437 89.3105 64.3701C88.8939 64.7965 88.3275 65.0358 87.6113 65.0879L87.3623 65.0977C86.5843 65.0977 85.9642 64.8877 85.502 64.4678C85.0397 64.0479 84.8053 63.4701 84.7988 62.7344V57.8906H85.7266V62.7051C85.7266 63.2194 85.8682 63.6198 86.1514 63.9062C86.4346 64.1895 86.8382 64.3311 87.3623 64.3311C87.8929 64.3311 88.2982 64.1895 88.5781 63.9062C88.8613 63.623 89.0029 63.2243 89.0029 62.71V57.8906H89.9453ZM92.4307 65H91.4932V57.8906H92.4307V65ZM98.6074 64.3604C98.9297 64.3604 99.2113 64.2627 99.4521 64.0674C99.693 63.8721 99.8265 63.6279 99.8525 63.335H100.707C100.691 63.6377 100.587 63.9258 100.395 64.1992C100.202 64.4727 99.9453 64.6908 99.623 64.8535C99.304 65.0163 98.9655 65.0977 98.6074 65.0977C97.888 65.0977 97.3151 64.8584 96.8887 64.3799C96.4655 63.8981 96.2539 63.2406 96.2539 62.4072V62.2559C96.2539 61.7415 96.3483 61.2842 96.5371 60.8838C96.7259 60.4834 96.9961 60.1725 97.3477 59.9512C97.7025 59.7298 98.1208 59.6191 98.6025 59.6191C99.195 59.6191 99.6865 59.7965 100.077 60.1514C100.471 60.5062 100.681 60.9668 100.707 61.5332H99.8525C99.8265 61.1914 99.6963 60.9115 99.4619 60.6934C99.2308 60.472 98.9443 60.3613 98.6025 60.3613C98.1436 60.3613 97.7871 60.5273 97.5332 60.8594C97.2826 61.1882 97.1572 61.665 97.1572 62.29V62.4609C97.1572 63.0697 97.2826 63.5384 97.5332 63.8672C97.7839 64.196 98.1419 64.3604 98.6074 64.3604ZM101.483 62.3096C101.483 61.792 101.584 61.3265 101.786 60.9131C101.991 60.4997 102.274 60.1807 102.636 59.9561C103 59.7314 103.415 59.6191 103.881 59.6191C104.6 59.6191 105.181 59.8682 105.624 60.3662C106.07 60.8643 106.293 61.5267 106.293 62.3535V62.417C106.293 62.9313 106.194 63.3936 105.995 63.8037C105.8 64.2106 105.518 64.528 105.15 64.7559C104.786 64.9837 104.366 65.0977 103.891 65.0977C103.174 65.0977 102.593 64.8486 102.147 64.3506C101.705 63.8525 101.483 63.1934 101.483 62.373V62.3096ZM102.392 62.417C102.392 63.0029 102.527 63.4733 102.797 63.8281C103.07 64.1829 103.435 64.3604 103.891 64.3604C104.35 64.3604 104.714 64.1813 104.984 63.8232C105.255 63.4619 105.39 62.9574 105.39 62.3096C105.39 61.7301 105.251 61.2614 104.975 60.9033C104.701 60.542 104.337 60.3613 103.881 60.3613C103.435 60.3613 103.075 60.5387 102.802 60.8936C102.528 61.2484 102.392 61.7562 102.392 62.417ZM108.275 59.7168L108.3 60.3027C108.687 59.847 109.21 59.6191 109.867 59.6191C110.606 59.6191 111.109 59.9023 111.376 60.4688C111.552 60.2148 111.78 60.0098 112.06 59.8535C112.343 59.6973 112.676 59.6191 113.061 59.6191C114.219 59.6191 114.809 60.2327 114.828 61.46V65H113.925V61.5137C113.925 61.1361 113.839 60.8545 113.666 60.6689C113.493 60.4801 113.204 60.3857 112.797 60.3857C112.462 60.3857 112.183 60.4867 111.962 60.6885C111.741 60.887 111.612 61.1556 111.576 61.4941V65H110.668V61.5381C110.668 60.7699 110.292 60.3857 109.54 60.3857C108.948 60.3857 108.542 60.638 108.324 61.1426V65H107.421V59.7168H108.275ZM120.658 62.417C120.658 63.221 120.474 63.8688 120.106 64.3604C119.739 64.8519 119.241 65.0977 118.612 65.0977C117.971 65.0977 117.466 64.8942 117.099 64.4873V67.0312H116.195V59.7168H117.021L117.064 60.3027C117.432 59.847 117.943 59.6191 118.598 59.6191C119.232 59.6191 119.734 59.8584 120.102 60.3369C120.473 60.8154 120.658 61.4811 120.658 62.334V62.417ZM119.755 62.3145C119.755 61.7188 119.628 61.2484 119.374 60.9033C119.12 60.5583 118.772 60.3857 118.329 60.3857C117.782 60.3857 117.372 60.6283 117.099 61.1133V63.6377C117.369 64.1195 117.782 64.3604 118.339 64.3604C118.772 64.3604 119.115 64.1895 119.369 63.8477C119.626 63.5026 119.755 62.9915 119.755 62.3145ZM121.571 62.3096C121.571 61.792 121.672 61.3265 121.874 60.9131C122.079 60.4997 122.362 60.1807 122.724 59.9561C123.088 59.7314 123.503 59.6191 123.969 59.6191C124.688 59.6191 125.269 59.8682 125.712 60.3662C126.158 60.8643 126.381 61.5267 126.381 62.3535V62.417C126.381 62.9313 126.282 63.3936 126.083 63.8037C125.888 64.2106 125.606 64.528 125.238 64.7559C124.874 64.9837 124.454 65.0977 123.979 65.0977C123.262 65.0977 122.681 64.8486 122.235 64.3506C121.793 63.8525 121.571 63.1934 121.571 62.373V62.3096ZM122.479 62.417C122.479 63.0029 122.615 63.4733 122.885 63.8281C123.158 64.1829 123.523 64.3604 123.979 64.3604C124.438 64.3604 124.802 64.1813 125.072 63.8232C125.342 63.4619 125.478 62.9574 125.478 62.3096C125.478 61.7301 125.339 61.2614 125.062 60.9033C124.789 60.542 124.424 60.3613 123.969 60.3613C123.523 60.3613 123.163 60.5387 122.89 60.8936C122.616 61.2484 122.479 61.7562 122.479 62.417ZM128.368 59.7168L128.397 60.3809C128.801 59.873 129.328 59.6191 129.979 59.6191C131.096 59.6191 131.659 60.249 131.669 61.5088V65H130.766V61.5039C130.762 61.123 130.674 60.8415 130.502 60.6592C130.333 60.4769 130.067 60.3857 129.706 60.3857C129.413 60.3857 129.156 60.4639 128.935 60.6201C128.713 60.7764 128.541 60.9814 128.417 61.2354V65H127.514V59.7168H128.368ZM135.224 65.0977C134.507 65.0977 133.925 64.8633 133.476 64.3945C133.026 63.9225 132.802 63.2926 132.802 62.5049V62.3389C132.802 61.8148 132.901 61.3477 133.1 60.9375C133.301 60.5241 133.581 60.2018 133.939 59.9707C134.301 59.7363 134.691 59.6191 135.111 59.6191C135.798 59.6191 136.332 59.8454 136.713 60.2979C137.094 60.7503 137.284 61.3981 137.284 62.2412V62.6172H133.705C133.718 63.138 133.869 63.5596 134.159 63.8818C134.452 64.2008 134.823 64.3604 135.272 64.3604C135.591 64.3604 135.862 64.2952 136.083 64.165C136.304 64.0348 136.498 63.8623 136.664 63.6475L137.216 64.0771C136.773 64.7575 136.109 65.0977 135.224 65.0977ZM135.111 60.3613C134.747 60.3613 134.441 60.4948 134.193 60.7617C133.946 61.0254 133.793 61.3965 133.734 61.875H136.381V61.8066C136.355 61.3477 136.231 60.9928 136.01 60.7422C135.788 60.4883 135.489 60.3613 135.111 60.3613ZM139.188 59.7168L139.218 60.3809C139.621 59.873 140.149 59.6191 140.8 59.6191C141.916 59.6191 142.479 60.249 142.489 61.5088V65H141.586V61.5039C141.583 61.123 141.495 60.8415 141.322 60.6592C141.153 60.4769 140.888 60.3857 140.526 60.3857C140.233 60.3857 139.976 60.4639 139.755 60.6201C139.534 60.7764 139.361 60.9814 139.237 61.2354V65H138.334V59.7168H139.188ZM145.077 58.4375V59.7168H146.063V60.415H145.077V63.6914C145.077 63.903 145.121 64.0625 145.209 64.1699C145.297 64.2741 145.447 64.3262 145.658 64.3262C145.762 64.3262 145.906 64.3066 146.088 64.2676V65C145.85 65.0651 145.619 65.0977 145.395 65.0977C144.991 65.0977 144.687 64.9756 144.481 64.7314C144.276 64.4873 144.174 64.1406 144.174 63.6914V60.415H143.212V59.7168H144.174V58.4375H145.077ZM150.199 63.5986C150.199 63.3545 150.106 63.1657 149.921 63.0322C149.739 62.8955 149.418 62.7783 148.959 62.6807C148.503 62.583 148.14 62.4658 147.87 62.3291C147.603 62.1924 147.405 62.0296 147.274 61.8408C147.147 61.652 147.084 61.4274 147.084 61.167C147.084 60.734 147.266 60.3678 147.631 60.0684C147.999 59.7689 148.467 59.6191 149.037 59.6191C149.636 59.6191 150.121 59.7738 150.492 60.083C150.867 60.3923 151.054 60.7878 151.054 61.2695H150.146C150.146 61.0221 150.04 60.8089 149.828 60.6299C149.62 60.4508 149.356 60.3613 149.037 60.3613C148.708 60.3613 148.451 60.4329 148.266 60.5762C148.08 60.7194 147.987 60.9066 147.987 61.1377C147.987 61.3558 148.074 61.5202 148.246 61.6309C148.419 61.7415 148.729 61.8473 149.179 61.9482C149.631 62.0492 149.997 62.1696 150.277 62.3096C150.557 62.4495 150.764 62.6188 150.897 62.8174C151.034 63.0127 151.103 63.252 151.103 63.5352C151.103 64.0072 150.914 64.3864 150.536 64.6729C150.159 64.9561 149.669 65.0977 149.066 65.0977C148.643 65.0977 148.269 65.0228 147.943 64.873C147.618 64.7233 147.362 64.515 147.177 64.248C146.994 63.9779 146.903 63.6865 146.903 63.374H147.807C147.823 63.6768 147.943 63.9176 148.168 64.0967C148.396 64.2725 148.695 64.3604 149.066 64.3604C149.408 64.3604 149.682 64.292 149.887 64.1553C150.095 64.0153 150.199 63.8298 150.199 63.5986ZM158.021 65C157.969 64.8958 157.927 64.7103 157.895 64.4434C157.475 64.8796 156.973 65.0977 156.391 65.0977C155.87 65.0977 155.442 64.9512 155.106 64.6582C154.774 64.362 154.608 63.9876 154.608 63.5352C154.608 62.985 154.817 62.5586 155.233 62.2559C155.653 61.9499 156.243 61.7969 157.001 61.7969H157.88V61.3818C157.88 61.0661 157.785 60.8154 157.597 60.6299C157.408 60.4411 157.13 60.3467 156.762 60.3467C156.439 60.3467 156.169 60.4281 155.951 60.5908C155.733 60.7536 155.624 60.9505 155.624 61.1816H154.716C154.716 60.918 154.809 60.6641 154.994 60.4199C155.183 60.1725 155.437 59.9772 155.756 59.834C156.078 59.6908 156.431 59.6191 156.815 59.6191C157.424 59.6191 157.901 59.7721 158.246 60.0781C158.591 60.3809 158.77 60.7992 158.783 61.333V63.7646C158.783 64.2497 158.845 64.6354 158.969 64.9219V65H158.021ZM156.522 64.3115C156.806 64.3115 157.074 64.2383 157.328 64.0918C157.582 63.9453 157.766 63.7549 157.88 63.5205V62.4365H157.172C156.065 62.4365 155.512 62.7604 155.512 63.4082C155.512 63.6914 155.606 63.9128 155.795 64.0723C155.984 64.2318 156.226 64.3115 156.522 64.3115ZM161.054 59.7168L161.083 60.3809C161.487 59.873 162.014 59.6191 162.665 59.6191C163.782 59.6191 164.345 60.249 164.354 61.5088V65H163.451V61.5039C163.448 61.123 163.36 60.8415 163.188 60.6592C163.018 60.4769 162.753 60.3857 162.392 60.3857C162.099 60.3857 161.841 60.4639 161.62 60.6201C161.399 60.7764 161.226 60.9814 161.103 61.2354V65H160.199V59.7168H161.054ZM165.497 62.3145C165.497 61.5039 165.689 60.8529 166.073 60.3613C166.457 59.8665 166.96 59.6191 167.582 59.6191C168.201 59.6191 168.69 59.8307 169.052 60.2539V57.5H169.955V65H169.125L169.081 64.4336C168.72 64.8763 168.217 65.0977 167.572 65.0977C166.96 65.0977 166.461 64.847 166.073 64.3457C165.689 63.8444 165.497 63.1901 165.497 62.3828V62.3145ZM166.4 62.417C166.4 63.016 166.524 63.4847 166.771 63.8232C167.019 64.1618 167.361 64.3311 167.797 64.3311C168.37 64.3311 168.788 64.0739 169.052 63.5596V61.1328C168.782 60.6348 168.367 60.3857 167.807 60.3857C167.364 60.3857 167.019 60.5566 166.771 60.8984C166.524 61.2402 166.4 61.7464 166.4 62.417ZM176.918 63.5986C176.918 63.3545 176.825 63.1657 176.64 63.0322C176.457 62.8955 176.137 62.7783 175.678 62.6807C175.222 62.583 174.859 62.4658 174.589 62.3291C174.322 62.1924 174.123 62.0296 173.993 61.8408C173.866 61.652 173.803 61.4274 173.803 61.167C173.803 60.734 173.985 60.3678 174.35 60.0684C174.717 59.7689 175.186 59.6191 175.756 59.6191C176.355 59.6191 176.84 59.7738 177.211 60.083C177.585 60.3923 177.772 60.7878 177.772 61.2695H176.864C176.864 61.0221 176.758 60.8089 176.547 60.6299C176.339 60.4508 176.075 60.3613 175.756 60.3613C175.427 60.3613 175.17 60.4329 174.984 60.5762C174.799 60.7194 174.706 60.9066 174.706 61.1377C174.706 61.3558 174.792 61.5202 174.965 61.6309C175.137 61.7415 175.448 61.8473 175.897 61.9482C176.35 62.0492 176.716 62.1696 176.996 62.3096C177.276 62.4495 177.483 62.6188 177.616 62.8174C177.753 63.0127 177.821 63.252 177.821 63.5352C177.821 64.0072 177.632 64.3864 177.255 64.6729C176.877 64.9561 176.387 65.0977 175.785 65.0977C175.362 65.0977 174.988 65.0228 174.662 64.873C174.337 64.7233 174.081 64.515 173.896 64.248C173.713 63.9779 173.622 63.6865 173.622 63.374H174.525C174.542 63.6768 174.662 63.9176 174.887 64.0967C175.115 64.2725 175.414 64.3604 175.785 64.3604C176.127 64.3604 176.4 64.292 176.605 64.1553C176.814 64.0153 176.918 63.8298 176.918 63.5986ZM182.26 64.4775C181.908 64.891 181.392 65.0977 180.712 65.0977C180.149 65.0977 179.719 64.9349 179.423 64.6094C179.13 64.2806 178.982 63.7956 178.979 63.1543V59.7168H179.882V63.1299C179.882 63.9307 180.207 64.3311 180.858 64.3311C181.549 64.3311 182.007 64.0739 182.235 63.5596V59.7168H183.139V65H182.279L182.26 64.4775ZM188.988 62.417C188.988 63.2243 188.803 63.8737 188.432 64.3652C188.061 64.8535 187.562 65.0977 186.938 65.0977C186.27 65.0977 185.754 64.8617 185.39 64.3896L185.346 65H184.516V57.5H185.419V60.2979C185.784 59.8454 186.286 59.6191 186.928 59.6191C187.569 59.6191 188.072 59.8617 188.437 60.3467C188.804 60.8317 188.988 61.4958 188.988 62.3389V62.417ZM188.085 62.3145C188.085 61.6992 187.966 61.224 187.729 60.8887C187.491 60.5534 187.149 60.3857 186.703 60.3857C186.107 60.3857 185.679 60.6624 185.419 61.2158V63.501C185.696 64.0544 186.127 64.3311 186.713 64.3311C187.146 64.3311 187.483 64.1634 187.724 63.8281C187.965 63.4928 188.085 62.9883 188.085 62.3145ZM193.207 63.5986C193.207 63.3545 193.114 63.1657 192.929 63.0322C192.746 62.8955 192.426 62.7783 191.967 62.6807C191.511 62.583 191.148 62.4658 190.878 62.3291C190.611 62.1924 190.412 62.0296 190.282 61.8408C190.155 61.652 190.092 61.4274 190.092 61.167C190.092 60.734 190.274 60.3678 190.639 60.0684C191.007 59.7689 191.475 59.6191 192.045 59.6191C192.644 59.6191 193.129 59.7738 193.5 60.083C193.874 60.3923 194.062 60.7878 194.062 61.2695H193.153C193.153 61.0221 193.048 60.8089 192.836 60.6299C192.628 60.4508 192.364 60.3613 192.045 60.3613C191.716 60.3613 191.459 60.4329 191.273 60.5762C191.088 60.7194 190.995 60.9066 190.995 61.1377C190.995 61.3558 191.081 61.5202 191.254 61.6309C191.426 61.7415 191.737 61.8473 192.187 61.9482C192.639 62.0492 193.005 62.1696 193.285 62.3096C193.565 62.4495 193.772 62.6188 193.905 62.8174C194.042 63.0127 194.11 63.252 194.11 63.5352C194.11 64.0072 193.922 64.3864 193.544 64.6729C193.166 64.9561 192.676 65.0977 192.074 65.0977C191.651 65.0977 191.277 65.0228 190.951 64.873C190.626 64.7233 190.37 64.515 190.185 64.248C190.002 63.9779 189.911 63.6865 189.911 63.374H190.814C190.831 63.6768 190.951 63.9176 191.176 64.0967C191.404 64.2725 191.703 64.3604 192.074 64.3604C192.416 64.3604 192.689 64.292 192.895 64.1553C193.103 64.0153 193.207 63.8298 193.207 63.5986ZM196.513 58.4375V59.7168H197.499V60.415H196.513V63.6914C196.513 63.903 196.557 64.0625 196.645 64.1699C196.732 64.2741 196.882 64.3262 197.094 64.3262C197.198 64.3262 197.341 64.3066 197.523 64.2676V65C197.286 65.0651 197.055 65.0977 196.83 65.0977C196.426 65.0977 196.122 64.9756 195.917 64.7314C195.712 64.4873 195.609 64.1406 195.609 63.6914V60.415H194.647V59.7168H195.609V58.4375H196.513ZM199.54 65H198.637V59.7168H199.54V65ZM198.563 58.3154C198.563 58.1689 198.607 58.0452 198.695 57.9443C198.786 57.8434 198.92 57.793 199.096 57.793C199.271 57.793 199.405 57.8434 199.496 57.9443C199.587 58.0452 199.633 58.1689 199.633 58.3154C199.633 58.4619 199.587 58.584 199.496 58.6816C199.405 58.7793 199.271 58.8281 199.096 58.8281C198.92 58.8281 198.786 58.7793 198.695 58.6816C198.607 58.584 198.563 58.4619 198.563 58.3154ZM202.216 58.4375V59.7168H203.202V60.415H202.216V63.6914C202.216 63.903 202.26 64.0625 202.348 64.1699C202.436 64.2741 202.585 64.3262 202.797 64.3262C202.901 64.3262 203.044 64.3066 203.227 64.2676V65C202.989 65.0651 202.758 65.0977 202.533 65.0977C202.13 65.0977 201.825 64.9756 201.62 64.7314C201.415 64.4873 201.312 64.1406 201.312 63.6914V60.415H200.351V59.7168H201.312V58.4375H202.216ZM207.523 64.4775C207.172 64.891 206.656 65.0977 205.976 65.0977C205.412 65.0977 204.983 64.9349 204.687 64.6094C204.394 64.2806 204.245 63.7956 204.242 63.1543V59.7168H205.146V63.1299C205.146 63.9307 205.471 64.3311 206.122 64.3311C206.812 64.3311 207.271 64.0739 207.499 63.5596V59.7168H208.402V65H207.543L207.523 64.4775ZM211.005 58.4375V59.7168H211.991V60.415H211.005V63.6914C211.005 63.903 211.049 64.0625 211.137 64.1699C211.225 64.2741 211.374 64.3262 211.586 64.3262C211.69 64.3262 211.833 64.3066 212.016 64.2676V65C211.778 65.0651 211.547 65.0977 211.322 65.0977C210.919 65.0977 210.614 64.9756 210.409 64.7314C210.204 64.4873 210.102 64.1406 210.102 63.6914V60.415H209.14V59.7168H210.102V58.4375H211.005ZM215.243 65.0977C214.527 65.0977 213.944 64.8633 213.495 64.3945C213.046 63.9225 212.821 63.2926 212.821 62.5049V62.3389C212.821 61.8148 212.921 61.3477 213.119 60.9375C213.321 60.5241 213.601 60.2018 213.959 59.9707C214.32 59.7363 214.711 59.6191 215.131 59.6191C215.818 59.6191 216.352 59.8454 216.732 60.2979C217.113 60.7503 217.304 61.3981 217.304 62.2412V62.6172H213.725C213.738 63.138 213.889 63.5596 214.179 63.8818C214.472 64.2008 214.843 64.3604 215.292 64.3604C215.611 64.3604 215.881 64.2952 216.103 64.165C216.324 64.0348 216.518 63.8623 216.684 63.6475L217.235 64.0771C216.793 64.7575 216.129 65.0977 215.243 65.0977ZM215.131 60.3613C214.766 60.3613 214.46 60.4948 214.213 60.7617C213.965 61.0254 213.812 61.3965 213.754 61.875H216.4V61.8066C216.374 61.3477 216.251 60.9928 216.029 60.7422C215.808 60.4883 215.508 60.3613 215.131 60.3613ZM221.43 63.5986C221.43 63.3545 221.337 63.1657 221.151 63.0322C220.969 62.8955 220.648 62.7783 220.189 62.6807C219.734 62.583 219.371 62.4658 219.101 62.3291C218.834 62.1924 218.635 62.0296 218.505 61.8408C218.378 61.652 218.314 61.4274 218.314 61.167C218.314 60.734 218.497 60.3678 218.861 60.0684C219.229 59.7689 219.698 59.6191 220.268 59.6191C220.867 59.6191 221.352 59.7738 221.723 60.083C222.097 60.3923 222.284 60.7878 222.284 61.2695H221.376C221.376 61.0221 221.27 60.8089 221.059 60.6299C220.85 60.4508 220.587 60.3613 220.268 60.3613C219.939 60.3613 219.682 60.4329 219.496 60.5762C219.311 60.7194 219.218 60.9066 219.218 61.1377C219.218 61.3558 219.304 61.5202 219.477 61.6309C219.649 61.7415 219.96 61.8473 220.409 61.9482C220.862 62.0492 221.228 62.1696 221.508 62.3096C221.788 62.4495 221.994 62.6188 222.128 62.8174C222.265 63.0127 222.333 63.252 222.333 63.5352C222.333 64.0072 222.144 64.3864 221.767 64.6729C221.389 64.9561 220.899 65.0977 220.297 65.0977C219.874 65.0977 219.499 65.0228 219.174 64.873C218.848 64.7233 218.593 64.515 218.407 64.248C218.225 63.9779 218.134 63.6865 218.134 63.374H219.037C219.053 63.6768 219.174 63.9176 219.398 64.0967C219.626 64.2725 219.926 64.3604 220.297 64.3604C220.639 64.3604 220.912 64.292 221.117 64.1553C221.326 64.0153 221.43 63.8298 221.43 63.5986ZM19.7598 77.5986C19.7598 77.3545 19.667 77.1657 19.4814 77.0322C19.2992 76.8955 18.9785 76.7783 18.5195 76.6807C18.0638 76.583 17.7008 76.4658 17.4307 76.3291C17.1637 76.1924 16.9652 76.0296 16.835 75.8408C16.708 75.652 16.6445 75.4274 16.6445 75.167C16.6445 74.734 16.8268 74.3678 17.1914 74.0684C17.5592 73.7689 18.028 73.6191 18.5977 73.6191C19.1966 73.6191 19.6816 73.7738 20.0527 74.083C20.4271 74.3923 20.6143 74.7878 20.6143 75.2695H19.7061C19.7061 75.0221 19.6003 74.8089 19.3887 74.6299C19.1803 74.4508 18.9167 74.3613 18.5977 74.3613C18.2689 74.3613 18.0117 74.4329 17.8262 74.5762C17.6406 74.7194 17.5479 74.9066 17.5479 75.1377C17.5479 75.3558 17.6341 75.5202 17.8066 75.6309C17.9792 75.7415 18.29 75.8473 18.7393 75.9482C19.1917 76.0492 19.5579 76.1696 19.8379 76.3096C20.1178 76.4495 20.3245 76.6188 20.458 76.8174C20.5947 77.0127 20.6631 77.252 20.6631 77.5352C20.6631 78.0072 20.4743 78.3864 20.0967 78.6729C19.7191 78.9561 19.2292 79.0977 18.627 79.0977C18.2038 79.0977 17.8294 79.0228 17.5039 78.873C17.1784 78.7233 16.9229 78.515 16.7373 78.248C16.555 77.9779 16.4639 77.6865 16.4639 77.374H17.3672C17.3835 77.6768 17.5039 77.9176 17.7285 78.0967C17.9564 78.2725 18.2559 78.3604 18.627 78.3604C18.9688 78.3604 19.2422 78.292 19.4473 78.1553C19.6556 78.0153 19.7598 77.8298 19.7598 77.5986ZM21.6006 76.3096C21.6006 75.792 21.7015 75.3265 21.9033 74.9131C22.1084 74.4997 22.3916 74.1807 22.7529 73.9561C23.1175 73.7314 23.5326 73.6191 23.998 73.6191C24.7174 73.6191 25.2985 73.8682 25.7412 74.3662C26.1872 74.8643 26.4102 75.5267 26.4102 76.3535V76.417C26.4102 76.9313 26.3109 77.3936 26.1123 77.8037C25.917 78.2106 25.6354 78.528 25.2676 78.7559C24.903 78.9837 24.4831 79.0977 24.0078 79.0977C23.2917 79.0977 22.7106 78.8486 22.2646 78.3506C21.8219 77.8525 21.6006 77.1934 21.6006 76.373V76.3096ZM22.5088 76.417C22.5088 77.0029 22.6439 77.4733 22.9141 77.8281C23.1875 78.1829 23.5521 78.3604 24.0078 78.3604C24.4668 78.3604 24.8314 78.1813 25.1016 77.8232C25.3717 77.4619 25.5068 76.9574 25.5068 76.3096C25.5068 75.7301 25.3685 75.2614 25.0918 74.9033C24.8184 74.542 24.4538 74.3613 23.998 74.3613C23.5521 74.3613 23.1924 74.5387 22.9189 74.8936C22.6455 75.2484 22.5088 75.7562 22.5088 76.417ZM28.3926 73.7168L28.417 74.3027C28.8044 73.847 29.3268 73.6191 29.9844 73.6191C30.7233 73.6191 31.2262 73.9023 31.4932 74.4688C31.6689 74.2148 31.8968 74.0098 32.1768 73.8535C32.46 73.6973 32.7936 73.6191 33.1777 73.6191C34.3366 73.6191 34.9258 74.2327 34.9453 75.46V79H34.042V75.5137C34.042 75.1361 33.9557 74.8545 33.7832 74.6689C33.6107 74.4801 33.321 74.3857 32.9141 74.3857C32.5788 74.3857 32.3005 74.4867 32.0791 74.6885C31.8577 74.887 31.7292 75.1556 31.6934 75.4941V79H30.7852V75.5381C30.7852 74.7699 30.4092 74.3857 29.6572 74.3857C29.0648 74.3857 28.6595 74.638 28.4414 75.1426V79H27.5381V73.7168H28.3926ZM38.5049 79.0977C37.7887 79.0977 37.2061 78.8633 36.7568 78.3945C36.3076 77.9225 36.083 77.2926 36.083 76.5049V76.3389C36.083 75.8148 36.1823 75.3477 36.3809 74.9375C36.5827 74.5241 36.8626 74.2018 37.2207 73.9707C37.582 73.7363 37.9727 73.6191 38.3926 73.6191C39.0794 73.6191 39.6133 73.8454 39.9941 74.2979C40.375 74.7503 40.5654 75.3981 40.5654 76.2412V76.6172H36.9863C36.9993 77.138 37.1507 77.5596 37.4404 77.8818C37.7334 78.2008 38.1045 78.3604 38.5537 78.3604C38.8727 78.3604 39.1429 78.2952 39.3643 78.165C39.5856 78.0348 39.7793 77.8623 39.9453 77.6475L40.4971 78.0771C40.0544 78.7575 39.3903 79.0977 38.5049 79.0977ZM38.3926 74.3613C38.028 74.3613 37.722 74.4948 37.4746 74.7617C37.2272 75.0254 37.0742 75.3965 37.0156 75.875H39.6621V75.8066C39.6361 75.3477 39.5124 74.9928 39.291 74.7422C39.0697 74.4883 38.7702 74.3613 38.3926 74.3613ZM43.8564 76.3096C43.8564 75.792 43.9574 75.3265 44.1592 74.9131C44.3643 74.4997 44.6475 74.1807 45.0088 73.9561C45.3734 73.7314 45.7884 73.6191 46.2539 73.6191C46.9733 73.6191 47.5544 73.8682 47.9971 74.3662C48.443 74.8643 48.666 75.5267 48.666 76.3535V76.417C48.666 76.9313 48.5667 77.3936 48.3682 77.8037C48.1729 78.2106 47.8913 78.528 47.5234 78.7559C47.1589 78.9837 46.7389 79.0977 46.2637 79.0977C45.5475 79.0977 44.9665 78.8486 44.5205 78.3506C44.0778 77.8525 43.8564 77.1934 43.8564 76.373V76.3096ZM44.7646 76.417C44.7646 77.0029 44.8997 77.4733 45.1699 77.8281C45.4434 78.1829 45.8079 78.3604 46.2637 78.3604C46.7227 78.3604 47.0872 78.1813 47.3574 77.8232C47.6276 77.4619 47.7627 76.9574 47.7627 76.3096C47.7627 75.7301 47.6243 75.2614 47.3477 74.9033C47.0742 74.542 46.7096 74.3613 46.2539 74.3613C45.8079 74.3613 45.4482 74.5387 45.1748 74.8936C44.9014 75.2484 44.7646 75.7562 44.7646 76.417ZM50.2432 79V74.415H49.4082V73.7168H50.2432V73.1748C50.2432 72.6084 50.3945 72.1706 50.6973 71.8613C51 71.5521 51.4281 71.3975 51.9814 71.3975C52.1898 71.3975 52.3965 71.4251 52.6016 71.4805L52.5527 72.2129C52.3997 72.1836 52.237 72.1689 52.0645 72.1689C51.7715 72.1689 51.5452 72.2552 51.3857 72.4277C51.2262 72.597 51.1465 72.8411 51.1465 73.1602V73.7168H52.2744V74.415H51.1465V79H50.2432ZM56.9814 72.4375V73.7168H57.9678V74.415H56.9814V77.6914C56.9814 77.903 57.0254 78.0625 57.1133 78.1699C57.2012 78.2741 57.3509 78.3262 57.5625 78.3262C57.6667 78.3262 57.8099 78.3066 57.9922 78.2676V79C57.7546 79.0651 57.5234 79.0977 57.2988 79.0977C56.8952 79.0977 56.5908 78.9756 56.3857 78.7314C56.1807 78.4873 56.0781 78.1406 56.0781 77.6914V74.415H55.1162V73.7168H56.0781V72.4375H56.9814ZM59.9307 74.3564C60.3311 73.8649 60.8519 73.6191 61.4932 73.6191C62.6097 73.6191 63.1729 74.249 63.1826 75.5088V79H62.2793V75.5039C62.276 75.123 62.1882 74.8415 62.0156 74.6592C61.8464 74.4769 61.5811 74.3857 61.2197 74.3857C60.9268 74.3857 60.6696 74.4639 60.4482 74.6201C60.2269 74.7764 60.0544 74.9814 59.9307 75.2354V79H59.0273V71.5H59.9307V74.3564ZM66.7275 79.0977C66.0114 79.0977 65.4287 78.8633 64.9795 78.3945C64.5303 77.9225 64.3057 77.2926 64.3057 76.5049V76.3389C64.3057 75.8148 64.4049 75.3477 64.6035 74.9375C64.8053 74.5241 65.0853 74.2018 65.4434 73.9707C65.8047 73.7363 66.1953 73.6191 66.6152 73.6191C67.3021 73.6191 67.8359 73.8454 68.2168 74.2979C68.5977 74.7503 68.7881 75.3981 68.7881 76.2412V76.6172H65.209C65.222 77.138 65.3734 77.5596 65.6631 77.8818C65.9561 78.2008 66.3271 78.3604 66.7764 78.3604C67.0954 78.3604 67.3656 78.2952 67.5869 78.165C67.8083 78.0348 68.002 77.8623 68.168 77.6475L68.7197 78.0771C68.277 78.7575 67.613 79.0977 66.7275 79.0977ZM66.6152 74.3613C66.2507 74.3613 65.9447 74.4948 65.6973 74.7617C65.4499 75.0254 65.2969 75.3965 65.2383 75.875H67.8848V75.8066C67.8587 75.3477 67.735 74.9928 67.5137 74.7422C67.2923 74.4883 66.9928 74.3613 66.6152 74.3613ZM74.0615 77.7744L75.3701 73.7168H76.293L74.3984 79H73.71L71.7959 73.7168H72.7188L74.0615 77.7744ZM80.3457 79C80.2936 78.8958 80.2513 78.7103 80.2188 78.4434C79.7988 78.8796 79.2975 79.0977 78.7148 79.0977C78.194 79.0977 77.766 78.9512 77.4307 78.6582C77.0986 78.362 76.9326 77.9876 76.9326 77.5352C76.9326 76.985 77.141 76.5586 77.5576 76.2559C77.9775 75.9499 78.5667 75.7969 79.3252 75.7969H80.2041V75.3818C80.2041 75.0661 80.1097 74.8154 79.9209 74.6299C79.7321 74.4411 79.4538 74.3467 79.0859 74.3467C78.7637 74.3467 78.4935 74.4281 78.2754 74.5908C78.0573 74.7536 77.9482 74.9505 77.9482 75.1816H77.04C77.04 74.918 77.1328 74.6641 77.3184 74.4199C77.5072 74.1725 77.7611 73.9772 78.0801 73.834C78.4023 73.6908 78.7555 73.6191 79.1396 73.6191C79.7484 73.6191 80.2253 73.7721 80.5703 74.0781C80.9154 74.3809 81.0944 74.7992 81.1074 75.333V77.7646C81.1074 78.2497 81.1693 78.6354 81.293 78.9219V79H80.3457ZM78.8467 78.3115C79.1299 78.3115 79.3984 78.2383 79.6523 78.0918C79.9062 77.9453 80.0902 77.7549 80.2041 77.5205V76.4365H79.4961C78.3893 76.4365 77.8359 76.7604 77.8359 77.4082C77.8359 77.6914 77.9303 77.9128 78.1191 78.0723C78.3079 78.2318 78.5505 78.3115 78.8467 78.3115ZM83.3779 73.7168L83.4072 74.3809C83.8109 73.873 84.3382 73.6191 84.9893 73.6191C86.1058 73.6191 86.6689 74.249 86.6787 75.5088V79H85.7754V75.5039C85.7721 75.123 85.6842 74.8415 85.5117 74.6592C85.3424 74.4769 85.0771 74.3857 84.7158 74.3857C84.4229 74.3857 84.1657 74.4639 83.9443 74.6201C83.723 74.7764 83.5505 74.9814 83.4268 75.2354V79H82.5234V73.7168H83.3779ZM89.0225 79H88.1191V73.7168H89.0225V79ZM88.0459 72.3154C88.0459 72.1689 88.0898 72.0452 88.1777 71.9443C88.2689 71.8434 88.4023 71.793 88.5781 71.793C88.7539 71.793 88.8874 71.8434 88.9785 71.9443C89.0697 72.0452 89.1152 72.1689 89.1152 72.3154C89.1152 72.4619 89.0697 72.584 88.9785 72.6816C88.8874 72.7793 88.7539 72.8281 88.5781 72.8281C88.4023 72.8281 88.2689 72.7793 88.1777 72.6816C88.0898 72.584 88.0459 72.4619 88.0459 72.3154ZM91.4541 79H90.5508V71.5H91.4541V79ZM93.8857 79H92.9824V71.5H93.8857V79ZM98.5977 79C98.5456 78.8958 98.5033 78.7103 98.4707 78.4434C98.0508 78.8796 97.5495 79.0977 96.9668 79.0977C96.446 79.0977 96.0179 78.9512 95.6826 78.6582C95.3506 78.362 95.1846 77.9876 95.1846 77.5352C95.1846 76.985 95.3929 76.5586 95.8096 76.2559C96.2295 75.9499 96.8187 75.7969 97.5771 75.7969H98.4561V75.3818C98.4561 75.0661 98.3617 74.8154 98.1729 74.6299C97.984 74.4411 97.7057 74.3467 97.3379 74.3467C97.0156 74.3467 96.7454 74.4281 96.5273 74.5908C96.3092 74.7536 96.2002 74.9505 96.2002 75.1816H95.292C95.292 74.918 95.3848 74.6641 95.5703 74.4199C95.7591 74.1725 96.013 73.9772 96.332 73.834C96.6543 73.6908 97.0075 73.6191 97.3916 73.6191C98.0003 73.6191 98.4772 73.7721 98.8223 74.0781C99.1673 74.3809 99.3464 74.7992 99.3594 75.333V77.7646C99.3594 78.2497 99.4212 78.6354 99.5449 78.9219V79H98.5977ZM97.0986 78.3115C97.3818 78.3115 97.6504 78.2383 97.9043 78.0918C98.1582 77.9453 98.3421 77.7549 98.4561 77.5205V76.4365H97.748C96.6413 76.4365 96.0879 76.7604 96.0879 77.4082C96.0879 77.6914 96.1823 77.9128 96.3711 78.0723C96.5599 78.2318 96.8024 78.3115 97.0986 78.3115ZM105.448 79.0977C104.732 79.0977 104.149 78.8633 103.7 78.3945C103.251 77.9225 103.026 77.2926 103.026 76.5049V76.3389C103.026 75.8148 103.126 75.3477 103.324 74.9375C103.526 74.5241 103.806 74.2018 104.164 73.9707C104.525 73.7363 104.916 73.6191 105.336 73.6191C106.023 73.6191 106.557 73.8454 106.938 74.2979C107.318 74.7503 107.509 75.3981 107.509 76.2412V76.6172H103.93C103.943 77.138 104.094 77.5596 104.384 77.8818C104.677 78.2008 105.048 78.3604 105.497 78.3604C105.816 78.3604 106.086 78.2952 106.308 78.165C106.529 78.0348 106.723 77.8623 106.889 77.6475L107.44 78.0771C106.998 78.7575 106.334 79.0977 105.448 79.0977ZM105.336 74.3613C104.971 74.3613 104.665 74.4948 104.418 74.7617C104.171 75.0254 104.018 75.3965 103.959 75.875H106.605V75.8066C106.579 75.3477 106.456 74.9928 106.234 74.7422C106.013 74.4883 105.714 74.3613 105.336 74.3613ZM109.54 79H108.637V71.5H109.54V79ZM113.183 79.0977C112.466 79.0977 111.884 78.8633 111.435 78.3945C110.985 77.9225 110.761 77.2926 110.761 76.5049V76.3389C110.761 75.8148 110.86 75.3477 111.059 74.9375C111.26 74.5241 111.54 74.2018 111.898 73.9707C112.26 73.7363 112.65 73.6191 113.07 73.6191C113.757 73.6191 114.291 73.8454 114.672 74.2979C115.053 74.7503 115.243 75.3981 115.243 76.2412V76.6172H111.664C111.677 77.138 111.828 77.5596 112.118 77.8818C112.411 78.2008 112.782 78.3604 113.231 78.3604C113.55 78.3604 113.821 78.2952 114.042 78.165C114.263 78.0348 114.457 77.8623 114.623 77.6475L115.175 78.0771C114.732 78.7575 114.068 79.0977 113.183 79.0977ZM113.07 74.3613C112.706 74.3613 112.4 74.4948 112.152 74.7617C111.905 75.0254 111.752 75.3965 111.693 75.875H114.34V75.8066C114.314 75.3477 114.19 74.9928 113.969 74.7422C113.747 74.4883 113.448 74.3613 113.07 74.3613ZM117.143 73.7168L117.167 74.3027C117.554 73.847 118.077 73.6191 118.734 73.6191C119.473 73.6191 119.976 73.9023 120.243 74.4688C120.419 74.2148 120.647 74.0098 120.927 73.8535C121.21 73.6973 121.544 73.6191 121.928 73.6191C123.087 73.6191 123.676 74.2327 123.695 75.46V79H122.792V75.5137C122.792 75.1361 122.706 74.8545 122.533 74.6689C122.361 74.4801 122.071 74.3857 121.664 74.3857C121.329 74.3857 121.05 74.4867 120.829 74.6885C120.608 74.887 120.479 75.1556 120.443 75.4941V79H119.535V75.5381C119.535 74.7699 119.159 74.3857 118.407 74.3857C117.815 74.3857 117.41 74.638 117.191 75.1426V79H116.288V73.7168H117.143ZM127.255 79.0977C126.539 79.0977 125.956 78.8633 125.507 78.3945C125.058 77.9225 124.833 77.2926 124.833 76.5049V76.3389C124.833 75.8148 124.932 75.3477 125.131 74.9375C125.333 74.5241 125.613 74.2018 125.971 73.9707C126.332 73.7363 126.723 73.6191 127.143 73.6191C127.829 73.6191 128.363 73.8454 128.744 74.2979C129.125 74.7503 129.315 75.3981 129.315 76.2412V76.6172H125.736C125.749 77.138 125.901 77.5596 126.19 77.8818C126.483 78.2008 126.854 78.3604 127.304 78.3604C127.623 78.3604 127.893 78.2952 128.114 78.165C128.336 78.0348 128.529 77.8623 128.695 77.6475L129.247 78.0771C128.804 78.7575 128.14 79.0977 127.255 79.0977ZM127.143 74.3613C126.778 74.3613 126.472 74.4948 126.225 74.7617C125.977 75.0254 125.824 75.3965 125.766 75.875H128.412V75.8066C128.386 75.3477 128.262 74.9928 128.041 74.7422C127.82 74.4883 127.52 74.3613 127.143 74.3613ZM131.22 73.7168L131.249 74.3809C131.653 73.873 132.18 73.6191 132.831 73.6191C133.948 73.6191 134.511 74.249 134.521 75.5088V79H133.617V75.5039C133.614 75.123 133.526 74.8415 133.354 74.6592C133.184 74.4769 132.919 74.3857 132.558 74.3857C132.265 74.3857 132.007 74.4639 131.786 74.6201C131.565 74.7764 131.392 74.9814 131.269 75.2354V79H130.365V73.7168H131.22ZM137.108 72.4375V73.7168H138.095V74.415H137.108V77.6914C137.108 77.903 137.152 78.0625 137.24 78.1699C137.328 78.2741 137.478 78.3262 137.689 78.3262C137.794 78.3262 137.937 78.3066 138.119 78.2676V79C137.882 79.0651 137.65 79.0977 137.426 79.0977C137.022 79.0977 136.718 78.9756 136.513 78.7314C136.308 78.4873 136.205 78.1406 136.205 77.6914V74.415H135.243V73.7168H136.205V72.4375H137.108ZM142.23 77.5986C142.23 77.3545 142.138 77.1657 141.952 77.0322C141.77 76.8955 141.449 76.7783 140.99 76.6807C140.535 76.583 140.172 76.4658 139.901 76.3291C139.634 76.1924 139.436 76.0296 139.306 75.8408C139.179 75.652 139.115 75.4274 139.115 75.167C139.115 74.734 139.298 74.3678 139.662 74.0684C140.03 73.7689 140.499 73.6191 141.068 73.6191C141.667 73.6191 142.152 73.7738 142.523 74.083C142.898 74.3923 143.085 74.7878 143.085 75.2695H142.177C142.177 75.0221 142.071 74.8089 141.859 74.6299C141.651 74.4508 141.387 74.3613 141.068 74.3613C140.74 74.3613 140.482 74.4329 140.297 74.5762C140.111 74.7194 140.019 74.9066 140.019 75.1377C140.019 75.3558 140.105 75.5202 140.277 75.6309C140.45 75.7415 140.761 75.8473 141.21 75.9482C141.662 76.0492 142.029 76.1696 142.309 76.3096C142.589 76.4495 142.795 76.6188 142.929 76.8174C143.065 77.0127 143.134 77.252 143.134 77.5352C143.134 78.0072 142.945 78.3864 142.567 78.6729C142.19 78.9561 141.7 79.0977 141.098 79.0977C140.674 79.0977 140.3 79.0228 139.975 78.873C139.649 78.7233 139.394 78.515 139.208 78.248C139.026 77.9779 138.935 77.6865 138.935 77.374H139.838C139.854 77.6768 139.975 77.9176 140.199 78.0967C140.427 78.2725 140.727 78.3604 141.098 78.3604C141.439 78.3604 141.713 78.292 141.918 78.1553C142.126 78.0153 142.23 77.8298 142.23 77.5986ZM151.469 77.7549L152.484 73.7168H153.388L151.85 79H151.117L149.833 74.9961L148.583 79H147.851L146.317 73.7168H147.216L148.256 77.6719L149.486 73.7168H150.214L151.469 77.7549ZM155.292 79H154.389V73.7168H155.292V79ZM154.315 72.3154C154.315 72.1689 154.359 72.0452 154.447 71.9443C154.538 71.8434 154.672 71.793 154.848 71.793C155.023 71.793 155.157 71.8434 155.248 71.9443C155.339 72.0452 155.385 72.1689 155.385 72.3154C155.385 72.4619 155.339 72.584 155.248 72.6816C155.157 72.7793 155.023 72.8281 154.848 72.8281C154.672 72.8281 154.538 72.7793 154.447 72.6816C154.359 72.584 154.315 72.4619 154.315 72.3154ZM157.968 72.4375V73.7168H158.954V74.415H157.968V77.6914C157.968 77.903 158.012 78.0625 158.1 78.1699C158.188 78.2741 158.337 78.3262 158.549 78.3262C158.653 78.3262 158.796 78.3066 158.979 78.2676V79C158.741 79.0651 158.51 79.0977 158.285 79.0977C157.882 79.0977 157.577 78.9756 157.372 78.7314C157.167 78.4873 157.064 78.1406 157.064 77.6914V74.415H156.103V73.7168H157.064V72.4375H157.968ZM160.917 74.3564C161.317 73.8649 161.838 73.6191 162.479 73.6191C163.596 73.6191 164.159 74.249 164.169 75.5088V79H163.266V75.5039C163.262 75.123 163.174 74.8415 163.002 74.6592C162.833 74.4769 162.567 74.3857 162.206 74.3857C161.913 74.3857 161.656 74.4639 161.435 74.6201C161.213 74.7764 161.041 74.9814 160.917 75.2354V79H160.014V71.5H160.917V74.3564ZM168.852 73.7168L168.876 74.3027C169.263 73.847 169.786 73.6191 170.443 73.6191C171.182 73.6191 171.685 73.9023 171.952 74.4688C172.128 74.2148 172.356 74.0098 172.636 73.8535C172.919 73.6973 173.253 73.6191 173.637 73.6191C174.796 73.6191 175.385 74.2327 175.404 75.46V79H174.501V75.5137C174.501 75.1361 174.415 74.8545 174.242 74.6689C174.07 74.4801 173.78 74.3857 173.373 74.3857C173.038 74.3857 172.759 74.4867 172.538 74.6885C172.317 74.887 172.188 75.1556 172.152 75.4941V79H171.244V75.5381C171.244 74.7699 170.868 74.3857 170.116 74.3857C169.524 74.3857 169.118 74.638 168.9 75.1426V79H167.997V73.7168H168.852ZM177.753 79H176.85V73.7168H177.753V79ZM176.776 72.3154C176.776 72.1689 176.82 72.0452 176.908 71.9443C176.999 71.8434 177.133 71.793 177.309 71.793C177.484 71.793 177.618 71.8434 177.709 71.9443C177.8 72.0452 177.846 72.1689 177.846 72.3154C177.846 72.4619 177.8 72.584 177.709 72.6816C177.618 72.7793 177.484 72.8281 177.309 72.8281C177.133 72.8281 176.999 72.7793 176.908 72.6816C176.82 72.584 176.776 72.4619 176.776 72.3154ZM180.058 73.7168L180.087 74.3809C180.491 73.873 181.018 73.6191 181.669 73.6191C182.785 73.6191 183.349 74.249 183.358 75.5088V79H182.455V75.5039C182.452 75.123 182.364 74.8415 182.191 74.6592C182.022 74.4769 181.757 74.3857 181.396 74.3857C181.103 74.3857 180.845 74.4639 180.624 74.6201C180.403 74.7764 180.23 74.9814 180.106 75.2354V79H179.203V73.7168H180.058ZM185.702 79H184.799V73.7168H185.702V79ZM184.726 72.3154C184.726 72.1689 184.77 72.0452 184.857 71.9443C184.949 71.8434 185.082 71.793 185.258 71.793C185.434 71.793 185.567 71.8434 185.658 71.9443C185.749 72.0452 185.795 72.1689 185.795 72.3154C185.795 72.4619 185.749 72.584 185.658 72.6816C185.567 72.7793 185.434 72.8281 185.258 72.8281C185.082 72.8281 184.949 72.7793 184.857 72.6816C184.77 72.584 184.726 72.4619 184.726 72.3154ZM188.002 73.7168L188.026 74.3027C188.414 73.847 188.936 73.6191 189.594 73.6191C190.333 73.6191 190.836 73.9023 191.103 74.4688C191.278 74.2148 191.506 74.0098 191.786 73.8535C192.069 73.6973 192.403 73.6191 192.787 73.6191C193.946 73.6191 194.535 74.2327 194.555 75.46V79H193.651V75.5137C193.651 75.1361 193.565 74.8545 193.393 74.6689C193.22 74.4801 192.93 74.3857 192.523 74.3857C192.188 74.3857 191.91 74.4867 191.688 74.6885C191.467 74.887 191.339 75.1556 191.303 75.4941V79H190.395V75.5381C190.395 74.7699 190.019 74.3857 189.267 74.3857C188.674 74.3857 188.269 74.638 188.051 75.1426V79H187.147V73.7168H188.002ZM199.184 79C199.132 78.8958 199.089 78.7103 199.057 78.4434C198.637 78.8796 198.135 79.0977 197.553 79.0977C197.032 79.0977 196.604 78.9512 196.269 78.6582C195.937 78.362 195.771 77.9876 195.771 77.5352C195.771 76.985 195.979 76.5586 196.396 76.2559C196.815 75.9499 197.405 75.7969 198.163 75.7969H199.042V75.3818C199.042 75.0661 198.948 74.8154 198.759 74.6299C198.57 74.4411 198.292 74.3467 197.924 74.3467C197.602 74.3467 197.331 74.4281 197.113 74.5908C196.895 74.7536 196.786 74.9505 196.786 75.1816H195.878C195.878 74.918 195.971 74.6641 196.156 74.4199C196.345 74.1725 196.599 73.9772 196.918 73.834C197.24 73.6908 197.593 73.6191 197.978 73.6191C198.586 73.6191 199.063 73.7721 199.408 74.0781C199.753 74.3809 199.932 74.7992 199.945 75.333V77.7646C199.945 78.2497 200.007 78.6354 200.131 78.9219V79H199.184ZM197.685 78.3115C197.968 78.3115 198.236 78.2383 198.49 78.0918C198.744 77.9453 198.928 77.7549 199.042 77.5205V76.4365H198.334C197.227 76.4365 196.674 76.7604 196.674 77.4082C196.674 77.6914 196.768 77.9128 196.957 78.0723C197.146 78.2318 197.388 78.3115 197.685 78.3115ZM202.343 79H201.439V71.5H202.343V79ZM204.774 79H203.871V73.7168H204.774V79ZM203.798 72.3154C203.798 72.1689 203.842 72.0452 203.93 71.9443C204.021 71.8434 204.154 71.793 204.33 71.793C204.506 71.793 204.639 71.8434 204.73 71.9443C204.822 72.0452 204.867 72.1689 204.867 72.3154C204.867 72.4619 204.822 72.584 204.73 72.6816C204.639 72.7793 204.506 72.8281 204.33 72.8281C204.154 72.8281 204.021 72.7793 203.93 72.6816C203.842 72.584 203.798 72.4619 203.798 72.3154ZM209.301 77.5986C209.301 77.3545 209.208 77.1657 209.022 77.0322C208.84 76.8955 208.52 76.7783 208.061 76.6807C207.605 76.583 207.242 76.4658 206.972 76.3291C206.705 76.1924 206.506 76.0296 206.376 75.8408C206.249 75.652 206.186 75.4274 206.186 75.167C206.186 74.734 206.368 74.3678 206.732 74.0684C207.1 73.7689 207.569 73.6191 208.139 73.6191C208.738 73.6191 209.223 73.7738 209.594 74.083C209.968 74.3923 210.155 74.7878 210.155 75.2695H209.247C209.247 75.0221 209.141 74.8089 208.93 74.6299C208.721 74.4508 208.458 74.3613 208.139 74.3613C207.81 74.3613 207.553 74.4329 207.367 74.5762C207.182 74.7194 207.089 74.9066 207.089 75.1377C207.089 75.3558 207.175 75.5202 207.348 75.6309C207.52 75.7415 207.831 75.8473 208.28 75.9482C208.733 76.0492 209.099 76.1696 209.379 76.3096C209.659 76.4495 209.866 76.6188 209.999 76.8174C210.136 77.0127 210.204 77.252 210.204 77.5352C210.204 78.0072 210.015 78.3864 209.638 78.6729C209.26 78.9561 208.77 79.0977 208.168 79.0977C207.745 79.0977 207.37 79.0228 207.045 78.873C206.719 78.7233 206.464 78.515 206.278 78.248C206.096 77.9779 206.005 77.6865 206.005 77.374H206.908C206.924 77.6768 207.045 77.9176 207.27 78.0967C207.497 78.2725 207.797 78.3604 208.168 78.3604C208.51 78.3604 208.783 78.292 208.988 78.1553C209.197 78.0153 209.301 77.8298 209.301 77.5986ZM212.606 72.4375V73.7168H213.593V74.415H212.606V77.6914C212.606 77.903 212.65 78.0625 212.738 78.1699C212.826 78.2741 212.976 78.3262 213.188 78.3262C213.292 78.3262 213.435 78.3066 213.617 78.2676V79C213.38 79.0651 213.148 79.0977 212.924 79.0977C212.52 79.0977 212.216 78.9756 212.011 78.7314C211.806 78.4873 211.703 78.1406 211.703 77.6914V74.415H210.741V73.7168H211.703V72.4375H212.606ZM215.634 79H214.73V73.7168H215.634V79ZM214.657 72.3154C214.657 72.1689 214.701 72.0452 214.789 71.9443C214.88 71.8434 215.014 71.793 215.189 71.793C215.365 71.793 215.499 71.8434 215.59 71.9443C215.681 72.0452 215.727 72.1689 215.727 72.3154C215.727 72.4619 215.681 72.584 215.59 72.6816C215.499 72.7793 215.365 72.8281 215.189 72.8281C215.014 72.8281 214.88 72.7793 214.789 72.6816C214.701 72.584 214.657 72.4619 214.657 72.3154ZM219.203 78.3604C219.525 78.3604 219.807 78.2627 220.048 78.0674C220.289 77.8721 220.422 77.6279 220.448 77.335H221.303C221.286 77.6377 221.182 77.9258 220.99 78.1992C220.798 78.4727 220.541 78.6908 220.219 78.8535C219.9 79.0163 219.561 79.0977 219.203 79.0977C218.484 79.0977 217.911 78.8584 217.484 78.3799C217.061 77.8981 216.85 77.2406 216.85 76.4072V76.2559C216.85 75.7415 216.944 75.2842 217.133 74.8838C217.322 74.4834 217.592 74.1725 217.943 73.9512C218.298 73.7298 218.716 73.6191 219.198 73.6191C219.791 73.6191 220.282 73.7965 220.673 74.1514C221.067 74.5062 221.277 74.9668 221.303 75.5332H220.448C220.422 75.1914 220.292 74.9115 220.058 74.6934C219.826 74.472 219.54 74.3613 219.198 74.3613C218.739 74.3613 218.383 74.5273 218.129 74.8594C217.878 75.1882 217.753 75.665 217.753 76.29V76.4609C217.753 77.0697 217.878 77.5384 218.129 77.8672C218.38 78.196 218.738 78.3604 219.203 78.3604ZM19.2373 88.5273C19.1006 88.5046 18.9525 88.4932 18.793 88.4932C18.2005 88.4932 17.7985 88.7454 17.5869 89.25V93H16.6836V87.7168H17.5625L17.5771 88.3271C17.8734 87.8551 18.2933 87.6191 18.8369 87.6191C19.0127 87.6191 19.1462 87.6419 19.2373 87.6875V88.5273ZM22.167 93.0977C21.4508 93.0977 20.8682 92.8633 20.4189 92.3945C19.9697 91.9225 19.7451 91.2926 19.7451 90.5049V90.3389C19.7451 89.8148 19.8444 89.3477 20.043 88.9375C20.2448 88.5241 20.5247 88.2018 20.8828 87.9707C21.2441 87.7363 21.6348 87.6191 22.0547 87.6191C22.7415 87.6191 23.2754 87.8454 23.6562 88.2979C24.0371 88.7503 24.2275 89.3981 24.2275 90.2412V90.6172H20.6484C20.6615 91.138 20.8128 91.5596 21.1025 91.8818C21.3955 92.2008 21.7666 92.3604 22.2158 92.3604C22.5348 92.3604 22.805 92.2952 23.0264 92.165C23.2477 92.0348 23.4414 91.8623 23.6074 91.6475L24.1592 92.0771C23.7165 92.7575 23.0524 93.0977 22.167 93.0977ZM22.0547 88.3613C21.6901 88.3613 21.3841 88.4948 21.1367 88.7617C20.8893 89.0254 20.7363 89.3965 20.6777 89.875H23.3242V89.8066C23.2982 89.3477 23.1745 88.9928 22.9531 88.7422C22.7318 88.4883 22.4323 88.3613 22.0547 88.3613ZM29.7402 90.417C29.7402 91.221 29.5563 91.8688 29.1885 92.3604C28.8206 92.8519 28.3226 93.0977 27.6943 93.0977C27.0531 93.0977 26.5485 92.8942 26.1807 92.4873V95.0312H25.2773V87.7168H26.1025L26.1465 88.3027C26.5143 87.847 27.0254 87.6191 27.6797 87.6191C28.3145 87.6191 28.8158 87.8584 29.1836 88.3369C29.5547 88.8154 29.7402 89.4811 29.7402 90.334V90.417ZM28.8369 90.3145C28.8369 89.7188 28.71 89.2484 28.4561 88.9033C28.2021 88.5583 27.8538 88.3857 27.4111 88.3857C26.8643 88.3857 26.4541 88.6283 26.1807 89.1133V91.6377C26.4508 92.1195 26.8643 92.3604 27.4209 92.3604C27.8538 92.3604 28.1973 92.1895 28.4512 91.8477C28.7083 91.5026 28.8369 90.9915 28.8369 90.3145ZM31.874 93H30.9707V85.5H31.874V93ZM36.5859 93C36.5339 92.8958 36.4915 92.7103 36.459 92.4434C36.0391 92.8796 35.5378 93.0977 34.9551 93.0977C34.4342 93.0977 34.0062 92.9512 33.6709 92.6582C33.3389 92.362 33.1729 91.9876 33.1729 91.5352C33.1729 90.985 33.3812 90.5586 33.7979 90.2559C34.2178 89.9499 34.807 89.7969 35.5654 89.7969H36.4443V89.3818C36.4443 89.0661 36.3499 88.8154 36.1611 88.6299C35.9723 88.4411 35.694 88.3467 35.3262 88.3467C35.0039 88.3467 34.7337 88.4281 34.5156 88.5908C34.2975 88.7536 34.1885 88.9505 34.1885 89.1816H33.2803C33.2803 88.918 33.373 88.6641 33.5586 88.4199C33.7474 88.1725 34.0013 87.9772 34.3203 87.834C34.6426 87.6908 34.9958 87.6191 35.3799 87.6191C35.9886 87.6191 36.4655 87.7721 36.8105 88.0781C37.1556 88.3809 37.3346 88.7992 37.3477 89.333V91.7646C37.3477 92.2497 37.4095 92.6354 37.5332 92.9219V93H36.5859ZM35.0869 92.3115C35.3701 92.3115 35.6387 92.2383 35.8926 92.0918C36.1465 91.9453 36.3304 91.7549 36.4443 91.5205V90.4365H35.7363C34.6296 90.4365 34.0762 90.7604 34.0762 91.4082C34.0762 91.6914 34.1706 91.9128 34.3594 92.0723C34.5482 92.2318 34.7907 92.3115 35.0869 92.3115ZM40.8828 92.3604C41.2051 92.3604 41.4867 92.2627 41.7275 92.0674C41.9684 91.8721 42.1019 91.6279 42.1279 91.335H42.9824C42.9661 91.6377 42.862 91.9258 42.6699 92.1992C42.4779 92.4727 42.2207 92.6908 41.8984 92.8535C41.5794 93.0163 41.2409 93.0977 40.8828 93.0977C40.1634 93.0977 39.5905 92.8584 39.1641 92.3799C38.7409 91.8981 38.5293 91.2406 38.5293 90.4072V90.2559C38.5293 89.7415 38.6237 89.2842 38.8125 88.8838C39.0013 88.4834 39.2715 88.1725 39.623 87.9512C39.9779 87.7298 40.3962 87.6191 40.8779 87.6191C41.4704 87.6191 41.9619 87.7965 42.3525 88.1514C42.7464 88.5062 42.9564 88.9668 42.9824 89.5332H42.1279C42.1019 89.1914 41.9717 88.9115 41.7373 88.6934C41.5062 88.472 41.2197 88.3613 40.8779 88.3613C40.4189 88.3613 40.0625 88.5273 39.8086 88.8594C39.5579 89.1882 39.4326 89.665 39.4326 90.29V90.4609C39.4326 91.0697 39.5579 91.5384 39.8086 91.8672C40.0592 92.196 40.4173 92.3604 40.8828 92.3604ZM46.1904 93.0977C45.4743 93.0977 44.8916 92.8633 44.4424 92.3945C43.9932 91.9225 43.7686 91.2926 43.7686 90.5049V90.3389C43.7686 89.8148 43.8678 89.3477 44.0664 88.9375C44.2682 88.5241 44.5482 88.2018 44.9062 87.9707C45.2676 87.7363 45.6582 87.6191 46.0781 87.6191C46.765 87.6191 47.2988 87.8454 47.6797 88.2979C48.0605 88.7503 48.251 89.3981 48.251 90.2412V90.6172H44.6719C44.6849 91.138 44.8363 91.5596 45.126 91.8818C45.4189 92.2008 45.79 92.3604 46.2393 92.3604C46.5583 92.3604 46.8285 92.2952 47.0498 92.165C47.2712 92.0348 47.4648 91.8623 47.6309 91.6475L48.1826 92.0771C47.7399 92.7575 47.0758 93.0977 46.1904 93.0977ZM46.0781 88.3613C45.7135 88.3613 45.4076 88.4948 45.1602 88.7617C44.9128 89.0254 44.7598 89.3965 44.7012 89.875H47.3477V89.8066C47.3216 89.3477 47.1979 88.9928 46.9766 88.7422C46.7552 88.4883 46.4557 88.3613 46.0781 88.3613ZM50.1504 87.7168L50.1748 88.3027C50.5622 87.847 51.0846 87.6191 51.7422 87.6191C52.4811 87.6191 52.984 87.9023 53.251 88.4688C53.4268 88.2148 53.6546 88.0098 53.9346 87.8535C54.2178 87.6973 54.5514 87.6191 54.9355 87.6191C56.0944 87.6191 56.6836 88.2327 56.7031 89.46V93H55.7998V89.5137C55.7998 89.1361 55.7135 88.8545 55.541 88.6689C55.3685 88.4801 55.0788 88.3857 54.6719 88.3857C54.3366 88.3857 54.0583 88.4867 53.8369 88.6885C53.6156 88.887 53.487 89.1556 53.4512 89.4941V93H52.543V89.5381C52.543 88.7699 52.167 88.3857 51.415 88.3857C50.8226 88.3857 50.4173 88.638 50.1992 89.1426V93H49.2959V87.7168H50.1504ZM60.2627 93.0977C59.5465 93.0977 58.9639 92.8633 58.5146 92.3945C58.0654 91.9225 57.8408 91.2926 57.8408 90.5049V90.3389C57.8408 89.8148 57.9401 89.3477 58.1387 88.9375C58.3405 88.5241 58.6204 88.2018 58.9785 87.9707C59.3398 87.7363 59.7305 87.6191 60.1504 87.6191C60.8372 87.6191 61.3711 87.8454 61.752 88.2979C62.1328 88.7503 62.3232 89.3981 62.3232 90.2412V90.6172H58.7441C58.7572 91.138 58.9085 91.5596 59.1982 91.8818C59.4912 92.2008 59.8623 92.3604 60.3115 92.3604C60.6305 92.3604 60.9007 92.2952 61.1221 92.165C61.3434 92.0348 61.5371 91.8623 61.7031 91.6475L62.2549 92.0771C61.8122 92.7575 61.1481 93.0977 60.2627 93.0977ZM60.1504 88.3613C59.7858 88.3613 59.4798 88.4948 59.2324 88.7617C58.985 89.0254 58.832 89.3965 58.7734 89.875H61.4199V89.8066C61.3939 89.3477 61.2702 88.9928 61.0488 88.7422C60.8275 88.4883 60.528 88.3613 60.1504 88.3613ZM64.2275 87.7168L64.2568 88.3809C64.6605 87.873 65.1878 87.6191 65.8389 87.6191C66.9554 87.6191 67.5186 88.249 67.5283 89.5088V93H66.625V89.5039C66.6217 89.123 66.5339 88.8415 66.3613 88.6592C66.1921 88.4769 65.9268 88.3857 65.5654 88.3857C65.2725 88.3857 65.0153 88.4639 64.7939 88.6201C64.5726 88.7764 64.4001 88.9814 64.2764 89.2354V93H63.373V87.7168H64.2275ZM70.1162 86.4375V87.7168H71.1025V88.415H70.1162V91.6914C70.1162 91.903 70.1602 92.0625 70.248 92.1699C70.3359 92.2741 70.4857 92.3262 70.6973 92.3262C70.8014 92.3262 70.9447 92.3066 71.127 92.2676V93C70.8893 93.0651 70.6582 93.0977 70.4336 93.0977C70.0299 93.0977 69.7256 92.9756 69.5205 92.7314C69.3154 92.4873 69.2129 92.1406 69.2129 91.6914V88.415H68.251V87.7168H69.2129V86.4375H70.1162ZM75.2383 91.5986C75.2383 91.3545 75.1455 91.1657 74.96 91.0322C74.7777 90.8955 74.457 90.7783 73.998 90.6807C73.5423 90.583 73.1794 90.4658 72.9092 90.3291C72.6423 90.1924 72.4437 90.0296 72.3135 89.8408C72.1865 89.652 72.123 89.4274 72.123 89.167C72.123 88.734 72.3053 88.3678 72.6699 88.0684C73.0378 87.7689 73.5065 87.6191 74.0762 87.6191C74.6751 87.6191 75.1602 87.7738 75.5312 88.083C75.9056 88.3923 76.0928 88.7878 76.0928 89.2695H75.1846C75.1846 89.0221 75.0788 88.8089 74.8672 88.6299C74.6589 88.4508 74.3952 88.3613 74.0762 88.3613C73.7474 88.3613 73.4902 88.4329 73.3047 88.5762C73.1191 88.7194 73.0264 88.9066 73.0264 89.1377C73.0264 89.3558 73.1126 89.5202 73.2852 89.6309C73.4577 89.7415 73.7686 89.8473 74.2178 89.9482C74.6702 90.0492 75.0365 90.1696 75.3164 90.3096C75.5964 90.4495 75.8031 90.6188 75.9365 90.8174C76.0732 91.0127 76.1416 91.252 76.1416 91.5352C76.1416 92.0072 75.9528 92.3864 75.5752 92.6729C75.1976 92.9561 74.7077 93.0977 74.1055 93.0977C73.6823 93.0977 73.3079 93.0228 72.9824 92.873C72.6569 92.7233 72.4014 92.515 72.2158 92.248C72.0335 91.9779 71.9424 91.6865 71.9424 91.374H72.8457C72.862 91.6768 72.9824 91.9176 73.207 92.0967C73.4349 92.2725 73.7344 92.3604 74.1055 92.3604C74.4473 92.3604 74.7207 92.292 74.9258 92.1553C75.1341 92.0153 75.2383 91.8298 75.2383 91.5986ZM77.3379 92.5264C77.3379 92.3701 77.3835 92.2399 77.4746 92.1357C77.569 92.0316 77.709 91.9795 77.8945 91.9795C78.0801 91.9795 78.2201 92.0316 78.3145 92.1357C78.4121 92.2399 78.4609 92.3701 78.4609 92.5264C78.4609 92.6761 78.4121 92.8014 78.3145 92.9023C78.2201 93.0033 78.0801 93.0537 77.8945 93.0537C77.709 93.0537 77.569 93.0033 77.4746 92.9023C77.3835 92.8014 77.3379 92.6761 77.3379 92.5264Z" fill="#30363D"/>
<rect x="0.5" y="0.5" width="255" height="127" rx="5.5" stroke="#30363D"/>
</svg>
