<svg width="256" height="128" viewBox="0 0 256 128" fill="none" xmlns="http://www.w3.org/2000/svg">
<path fill-rule="evenodd" clip-rule="evenodd" d="M15 14.75C15 14.0207 15.2897 13.3212 15.8055 12.8055C16.3212 12.2897 17.0207 12 17.75 12H32.25C32.4489 12 32.6397 12.079 32.7803 12.2197C32.921 12.3603 33 12.5511 33 12.75V33.25C33 33.4489 32.921 33.6397 32.7803 33.7803C32.6397 33.921 32.4489 34 32.25 34H26.25C26.0511 34 25.8603 33.921 25.7197 33.7803C25.579 33.6397 25.5 33.4489 25.5 33.25C25.5 33.0511 25.579 32.8603 25.7197 32.7197C25.8603 32.579 26.0511 32.5 26.25 32.5H31.5V28.5H18C17.6022 28.5 17.2206 28.658 16.9393 28.9393C16.658 29.2206 16.5 29.6022 16.5 30V30.75C16.5 31.466 16.93 32.084 17.55 32.355C17.7262 32.4385 17.8629 32.5872 17.9313 32.7698C17.9996 32.9523 17.9942 33.1543 17.9162 33.3329C17.8382 33.5116 17.6937 33.6528 17.5134 33.7267C17.333 33.8007 17.1309 33.8015 16.95 33.729C16.3704 33.476 15.8771 33.0594 15.5308 32.5303C15.1844 32.0011 14.9999 31.3824 15 30.75V14.75ZM31.5 13.5V27H18C17.454 27 16.941 27.146 16.5 27.401V14.75C16.5 14.06 17.06 13.5 17.75 13.5H31.5Z" fill="#30363D"/>
<path d="M19 30.25C19 30.1837 19.0263 30.1201 19.0732 30.0732C19.1201 30.0263 19.1837 30 19.25 30H24.25C24.3163 30 24.3799 30.0263 24.4268 30.0732C24.4737 30.1201 24.5 30.1837 24.5 30.25V35.26C24.4998 35.306 24.4869 35.3511 24.4627 35.3902C24.4385 35.4293 24.404 35.461 24.3629 35.4818C24.3219 35.5026 24.2759 35.5117 24.23 35.508C24.1842 35.5043 24.1402 35.4881 24.103 35.461L21.897 33.857C21.8543 33.8259 21.8028 33.8092 21.75 33.8092C21.6972 33.8092 21.6457 33.8259 21.603 33.857L19.397 35.46C19.3599 35.487 19.316 35.5033 19.2702 35.507C19.2244 35.5107 19.1785 35.5017 19.1375 35.4811C19.0965 35.4604 19.062 35.4288 19.0377 35.3898C19.0135 35.3508 19.0004 35.3059 19 35.26V30.25Z" fill="#30363D"/>
<path d="M41.5391 24.7109C41.5391 23.4141 41.8464 22.3698 42.4609 21.5781C43.0807 20.7865 43.9141 20.3906 44.9609 20.3906C45.888 20.3906 46.6094 20.7083 47.125 21.3438L47.2188 20.5469H49.2656V28.7188C49.2656 29.4583 49.0964 30.1016 48.7578 30.6484C48.4245 31.1953 47.9531 31.612 47.3438 31.8984C46.7344 32.1849 46.0208 32.3281 45.2031 32.3281C44.5833 32.3281 43.9792 32.2031 43.3906 31.9531C42.8021 31.7083 42.3568 31.3906 42.0547 31L43.0547 29.625C43.6172 30.2552 44.2995 30.5703 45.1016 30.5703C45.7005 30.5703 46.1667 30.4089 46.5 30.0859C46.8333 29.7682 47 29.3151 47 28.7266V28.2734C46.4792 28.862 45.7943 29.1562 44.9453 29.1562C43.9297 29.1562 43.1068 28.7604 42.4766 27.9688C41.8516 27.1719 41.5391 26.1172 41.5391 24.8047V24.7109ZM43.7969 24.875C43.7969 25.6406 43.9505 26.2422 44.2578 26.6797C44.5651 27.112 44.987 27.3281 45.5234 27.3281C46.2109 27.3281 46.7031 27.0703 47 26.5547V23C46.6979 22.4844 46.2109 22.2266 45.5391 22.2266C44.9974 22.2266 44.5703 22.4479 44.2578 22.8906C43.9505 23.3333 43.7969 23.9948 43.7969 24.875ZM55.7578 22.6641C55.4505 22.6224 55.1797 22.6016 54.9453 22.6016C54.0911 22.6016 53.5312 22.8906 53.2656 23.4688V29H51.0078V20.5469H53.1406L53.2031 21.5547C53.6562 20.7786 54.2839 20.3906 55.0859 20.3906C55.3359 20.3906 55.5703 20.4245 55.7891 20.4922L55.7578 22.6641ZM61.5156 29C61.4115 28.7969 61.3359 28.5443 61.2891 28.2422C60.7422 28.8516 60.0312 29.1562 59.1562 29.1562C58.3281 29.1562 57.6406 28.9167 57.0938 28.4375C56.5521 27.9583 56.2812 27.3542 56.2812 26.625C56.2812 25.7292 56.612 25.0417 57.2734 24.5625C57.9401 24.0833 58.901 23.8411 60.1562 23.8359H61.1953V23.3516C61.1953 22.9609 61.0938 22.6484 60.8906 22.4141C60.6927 22.1797 60.3776 22.0625 59.9453 22.0625C59.5651 22.0625 59.2656 22.1536 59.0469 22.3359C58.8333 22.5182 58.7266 22.7682 58.7266 23.0859H56.4688C56.4688 22.5964 56.6198 22.1432 56.9219 21.7266C57.224 21.3099 57.651 20.9844 58.2031 20.75C58.7552 20.5104 59.375 20.3906 60.0625 20.3906C61.1042 20.3906 61.9297 20.6536 62.5391 21.1797C63.1536 21.7005 63.4609 22.4349 63.4609 23.3828V27.0469C63.4661 27.849 63.5781 28.4557 63.7969 28.8672V29H61.5156ZM59.6484 27.4297C59.9818 27.4297 60.2891 27.3568 60.5703 27.2109C60.8516 27.0599 61.0599 26.8594 61.1953 26.6094V25.1562H60.3516C59.2214 25.1562 58.6198 25.5469 58.5469 26.3281L58.5391 26.4609C58.5391 26.7422 58.638 26.974 58.8359 27.1562C59.0339 27.3385 59.3047 27.4297 59.6484 27.4297ZM64.8438 24.7109C64.8438 23.3932 65.138 22.3438 65.7266 21.5625C66.3203 20.7812 67.1302 20.3906 68.1562 20.3906C68.9792 20.3906 69.6589 20.6979 70.1953 21.3125V17H72.4609V29H70.4219L70.3125 28.1016C69.75 28.8047 69.026 29.1562 68.1406 29.1562C67.1458 29.1562 66.3464 28.7656 65.7422 27.9844C65.1432 27.1979 64.8438 26.1068 64.8438 24.7109ZM67.1016 24.875C67.1016 25.6667 67.2396 26.2734 67.5156 26.6953C67.7917 27.1172 68.1927 27.3281 68.7188 27.3281C69.4167 27.3281 69.9089 27.0339 70.1953 26.4453V23.1094C69.9141 22.5208 69.4271 22.2266 68.7344 22.2266C67.6458 22.2266 67.1016 23.1094 67.1016 24.875ZM80.4688 30.7656H73.3516V29H80.4688V30.7656ZM83.4688 20.5469L83.5391 21.4922C84.138 20.7578 84.9479 20.3906 85.9688 20.3906C87.0573 20.3906 87.8047 20.8203 88.2109 21.6797C88.8047 20.8203 89.651 20.3906 90.75 20.3906C91.6667 20.3906 92.349 20.6589 92.7969 21.1953C93.2448 21.7266 93.4688 22.5286 93.4688 23.6016V29H91.2031V23.6094C91.2031 23.1302 91.1094 22.7812 90.9219 22.5625C90.7344 22.3385 90.4036 22.2266 89.9297 22.2266C89.2526 22.2266 88.7839 22.5495 88.5234 23.1953L88.5312 29H86.2734V23.6172C86.2734 23.1276 86.1771 22.7734 85.9844 22.5547C85.7917 22.3359 85.4635 22.2266 85 22.2266C84.3594 22.2266 83.8958 22.4922 83.6094 23.0234V29H81.3516V20.5469H83.4688ZM97.5938 29H95.3281V20.5469H97.5938V29ZM95.1953 18.3594C95.1953 18.0208 95.3073 17.7422 95.5312 17.5234C95.7604 17.3047 96.0703 17.1953 96.4609 17.1953C96.8464 17.1953 97.1536 17.3047 97.3828 17.5234C97.612 17.7422 97.7266 18.0208 97.7266 18.3594C97.7266 18.7031 97.6094 18.9844 97.375 19.2031C97.1458 19.4219 96.8411 19.5312 96.4609 19.5312C96.0807 19.5312 95.7734 19.4219 95.5391 19.2031C95.3099 18.9844 95.1953 18.7031 95.1953 18.3594ZM101.539 20.5469L101.609 21.5234C102.214 20.7682 103.023 20.3906 104.039 20.3906C104.935 20.3906 105.602 20.6536 106.039 21.1797C106.477 21.7057 106.701 22.4922 106.711 23.5391V29H104.453V23.5938C104.453 23.1146 104.349 22.7682 104.141 22.5547C103.932 22.3359 103.586 22.2266 103.102 22.2266C102.466 22.2266 101.99 22.4974 101.672 23.0391V29H99.4141V20.5469H101.539ZM113.492 28.1406C112.935 28.8177 112.164 29.1562 111.18 29.1562C110.273 29.1562 109.581 28.8958 109.102 28.375C108.628 27.8542 108.385 27.0911 108.375 26.0859V20.5469H110.633V26.0078C110.633 26.888 111.034 27.3281 111.836 27.3281C112.602 27.3281 113.128 27.0625 113.414 26.5312V20.5469H115.68V29H113.555L113.492 28.1406ZM119.766 29H117.5V20.5469H119.766V29ZM117.367 18.3594C117.367 18.0208 117.479 17.7422 117.703 17.5234C117.932 17.3047 118.242 17.1953 118.633 17.1953C119.018 17.1953 119.326 17.3047 119.555 17.5234C119.784 17.7422 119.898 18.0208 119.898 18.3594C119.898 18.7031 119.781 18.9844 119.547 19.2031C119.318 19.4219 119.013 19.5312 118.633 19.5312C118.253 19.5312 117.945 19.4219 117.711 19.2031C117.482 18.9844 117.367 18.7031 117.367 18.3594Z" fill="#58A6FF"/>
<path d="M19.2891 55.8809C19 56.2949 18.5957 56.6055 18.0762 56.8125C17.5605 57.0156 16.959 57.1172 16.2715 57.1172C15.5762 57.1172 14.959 56.9551 14.4199 56.6309C13.8809 56.3027 13.4629 55.8379 13.166 55.2363C12.873 54.6348 12.7227 53.9375 12.7148 53.1445V52.4004C12.7148 51.1152 13.0137 50.1191 13.6113 49.4121C14.2129 48.7051 15.0566 48.3516 16.1426 48.3516C17.0332 48.3516 17.75 48.5801 18.293 49.0371C18.8359 49.4902 19.168 50.1348 19.2891 50.9707H18.1641C17.9531 49.8418 17.2812 49.2773 16.1484 49.2773C15.3945 49.2773 14.8223 49.543 14.4316 50.0742C14.0449 50.6016 13.8496 51.3672 13.8457 52.3711V53.0684C13.8457 54.0254 14.0645 54.7871 14.502 55.3535C14.9395 55.916 15.5312 56.1973 16.2773 56.1973C16.6992 56.1973 17.0684 56.1504 17.3848 56.0566C17.7012 55.9629 17.9629 55.8047 18.1699 55.582V53.666H16.1953V52.752H19.2891V55.8809ZM24.0645 51.6328C23.9004 51.6055 23.7227 51.5918 23.5312 51.5918C22.8203 51.5918 22.3379 51.8945 22.084 52.5V57H21V50.6602H22.0547L22.0723 51.3926C22.4277 50.8262 22.9316 50.543 23.584 50.543C23.7949 50.543 23.9551 50.5703 24.0645 50.625V51.6328ZM28.9805 56.373C28.5586 56.8691 27.9395 57.1172 27.123 57.1172C26.4473 57.1172 25.9316 56.9219 25.5762 56.5312C25.2246 56.1367 25.0469 55.5547 25.043 54.7852V50.6602H26.127V54.7559C26.127 55.7168 26.5176 56.1973 27.2988 56.1973C28.127 56.1973 28.6777 55.8887 28.9512 55.2715V50.6602H30.0352V57H29.0039L28.9805 56.373ZM37.043 53.9004C37.043 54.8652 36.8223 55.6426 36.3809 56.2324C35.9395 56.8223 35.3418 57.1172 34.5879 57.1172C33.8184 57.1172 33.2129 56.873 32.7715 56.3848V59.4375H31.6875V50.6602H32.6777L32.7305 51.3633C33.1719 50.8164 33.7852 50.543 34.5703 50.543C35.332 50.543 35.9336 50.8301 36.375 51.4043C36.8203 51.9785 37.043 52.7773 37.043 53.8008V53.9004ZM35.959 53.7773C35.959 53.0625 35.8066 52.498 35.502 52.084C35.1973 51.6699 34.7793 51.4629 34.248 51.4629C33.5918 51.4629 33.0996 51.7539 32.7715 52.3359V55.3652C33.0957 55.9434 33.5918 56.2324 34.2598 56.2324C34.7793 56.2324 35.1914 56.0273 35.4961 55.6172C35.8047 55.2031 35.959 54.5898 35.959 53.7773ZM43.7812 53.9004C43.7812 54.8652 43.5605 55.6426 43.1191 56.2324C42.6777 56.8223 42.0801 57.1172 41.3262 57.1172C40.5566 57.1172 39.9512 56.873 39.5098 56.3848V59.4375H38.4258V50.6602H39.416L39.4688 51.3633C39.9102 50.8164 40.5234 50.543 41.3086 50.543C42.0703 50.543 42.6719 50.8301 43.1133 51.4043C43.5586 51.9785 43.7812 52.7773 43.7812 53.8008V53.9004ZM42.6973 53.7773C42.6973 53.0625 42.5449 52.498 42.2402 52.084C41.9355 51.6699 41.5176 51.4629 40.9863 51.4629C40.3301 51.4629 39.8379 51.7539 39.5098 52.3359V55.3652C39.834 55.9434 40.3301 56.2324 40.998 56.2324C41.5176 56.2324 41.9297 56.0273 42.2344 55.6172C42.543 55.2031 42.6973 54.5898 42.6973 53.7773ZM47.7949 57.1172C46.9355 57.1172 46.2363 56.8359 45.6973 56.2734C45.1582 55.707 44.8887 54.9512 44.8887 54.0059V53.8066C44.8887 53.1777 45.0078 52.6172 45.2461 52.125C45.4883 51.6289 45.8242 51.2422 46.2539 50.9648C46.6875 50.6836 47.1562 50.543 47.6602 50.543C48.4844 50.543 49.125 50.8145 49.582 51.3574C50.0391 51.9004 50.2676 52.6777 50.2676 53.6895V54.1406H45.9727C45.9883 54.7656 46.1699 55.2715 46.5176 55.6582C46.8691 56.041 47.3145 56.2324 47.8535 56.2324C48.2363 56.2324 48.5605 56.1543 48.8262 55.998C49.0918 55.8418 49.3242 55.6348 49.5234 55.377L50.1855 55.8926C49.6543 56.709 48.8574 57.1172 47.7949 57.1172ZM47.6602 51.4336C47.2227 51.4336 46.8555 51.5938 46.5586 51.9141C46.2617 52.2305 46.0781 52.6758 46.0078 53.25H49.1836V53.168C49.1523 52.6172 49.0039 52.1914 48.7383 51.8906C48.4727 51.5859 48.1133 51.4336 47.6602 51.4336ZM59.3848 54.7734H55.8105L55.0078 57H53.8477L57.1055 48.4688H58.0898L61.3535 57H60.1992L59.3848 54.7734ZM56.1504 53.8477H59.0508L57.5977 49.8574L56.1504 53.8477ZM62.0684 53.7773C62.0684 52.8047 62.2988 52.0234 62.7598 51.4336C63.2207 50.8398 63.8242 50.543 64.5703 50.543C65.3125 50.543 65.9004 50.7969 66.334 51.3047V48H67.418V57H66.4219L66.3691 56.3203C65.9355 56.8516 65.332 57.1172 64.5586 57.1172C63.8242 57.1172 63.2246 56.8164 62.7598 56.2148C62.2988 55.6133 62.0684 54.8281 62.0684 53.8594V53.7773ZM63.1523 53.9004C63.1523 54.6191 63.3008 55.1816 63.5977 55.5879C63.8945 55.9941 64.3047 56.1973 64.8281 56.1973C65.5156 56.1973 66.0176 55.8887 66.334 55.2715V52.3594C66.0098 51.7617 65.5117 51.4629 64.8398 51.4629C64.3086 51.4629 63.8945 51.668 63.5977 52.0781C63.3008 52.4883 63.1523 53.0957 63.1523 53.9004ZM70.2832 57H69.1992V48H70.2832V57ZM74.6543 57.1172C73.7949 57.1172 73.0957 56.8359 72.5566 56.2734C72.0176 55.707 71.748 54.9512 71.748 54.0059V53.8066C71.748 53.1777 71.8672 52.6172 72.1055 52.125C72.3477 51.6289 72.6836 51.2422 73.1133 50.9648C73.5469 50.6836 74.0156 50.543 74.5195 50.543C75.3438 50.543 75.9844 50.8145 76.4414 51.3574C76.8984 51.9004 77.127 52.6777 77.127 53.6895V54.1406H72.832C72.8477 54.7656 73.0293 55.2715 73.377 55.6582C73.7285 56.041 74.1738 56.2324 74.7129 56.2324C75.0957 56.2324 75.4199 56.1543 75.6855 55.998C75.9512 55.8418 76.1836 55.6348 76.3828 55.377L77.0449 55.8926C76.5137 56.709 75.7168 57.1172 74.6543 57.1172ZM74.5195 51.4336C74.082 51.4336 73.7148 51.5938 73.418 51.9141C73.1211 52.2305 72.9375 52.6758 72.8672 53.25H76.043V53.168C76.0117 52.6172 75.8633 52.1914 75.5977 51.8906C75.332 51.5859 74.9727 51.4336 74.5195 51.4336ZM81.4512 51.6328C81.2871 51.6055 81.1094 51.5918 80.918 51.5918C80.207 51.5918 79.7246 51.8945 79.4707 52.5V57H78.3867V50.6602H79.4414L79.459 51.3926C79.8145 50.8262 80.3184 50.543 80.9707 50.543C81.1816 50.543 81.3418 50.5703 81.4512 50.625V51.6328ZM87.0527 48.4688L89.8418 55.4297L92.6309 48.4688H94.0898V57H92.9648V53.6777L93.0703 50.0918L90.2695 57H89.4082L86.6133 50.1094L86.7246 53.6777V57H85.5996V48.4688H87.0527ZM97.084 57H96V50.6602H97.084V57ZM95.9121 48.9785C95.9121 48.8027 95.9648 48.6543 96.0703 48.5332C96.1797 48.4121 96.3398 48.3516 96.5508 48.3516C96.7617 48.3516 96.9219 48.4121 97.0312 48.5332C97.1406 48.6543 97.1953 48.8027 97.1953 48.9785C97.1953 49.1543 97.1406 49.3008 97.0312 49.418C96.9219 49.5352 96.7617 49.5938 96.5508 49.5938C96.3398 49.5938 96.1797 49.5352 96.0703 49.418C95.9648 49.3008 95.9121 49.1543 95.9121 48.9785ZM99.8496 50.6602L99.8848 51.457C100.369 50.8477 101.002 50.543 101.783 50.543C103.123 50.543 103.799 51.2988 103.811 52.8105V57H102.727V52.8047C102.723 52.3477 102.617 52.0098 102.41 51.791C102.207 51.5723 101.889 51.4629 101.455 51.4629C101.104 51.4629 100.795 51.5566 100.529 51.7441C100.264 51.9316 100.057 52.1777 99.9082 52.4824V57H98.8242V50.6602H99.8496ZM111.621 48.4688V54.2695C111.617 55.0742 111.363 55.7324 110.859 56.2441C110.359 56.7559 109.68 57.043 108.82 57.1055L108.521 57.1172C107.588 57.1172 106.844 56.8652 106.289 56.3613C105.734 55.8574 105.453 55.1641 105.445 54.2812V48.4688H106.559V54.2461C106.559 54.8633 106.729 55.3438 107.068 55.6875C107.408 56.0273 107.893 56.1973 108.521 56.1973C109.158 56.1973 109.645 56.0273 109.98 55.6875C110.32 55.3477 110.49 54.8691 110.49 54.252V48.4688H111.621ZM114.604 57H113.479V48.4688H114.604V57ZM120.65 57H119.566V50.6602H120.65V57ZM119.479 48.9785C119.479 48.8027 119.531 48.6543 119.637 48.5332C119.746 48.4121 119.906 48.3516 120.117 48.3516C120.328 48.3516 120.488 48.4121 120.598 48.5332C120.707 48.6543 120.762 48.8027 120.762 48.9785C120.762 49.1543 120.707 49.3008 120.598 49.418C120.488 49.5352 120.328 49.5938 120.117 49.5938C119.906 49.5938 119.746 49.5352 119.637 49.418C119.531 49.3008 119.479 49.1543 119.479 48.9785ZM126.082 55.3184C126.082 55.0254 125.971 54.7988 125.748 54.6387C125.529 54.4746 125.145 54.334 124.594 54.2168C124.047 54.0996 123.611 53.959 123.287 53.7949C122.967 53.6309 122.729 53.4355 122.572 53.209C122.42 52.9824 122.344 52.7129 122.344 52.4004C122.344 51.8809 122.562 51.4414 123 51.082C123.441 50.7227 124.004 50.543 124.688 50.543C125.406 50.543 125.988 50.7285 126.434 51.0996C126.883 51.4707 127.107 51.9453 127.107 52.5234H126.018C126.018 52.2266 125.891 51.9707 125.637 51.7559C125.387 51.541 125.07 51.4336 124.688 51.4336C124.293 51.4336 123.984 51.5195 123.762 51.6914C123.539 51.8633 123.428 52.0879 123.428 52.3652C123.428 52.627 123.531 52.8242 123.738 52.957C123.945 53.0898 124.318 53.2168 124.857 53.3379C125.4 53.459 125.84 53.6035 126.176 53.7715C126.512 53.9395 126.76 54.1426 126.92 54.3809C127.084 54.6152 127.166 54.9023 127.166 55.2422C127.166 55.8086 126.939 56.2637 126.486 56.6074C126.033 56.9473 125.445 57.1172 124.723 57.1172C124.215 57.1172 123.766 57.0273 123.375 56.8477C122.984 56.668 122.678 56.418 122.455 56.0977C122.236 55.7734 122.127 55.4238 122.127 55.0488H123.211C123.23 55.4121 123.375 55.7012 123.645 55.916C123.918 56.127 124.277 56.2324 124.723 56.2324C125.133 56.2324 125.461 56.1504 125.707 55.9863C125.957 55.8184 126.082 55.5957 126.082 55.3184ZM135.469 57C135.406 56.875 135.355 56.6523 135.316 56.332C134.812 56.8555 134.211 57.1172 133.512 57.1172C132.887 57.1172 132.373 56.9414 131.971 56.5898C131.572 56.2344 131.373 55.7852 131.373 55.2422C131.373 54.582 131.623 54.0703 132.123 53.707C132.627 53.3398 133.334 53.1562 134.244 53.1562H135.299V52.6582C135.299 52.2793 135.186 51.9785 134.959 51.7559C134.732 51.5293 134.398 51.416 133.957 51.416C133.57 51.416 133.246 51.5137 132.984 51.709C132.723 51.9043 132.592 52.1406 132.592 52.418H131.502C131.502 52.1016 131.613 51.7969 131.836 51.5039C132.062 51.207 132.367 50.9727 132.75 50.8008C133.137 50.6289 133.561 50.543 134.021 50.543C134.752 50.543 135.324 50.7266 135.738 51.0938C136.152 51.457 136.367 51.959 136.383 52.5996V55.5176C136.383 56.0996 136.457 56.5625 136.605 56.9062V57H135.469ZM133.67 56.1738C134.01 56.1738 134.332 56.0859 134.637 55.9102C134.941 55.7344 135.162 55.5059 135.299 55.2246V53.9238H134.449C133.121 53.9238 132.457 54.3125 132.457 55.0898C132.457 55.4297 132.57 55.6953 132.797 55.8867C133.023 56.0781 133.314 56.1738 133.67 56.1738ZM139.107 50.6602L139.143 51.457C139.627 50.8477 140.26 50.543 141.041 50.543C142.381 50.543 143.057 51.2988 143.068 52.8105V57H141.984V52.8047C141.98 52.3477 141.875 52.0098 141.668 51.791C141.465 51.5723 141.146 51.4629 140.713 51.4629C140.361 51.4629 140.053 51.5566 139.787 51.7441C139.521 51.9316 139.314 52.1777 139.166 52.4824V57H138.082V50.6602H139.107ZM148.699 50.6602L148.729 51.3633C149.193 50.8164 149.82 50.543 150.609 50.543C151.496 50.543 152.1 50.8828 152.42 51.5625C152.631 51.2578 152.904 51.0117 153.24 50.8242C153.58 50.6367 153.98 50.543 154.441 50.543C155.832 50.543 156.539 51.2793 156.562 52.752V57H155.479V52.8164C155.479 52.3633 155.375 52.0254 155.168 51.8027C154.961 51.5762 154.613 51.4629 154.125 51.4629C153.723 51.4629 153.389 51.584 153.123 51.8262C152.857 52.0645 152.703 52.3867 152.66 52.793V57H151.57V52.8457C151.57 51.9238 151.119 51.4629 150.217 51.4629C149.506 51.4629 149.02 51.7656 148.758 52.3711V57H147.674V50.6602H148.699ZM157.916 53.7715C157.916 53.1504 158.037 52.5918 158.279 52.0957C158.525 51.5996 158.865 51.2168 159.299 50.9473C159.736 50.6777 160.234 50.543 160.793 50.543C161.656 50.543 162.354 50.8418 162.885 51.4395C163.42 52.0371 163.688 52.832 163.688 53.8242V53.9004C163.688 54.5176 163.568 55.0723 163.33 55.5645C163.096 56.0527 162.758 56.4336 162.316 56.707C161.879 56.9805 161.375 57.1172 160.805 57.1172C159.945 57.1172 159.248 56.8184 158.713 56.2207C158.182 55.623 157.916 54.832 157.916 53.8477V53.7715ZM159.006 53.9004C159.006 54.6035 159.168 55.168 159.492 55.5938C159.82 56.0195 160.258 56.2324 160.805 56.2324C161.355 56.2324 161.793 56.0176 162.117 55.5879C162.441 55.1543 162.604 54.5488 162.604 53.7715C162.604 53.0762 162.438 52.5137 162.105 52.084C161.777 51.6504 161.34 51.4336 160.793 51.4336C160.258 51.4336 159.826 51.6465 159.498 52.0723C159.17 52.498 159.006 53.1074 159.006 53.9004ZM164.783 53.7773C164.783 52.8047 165.014 52.0234 165.475 51.4336C165.936 50.8398 166.539 50.543 167.285 50.543C168.027 50.543 168.615 50.7969 169.049 51.3047V48H170.133V57H169.137L169.084 56.3203C168.65 56.8516 168.047 57.1172 167.273 57.1172C166.539 57.1172 165.939 56.8164 165.475 56.2148C165.014 55.6133 164.783 54.8281 164.783 53.8594V53.7773ZM165.867 53.9004C165.867 54.6191 166.016 55.1816 166.312 55.5879C166.609 55.9941 167.02 56.1973 167.543 56.1973C168.23 56.1973 168.732 55.8887 169.049 55.2715V52.3594C168.725 51.7617 168.227 51.4629 167.555 51.4629C167.023 51.4629 166.609 51.668 166.312 52.0781C166.016 52.4883 165.867 53.0957 165.867 53.9004ZM175.33 57V51.498H174.328V50.6602H175.33V50.0098C175.33 49.3301 175.512 48.8047 175.875 48.4336C176.238 48.0625 176.752 47.877 177.416 47.877C177.666 47.877 177.914 47.9102 178.16 47.9766L178.102 48.8555C177.918 48.8203 177.723 48.8027 177.516 48.8027C177.164 48.8027 176.893 48.9062 176.701 49.1133C176.51 49.3164 176.414 49.6094 176.414 49.9922V50.6602H177.768V51.498H176.414V57H175.33ZM178.682 53.7715C178.682 53.1504 178.803 52.5918 179.045 52.0957C179.291 51.5996 179.631 51.2168 180.064 50.9473C180.502 50.6777 181 50.543 181.559 50.543C182.422 50.543 183.119 50.8418 183.65 51.4395C184.186 52.0371 184.453 52.832 184.453 53.8242V53.9004C184.453 54.5176 184.334 55.0723 184.096 55.5645C183.861 56.0527 183.523 56.4336 183.082 56.707C182.645 56.9805 182.141 57.1172 181.57 57.1172C180.711 57.1172 180.014 56.8184 179.479 56.2207C178.947 55.623 178.682 54.832 178.682 53.8477V53.7715ZM179.771 53.9004C179.771 54.6035 179.934 55.168 180.258 55.5938C180.586 56.0195 181.023 56.2324 181.57 56.2324C182.121 56.2324 182.559 56.0176 182.883 55.5879C183.207 55.1543 183.369 54.5488 183.369 53.7715C183.369 53.0762 183.203 52.5137 182.871 52.084C182.543 51.6504 182.105 51.4336 181.559 51.4336C181.023 51.4336 180.592 51.6465 180.264 52.0723C179.936 52.498 179.771 53.1074 179.771 53.9004ZM188.877 51.6328C188.713 51.6055 188.535 51.5918 188.344 51.5918C187.633 51.5918 187.15 51.8945 186.896 52.5V57H185.812V50.6602H186.867L186.885 51.3926C187.24 50.8262 187.744 50.543 188.396 50.543C188.607 50.543 188.768 50.5703 188.877 50.625V51.6328ZM197.736 54.7734H194.162L193.359 57H192.199L195.457 48.4688H196.441L199.705 57H198.551L197.736 54.7734ZM194.502 53.8477H197.402L195.949 49.8574L194.502 53.8477ZM203.748 51.6328C203.584 51.6055 203.406 51.5918 203.215 51.5918C202.504 51.5918 202.021 51.8945 201.768 52.5V57H200.684V50.6602H201.738L201.756 51.3926C202.111 50.8262 202.615 50.543 203.268 50.543C203.479 50.543 203.639 50.5703 203.748 50.625V51.6328ZM205.77 50.6602L205.799 51.3633C206.264 50.8164 206.891 50.543 207.68 50.543C208.566 50.543 209.17 50.8828 209.49 51.5625C209.701 51.2578 209.975 51.0117 210.311 50.8242C210.65 50.6367 211.051 50.543 211.512 50.543C212.902 50.543 213.609 51.2793 213.633 52.752V57H212.549V52.8164C212.549 52.3633 212.445 52.0254 212.238 51.8027C212.031 51.5762 211.684 51.4629 211.195 51.4629C210.793 51.4629 210.459 51.584 210.193 51.8262C209.928 52.0645 209.773 52.3867 209.73 52.793V57H208.641V52.8457C208.641 51.9238 208.189 51.4629 207.287 51.4629C206.576 51.4629 206.09 51.7656 205.828 52.3711V57H204.744V50.6602H205.77ZM219.188 57C219.125 56.875 219.074 56.6523 219.035 56.332C218.531 56.8555 217.93 57.1172 217.23 57.1172C216.605 57.1172 216.092 56.9414 215.689 56.5898C215.291 56.2344 215.092 55.7852 215.092 55.2422C215.092 54.582 215.342 54.0703 215.842 53.707C216.346 53.3398 217.053 53.1562 217.963 53.1562H219.018V52.6582C219.018 52.2793 218.904 51.9785 218.678 51.7559C218.451 51.5293 218.117 51.416 217.676 51.416C217.289 51.416 216.965 51.5137 216.703 51.709C216.441 51.9043 216.311 52.1406 216.311 52.418H215.221C215.221 52.1016 215.332 51.7969 215.555 51.5039C215.781 51.207 216.086 50.9727 216.469 50.8008C216.855 50.6289 217.279 50.543 217.74 50.543C218.471 50.543 219.043 50.7266 219.457 51.0938C219.871 51.457 220.086 51.959 220.102 52.5996V55.5176C220.102 56.0996 220.176 56.5625 220.324 56.9062V57H219.188ZM217.389 56.1738C217.729 56.1738 218.051 56.0859 218.355 55.9102C218.66 55.7344 218.881 55.5059 219.018 55.2246V53.9238H218.168C216.84 53.9238 216.176 54.3125 216.176 55.0898C216.176 55.4297 216.289 55.6953 216.516 55.8867C216.742 56.0781 217.033 56.1738 217.389 56.1738ZM226.242 52.207H227.057C227.568 52.1992 227.971 52.0645 228.264 51.8027C228.557 51.541 228.703 51.1875 228.703 50.7422C228.703 49.7422 228.205 49.2422 227.209 49.2422C226.74 49.2422 226.365 49.377 226.084 49.6465C225.807 49.9121 225.668 50.2656 225.668 50.707H224.584C224.584 50.0312 224.83 49.4707 225.322 49.0254C225.818 48.5762 226.447 48.3516 227.209 48.3516C228.014 48.3516 228.645 48.5645 229.102 48.9902C229.559 49.416 229.787 50.0078 229.787 50.7656C229.787 51.1367 229.666 51.4961 229.424 51.8438C229.186 52.1914 228.859 52.4512 228.445 52.623C228.914 52.7715 229.275 53.0176 229.529 53.3613C229.787 53.7051 229.916 54.125 229.916 54.6211C229.916 55.3867 229.666 55.9941 229.166 56.4434C228.666 56.8926 228.016 57.1172 227.215 57.1172C226.414 57.1172 225.762 56.9004 225.258 56.4668C224.758 56.0332 224.508 55.4609 224.508 54.75H225.598C225.598 55.1992 225.744 55.5586 226.037 55.8281C226.33 56.0977 226.723 56.2324 227.215 56.2324C227.738 56.2324 228.139 56.0957 228.416 55.8223C228.693 55.5488 228.832 55.1562 228.832 54.6445C228.832 54.1484 228.68 53.7676 228.375 53.502C228.07 53.2363 227.631 53.0996 227.057 53.0918H226.242V52.207ZM231.48 58.6992L230.865 58.2773C231.232 57.7656 231.424 57.2383 231.439 56.6953V55.7168H232.5V56.5664C232.5 56.9609 232.402 57.3555 232.207 57.75C232.016 58.1445 231.773 58.4609 231.48 58.6992ZM18.4336 73.5059L19.6523 68.6602H20.7363L18.8906 75H18.0117L16.4707 70.1953L14.9707 75H14.0918L12.252 68.6602H13.3301L14.5781 73.4062L16.0547 68.6602H16.9277L18.4336 73.5059ZM22.9277 69.4277C23.4082 68.8379 24.0332 68.543 24.8027 68.543C26.1426 68.543 26.8184 69.2988 26.8301 70.8105V75H25.7461V70.8047C25.7422 70.3477 25.6367 70.0098 25.4297 69.791C25.2266 69.5723 24.9082 69.4629 24.4746 69.4629C24.123 69.4629 23.8145 69.5566 23.5488 69.7441C23.2832 69.9316 23.0762 70.1777 22.9277 70.4824V75H21.8438V66H22.9277V69.4277ZM29.6309 75H28.5469V68.6602H29.6309V75ZM28.459 66.9785C28.459 66.8027 28.5117 66.6543 28.6172 66.5332C28.7266 66.4121 28.8867 66.3516 29.0977 66.3516C29.3086 66.3516 29.4688 66.4121 29.5781 66.5332C29.6875 66.6543 29.7422 66.8027 29.7422 66.9785C29.7422 67.1543 29.6875 67.3008 29.5781 67.418C29.4688 67.5352 29.3086 67.5938 29.0977 67.5938C28.8867 67.5938 28.7266 67.5352 28.6172 67.418C28.5117 67.3008 28.459 67.1543 28.459 66.9785ZM33.9141 74.2324C34.3008 74.2324 34.6387 74.1152 34.9277 73.8809C35.2168 73.6465 35.377 73.3535 35.4082 73.002H36.4336C36.4141 73.3652 36.2891 73.7109 36.0586 74.0391C35.8281 74.3672 35.5195 74.6289 35.1328 74.8242C34.75 75.0195 34.3438 75.1172 33.9141 75.1172C33.0508 75.1172 32.3633 74.8301 31.8516 74.2559C31.3438 73.6777 31.0898 72.8887 31.0898 71.8887V71.707C31.0898 71.0898 31.2031 70.541 31.4297 70.0605C31.6562 69.5801 31.9805 69.207 32.4023 68.9414C32.8281 68.6758 33.3301 68.543 33.9082 68.543C34.6191 68.543 35.209 68.7559 35.6777 69.1816C36.1504 69.6074 36.4023 70.1602 36.4336 70.8398H35.4082C35.377 70.4297 35.2207 70.0938 34.9395 69.832C34.6621 69.5664 34.3184 69.4336 33.9082 69.4336C33.3574 69.4336 32.9297 69.6328 32.625 70.0312C32.3242 70.4258 32.1738 70.998 32.1738 71.748V71.9531C32.1738 72.6836 32.3242 73.2461 32.625 73.6406C32.9258 74.0352 33.3555 74.2324 33.9141 74.2324ZM38.7363 69.4277C39.2168 68.8379 39.8418 68.543 40.6113 68.543C41.9512 68.543 42.627 69.2988 42.6387 70.8105V75H41.5547V70.8047C41.5508 70.3477 41.4453 70.0098 41.2383 69.791C41.0352 69.5723 40.7168 69.4629 40.2832 69.4629C39.9316 69.4629 39.623 69.5566 39.3574 69.7441C39.0918 69.9316 38.8848 70.1777 38.7363 70.4824V75H37.6523V66H38.7363V69.4277ZM50.3027 69.6328C50.1387 69.6055 49.9609 69.5918 49.7695 69.5918C49.0586 69.5918 48.5762 69.8945 48.3223 70.5V75H47.2383V68.6602H48.293L48.3105 69.3926C48.666 68.8262 49.1699 68.543 49.8223 68.543C50.0332 68.543 50.1934 68.5703 50.3027 68.625V69.6328ZM53.8184 75.1172C52.959 75.1172 52.2598 74.8359 51.7207 74.2734C51.1816 73.707 50.9121 72.9512 50.9121 72.0059V71.8066C50.9121 71.1777 51.0312 70.6172 51.2695 70.125C51.5117 69.6289 51.8477 69.2422 52.2773 68.9648C52.7109 68.6836 53.1797 68.543 53.6836 68.543C54.5078 68.543 55.1484 68.8145 55.6055 69.3574C56.0625 69.9004 56.291 70.6777 56.291 71.6895V72.1406H51.9961C52.0117 72.7656 52.1934 73.2715 52.541 73.6582C52.8926 74.041 53.3379 74.2324 53.877 74.2324C54.2598 74.2324 54.584 74.1543 54.8496 73.998C55.1152 73.8418 55.3477 73.6348 55.5469 73.377L56.209 73.8926C55.6777 74.709 54.8809 75.1172 53.8184 75.1172ZM53.6836 69.4336C53.2461 69.4336 52.8789 69.5938 52.582 69.9141C52.2852 70.2305 52.1016 70.6758 52.0312 71.25H55.207V71.168C55.1758 70.6172 55.0273 70.1914 54.7617 69.8906C54.4961 69.5859 54.1367 69.4336 53.6836 69.4336ZM58.5703 68.6602L58.5996 69.3633C59.0645 68.8164 59.6914 68.543 60.4805 68.543C61.3672 68.543 61.9707 68.8828 62.291 69.5625C62.502 69.2578 62.7754 69.0117 63.1113 68.8242C63.4512 68.6367 63.8516 68.543 64.3125 68.543C65.7031 68.543 66.4102 69.2793 66.4336 70.752V75H65.3496V70.8164C65.3496 70.3633 65.2461 70.0254 65.0391 69.8027C64.832 69.5762 64.4844 69.4629 63.9961 69.4629C63.5938 69.4629 63.2598 69.584 62.9941 69.8262C62.7285 70.0645 62.5742 70.3867 62.5312 70.793V75H61.4414V70.8457C61.4414 69.9238 60.9902 69.4629 60.0879 69.4629C59.377 69.4629 58.8906 69.7656 58.6289 70.3711V75H57.5449V68.6602H58.5703ZM67.7871 71.7715C67.7871 71.1504 67.9082 70.5918 68.1504 70.0957C68.3965 69.5996 68.7363 69.2168 69.1699 68.9473C69.6074 68.6777 70.1055 68.543 70.6641 68.543C71.5273 68.543 72.2246 68.8418 72.7559 69.4395C73.291 70.0371 73.5586 70.832 73.5586 71.8242V71.9004C73.5586 72.5176 73.4395 73.0723 73.2012 73.5645C72.9668 74.0527 72.6289 74.4336 72.1875 74.707C71.75 74.9805 71.2461 75.1172 70.6758 75.1172C69.8164 75.1172 69.1191 74.8184 68.584 74.2207C68.0527 73.623 67.7871 72.832 67.7871 71.8477V71.7715ZM68.877 71.9004C68.877 72.6035 69.0391 73.168 69.3633 73.5938C69.6914 74.0195 70.1289 74.2324 70.6758 74.2324C71.2266 74.2324 71.6641 74.0176 71.9883 73.5879C72.3125 73.1543 72.4746 72.5488 72.4746 71.7715C72.4746 71.0762 72.3086 70.5137 71.9766 70.084C71.6484 69.6504 71.2109 69.4336 70.6641 69.4336C70.1289 69.4336 69.6973 69.6465 69.3691 70.0723C69.041 70.498 68.877 71.1074 68.877 71.9004ZM76.916 73.5293L78.4863 68.6602H79.5938L77.3203 75H76.4941L74.1973 68.6602H75.3047L76.916 73.5293ZM83.1855 75.1172C82.3262 75.1172 81.627 74.8359 81.0879 74.2734C80.5488 73.707 80.2793 72.9512 80.2793 72.0059V71.8066C80.2793 71.1777 80.3984 70.6172 80.6367 70.125C80.8789 69.6289 81.2148 69.2422 81.6445 68.9648C82.0781 68.6836 82.5469 68.543 83.0508 68.543C83.875 68.543 84.5156 68.8145 84.9727 69.3574C85.4297 69.9004 85.6582 70.6777 85.6582 71.6895V72.1406H81.3633C81.3789 72.7656 81.5605 73.2715 81.9082 73.6582C82.2598 74.041 82.7051 74.2324 83.2441 74.2324C83.627 74.2324 83.9512 74.1543 84.2168 73.998C84.4824 73.8418 84.7148 73.6348 84.9141 73.377L85.5762 73.8926C85.0449 74.709 84.248 75.1172 83.1855 75.1172ZM83.0508 69.4336C82.6133 69.4336 82.2461 69.5938 81.9492 69.9141C81.6523 70.2305 81.4688 70.6758 81.3984 71.25H84.5742V71.168C84.543 70.6172 84.3945 70.1914 84.1289 69.8906C83.8633 69.5859 83.5039 69.4336 83.0508 69.4336ZM90.6094 73.3184C90.6094 73.0254 90.498 72.7988 90.2754 72.6387C90.0566 72.4746 89.6719 72.334 89.1211 72.2168C88.5742 72.0996 88.1387 71.959 87.8145 71.7949C87.4941 71.6309 87.2559 71.4355 87.0996 71.209C86.9473 70.9824 86.8711 70.7129 86.8711 70.4004C86.8711 69.8809 87.0898 69.4414 87.5273 69.082C87.9688 68.7227 88.5312 68.543 89.2148 68.543C89.9336 68.543 90.5156 68.7285 90.9609 69.0996C91.4102 69.4707 91.6348 69.9453 91.6348 70.5234H90.5449C90.5449 70.2266 90.418 69.9707 90.1641 69.7559C89.9141 69.541 89.5977 69.4336 89.2148 69.4336C88.8203 69.4336 88.5117 69.5195 88.2891 69.6914C88.0664 69.8633 87.9551 70.0879 87.9551 70.3652C87.9551 70.627 88.0586 70.8242 88.2656 70.957C88.4727 71.0898 88.8457 71.2168 89.3848 71.3379C89.9277 71.459 90.3672 71.6035 90.7031 71.7715C91.0391 71.9395 91.2871 72.1426 91.4473 72.3809C91.6113 72.6152 91.6934 72.9023 91.6934 73.2422C91.6934 73.8086 91.4668 74.2637 91.0137 74.6074C90.5605 74.9473 89.9727 75.1172 89.25 75.1172C88.7422 75.1172 88.293 75.0273 87.9023 74.8477C87.5117 74.668 87.2051 74.418 86.9824 74.0977C86.7637 73.7734 86.6543 73.4238 86.6543 73.0488H87.7383C87.7578 73.4121 87.9023 73.7012 88.1719 73.916C88.4453 74.127 88.8047 74.2324 89.25 74.2324C89.6602 74.2324 89.9883 74.1504 90.2344 73.9863C90.4844 73.8184 90.6094 73.5957 90.6094 73.3184ZM99.7734 73.3184C99.7734 73.0254 99.6621 72.7988 99.4395 72.6387C99.2207 72.4746 98.8359 72.334 98.2852 72.2168C97.7383 72.0996 97.3027 71.959 96.9785 71.7949C96.6582 71.6309 96.4199 71.4355 96.2637 71.209C96.1113 70.9824 96.0352 70.7129 96.0352 70.4004C96.0352 69.8809 96.2539 69.4414 96.6914 69.082C97.1328 68.7227 97.6953 68.543 98.3789 68.543C99.0977 68.543 99.6797 68.7285 100.125 69.0996C100.574 69.4707 100.799 69.9453 100.799 70.5234H99.709C99.709 70.2266 99.582 69.9707 99.3281 69.7559C99.0781 69.541 98.7617 69.4336 98.3789 69.4336C97.9844 69.4336 97.6758 69.5195 97.4531 69.6914C97.2305 69.8633 97.1191 70.0879 97.1191 70.3652C97.1191 70.627 97.2227 70.8242 97.4297 70.957C97.6367 71.0898 98.0098 71.2168 98.5488 71.3379C99.0918 71.459 99.5312 71.6035 99.8672 71.7715C100.203 71.9395 100.451 72.1426 100.611 72.3809C100.775 72.6152 100.857 72.9023 100.857 73.2422C100.857 73.8086 100.631 74.2637 100.178 74.6074C99.7246 74.9473 99.1367 75.1172 98.4141 75.1172C97.9062 75.1172 97.457 75.0273 97.0664 74.8477C96.6758 74.668 96.3691 74.418 96.1465 74.0977C95.9277 73.7734 95.8184 73.4238 95.8184 73.0488H96.9023C96.9219 73.4121 97.0664 73.7012 97.3359 73.916C97.6094 74.127 97.9688 74.2324 98.4141 74.2324C98.8242 74.2324 99.1523 74.1504 99.3984 73.9863C99.6484 73.8184 99.7734 73.5957 99.7734 73.3184ZM101.982 71.7715C101.982 71.1504 102.104 70.5918 102.346 70.0957C102.592 69.5996 102.932 69.2168 103.365 68.9473C103.803 68.6777 104.301 68.543 104.859 68.543C105.723 68.543 106.42 68.8418 106.951 69.4395C107.486 70.0371 107.754 70.832 107.754 71.8242V71.9004C107.754 72.5176 107.635 73.0723 107.396 73.5645C107.162 74.0527 106.824 74.4336 106.383 74.707C105.945 74.9805 105.441 75.1172 104.871 75.1172C104.012 75.1172 103.314 74.8184 102.779 74.2207C102.248 73.623 101.982 72.832 101.982 71.8477V71.7715ZM103.072 71.9004C103.072 72.6035 103.234 73.168 103.559 73.5938C103.887 74.0195 104.324 74.2324 104.871 74.2324C105.422 74.2324 105.859 74.0176 106.184 73.5879C106.508 73.1543 106.67 72.5488 106.67 71.7715C106.67 71.0762 106.504 70.5137 106.172 70.084C105.844 69.6504 105.406 69.4336 104.859 69.4336C104.324 69.4336 103.893 69.6465 103.564 70.0723C103.236 70.498 103.072 71.1074 103.072 71.9004ZM110.133 68.6602L110.162 69.3633C110.627 68.8164 111.254 68.543 112.043 68.543C112.93 68.543 113.533 68.8828 113.854 69.5625C114.064 69.2578 114.338 69.0117 114.674 68.8242C115.014 68.6367 115.414 68.543 115.875 68.543C117.266 68.543 117.973 69.2793 117.996 70.752V75H116.912V70.8164C116.912 70.3633 116.809 70.0254 116.602 69.8027C116.395 69.5762 116.047 69.4629 115.559 69.4629C115.156 69.4629 114.822 69.584 114.557 69.8262C114.291 70.0645 114.137 70.3867 114.094 70.793V75H113.004V70.8457C113.004 69.9238 112.553 69.4629 111.65 69.4629C110.939 69.4629 110.453 69.7656 110.191 70.3711V75H109.107V68.6602H110.133ZM122.268 75.1172C121.408 75.1172 120.709 74.8359 120.17 74.2734C119.631 73.707 119.361 72.9512 119.361 72.0059V71.8066C119.361 71.1777 119.48 70.6172 119.719 70.125C119.961 69.6289 120.297 69.2422 120.727 68.9648C121.16 68.6836 121.629 68.543 122.133 68.543C122.957 68.543 123.598 68.8145 124.055 69.3574C124.512 69.9004 124.74 70.6777 124.74 71.6895V72.1406H120.445C120.461 72.7656 120.643 73.2715 120.99 73.6582C121.342 74.041 121.787 74.2324 122.326 74.2324C122.709 74.2324 123.033 74.1543 123.299 73.998C123.564 73.8418 123.797 73.6348 123.996 73.377L124.658 73.8926C124.127 74.709 123.33 75.1172 122.268 75.1172ZM122.133 69.4336C121.695 69.4336 121.328 69.5938 121.031 69.9141C120.734 70.2305 120.551 70.6758 120.48 71.25H123.656V71.168C123.625 70.6172 123.477 70.1914 123.211 69.8906C122.945 69.5859 122.586 69.4336 122.133 69.4336ZM135.152 66.4688V72.2695C135.148 73.0742 134.895 73.7324 134.391 74.2441C133.891 74.7559 133.211 75.043 132.352 75.1055L132.053 75.1172C131.119 75.1172 130.375 74.8652 129.82 74.3613C129.266 73.8574 128.984 73.1641 128.977 72.2812V66.4688H130.09V72.2461C130.09 72.8633 130.26 73.3438 130.6 73.6875C130.939 74.0273 131.424 74.1973 132.053 74.1973C132.689 74.1973 133.176 74.0273 133.512 73.6875C133.852 73.3477 134.021 72.8691 134.021 72.252V66.4688H135.152ZM138.135 75H137.01V66.4688H138.135V75ZM145.547 74.2324C145.934 74.2324 146.271 74.1152 146.561 73.8809C146.85 73.6465 147.01 73.3535 147.041 73.002H148.066C148.047 73.3652 147.922 73.7109 147.691 74.0391C147.461 74.3672 147.152 74.6289 146.766 74.8242C146.383 75.0195 145.977 75.1172 145.547 75.1172C144.684 75.1172 143.996 74.8301 143.484 74.2559C142.977 73.6777 142.723 72.8887 142.723 71.8887V71.707C142.723 71.0898 142.836 70.541 143.062 70.0605C143.289 69.5801 143.613 69.207 144.035 68.9414C144.461 68.6758 144.963 68.543 145.541 68.543C146.252 68.543 146.842 68.7559 147.311 69.1816C147.783 69.6074 148.035 70.1602 148.066 70.8398H147.041C147.01 70.4297 146.854 70.0938 146.572 69.832C146.295 69.5664 145.951 69.4336 145.541 69.4336C144.99 69.4336 144.562 69.6328 144.258 70.0312C143.957 70.4258 143.807 70.998 143.807 71.748V71.9531C143.807 72.6836 143.957 73.2461 144.258 73.6406C144.559 74.0352 144.988 74.2324 145.547 74.2324ZM148.998 71.7715C148.998 71.1504 149.119 70.5918 149.361 70.0957C149.607 69.5996 149.947 69.2168 150.381 68.9473C150.818 68.6777 151.316 68.543 151.875 68.543C152.738 68.543 153.436 68.8418 153.967 69.4395C154.502 70.0371 154.77 70.832 154.77 71.8242V71.9004C154.77 72.5176 154.65 73.0723 154.412 73.5645C154.178 74.0527 153.84 74.4336 153.398 74.707C152.961 74.9805 152.457 75.1172 151.887 75.1172C151.027 75.1172 150.33 74.8184 149.795 74.2207C149.264 73.623 148.998 72.832 148.998 71.8477V71.7715ZM150.088 71.9004C150.088 72.6035 150.25 73.168 150.574 73.5938C150.902 74.0195 151.34 74.2324 151.887 74.2324C152.438 74.2324 152.875 74.0176 153.199 73.5879C153.523 73.1543 153.686 72.5488 153.686 71.7715C153.686 71.0762 153.52 70.5137 153.188 70.084C152.859 69.6504 152.422 69.4336 151.875 69.4336C151.34 69.4336 150.908 69.6465 150.58 70.0723C150.252 70.498 150.088 71.1074 150.088 71.9004ZM157.148 68.6602L157.178 69.3633C157.643 68.8164 158.27 68.543 159.059 68.543C159.945 68.543 160.549 68.8828 160.869 69.5625C161.08 69.2578 161.354 69.0117 161.689 68.8242C162.029 68.6367 162.43 68.543 162.891 68.543C164.281 68.543 164.988 69.2793 165.012 70.752V75H163.928V70.8164C163.928 70.3633 163.824 70.0254 163.617 69.8027C163.41 69.5762 163.062 69.4629 162.574 69.4629C162.172 69.4629 161.838 69.584 161.572 69.8262C161.307 70.0645 161.152 70.3867 161.109 70.793V75H160.02V70.8457C160.02 69.9238 159.568 69.4629 158.666 69.4629C157.955 69.4629 157.469 69.7656 157.207 70.3711V75H156.123V68.6602H157.148ZM172.008 71.9004C172.008 72.8652 171.787 73.6426 171.346 74.2324C170.904 74.8223 170.307 75.1172 169.553 75.1172C168.783 75.1172 168.178 74.873 167.736 74.3848V77.4375H166.652V68.6602H167.643L167.695 69.3633C168.137 68.8164 168.75 68.543 169.535 68.543C170.297 68.543 170.898 68.8301 171.34 69.4043C171.785 69.9785 172.008 70.7773 172.008 71.8008V71.9004ZM170.924 71.7773C170.924 71.0625 170.771 70.498 170.467 70.084C170.162 69.6699 169.744 69.4629 169.213 69.4629C168.557 69.4629 168.064 69.7539 167.736 70.3359V73.3652C168.061 73.9434 168.557 74.2324 169.225 74.2324C169.744 74.2324 170.156 74.0273 170.461 73.6172C170.77 73.2031 170.924 72.5898 170.924 71.7773ZM173.104 71.7715C173.104 71.1504 173.225 70.5918 173.467 70.0957C173.713 69.5996 174.053 69.2168 174.486 68.9473C174.924 68.6777 175.422 68.543 175.98 68.543C176.844 68.543 177.541 68.8418 178.072 69.4395C178.607 70.0371 178.875 70.832 178.875 71.8242V71.9004C178.875 72.5176 178.756 73.0723 178.518 73.5645C178.283 74.0527 177.945 74.4336 177.504 74.707C177.066 74.9805 176.562 75.1172 175.992 75.1172C175.133 75.1172 174.436 74.8184 173.9 74.2207C173.369 73.623 173.104 72.832 173.104 71.8477V71.7715ZM174.193 71.9004C174.193 72.6035 174.355 73.168 174.68 73.5938C175.008 74.0195 175.445 74.2324 175.992 74.2324C176.543 74.2324 176.98 74.0176 177.305 73.5879C177.629 73.1543 177.791 72.5488 177.791 71.7715C177.791 71.0762 177.625 70.5137 177.293 70.084C176.965 69.6504 176.527 69.4336 175.98 69.4336C175.445 69.4336 175.014 69.6465 174.686 70.0723C174.357 70.498 174.193 71.1074 174.193 71.9004ZM181.26 68.6602L181.295 69.457C181.779 68.8477 182.412 68.543 183.193 68.543C184.533 68.543 185.209 69.2988 185.221 70.8105V75H184.137V70.8047C184.133 70.3477 184.027 70.0098 183.82 69.791C183.617 69.5723 183.299 69.4629 182.865 69.4629C182.514 69.4629 182.205 69.5566 181.939 69.7441C181.674 69.9316 181.467 70.1777 181.318 70.4824V75H180.234V68.6602H181.26ZM189.486 75.1172C188.627 75.1172 187.928 74.8359 187.389 74.2734C186.85 73.707 186.58 72.9512 186.58 72.0059V71.8066C186.58 71.1777 186.699 70.6172 186.938 70.125C187.18 69.6289 187.516 69.2422 187.945 68.9648C188.379 68.6836 188.848 68.543 189.352 68.543C190.176 68.543 190.816 68.8145 191.273 69.3574C191.73 69.9004 191.959 70.6777 191.959 71.6895V72.1406H187.664C187.68 72.7656 187.861 73.2715 188.209 73.6582C188.561 74.041 189.006 74.2324 189.545 74.2324C189.928 74.2324 190.252 74.1543 190.518 73.998C190.783 73.8418 191.016 73.6348 191.215 73.377L191.877 73.8926C191.346 74.709 190.549 75.1172 189.486 75.1172ZM189.352 69.4336C188.914 69.4336 188.547 69.5938 188.25 69.9141C187.953 70.2305 187.77 70.6758 187.699 71.25H190.875V71.168C190.844 70.6172 190.695 70.1914 190.43 69.8906C190.164 69.5859 189.805 69.4336 189.352 69.4336ZM194.244 68.6602L194.279 69.457C194.764 68.8477 195.396 68.543 196.178 68.543C197.518 68.543 198.193 69.2988 198.205 70.8105V75H197.121V70.8047C197.117 70.3477 197.012 70.0098 196.805 69.791C196.602 69.5723 196.283 69.4629 195.85 69.4629C195.498 69.4629 195.189 69.5566 194.924 69.7441C194.658 69.9316 194.451 70.1777 194.303 70.4824V75H193.219V68.6602H194.244ZM201.311 67.125V68.6602H202.494V69.498H201.311V73.4297C201.311 73.6836 201.363 73.875 201.469 74.0039C201.574 74.1289 201.754 74.1914 202.008 74.1914C202.133 74.1914 202.305 74.168 202.523 74.1211V75C202.238 75.0781 201.961 75.1172 201.691 75.1172C201.207 75.1172 200.842 74.9707 200.596 74.6777C200.35 74.3848 200.227 73.9688 200.227 73.4297V69.498H199.072V68.6602H200.227V67.125H201.311ZM207.457 73.3184C207.457 73.0254 207.346 72.7988 207.123 72.6387C206.904 72.4746 206.52 72.334 205.969 72.2168C205.422 72.0996 204.986 71.959 204.662 71.7949C204.342 71.6309 204.104 71.4355 203.947 71.209C203.795 70.9824 203.719 70.7129 203.719 70.4004C203.719 69.8809 203.938 69.4414 204.375 69.082C204.816 68.7227 205.379 68.543 206.062 68.543C206.781 68.543 207.363 68.7285 207.809 69.0996C208.258 69.4707 208.482 69.9453 208.482 70.5234H207.393C207.393 70.2266 207.266 69.9707 207.012 69.7559C206.762 69.541 206.445 69.4336 206.062 69.4336C205.668 69.4336 205.359 69.5195 205.137 69.6914C204.914 69.8633 204.803 70.0879 204.803 70.3652C204.803 70.627 204.906 70.8242 205.113 70.957C205.32 71.0898 205.693 71.2168 206.232 71.3379C206.775 71.459 207.215 71.6035 207.551 71.7715C207.887 71.9395 208.135 72.1426 208.295 72.3809C208.459 72.6152 208.541 72.9023 208.541 73.2422C208.541 73.8086 208.314 74.2637 207.861 74.6074C207.408 74.9473 206.82 75.1172 206.098 75.1172C205.59 75.1172 205.141 75.0273 204.75 74.8477C204.359 74.668 204.053 74.418 203.83 74.0977C203.611 73.7734 203.502 73.4238 203.502 73.0488H204.586C204.605 73.4121 204.75 73.7012 205.02 73.916C205.293 74.127 205.652 74.2324 206.098 74.2324C206.508 74.2324 206.836 74.1504 207.082 73.9863C207.332 73.8184 207.457 73.5957 207.457 73.3184ZM216.844 75C216.781 74.875 216.73 74.6523 216.691 74.332C216.188 74.8555 215.586 75.1172 214.887 75.1172C214.262 75.1172 213.748 74.9414 213.346 74.5898C212.947 74.2344 212.748 73.7852 212.748 73.2422C212.748 72.582 212.998 72.0703 213.498 71.707C214.002 71.3398 214.709 71.1562 215.619 71.1562H216.674V70.6582C216.674 70.2793 216.561 69.9785 216.334 69.7559C216.107 69.5293 215.773 69.416 215.332 69.416C214.945 69.416 214.621 69.5137 214.359 69.709C214.098 69.9043 213.967 70.1406 213.967 70.418H212.877C212.877 70.1016 212.988 69.7969 213.211 69.5039C213.438 69.207 213.742 68.9727 214.125 68.8008C214.512 68.6289 214.936 68.543 215.396 68.543C216.127 68.543 216.699 68.7266 217.113 69.0938C217.527 69.457 217.742 69.959 217.758 70.5996V73.5176C217.758 74.0996 217.832 74.5625 217.98 74.9062V75H216.844ZM215.045 74.1738C215.385 74.1738 215.707 74.0859 216.012 73.9102C216.316 73.7344 216.537 73.5059 216.674 73.2246V71.9238H215.824C214.496 71.9238 213.832 72.3125 213.832 73.0898C213.832 73.4297 213.945 73.6953 214.172 73.8867C214.398 74.0781 214.689 74.1738 215.045 74.1738ZM220.482 68.6602L220.518 69.457C221.002 68.8477 221.635 68.543 222.416 68.543C223.756 68.543 224.432 69.2988 224.443 70.8105V75H223.359V70.8047C223.355 70.3477 223.25 70.0098 223.043 69.791C222.84 69.5723 222.521 69.4629 222.088 69.4629C221.736 69.4629 221.428 69.5566 221.162 69.7441C220.896 69.9316 220.689 70.1777 220.541 70.4824V75H219.457V68.6602H220.482ZM225.814 71.7773C225.814 70.8047 226.045 70.0234 226.506 69.4336C226.967 68.8398 227.57 68.543 228.316 68.543C229.059 68.543 229.646 68.7969 230.08 69.3047V66H231.164V75H230.168L230.115 74.3203C229.682 74.8516 229.078 75.1172 228.305 75.1172C227.57 75.1172 226.971 74.8164 226.506 74.2148C226.045 73.6133 225.814 72.8281 225.814 71.8594V71.7773ZM226.898 71.9004C226.898 72.6191 227.047 73.1816 227.344 73.5879C227.641 73.9941 228.051 74.1973 228.574 74.1973C229.262 74.1973 229.764 73.8887 230.08 73.2715V70.3594C229.756 69.7617 229.258 69.4629 228.586 69.4629C228.055 69.4629 227.641 69.668 227.344 70.0781C227.047 70.4883 226.898 71.0957 226.898 71.9004ZM16.5117 91.3184C16.5117 91.0254 16.4004 90.7988 16.1777 90.6387C15.959 90.4746 15.5742 90.334 15.0234 90.2168C14.4766 90.0996 14.041 89.959 13.7168 89.7949C13.3965 89.6309 13.1582 89.4355 13.002 89.209C12.8496 88.9824 12.7734 88.7129 12.7734 88.4004C12.7734 87.8809 12.9922 87.4414 13.4297 87.082C13.8711 86.7227 14.4336 86.543 15.1172 86.543C15.8359 86.543 16.418 86.7285 16.8633 87.0996C17.3125 87.4707 17.5371 87.9453 17.5371 88.5234H16.4473C16.4473 88.2266 16.3203 87.9707 16.0664 87.7559C15.8164 87.541 15.5 87.4336 15.1172 87.4336C14.7227 87.4336 14.4141 87.5195 14.1914 87.6914C13.9688 87.8633 13.8574 88.0879 13.8574 88.3652C13.8574 88.627 13.9609 88.8242 14.168 88.957C14.375 89.0898 14.748 89.2168 15.2871 89.3379C15.8301 89.459 16.2695 89.6035 16.6055 89.7715C16.9414 89.9395 17.1895 90.1426 17.3496 90.3809C17.5137 90.6152 17.5957 90.9023 17.5957 91.2422C17.5957 91.8086 17.3691 92.2637 16.916 92.6074C16.4629 92.9473 15.875 93.1172 15.1523 93.1172C14.6445 93.1172 14.1953 93.0273 13.8047 92.8477C13.4141 92.668 13.1074 92.418 12.8848 92.0977C12.666 91.7734 12.5566 91.4238 12.5566 91.0488H13.6406C13.6602 91.4121 13.8047 91.7012 14.0742 91.916C14.3477 92.127 14.707 92.2324 15.1523 92.2324C15.5625 92.2324 15.8906 92.1504 16.1367 91.9863C16.3867 91.8184 16.5117 91.5957 16.5117 91.3184ZM22.9219 92.373C22.5 92.8691 21.8809 93.1172 21.0645 93.1172C20.3887 93.1172 19.873 92.9219 19.5176 92.5312C19.166 92.1367 18.9883 91.5547 18.9844 90.7852V86.6602H20.0684V90.7559C20.0684 91.7168 20.459 92.1973 21.2402 92.1973C22.0684 92.1973 22.6191 91.8887 22.8926 91.2715V86.6602H23.9766V93H22.9453L22.9219 92.373ZM30.9961 89.9004C30.9961 90.8691 30.7734 91.6484 30.3281 92.2383C29.8828 92.8242 29.2852 93.1172 28.5352 93.1172C27.7344 93.1172 27.1152 92.834 26.6777 92.2676L26.625 93H25.6289V84H26.7129V87.3574C27.1504 86.8145 27.7539 86.543 28.5234 86.543C29.293 86.543 29.8965 86.834 30.334 87.416C30.7754 87.998 30.9961 88.7949 30.9961 89.8066V89.9004ZM29.9121 89.7773C29.9121 89.0391 29.7695 88.4688 29.4844 88.0664C29.1992 87.6641 28.7891 87.4629 28.2539 87.4629C27.5391 87.4629 27.0254 87.7949 26.7129 88.459V91.2012C27.0449 91.8652 27.5625 92.1973 28.2656 92.1973C28.7852 92.1973 29.1895 91.9961 29.4785 91.5938C29.7676 91.1914 29.9121 90.5859 29.9121 89.7773ZM36.0586 91.3184C36.0586 91.0254 35.9473 90.7988 35.7246 90.6387C35.5059 90.4746 35.1211 90.334 34.5703 90.2168C34.0234 90.0996 33.5879 89.959 33.2637 89.7949C32.9434 89.6309 32.7051 89.4355 32.5488 89.209C32.3965 88.9824 32.3203 88.7129 32.3203 88.4004C32.3203 87.8809 32.5391 87.4414 32.9766 87.082C33.418 86.7227 33.9805 86.543 34.6641 86.543C35.3828 86.543 35.9648 86.7285 36.4102 87.0996C36.8594 87.4707 37.084 87.9453 37.084 88.5234H35.9941C35.9941 88.2266 35.8672 87.9707 35.6133 87.7559C35.3633 87.541 35.0469 87.4336 34.6641 87.4336C34.2695 87.4336 33.9609 87.5195 33.7383 87.6914C33.5156 87.8633 33.4043 88.0879 33.4043 88.3652C33.4043 88.627 33.5078 88.8242 33.7148 88.957C33.9219 89.0898 34.2949 89.2168 34.834 89.3379C35.377 89.459 35.8164 89.6035 36.1523 89.7715C36.4883 89.9395 36.7363 90.1426 36.8965 90.3809C37.0605 90.6152 37.1426 90.9023 37.1426 91.2422C37.1426 91.8086 36.916 92.2637 36.4629 92.6074C36.0098 92.9473 35.4219 93.1172 34.6992 93.1172C34.1914 93.1172 33.7422 93.0273 33.3516 92.8477C32.9609 92.668 32.6543 92.418 32.4316 92.0977C32.2129 91.7734 32.1035 91.4238 32.1035 91.0488H33.1875C33.207 91.4121 33.3516 91.7012 33.6211 91.916C33.8945 92.127 34.2539 92.2324 34.6992 92.2324C35.1094 92.2324 35.4375 92.1504 35.6836 91.9863C35.9336 91.8184 36.0586 91.5957 36.0586 91.3184ZM40.0254 85.125V86.6602H41.209V87.498H40.0254V91.4297C40.0254 91.6836 40.0781 91.875 40.1836 92.0039C40.2891 92.1289 40.4688 92.1914 40.7227 92.1914C40.8477 92.1914 41.0195 92.168 41.2383 92.1211V93C40.9531 93.0781 40.6758 93.1172 40.4062 93.1172C39.9219 93.1172 39.5566 92.9707 39.3105 92.6777C39.0645 92.3848 38.9414 91.9688 38.9414 91.4297V87.498H37.7871V86.6602H38.9414V85.125H40.0254ZM43.6582 93H42.5742V86.6602H43.6582V93ZM42.4863 84.9785C42.4863 84.8027 42.5391 84.6543 42.6445 84.5332C42.7539 84.4121 42.9141 84.3516 43.125 84.3516C43.3359 84.3516 43.4961 84.4121 43.6055 84.5332C43.7148 84.6543 43.7695 84.8027 43.7695 84.9785C43.7695 85.1543 43.7148 85.3008 43.6055 85.418C43.4961 85.5352 43.3359 85.5938 43.125 85.5938C42.9141 85.5938 42.7539 85.5352 42.6445 85.418C42.5391 85.3008 42.4863 85.1543 42.4863 84.9785ZM46.8691 85.125V86.6602H48.0527V87.498H46.8691V91.4297C46.8691 91.6836 46.9219 91.875 47.0273 92.0039C47.1328 92.1289 47.3125 92.1914 47.5664 92.1914C47.6914 92.1914 47.8633 92.168 48.082 92.1211V93C47.7969 93.0781 47.5195 93.1172 47.25 93.1172C46.7656 93.1172 46.4004 92.9707 46.1543 92.6777C45.9082 92.3848 45.7852 91.9688 45.7852 91.4297V87.498H44.6309V86.6602H45.7852V85.125H46.8691ZM53.2383 92.373C52.8164 92.8691 52.1973 93.1172 51.3809 93.1172C50.7051 93.1172 50.1895 92.9219 49.834 92.5312C49.4824 92.1367 49.3047 91.5547 49.3008 90.7852V86.6602H50.3848V90.7559C50.3848 91.7168 50.7754 92.1973 51.5566 92.1973C52.3848 92.1973 52.9355 91.8887 53.209 91.2715V86.6602H54.293V93H53.2617L53.2383 92.373ZM57.416 85.125V86.6602H58.5996V87.498H57.416V91.4297C57.416 91.6836 57.4688 91.875 57.5742 92.0039C57.6797 92.1289 57.8594 92.1914 58.1133 92.1914C58.2383 92.1914 58.4102 92.168 58.6289 92.1211V93C58.3438 93.0781 58.0664 93.1172 57.7969 93.1172C57.3125 93.1172 56.9473 92.9707 56.7012 92.6777C56.4551 92.3848 56.332 91.9688 56.332 91.4297V87.498H55.1777V86.6602H56.332V85.125H57.416ZM62.502 93.1172C61.6426 93.1172 60.9434 92.8359 60.4043 92.2734C59.8652 91.707 59.5957 90.9512 59.5957 90.0059V89.8066C59.5957 89.1777 59.7148 88.6172 59.9531 88.125C60.1953 87.6289 60.5312 87.2422 60.9609 86.9648C61.3945 86.6836 61.8633 86.543 62.3672 86.543C63.1914 86.543 63.832 86.8145 64.2891 87.3574C64.7461 87.9004 64.9746 88.6777 64.9746 89.6895V90.1406H60.6797C60.6953 90.7656 60.877 91.2715 61.2246 91.6582C61.5762 92.041 62.0215 92.2324 62.5605 92.2324C62.9434 92.2324 63.2676 92.1543 63.5332 91.998C63.7988 91.8418 64.0312 91.6348 64.2305 91.377L64.8926 91.8926C64.3613 92.709 63.5645 93.1172 62.502 93.1172ZM62.3672 87.4336C61.9297 87.4336 61.5625 87.5938 61.2656 87.9141C60.9688 88.2305 60.7852 88.6758 60.7148 89.25H63.8906V89.168C63.8594 88.6172 63.7109 88.1914 63.4453 87.8906C63.1797 87.5859 62.8203 87.4336 62.3672 87.4336ZM69.9258 91.3184C69.9258 91.0254 69.8145 90.7988 69.5918 90.6387C69.373 90.4746 68.9883 90.334 68.4375 90.2168C67.8906 90.0996 67.4551 89.959 67.1309 89.7949C66.8105 89.6309 66.5723 89.4355 66.416 89.209C66.2637 88.9824 66.1875 88.7129 66.1875 88.4004C66.1875 87.8809 66.4062 87.4414 66.8438 87.082C67.2852 86.7227 67.8477 86.543 68.5312 86.543C69.25 86.543 69.832 86.7285 70.2773 87.0996C70.7266 87.4707 70.9512 87.9453 70.9512 88.5234H69.8613C69.8613 88.2266 69.7344 87.9707 69.4805 87.7559C69.2305 87.541 68.9141 87.4336 68.5312 87.4336C68.1367 87.4336 67.8281 87.5195 67.6055 87.6914C67.3828 87.8633 67.2715 88.0879 67.2715 88.3652C67.2715 88.627 67.375 88.8242 67.582 88.957C67.7891 89.0898 68.1621 89.2168 68.7012 89.3379C69.2441 89.459 69.6836 89.6035 70.0195 89.7715C70.3555 89.9395 70.6035 90.1426 70.7637 90.3809C70.9277 90.6152 71.0098 90.9023 71.0098 91.2422C71.0098 91.8086 70.7832 92.2637 70.3301 92.6074C69.877 92.9473 69.2891 93.1172 68.5664 93.1172C68.0586 93.1172 67.6094 93.0273 67.2188 92.8477C66.8281 92.668 66.5215 92.418 66.2988 92.0977C66.0801 91.7734 65.9707 91.4238 65.9707 91.0488H67.0547C67.0742 91.4121 67.2188 91.7012 67.4883 91.916C67.7617 92.127 68.1211 92.2324 68.5664 92.2324C68.9766 92.2324 69.3047 92.1504 69.5508 91.9863C69.8008 91.8184 69.9258 91.5957 69.9258 91.3184ZM79.0898 91.3184C79.0898 91.0254 78.9785 90.7988 78.7559 90.6387C78.5371 90.4746 78.1523 90.334 77.6016 90.2168C77.0547 90.0996 76.6191 89.959 76.2949 89.7949C75.9746 89.6309 75.7363 89.4355 75.5801 89.209C75.4277 88.9824 75.3516 88.7129 75.3516 88.4004C75.3516 87.8809 75.5703 87.4414 76.0078 87.082C76.4492 86.7227 77.0117 86.543 77.6953 86.543C78.4141 86.543 78.9961 86.7285 79.4414 87.0996C79.8906 87.4707 80.1152 87.9453 80.1152 88.5234H79.0254C79.0254 88.2266 78.8984 87.9707 78.6445 87.7559C78.3945 87.541 78.0781 87.4336 77.6953 87.4336C77.3008 87.4336 76.9922 87.5195 76.7695 87.6914C76.5469 87.8633 76.4355 88.0879 76.4355 88.3652C76.4355 88.627 76.5391 88.8242 76.7461 88.957C76.9531 89.0898 77.3262 89.2168 77.8652 89.3379C78.4082 89.459 78.8477 89.6035 79.1836 89.7715C79.5195 89.9395 79.7676 90.1426 79.9277 90.3809C80.0918 90.6152 80.1738 90.9023 80.1738 91.2422C80.1738 91.8086 79.9473 92.2637 79.4941 92.6074C79.041 92.9473 78.4531 93.1172 77.7305 93.1172C77.2227 93.1172 76.7734 93.0273 76.3828 92.8477C75.9922 92.668 75.6855 92.418 75.4629 92.0977C75.2441 91.7734 75.1348 91.4238 75.1348 91.0488H76.2188C76.2383 91.4121 76.3828 91.7012 76.6523 91.916C76.9258 92.127 77.2852 92.2324 77.7305 92.2324C78.1406 92.2324 78.4688 92.1504 78.7148 91.9863C78.9648 91.8184 79.0898 91.5957 79.0898 91.3184ZM81.2988 89.7715C81.2988 89.1504 81.4199 88.5918 81.6621 88.0957C81.9082 87.5996 82.248 87.2168 82.6816 86.9473C83.1191 86.6777 83.6172 86.543 84.1758 86.543C85.0391 86.543 85.7363 86.8418 86.2676 87.4395C86.8027 88.0371 87.0703 88.832 87.0703 89.8242V89.9004C87.0703 90.5176 86.9512 91.0723 86.7129 91.5645C86.4785 92.0527 86.1406 92.4336 85.6992 92.707C85.2617 92.9805 84.7578 93.1172 84.1875 93.1172C83.3281 93.1172 82.6309 92.8184 82.0957 92.2207C81.5645 91.623 81.2988 90.832 81.2988 89.8477V89.7715ZM82.3887 89.9004C82.3887 90.6035 82.5508 91.168 82.875 91.5938C83.2031 92.0195 83.6406 92.2324 84.1875 92.2324C84.7383 92.2324 85.1758 92.0176 85.5 91.5879C85.8242 91.1543 85.9863 90.5488 85.9863 89.7715C85.9863 89.0762 85.8203 88.5137 85.4883 88.084C85.1602 87.6504 84.7227 87.4336 84.1758 87.4336C83.6406 87.4336 83.209 87.6465 82.8809 88.0723C82.5527 88.498 82.3887 89.1074 82.3887 89.9004ZM89.4492 86.6602L89.4785 87.3633C89.9434 86.8164 90.5703 86.543 91.3594 86.543C92.2461 86.543 92.8496 86.8828 93.1699 87.5625C93.3809 87.2578 93.6543 87.0117 93.9902 86.8242C94.3301 86.6367 94.7305 86.543 95.1914 86.543C96.582 86.543 97.2891 87.2793 97.3125 88.752V93H96.2285V88.8164C96.2285 88.3633 96.125 88.0254 95.918 87.8027C95.7109 87.5762 95.3633 87.4629 94.875 87.4629C94.4727 87.4629 94.1387 87.584 93.873 87.8262C93.6074 88.0645 93.4531 88.3867 93.4102 88.793V93H92.3203V88.8457C92.3203 87.9238 91.8691 87.4629 90.9668 87.4629C90.2559 87.4629 89.7695 87.7656 89.5078 88.3711V93H88.4238V86.6602H89.4492ZM101.584 93.1172C100.725 93.1172 100.025 92.8359 99.4863 92.2734C98.9473 91.707 98.6777 90.9512 98.6777 90.0059V89.8066C98.6777 89.1777 98.7969 88.6172 99.0352 88.125C99.2773 87.6289 99.6133 87.2422 100.043 86.9648C100.477 86.6836 100.945 86.543 101.449 86.543C102.273 86.543 102.914 86.8145 103.371 87.3574C103.828 87.9004 104.057 88.6777 104.057 89.6895V90.1406H99.7617C99.7773 90.7656 99.959 91.2715 100.307 91.6582C100.658 92.041 101.104 92.2324 101.643 92.2324C102.025 92.2324 102.35 92.1543 102.615 91.998C102.881 91.8418 103.113 91.6348 103.312 91.377L103.975 91.8926C103.443 92.709 102.646 93.1172 101.584 93.1172ZM101.449 87.4336C101.012 87.4336 100.645 87.5938 100.348 87.9141C100.051 88.2305 99.8672 88.6758 99.7969 89.25H102.973V89.168C102.941 88.6172 102.793 88.1914 102.527 87.8906C102.262 87.5859 101.902 87.4336 101.449 87.4336ZM108.006 89.7715C108.006 89.1504 108.127 88.5918 108.369 88.0957C108.615 87.5996 108.955 87.2168 109.389 86.9473C109.826 86.6777 110.324 86.543 110.883 86.543C111.746 86.543 112.443 86.8418 112.975 87.4395C113.51 88.0371 113.777 88.832 113.777 89.8242V89.9004C113.777 90.5176 113.658 91.0723 113.42 91.5645C113.186 92.0527 112.848 92.4336 112.406 92.707C111.969 92.9805 111.465 93.1172 110.895 93.1172C110.035 93.1172 109.338 92.8184 108.803 92.2207C108.271 91.623 108.006 90.832 108.006 89.8477V89.7715ZM109.096 89.9004C109.096 90.6035 109.258 91.168 109.582 91.5938C109.91 92.0195 110.348 92.2324 110.895 92.2324C111.445 92.2324 111.883 92.0176 112.207 91.5879C112.531 91.1543 112.693 90.5488 112.693 89.7715C112.693 89.0762 112.527 88.5137 112.195 88.084C111.867 87.6504 111.43 87.4336 110.883 87.4336C110.348 87.4336 109.916 87.6465 109.588 88.0723C109.26 88.498 109.096 89.1074 109.096 89.9004ZM115.67 93V87.498H114.668V86.6602H115.67V86.0098C115.67 85.3301 115.852 84.8047 116.215 84.4336C116.578 84.0625 117.092 83.877 117.756 83.877C118.006 83.877 118.254 83.9102 118.5 83.9766L118.441 84.8555C118.258 84.8203 118.062 84.8027 117.855 84.8027C117.504 84.8027 117.232 84.9062 117.041 85.1133C116.85 85.3164 116.754 85.6094 116.754 85.9922V86.6602H118.107V87.498H116.754V93H115.67ZM123.756 85.125V86.6602H124.939V87.498H123.756V91.4297C123.756 91.6836 123.809 91.875 123.914 92.0039C124.02 92.1289 124.199 92.1914 124.453 92.1914C124.578 92.1914 124.75 92.168 124.969 92.1211V93C124.684 93.0781 124.406 93.1172 124.137 93.1172C123.652 93.1172 123.287 92.9707 123.041 92.6777C122.795 92.3848 122.672 91.9688 122.672 91.4297V87.498H121.518V86.6602H122.672V85.125H123.756ZM127.295 87.4277C127.775 86.8379 128.4 86.543 129.17 86.543C130.51 86.543 131.186 87.2988 131.197 88.8105V93H130.113V88.8047C130.109 88.3477 130.004 88.0098 129.797 87.791C129.594 87.5723 129.275 87.4629 128.842 87.4629C128.49 87.4629 128.182 87.5566 127.916 87.7441C127.65 87.9316 127.443 88.1777 127.295 88.4824V93H126.211V84H127.295V87.4277ZM135.451 93.1172C134.592 93.1172 133.893 92.8359 133.354 92.2734C132.814 91.707 132.545 90.9512 132.545 90.0059V89.8066C132.545 89.1777 132.664 88.6172 132.902 88.125C133.145 87.6289 133.48 87.2422 133.91 86.9648C134.344 86.6836 134.812 86.543 135.316 86.543C136.141 86.543 136.781 86.8145 137.238 87.3574C137.695 87.9004 137.924 88.6777 137.924 89.6895V90.1406H133.629C133.645 90.7656 133.826 91.2715 134.174 91.6582C134.525 92.041 134.971 92.2324 135.51 92.2324C135.893 92.2324 136.217 92.1543 136.482 91.998C136.748 91.8418 136.98 91.6348 137.18 91.377L137.842 91.8926C137.311 92.709 136.514 93.1172 135.451 93.1172ZM135.316 87.4336C134.879 87.4336 134.512 87.5938 134.215 87.9141C133.918 88.2305 133.734 88.6758 133.664 89.25H136.84V89.168C136.809 88.6172 136.66 88.1914 136.395 87.8906C136.129 87.5859 135.77 87.4336 135.316 87.4336ZM144.252 91.5293L145.822 86.6602H146.93L144.656 93H143.83L141.533 86.6602H142.641L144.252 91.5293ZM151.793 93C151.73 92.875 151.68 92.6523 151.641 92.332C151.137 92.8555 150.535 93.1172 149.836 93.1172C149.211 93.1172 148.697 92.9414 148.295 92.5898C147.896 92.2344 147.697 91.7852 147.697 91.2422C147.697 90.582 147.947 90.0703 148.447 89.707C148.951 89.3398 149.658 89.1562 150.568 89.1562H151.623V88.6582C151.623 88.2793 151.51 87.9785 151.283 87.7559C151.057 87.5293 150.723 87.416 150.281 87.416C149.895 87.416 149.57 87.5137 149.309 87.709C149.047 87.9043 148.916 88.1406 148.916 88.418H147.826C147.826 88.1016 147.938 87.7969 148.16 87.5039C148.387 87.207 148.691 86.9727 149.074 86.8008C149.461 86.6289 149.885 86.543 150.346 86.543C151.076 86.543 151.648 86.7266 152.062 87.0938C152.477 87.457 152.691 87.959 152.707 88.5996V91.5176C152.707 92.0996 152.781 92.5625 152.93 92.9062V93H151.793ZM149.994 92.1738C150.334 92.1738 150.656 92.0859 150.961 91.9102C151.266 91.7344 151.486 91.5059 151.623 91.2246V89.9238H150.773C149.445 89.9238 148.781 90.3125 148.781 91.0898C148.781 91.4297 148.895 91.6953 149.121 91.8867C149.348 92.0781 149.639 92.1738 149.994 92.1738ZM155.432 86.6602L155.467 87.457C155.951 86.8477 156.584 86.543 157.365 86.543C158.705 86.543 159.381 87.2988 159.393 88.8105V93H158.309V88.8047C158.305 88.3477 158.199 88.0098 157.992 87.791C157.789 87.5723 157.471 87.4629 157.037 87.4629C156.686 87.4629 156.377 87.5566 156.111 87.7441C155.846 87.9316 155.639 88.1777 155.49 88.4824V93H154.406V86.6602H155.432ZM162.205 93H161.121V86.6602H162.205V93ZM161.033 84.9785C161.033 84.8027 161.086 84.6543 161.191 84.5332C161.301 84.4121 161.461 84.3516 161.672 84.3516C161.883 84.3516 162.043 84.4121 162.152 84.5332C162.262 84.6543 162.316 84.8027 162.316 84.9785C162.316 85.1543 162.262 85.3008 162.152 85.418C162.043 85.5352 161.883 85.5938 161.672 85.5938C161.461 85.5938 161.301 85.5352 161.191 85.418C161.086 85.3008 161.033 85.1543 161.033 84.9785ZM165.123 93H164.039V84H165.123V93ZM168.041 93H166.957V84H168.041V93ZM173.695 93C173.633 92.875 173.582 92.6523 173.543 92.332C173.039 92.8555 172.438 93.1172 171.738 93.1172C171.113 93.1172 170.6 92.9414 170.197 92.5898C169.799 92.2344 169.6 91.7852 169.6 91.2422C169.6 90.582 169.85 90.0703 170.35 89.707C170.854 89.3398 171.561 89.1562 172.471 89.1562H173.525V88.6582C173.525 88.2793 173.412 87.9785 173.186 87.7559C172.959 87.5293 172.625 87.416 172.184 87.416C171.797 87.416 171.473 87.5137 171.211 87.709C170.949 87.9043 170.818 88.1406 170.818 88.418H169.729C169.729 88.1016 169.84 87.7969 170.062 87.5039C170.289 87.207 170.594 86.9727 170.977 86.8008C171.363 86.6289 171.787 86.543 172.248 86.543C172.979 86.543 173.551 86.7266 173.965 87.0938C174.379 87.457 174.594 87.959 174.609 88.5996V91.5176C174.609 92.0996 174.684 92.5625 174.832 92.9062V93H173.695ZM171.896 92.1738C172.236 92.1738 172.559 92.0859 172.863 91.9102C173.168 91.7344 173.389 91.5059 173.525 91.2246V89.9238H172.676C171.348 89.9238 170.684 90.3125 170.684 91.0898C170.684 91.4297 170.797 91.6953 171.023 91.8867C171.25 92.0781 171.541 92.1738 171.896 92.1738ZM181.916 93.1172C181.057 93.1172 180.357 92.8359 179.818 92.2734C179.279 91.707 179.01 90.9512 179.01 90.0059V89.8066C179.01 89.1777 179.129 88.6172 179.367 88.125C179.609 87.6289 179.945 87.2422 180.375 86.9648C180.809 86.6836 181.277 86.543 181.781 86.543C182.605 86.543 183.246 86.8145 183.703 87.3574C184.16 87.9004 184.389 88.6777 184.389 89.6895V90.1406H180.094C180.109 90.7656 180.291 91.2715 180.639 91.6582C180.99 92.041 181.436 92.2324 181.975 92.2324C182.357 92.2324 182.682 92.1543 182.947 91.998C183.213 91.8418 183.445 91.6348 183.645 91.377L184.307 91.8926C183.775 92.709 182.979 93.1172 181.916 93.1172ZM181.781 87.4336C181.344 87.4336 180.977 87.5938 180.68 87.9141C180.383 88.2305 180.199 88.6758 180.129 89.25H183.305V89.168C183.273 88.6172 183.125 88.1914 182.859 87.8906C182.594 87.5859 182.234 87.4336 181.781 87.4336ZM186.826 93H185.742V84H186.826V93ZM191.197 93.1172C190.338 93.1172 189.639 92.8359 189.1 92.2734C188.561 91.707 188.291 90.9512 188.291 90.0059V89.8066C188.291 89.1777 188.41 88.6172 188.648 88.125C188.891 87.6289 189.227 87.2422 189.656 86.9648C190.09 86.6836 190.559 86.543 191.062 86.543C191.887 86.543 192.527 86.8145 192.984 87.3574C193.441 87.9004 193.67 88.6777 193.67 89.6895V90.1406H189.375C189.391 90.7656 189.572 91.2715 189.92 91.6582C190.271 92.041 190.717 92.2324 191.256 92.2324C191.639 92.2324 191.963 92.1543 192.229 91.998C192.494 91.8418 192.727 91.6348 192.926 91.377L193.588 91.8926C193.057 92.709 192.26 93.1172 191.197 93.1172ZM191.062 87.4336C190.625 87.4336 190.258 87.5938 189.961 87.9141C189.664 88.2305 189.48 88.6758 189.41 89.25H192.586V89.168C192.555 88.6172 192.406 88.1914 192.141 87.8906C191.875 87.5859 191.516 87.4336 191.062 87.4336ZM195.949 86.6602L195.979 87.3633C196.443 86.8164 197.07 86.543 197.859 86.543C198.746 86.543 199.35 86.8828 199.67 87.5625C199.881 87.2578 200.154 87.0117 200.49 86.8242C200.83 86.6367 201.23 86.543 201.691 86.543C203.082 86.543 203.789 87.2793 203.812 88.752V93H202.729V88.8164C202.729 88.3633 202.625 88.0254 202.418 87.8027C202.211 87.5762 201.863 87.4629 201.375 87.4629C200.973 87.4629 200.639 87.584 200.373 87.8262C200.107 88.0645 199.953 88.3867 199.91 88.793V93H198.82V88.8457C198.82 87.9238 198.369 87.4629 197.467 87.4629C196.756 87.4629 196.27 87.7656 196.008 88.3711V93H194.924V86.6602H195.949ZM208.084 93.1172C207.225 93.1172 206.525 92.8359 205.986 92.2734C205.447 91.707 205.178 90.9512 205.178 90.0059V89.8066C205.178 89.1777 205.297 88.6172 205.535 88.125C205.777 87.6289 206.113 87.2422 206.543 86.9648C206.977 86.6836 207.445 86.543 207.949 86.543C208.773 86.543 209.414 86.8145 209.871 87.3574C210.328 87.9004 210.557 88.6777 210.557 89.6895V90.1406H206.262C206.277 90.7656 206.459 91.2715 206.807 91.6582C207.158 92.041 207.604 92.2324 208.143 92.2324C208.525 92.2324 208.85 92.1543 209.115 91.998C209.381 91.8418 209.613 91.6348 209.812 91.377L210.475 91.8926C209.943 92.709 209.146 93.1172 208.084 93.1172ZM207.949 87.4336C207.512 87.4336 207.145 87.5938 206.848 87.9141C206.551 88.2305 206.367 88.6758 206.297 89.25H209.473V89.168C209.441 88.6172 209.293 88.1914 209.027 87.8906C208.762 87.5859 208.402 87.4336 207.949 87.4336ZM212.842 86.6602L212.877 87.457C213.361 86.8477 213.994 86.543 214.775 86.543C216.115 86.543 216.791 87.2988 216.803 88.8105V93H215.719V88.8047C215.715 88.3477 215.609 88.0098 215.402 87.791C215.199 87.5723 214.881 87.4629 214.447 87.4629C214.096 87.4629 213.787 87.5566 213.521 87.7441C213.256 87.9316 213.049 88.1777 212.9 88.4824V93H211.816V86.6602H212.842ZM219.908 85.125V86.6602H221.092V87.498H219.908V91.4297C219.908 91.6836 219.961 91.875 220.066 92.0039C220.172 92.1289 220.352 92.1914 220.605 92.1914C220.73 92.1914 220.902 92.168 221.121 92.1211V93C220.836 93.0781 220.559 93.1172 220.289 93.1172C219.805 93.1172 219.439 92.9707 219.193 92.6777C218.947 92.3848 218.824 91.9688 218.824 91.4297V87.498H217.67V86.6602H218.824V85.125H219.908ZM226.055 91.3184C226.055 91.0254 225.943 90.7988 225.721 90.6387C225.502 90.4746 225.117 90.334 224.566 90.2168C224.02 90.0996 223.584 89.959 223.26 89.7949C222.939 89.6309 222.701 89.4355 222.545 89.209C222.393 88.9824 222.316 88.7129 222.316 88.4004C222.316 87.8809 222.535 87.4414 222.973 87.082C223.414 86.7227 223.977 86.543 224.66 86.543C225.379 86.543 225.961 86.7285 226.406 87.0996C226.855 87.4707 227.08 87.9453 227.08 88.5234H225.99C225.99 88.2266 225.863 87.9707 225.609 87.7559C225.359 87.541 225.043 87.4336 224.66 87.4336C224.266 87.4336 223.957 87.5195 223.734 87.6914C223.512 87.8633 223.4 88.0879 223.4 88.3652C223.4 88.627 223.504 88.8242 223.711 88.957C223.918 89.0898 224.291 89.2168 224.83 89.3379C225.373 89.459 225.812 89.6035 226.148 89.7715C226.484 89.9395 226.732 90.1426 226.893 90.3809C227.057 90.6152 227.139 90.9023 227.139 91.2422C227.139 91.8086 226.912 92.2637 226.459 92.6074C226.006 92.9473 225.418 93.1172 224.695 93.1172C224.188 93.1172 223.738 93.0273 223.348 92.8477C222.957 92.668 222.65 92.418 222.428 92.0977C222.209 91.7734 222.1 91.4238 222.1 91.0488H223.184C223.203 91.4121 223.348 91.7012 223.617 91.916C223.891 92.127 224.25 92.2324 224.695 92.2324C225.105 92.2324 225.434 92.1504 225.68 91.9863C225.93 91.8184 226.055 91.5957 226.055 91.3184ZM18.4336 109.506L19.6523 104.66H20.7363L18.8906 111H18.0117L16.4707 106.195L14.9707 111H14.0918L12.252 104.66H13.3301L14.5781 109.406L16.0547 104.66H16.9277L18.4336 109.506ZM23.0215 111H21.9375V104.66H23.0215V111ZM21.8496 102.979C21.8496 102.803 21.9023 102.654 22.0078 102.533C22.1172 102.412 22.2773 102.352 22.4883 102.352C22.6992 102.352 22.8594 102.412 22.9688 102.533C23.0781 102.654 23.1328 102.803 23.1328 102.979C23.1328 103.154 23.0781 103.301 22.9688 103.418C22.8594 103.535 22.6992 103.594 22.4883 103.594C22.2773 103.594 22.1172 103.535 22.0078 103.418C21.9023 103.301 21.8496 103.154 21.8496 102.979ZM26.2324 103.125V104.66H27.416V105.498H26.2324V109.43C26.2324 109.684 26.2852 109.875 26.3906 110.004C26.4961 110.129 26.6758 110.191 26.9297 110.191C27.0547 110.191 27.2266 110.168 27.4453 110.121V111C27.1602 111.078 26.8828 111.117 26.6133 111.117C26.1289 111.117 25.7637 110.971 25.5176 110.678C25.2715 110.385 25.1484 109.969 25.1484 109.43V105.498H23.9941V104.66H25.1484V103.125H26.2324ZM29.7715 105.428C30.252 104.838 30.877 104.543 31.6465 104.543C32.9863 104.543 33.6621 105.299 33.6738 106.811V111H32.5898V106.805C32.5859 106.348 32.4805 106.01 32.2734 105.791C32.0703 105.572 31.752 105.463 31.3184 105.463C30.9668 105.463 30.6582 105.557 30.3926 105.744C30.127 105.932 29.9199 106.178 29.7715 106.482V111H28.6875V102H29.7715V105.428ZM39.293 104.66L39.3223 105.363C39.7871 104.816 40.4141 104.543 41.2031 104.543C42.0898 104.543 42.6934 104.883 43.0137 105.562C43.2246 105.258 43.498 105.012 43.834 104.824C44.1738 104.637 44.5742 104.543 45.0352 104.543C46.4258 104.543 47.1328 105.279 47.1562 106.752V111H46.0723V106.816C46.0723 106.363 45.9688 106.025 45.7617 105.803C45.5547 105.576 45.207 105.463 44.7188 105.463C44.3164 105.463 43.9824 105.584 43.7168 105.826C43.4512 106.064 43.2969 106.387 43.2539 106.793V111H42.1641V106.846C42.1641 105.924 41.7129 105.463 40.8105 105.463C40.0996 105.463 39.6133 105.766 39.3516 106.371V111H38.2676V104.66H39.293ZM49.9746 111H48.8906V104.66H49.9746V111ZM48.8027 102.979C48.8027 102.803 48.8555 102.654 48.9609 102.533C49.0703 102.412 49.2305 102.352 49.4414 102.352C49.6523 102.352 49.8125 102.412 49.9219 102.533C50.0312 102.654 50.0859 102.803 50.0859 102.979C50.0859 103.154 50.0312 103.301 49.9219 103.418C49.8125 103.535 49.6523 103.594 49.4414 103.594C49.2305 103.594 49.0703 103.535 48.9609 103.418C48.8555 103.301 48.8027 103.154 48.8027 102.979ZM52.7402 104.66L52.7754 105.457C53.2598 104.848 53.8926 104.543 54.6738 104.543C56.0137 104.543 56.6895 105.299 56.7012 106.811V111H55.6172V106.805C55.6133 106.348 55.5078 106.01 55.3008 105.791C55.0977 105.572 54.7793 105.463 54.3457 105.463C53.9941 105.463 53.6855 105.557 53.4199 105.744C53.1543 105.932 52.9473 106.178 52.7988 106.482V111H51.7148V104.66H52.7402ZM59.5137 111H58.4297V104.66H59.5137V111ZM58.3418 102.979C58.3418 102.803 58.3945 102.654 58.5 102.533C58.6094 102.412 58.7695 102.352 58.9805 102.352C59.1914 102.352 59.3516 102.412 59.4609 102.533C59.5703 102.654 59.625 102.803 59.625 102.979C59.625 103.154 59.5703 103.301 59.4609 103.418C59.3516 103.535 59.1914 103.594 58.9805 103.594C58.7695 103.594 58.6094 103.535 58.5 103.418C58.3945 103.301 58.3418 103.154 58.3418 102.979ZM62.2734 104.66L62.3027 105.363C62.7676 104.816 63.3945 104.543 64.1836 104.543C65.0703 104.543 65.6738 104.883 65.9941 105.562C66.2051 105.258 66.4785 105.012 66.8145 104.824C67.1543 104.637 67.5547 104.543 68.0156 104.543C69.4062 104.543 70.1133 105.279 70.1367 106.752V111H69.0527V106.816C69.0527 106.363 68.9492 106.025 68.7422 105.803C68.5352 105.576 68.1875 105.463 67.6992 105.463C67.2969 105.463 66.9629 105.584 66.6973 105.826C66.4316 106.064 66.2773 106.387 66.2344 106.793V111H65.1445V106.846C65.1445 105.924 64.6934 105.463 63.791 105.463C63.0801 105.463 62.5938 105.766 62.332 106.371V111H61.248V104.66H62.2734ZM75.6914 111C75.6289 110.875 75.5781 110.652 75.5391 110.332C75.0352 110.855 74.4336 111.117 73.7344 111.117C73.1094 111.117 72.5957 110.941 72.1934 110.59C71.7949 110.234 71.5957 109.785 71.5957 109.242C71.5957 108.582 71.8457 108.07 72.3457 107.707C72.8496 107.34 73.5566 107.156 74.4668 107.156H75.5215V106.658C75.5215 106.279 75.4082 105.979 75.1816 105.756C74.9551 105.529 74.6211 105.416 74.1797 105.416C73.793 105.416 73.4688 105.514 73.207 105.709C72.9453 105.904 72.8145 106.141 72.8145 106.418H71.7246C71.7246 106.102 71.8359 105.797 72.0586 105.504C72.2852 105.207 72.5898 104.973 72.9727 104.801C73.3594 104.629 73.7832 104.543 74.2441 104.543C74.9746 104.543 75.5469 104.727 75.9609 105.094C76.375 105.457 76.5898 105.959 76.6055 106.6V109.518C76.6055 110.1 76.6797 110.562 76.8281 110.906V111H75.6914ZM73.8926 110.174C74.2324 110.174 74.5547 110.086 74.8594 109.91C75.1641 109.734 75.3848 109.506 75.5215 109.225V107.924H74.6719C73.3438 107.924 72.6797 108.312 72.6797 109.09C72.6797 109.43 72.793 109.695 73.0195 109.887C73.2461 110.078 73.5371 110.174 73.8926 110.174ZM79.4824 111H78.3984V102H79.4824V111ZM82.4004 111H81.3164V104.66H82.4004V111ZM81.2285 102.979C81.2285 102.803 81.2812 102.654 81.3867 102.533C81.4961 102.412 81.6562 102.352 81.8672 102.352C82.0781 102.352 82.2383 102.412 82.3477 102.533C82.457 102.654 82.5117 102.803 82.5117 102.979C82.5117 103.154 82.457 103.301 82.3477 103.418C82.2383 103.535 82.0781 103.594 81.8672 103.594C81.6562 103.594 81.4961 103.535 81.3867 103.418C81.2812 103.301 81.2285 103.154 81.2285 102.979ZM87.832 109.318C87.832 109.025 87.7207 108.799 87.498 108.639C87.2793 108.475 86.8945 108.334 86.3438 108.217C85.7969 108.1 85.3613 107.959 85.0371 107.795C84.7168 107.631 84.4785 107.436 84.3223 107.209C84.1699 106.982 84.0938 106.713 84.0938 106.4C84.0938 105.881 84.3125 105.441 84.75 105.082C85.1914 104.723 85.7539 104.543 86.4375 104.543C87.1562 104.543 87.7383 104.729 88.1836 105.1C88.6328 105.471 88.8574 105.945 88.8574 106.523H87.7676C87.7676 106.227 87.6406 105.971 87.3867 105.756C87.1367 105.541 86.8203 105.434 86.4375 105.434C86.043 105.434 85.7344 105.52 85.5117 105.691C85.2891 105.863 85.1777 106.088 85.1777 106.365C85.1777 106.627 85.2812 106.824 85.4883 106.957C85.6953 107.09 86.0684 107.217 86.6074 107.338C87.1504 107.459 87.5898 107.604 87.9258 107.771C88.2617 107.939 88.5098 108.143 88.6699 108.381C88.834 108.615 88.916 108.902 88.916 109.242C88.916 109.809 88.6895 110.264 88.2363 110.607C87.7832 110.947 87.1953 111.117 86.4727 111.117C85.9648 111.117 85.5156 111.027 85.125 110.848C84.7344 110.668 84.4277 110.418 84.2051 110.098C83.9863 109.773 83.877 109.424 83.877 109.049H84.9609C84.9805 109.412 85.125 109.701 85.3945 109.916C85.668 110.127 86.0273 110.232 86.4727 110.232C86.8828 110.232 87.2109 110.15 87.457 109.986C87.707 109.818 87.832 109.596 87.832 109.318ZM91.7988 103.125V104.66H92.9824V105.498H91.7988V109.43C91.7988 109.684 91.8516 109.875 91.957 110.004C92.0625 110.129 92.2422 110.191 92.4961 110.191C92.6211 110.191 92.793 110.168 93.0117 110.121V111C92.7266 111.078 92.4492 111.117 92.1797 111.117C91.6953 111.117 91.3301 110.971 91.084 110.678C90.8379 110.385 90.7148 109.969 90.7148 109.43V105.498H89.5605V104.66H90.7148V103.125H91.7988ZM95.4316 111H94.3477V104.66H95.4316V111ZM94.2598 102.979C94.2598 102.803 94.3125 102.654 94.418 102.533C94.5273 102.412 94.6875 102.352 94.8984 102.352C95.1094 102.352 95.2695 102.412 95.3789 102.533C95.4883 102.654 95.543 102.803 95.543 102.979C95.543 103.154 95.4883 103.301 95.3789 103.418C95.2695 103.535 95.1094 103.594 94.8984 103.594C94.6875 103.594 94.5273 103.535 94.418 103.418C94.3125 103.301 94.2598 103.154 94.2598 102.979ZM99.7148 110.232C100.102 110.232 100.439 110.115 100.729 109.881C101.018 109.646 101.178 109.354 101.209 109.002H102.234C102.215 109.365 102.09 109.711 101.859 110.039C101.629 110.367 101.32 110.629 100.934 110.824C100.551 111.02 100.145 111.117 99.7148 111.117C98.8516 111.117 98.1641 110.83 97.6523 110.256C97.1445 109.678 96.8906 108.889 96.8906 107.889V107.707C96.8906 107.09 97.0039 106.541 97.2305 106.061C97.457 105.58 97.7812 105.207 98.2031 104.941C98.6289 104.676 99.1309 104.543 99.709 104.543C100.42 104.543 101.01 104.756 101.479 105.182C101.951 105.607 102.203 106.16 102.234 106.84H101.209C101.178 106.43 101.021 106.094 100.74 105.832C100.463 105.566 100.119 105.434 99.709 105.434C99.1582 105.434 98.7305 105.633 98.4258 106.031C98.125 106.426 97.9746 106.998 97.9746 107.748V107.953C97.9746 108.684 98.125 109.246 98.4258 109.641C98.7266 110.035 99.1562 110.232 99.7148 110.232ZM109.494 105.633C109.33 105.605 109.152 105.592 108.961 105.592C108.25 105.592 107.768 105.895 107.514 106.5V111H106.43V104.66H107.484L107.502 105.393C107.857 104.826 108.361 104.543 109.014 104.543C109.225 104.543 109.385 104.57 109.494 104.625V105.633ZM113.01 111.117C112.15 111.117 111.451 110.836 110.912 110.273C110.373 109.707 110.104 108.951 110.104 108.006V107.807C110.104 107.178 110.223 106.617 110.461 106.125C110.703 105.629 111.039 105.242 111.469 104.965C111.902 104.684 112.371 104.543 112.875 104.543C113.699 104.543 114.34 104.814 114.797 105.357C115.254 105.9 115.482 106.678 115.482 107.689V108.141H111.188C111.203 108.766 111.385 109.271 111.732 109.658C112.084 110.041 112.529 110.232 113.068 110.232C113.451 110.232 113.775 110.154 114.041 109.998C114.307 109.842 114.539 109.635 114.738 109.377L115.4 109.893C114.869 110.709 114.072 111.117 113.01 111.117ZM112.875 105.434C112.438 105.434 112.07 105.594 111.773 105.914C111.477 106.23 111.293 106.676 111.223 107.25H114.398V107.168C114.367 106.617 114.219 106.191 113.953 105.891C113.688 105.586 113.328 105.434 112.875 105.434ZM122.098 107.9C122.098 108.865 121.877 109.643 121.436 110.232C120.994 110.822 120.396 111.117 119.643 111.117C118.873 111.117 118.268 110.873 117.826 110.385V113.438H116.742V104.66H117.732L117.785 105.363C118.227 104.816 118.84 104.543 119.625 104.543C120.387 104.543 120.988 104.83 121.43 105.404C121.875 105.979 122.098 106.777 122.098 107.801V107.9ZM121.014 107.777C121.014 107.062 120.861 106.498 120.557 106.084C120.252 105.67 119.834 105.463 119.303 105.463C118.646 105.463 118.154 105.754 117.826 106.336V109.365C118.15 109.943 118.646 110.232 119.314 110.232C119.834 110.232 120.246 110.027 120.551 109.617C120.859 109.203 121.014 108.59 121.014 107.777ZM124.658 111H123.574V102H124.658V111ZM130.312 111C130.25 110.875 130.199 110.652 130.16 110.332C129.656 110.855 129.055 111.117 128.355 111.117C127.73 111.117 127.217 110.941 126.814 110.59C126.416 110.234 126.217 109.785 126.217 109.242C126.217 108.582 126.467 108.07 126.967 107.707C127.471 107.34 128.178 107.156 129.088 107.156H130.143V106.658C130.143 106.279 130.029 105.979 129.803 105.756C129.576 105.529 129.242 105.416 128.801 105.416C128.414 105.416 128.09 105.514 127.828 105.709C127.566 105.904 127.436 106.141 127.436 106.418H126.346C126.346 106.102 126.457 105.797 126.68 105.504C126.906 105.207 127.211 104.973 127.594 104.801C127.98 104.629 128.404 104.543 128.865 104.543C129.596 104.543 130.168 104.727 130.582 105.094C130.996 105.457 131.211 105.959 131.227 106.6V109.518C131.227 110.1 131.301 110.562 131.449 110.906V111H130.312ZM128.514 110.174C128.854 110.174 129.176 110.086 129.48 109.91C129.785 109.734 130.006 109.506 130.143 109.225V107.924H129.293C127.965 107.924 127.301 108.312 127.301 109.09C127.301 109.43 127.414 109.695 127.641 109.887C127.867 110.078 128.158 110.174 128.514 110.174ZM135.469 110.232C135.855 110.232 136.193 110.115 136.482 109.881C136.771 109.646 136.932 109.354 136.963 109.002H137.988C137.969 109.365 137.844 109.711 137.613 110.039C137.383 110.367 137.074 110.629 136.688 110.824C136.305 111.02 135.898 111.117 135.469 111.117C134.605 111.117 133.918 110.83 133.406 110.256C132.898 109.678 132.645 108.889 132.645 107.889V107.707C132.645 107.09 132.758 106.541 132.984 106.061C133.211 105.58 133.535 105.207 133.957 104.941C134.383 104.676 134.885 104.543 135.463 104.543C136.174 104.543 136.764 104.756 137.232 105.182C137.705 105.607 137.957 106.16 137.988 106.84H136.963C136.932 106.43 136.775 106.094 136.494 105.832C136.217 105.566 135.873 105.434 135.463 105.434C134.912 105.434 134.484 105.633 134.18 106.031C133.879 106.426 133.729 106.998 133.729 107.748V107.953C133.729 108.684 133.879 109.246 134.18 109.641C134.48 110.035 134.91 110.232 135.469 110.232ZM141.838 111.117C140.979 111.117 140.279 110.836 139.74 110.273C139.201 109.707 138.932 108.951 138.932 108.006V107.807C138.932 107.178 139.051 106.617 139.289 106.125C139.531 105.629 139.867 105.242 140.297 104.965C140.73 104.684 141.199 104.543 141.703 104.543C142.527 104.543 143.168 104.814 143.625 105.357C144.082 105.9 144.311 106.678 144.311 107.689V108.141H140.016C140.031 108.766 140.213 109.271 140.561 109.658C140.912 110.041 141.357 110.232 141.896 110.232C142.279 110.232 142.604 110.154 142.869 109.998C143.135 109.842 143.367 109.635 143.566 109.377L144.229 109.893C143.697 110.709 142.9 111.117 141.838 111.117ZM141.703 105.434C141.266 105.434 140.898 105.594 140.602 105.914C140.305 106.23 140.121 106.676 140.051 107.25H143.227V107.168C143.195 106.617 143.047 106.191 142.781 105.891C142.516 105.586 142.156 105.434 141.703 105.434ZM146.59 104.66L146.619 105.363C147.084 104.816 147.711 104.543 148.5 104.543C149.387 104.543 149.99 104.883 150.311 105.562C150.521 105.258 150.795 105.012 151.131 104.824C151.471 104.637 151.871 104.543 152.332 104.543C153.723 104.543 154.43 105.279 154.453 106.752V111H153.369V106.816C153.369 106.363 153.266 106.025 153.059 105.803C152.852 105.576 152.504 105.463 152.016 105.463C151.613 105.463 151.279 105.584 151.014 105.826C150.748 106.064 150.594 106.387 150.551 106.793V111H149.461V106.846C149.461 105.924 149.01 105.463 148.107 105.463C147.396 105.463 146.91 105.766 146.648 106.371V111H145.564V104.66H146.59ZM158.725 111.117C157.865 111.117 157.166 110.836 156.627 110.273C156.088 109.707 155.818 108.951 155.818 108.006V107.807C155.818 107.178 155.938 106.617 156.176 106.125C156.418 105.629 156.754 105.242 157.184 104.965C157.617 104.684 158.086 104.543 158.59 104.543C159.414 104.543 160.055 104.814 160.512 105.357C160.969 105.9 161.197 106.678 161.197 107.689V108.141H156.902C156.918 108.766 157.1 109.271 157.447 109.658C157.799 110.041 158.244 110.232 158.783 110.232C159.166 110.232 159.49 110.154 159.756 109.998C160.021 109.842 160.254 109.635 160.453 109.377L161.115 109.893C160.584 110.709 159.787 111.117 158.725 111.117ZM158.59 105.434C158.152 105.434 157.785 105.594 157.488 105.914C157.191 106.23 157.008 106.676 156.938 107.25H160.113V107.168C160.082 106.617 159.934 106.191 159.668 105.891C159.402 105.586 159.043 105.434 158.59 105.434ZM163.482 104.66L163.518 105.457C164.002 104.848 164.635 104.543 165.416 104.543C166.756 104.543 167.432 105.299 167.443 106.811V111H166.359V106.805C166.355 106.348 166.25 106.01 166.043 105.791C165.84 105.572 165.521 105.463 165.088 105.463C164.736 105.463 164.428 105.557 164.162 105.744C163.896 105.932 163.689 106.178 163.541 106.482V111H162.457V104.66H163.482ZM170.549 103.125V104.66H171.732V105.498H170.549V109.43C170.549 109.684 170.602 109.875 170.707 110.004C170.812 110.129 170.992 110.191 171.246 110.191C171.371 110.191 171.543 110.168 171.762 110.121V111C171.477 111.078 171.199 111.117 170.93 111.117C170.445 111.117 170.08 110.971 169.834 110.678C169.588 110.385 169.465 109.969 169.465 109.43V105.498H168.311V104.66H169.465V103.125H170.549ZM176.695 109.318C176.695 109.025 176.584 108.799 176.361 108.639C176.143 108.475 175.758 108.334 175.207 108.217C174.66 108.1 174.225 107.959 173.9 107.795C173.58 107.631 173.342 107.436 173.186 107.209C173.033 106.982 172.957 106.713 172.957 106.4C172.957 105.881 173.176 105.441 173.613 105.082C174.055 104.723 174.617 104.543 175.301 104.543C176.02 104.543 176.602 104.729 177.047 105.1C177.496 105.471 177.721 105.945 177.721 106.523H176.631C176.631 106.227 176.504 105.971 176.25 105.756C176 105.541 175.684 105.434 175.301 105.434C174.906 105.434 174.598 105.52 174.375 105.691C174.152 105.863 174.041 106.088 174.041 106.365C174.041 106.627 174.145 106.824 174.352 106.957C174.559 107.09 174.932 107.217 175.471 107.338C176.014 107.459 176.453 107.604 176.789 107.771C177.125 107.939 177.373 108.143 177.533 108.381C177.697 108.615 177.779 108.902 177.779 109.242C177.779 109.809 177.553 110.264 177.1 110.607C176.646 110.947 176.059 111.117 175.336 111.117C174.828 111.117 174.379 111.027 173.988 110.848C173.598 110.668 173.291 110.418 173.068 110.098C172.85 109.773 172.74 109.424 172.74 109.049H173.824C173.844 109.412 173.988 109.701 174.258 109.916C174.531 110.127 174.891 110.232 175.336 110.232C175.746 110.232 176.074 110.15 176.32 109.986C176.57 109.818 176.695 109.596 176.695 109.318ZM179.215 110.432C179.215 110.244 179.27 110.088 179.379 109.963C179.492 109.838 179.66 109.775 179.883 109.775C180.105 109.775 180.273 109.838 180.387 109.963C180.504 110.088 180.562 110.244 180.562 110.432C180.562 110.611 180.504 110.762 180.387 110.883C180.273 111.004 180.105 111.064 179.883 111.064C179.66 111.064 179.492 111.004 179.379 110.883C179.27 110.762 179.215 110.611 179.215 110.432Z" fill="#C9D1D9"/>
<rect x="0.5" y="0.5" width="255" height="127" rx="5.5" stroke="#30363D"/>
</svg>
